M48
; DRILL file {KiCad 5.1.5-52549c5~84~ubuntu18.04.1} date lun 06 gen 2020 23:59:54 GMT
; FORMAT={-:-/ absolute / metric / decimal}
; #@! TF.CreationDate,2020-01-06T23:59:54+00:00
; #@! TF.GenerationSoftware,Kicad,Pcbnew,5.1.5-52549c5~84~ubuntu18.04.1
; #@! TF.FileFunction,Plated,1,4,PTH
FMAT,2
METRIC
T1C0.300
T2C0.330
T3C0.400
T4C0.500
T5C1.000
T6C1.200
T7C1.780
T8C2.200
%
G90
G05
T1
X151.9Y-61.1
X151.9Y-88.6
X152.5Y-72.2
X153.6Y-70.1
X153.85Y-55.85
X153.85Y-56.85
X154.0Y-77.9
X154.3Y-60.2
X154.4Y-64.2
X154.85Y-55.85
X154.85Y-56.85
X155.3Y-65.8
X155.85Y-51.85
X155.85Y-52.85
X155.85Y-53.85
X155.85Y-54.85
X155.85Y-55.85
X155.85Y-56.85
X155.97Y-61.113
X156.439Y-80.916
X156.85Y-51.85
X156.85Y-52.85
X156.85Y-53.85
X156.85Y-54.85
X156.85Y-55.85
X156.85Y-56.85
X157.85Y-51.85
X157.85Y-52.85
X157.85Y-53.85
X157.85Y-54.85
X157.85Y-55.85
X157.85Y-56.85
X158.3Y-87.4
X158.328Y-72.993
X158.5Y-79.575
X158.7Y-88.25
X158.85Y-51.85
X158.85Y-52.85
X158.85Y-53.85
X158.85Y-54.85
X158.85Y-55.85
X158.85Y-56.85
X158.9Y-69.5
X159.025Y-83.414
X159.05Y-82.25
X159.1Y-77.0
X159.104Y-70.941
X159.25Y-86.3
X159.428Y-72.8
X159.45Y-57.7
X159.45Y-58.35
X159.55Y-59.1
X159.55Y-59.7
X159.55Y-60.3
X159.551Y-71.479
X159.6Y-74.5
X159.949Y-90.125
X160.4Y-89.8
X160.782Y-72.278
X161.0Y-78.0
X161.1Y-71.5
X161.2Y-69.5
X161.9Y-71.5
X162.338Y-58.637
X162.4Y-56.05
X162.4Y-64.6
X162.4Y-94.05
X162.7Y-54.15
X162.7Y-54.8
X162.7Y-55.45
X162.95Y-88.15
X163.05Y-56.05
X163.3Y-59.2
X163.32Y-92.62
X163.35Y-54.15
X163.35Y-54.8
X163.35Y-55.45
X163.592Y-89.65
X163.6Y-91.35
X163.65Y-60.3
X163.66Y-84.796
X163.7Y-64.6
X163.7Y-56.07
X164.217Y-60.319
X164.35Y-56.05
X165.0Y-56.05
X165.2Y-72.3
X165.678Y-96.73
X166.1Y-89.2
X166.2Y-60.57
X166.307Y-87.993
X166.5Y-89.9
X166.8Y-88.6
X166.98Y-56.37
X167.0Y-92.25
X167.04Y-80.519
X167.2Y-78.2
X167.376Y-87.25
X167.713Y-80.711
X168.596Y-96.45
X168.6Y-92.5
X168.7Y-80.035
X168.913Y-80.778
X169.515Y-66.685
X169.55Y-80.488
X170.4Y-68.5
X170.9Y-64.3
X171.409Y-95.032
X171.5Y-92.35
X171.6Y-68.5
X171.6Y-69.2
X171.6Y-69.9
X171.75Y-77.15
X172.262Y-76.523
X172.3Y-68.5
X172.3Y-69.2
X172.3Y-69.9
X172.3Y-70.6
X172.3Y-71.3
X172.3Y-72.0
X172.3Y-72.7
X172.597Y-95.447
X172.6Y-60.9
X172.614Y-60.2
X173.0Y-64.1
X173.0Y-64.8
X173.7Y-64.1
X173.7Y-64.8
X173.7Y-96.3
X173.9Y-62.3
X174.024Y-85.898
X174.15Y-87.6
X174.715Y-86.33
X174.779Y-82.38
X175.0Y-74.4
X175.0Y-89.3
X175.5Y-59.2
X175.5Y-75.6
X175.8Y-95.62
X177.0Y-55.2
X177.165Y-90.187
X177.2Y-77.9
X177.2Y-78.6
X177.2Y-79.4
X177.2Y-87.15
X177.4Y-85.9
X177.5Y-89.3
X177.9Y-77.9
X177.9Y-78.6
X177.9Y-79.4
X178.1Y-65.5
X178.1Y-66.2
X178.1Y-66.9
X178.433Y-89.215
X180.1Y-87.743
X180.2Y-64.4
X180.25Y-85.5
X180.3Y-62.3
X180.3Y-84.2
X180.4Y-83.1
X181.0Y-60.7
X181.0Y-60.7
X182.5Y-88.4
X182.6Y-85.5
X182.6Y-87.2
X182.7Y-59.7
X182.9Y-63.9
X182.9Y-64.6
X183.6Y-63.9
X183.6Y-64.6
X183.8Y-94.2
X184.1Y-59.1
X185.5Y-75.2
X185.7Y-87.0
X186.0Y-74.3
X186.9Y-92.2
X187.2Y-88.8
X187.9Y-76.65
X188.05Y-77.95
X188.05Y-78.65
X188.05Y-79.4
X188.1Y-64.9
X188.125Y-65.5
X188.125Y-66.2
X188.125Y-66.925
X188.21Y-84.585
X188.25Y-72.8
X188.75Y-77.95
X188.75Y-78.65
X188.75Y-79.4
X189.0Y-84.7
X189.2Y-70.1
X189.2Y-70.8
X189.2Y-71.5
X189.401Y-77.949
X189.45Y-78.6
X189.45Y-79.35
X189.73Y-82.025
X189.8Y-70.1
X189.8Y-70.8
X189.8Y-71.5
X190.373Y-80.815
X190.4Y-82.95
X190.6Y-91.2
X190.7Y-51.85
X190.7Y-52.85
X190.7Y-53.85
X190.7Y-54.85
X190.7Y-55.85
X190.7Y-56.85
X190.7Y-57.85
X191.7Y-51.85
X191.7Y-52.85
X191.7Y-53.85
X191.7Y-54.85
X191.7Y-55.85
X191.7Y-56.85
X191.7Y-57.85
X192.1Y-88.6
X192.15Y-74.2
X192.2Y-93.7
X192.3Y-66.9
X192.3Y-67.65
X192.3Y-68.4
X192.3Y-69.15
X192.3Y-69.9
X192.7Y-51.85
X192.7Y-52.85
X192.7Y-53.85
X192.7Y-54.85
X192.7Y-55.85
X192.7Y-56.85
X192.7Y-57.85
X193.05Y-66.9
X193.05Y-67.65
X193.05Y-68.45
X193.05Y-69.15
X193.05Y-69.9
X193.35Y-74.35
X193.55Y-85.0
X193.7Y-51.85
X193.7Y-52.85
X193.7Y-53.85
X193.7Y-54.85
X193.7Y-55.85
X193.7Y-56.85
X194.1Y-74.35
X194.3Y-85.0
X194.7Y-54.85
X194.7Y-55.85
X194.8Y-74.35
X195.05Y-85.0
X195.55Y-74.35
X195.7Y-55.85
X195.8Y-85.0
X196.3Y-74.35
X196.55Y-85.0
X196.7Y-55.85
X197.05Y-74.35
X197.25Y-85.0
X197.7Y-55.85
X197.8Y-74.35
X198.0Y-85.0
X198.7Y-55.85
T2
X184.2Y-69.15
X184.2Y-70.45
X185.5Y-69.15
X185.5Y-70.45
X186.8Y-69.15
X186.8Y-70.45
X174.3Y-69.15
X174.3Y-70.45
X175.6Y-69.15
X175.6Y-70.45
X176.9Y-69.15
X176.9Y-70.45
T3
X195.35Y-53.0
X195.833Y-51.833
X195.833Y-54.167
X197.0Y-51.35
X197.0Y-54.65
X198.167Y-51.833
X198.167Y-54.167
X198.65Y-53.0
X151.35Y-97.0
X151.833Y-95.833
X151.833Y-98.167
X153.0Y-95.35
X153.0Y-98.65
X154.167Y-95.833
X154.167Y-98.167
X154.65Y-97.0
X195.35Y-97.0
X195.833Y-95.833
X195.833Y-98.167
X197.0Y-95.35
X197.0Y-98.65
X198.167Y-95.833
X198.167Y-98.167
X198.65Y-97.0
X151.35Y-53.0
X151.833Y-51.833
X151.833Y-54.167
X153.0Y-51.35
X153.0Y-54.65
X154.167Y-51.833
X154.167Y-54.167
X154.65Y-53.0
T4
X155.1Y-88.3
X190.1Y-86.0
X164.8Y-70.4
X181.6Y-74.3
X187.4Y-85.6
X155.1Y-90.5
X167.65Y-89.55
X179.5Y-74.3
X175.15Y-80.25
X164.8Y-68.3
X188.8Y-91.6
X169.7Y-89.5
X175.7Y-77.2
X173.15Y-79.2
X173.6Y-77.2
X170.65Y-78.4
X177.3Y-80.9
X171.9Y-66.1
T5
X165.7Y-98.2
X168.24Y-98.2
X170.78Y-98.2
X173.32Y-98.2
T6
X181.3Y-51.8
X181.3Y-54.9
X183.8Y-51.8
X183.8Y-54.9
X186.3Y-51.8
X186.3Y-54.9
X188.8Y-51.8
X188.8Y-54.9
X194.9Y-58.0
X194.9Y-60.5
X194.9Y-63.0
X194.9Y-65.5
X198.0Y-58.0
X198.0Y-60.5
X198.0Y-63.0
X198.0Y-65.5
T7
X194.2Y-72.3
X194.2Y-82.22
X197.6Y-72.3
X197.6Y-82.22
T8
X197.0Y-53.0
X153.0Y-97.0
X197.0Y-97.0
X153.0Y-53.0
T0
M30
