G04 #@! TF.GenerationSoftware,KiCad,Pcbnew,5.1.6-c6e7f7d~87~ubuntu18.04.1*
G04 #@! TF.CreationDate,2020-08-09T22:43:26+01:00*
G04 #@! TF.ProjectId,simpleboard,73696d70-6c65-4626-9f61-72642e6b6963,rev?*
G04 #@! TF.SameCoordinates,Original*
G04 #@! TF.FileFunction,Soldermask,Bot*
G04 #@! TF.FilePolarity,Negative*
%FSLAX46Y46*%
G04 Gerber Fmt 4.6, Leading zero omitted, Abs format (unit mm)*
G04 Created by KiCad (PCBNEW 5.1.6-c6e7f7d~87~ubuntu18.04.1) date 2020-08-09 22:43:26*
%MOMM*%
%LPD*%
G01*
G04 APERTURE LIST*
%ADD10C,0.100000*%
G04 APERTURE END LIST*
D10*
G36*
X187350000Y-72800000D02*
G01*
X173500000Y-72800000D01*
X173500000Y-68400000D01*
X187350000Y-68400000D01*
X187350000Y-72800000D01*
G37*
X187350000Y-72800000D02*
X173500000Y-72800000D01*
X173500000Y-68400000D01*
X187350000Y-68400000D01*
X187350000Y-72800000D01*
G36*
X197275880Y-94759776D02*
G01*
X197656593Y-94835504D01*
X198066249Y-95005189D01*
X198434929Y-95251534D01*
X198748466Y-95565071D01*
X198994811Y-95933751D01*
X199164496Y-96343407D01*
X199251000Y-96778296D01*
X199251000Y-97221704D01*
X199164496Y-97656593D01*
X198994811Y-98066249D01*
X198748466Y-98434929D01*
X198434929Y-98748466D01*
X198066249Y-98994811D01*
X197656593Y-99164496D01*
X197275880Y-99240224D01*
X197221705Y-99251000D01*
X196778295Y-99251000D01*
X196724120Y-99240224D01*
X196343407Y-99164496D01*
X195933751Y-98994811D01*
X195565071Y-98748466D01*
X195251534Y-98434929D01*
X195005189Y-98066249D01*
X194835504Y-97656593D01*
X194749000Y-97221704D01*
X194749000Y-96778296D01*
X194835504Y-96343407D01*
X195005189Y-95933751D01*
X195251534Y-95565071D01*
X195565071Y-95251534D01*
X195933751Y-95005189D01*
X196343407Y-94835504D01*
X196724120Y-94759776D01*
X196778295Y-94749000D01*
X197221705Y-94749000D01*
X197275880Y-94759776D01*
G37*
G36*
X153275880Y-94759776D02*
G01*
X153656593Y-94835504D01*
X154066249Y-95005189D01*
X154434929Y-95251534D01*
X154748466Y-95565071D01*
X154994811Y-95933751D01*
X155164496Y-96343407D01*
X155251000Y-96778296D01*
X155251000Y-97221704D01*
X155164496Y-97656593D01*
X154994811Y-98066249D01*
X154748466Y-98434929D01*
X154434929Y-98748466D01*
X154066249Y-98994811D01*
X153656593Y-99164496D01*
X153275880Y-99240224D01*
X153221705Y-99251000D01*
X152778295Y-99251000D01*
X152724120Y-99240224D01*
X152343407Y-99164496D01*
X151933751Y-98994811D01*
X151565071Y-98748466D01*
X151251534Y-98434929D01*
X151005189Y-98066249D01*
X150835504Y-97656593D01*
X150749000Y-97221704D01*
X150749000Y-96778296D01*
X150835504Y-96343407D01*
X151005189Y-95933751D01*
X151251534Y-95565071D01*
X151565071Y-95251534D01*
X151933751Y-95005189D01*
X152343407Y-94835504D01*
X152724120Y-94759776D01*
X152778295Y-94749000D01*
X153221705Y-94749000D01*
X153275880Y-94759776D01*
G37*
G36*
X166601000Y-99101000D02*
G01*
X164799000Y-99101000D01*
X164799000Y-97299000D01*
X166601000Y-97299000D01*
X166601000Y-99101000D01*
G37*
G36*
X168353512Y-97303927D02*
G01*
X168502812Y-97333624D01*
X168666784Y-97401544D01*
X168814354Y-97500147D01*
X168939853Y-97625646D01*
X169038456Y-97773216D01*
X169106376Y-97937188D01*
X169141000Y-98111259D01*
X169141000Y-98288741D01*
X169106376Y-98462812D01*
X169038456Y-98626784D01*
X168939853Y-98774354D01*
X168814354Y-98899853D01*
X168666784Y-98998456D01*
X168502812Y-99066376D01*
X168353512Y-99096073D01*
X168328742Y-99101000D01*
X168151258Y-99101000D01*
X168126488Y-99096073D01*
X167977188Y-99066376D01*
X167813216Y-98998456D01*
X167665646Y-98899853D01*
X167540147Y-98774354D01*
X167441544Y-98626784D01*
X167373624Y-98462812D01*
X167339000Y-98288741D01*
X167339000Y-98111259D01*
X167373624Y-97937188D01*
X167441544Y-97773216D01*
X167540147Y-97625646D01*
X167665646Y-97500147D01*
X167813216Y-97401544D01*
X167977188Y-97333624D01*
X168126488Y-97303927D01*
X168151258Y-97299000D01*
X168328742Y-97299000D01*
X168353512Y-97303927D01*
G37*
G36*
X170893512Y-97303927D02*
G01*
X171042812Y-97333624D01*
X171206784Y-97401544D01*
X171354354Y-97500147D01*
X171479853Y-97625646D01*
X171578456Y-97773216D01*
X171646376Y-97937188D01*
X171681000Y-98111259D01*
X171681000Y-98288741D01*
X171646376Y-98462812D01*
X171578456Y-98626784D01*
X171479853Y-98774354D01*
X171354354Y-98899853D01*
X171206784Y-98998456D01*
X171042812Y-99066376D01*
X170893512Y-99096073D01*
X170868742Y-99101000D01*
X170691258Y-99101000D01*
X170666488Y-99096073D01*
X170517188Y-99066376D01*
X170353216Y-98998456D01*
X170205646Y-98899853D01*
X170080147Y-98774354D01*
X169981544Y-98626784D01*
X169913624Y-98462812D01*
X169879000Y-98288741D01*
X169879000Y-98111259D01*
X169913624Y-97937188D01*
X169981544Y-97773216D01*
X170080147Y-97625646D01*
X170205646Y-97500147D01*
X170353216Y-97401544D01*
X170517188Y-97333624D01*
X170666488Y-97303927D01*
X170691258Y-97299000D01*
X170868742Y-97299000D01*
X170893512Y-97303927D01*
G37*
G36*
X173433512Y-97303927D02*
G01*
X173582812Y-97333624D01*
X173746784Y-97401544D01*
X173894354Y-97500147D01*
X174019853Y-97625646D01*
X174118456Y-97773216D01*
X174186376Y-97937188D01*
X174221000Y-98111259D01*
X174221000Y-98288741D01*
X174186376Y-98462812D01*
X174118456Y-98626784D01*
X174019853Y-98774354D01*
X173894354Y-98899853D01*
X173746784Y-98998456D01*
X173582812Y-99066376D01*
X173433512Y-99096073D01*
X173408742Y-99101000D01*
X173231258Y-99101000D01*
X173206488Y-99096073D01*
X173057188Y-99066376D01*
X172893216Y-98998456D01*
X172745646Y-98899853D01*
X172620147Y-98774354D01*
X172521544Y-98626784D01*
X172453624Y-98462812D01*
X172419000Y-98288741D01*
X172419000Y-98111259D01*
X172453624Y-97937188D01*
X172521544Y-97773216D01*
X172620147Y-97625646D01*
X172745646Y-97500147D01*
X172893216Y-97401544D01*
X173057188Y-97333624D01*
X173206488Y-97303927D01*
X173231258Y-97299000D01*
X173408742Y-97299000D01*
X173433512Y-97303927D01*
G37*
G36*
X189335721Y-90570174D02*
G01*
X189435995Y-90611709D01*
X189435996Y-90611710D01*
X189526242Y-90672010D01*
X189602990Y-90748758D01*
X189602991Y-90748760D01*
X189663291Y-90839005D01*
X189704826Y-90939279D01*
X189726000Y-91045730D01*
X189726000Y-91154270D01*
X189704826Y-91260721D01*
X189663291Y-91360995D01*
X189663290Y-91360996D01*
X189602990Y-91451242D01*
X189526242Y-91527990D01*
X189480812Y-91558345D01*
X189435995Y-91588291D01*
X189335721Y-91629826D01*
X189229270Y-91651000D01*
X189120730Y-91651000D01*
X189014279Y-91629826D01*
X188914005Y-91588291D01*
X188869188Y-91558345D01*
X188823758Y-91527990D01*
X188747010Y-91451242D01*
X188686710Y-91360996D01*
X188686709Y-91360995D01*
X188645174Y-91260721D01*
X188624000Y-91154270D01*
X188624000Y-91045730D01*
X188645174Y-90939279D01*
X188686709Y-90839005D01*
X188747009Y-90748760D01*
X188747010Y-90748758D01*
X188823758Y-90672010D01*
X188914004Y-90611710D01*
X188914005Y-90611709D01*
X189014279Y-90570174D01*
X189120730Y-90549000D01*
X189229270Y-90549000D01*
X189335721Y-90570174D01*
G37*
G36*
X182422578Y-89104197D02*
G01*
X182475350Y-89114694D01*
X182574770Y-89155875D01*
X182664246Y-89215661D01*
X182740339Y-89291754D01*
X182800125Y-89381230D01*
X182841306Y-89480650D01*
X182862300Y-89586194D01*
X182862300Y-89693806D01*
X182841306Y-89799350D01*
X182800125Y-89898770D01*
X182740339Y-89988246D01*
X182664246Y-90064339D01*
X182574770Y-90124125D01*
X182475350Y-90165306D01*
X182422578Y-90175803D01*
X182369807Y-90186300D01*
X182262193Y-90186300D01*
X182209422Y-90175803D01*
X182156650Y-90165306D01*
X182057230Y-90124125D01*
X181967754Y-90064339D01*
X181891661Y-89988246D01*
X181831875Y-89898770D01*
X181790694Y-89799350D01*
X181769700Y-89693806D01*
X181769700Y-89586194D01*
X181790694Y-89480650D01*
X181831875Y-89381230D01*
X181891661Y-89291754D01*
X181967754Y-89215661D01*
X182057230Y-89155875D01*
X182156650Y-89114694D01*
X182209422Y-89104197D01*
X182262193Y-89093700D01*
X182369807Y-89093700D01*
X182422578Y-89104197D01*
G37*
G36*
X180390578Y-89104197D02*
G01*
X180443350Y-89114694D01*
X180542770Y-89155875D01*
X180632246Y-89215661D01*
X180708339Y-89291754D01*
X180768125Y-89381230D01*
X180809306Y-89480650D01*
X180830300Y-89586194D01*
X180830300Y-89693806D01*
X180809306Y-89799350D01*
X180768125Y-89898770D01*
X180708339Y-89988246D01*
X180632246Y-90064339D01*
X180542770Y-90124125D01*
X180443350Y-90165306D01*
X180390578Y-90175803D01*
X180337807Y-90186300D01*
X180230193Y-90186300D01*
X180177422Y-90175803D01*
X180124650Y-90165306D01*
X180025230Y-90124125D01*
X179935754Y-90064339D01*
X179859661Y-89988246D01*
X179799875Y-89898770D01*
X179758694Y-89799350D01*
X179737700Y-89693806D01*
X179737700Y-89586194D01*
X179758694Y-89480650D01*
X179799875Y-89381230D01*
X179859661Y-89291754D01*
X179935754Y-89215661D01*
X180025230Y-89155875D01*
X180124650Y-89114694D01*
X180177422Y-89104197D01*
X180230193Y-89093700D01*
X180337807Y-89093700D01*
X180390578Y-89104197D01*
G37*
G36*
X168201000Y-90101000D02*
G01*
X167099000Y-90101000D01*
X167099000Y-88999000D01*
X168201000Y-88999000D01*
X168201000Y-90101000D01*
G37*
G36*
X170251000Y-90051000D02*
G01*
X169149000Y-90051000D01*
X169149000Y-88949000D01*
X170251000Y-88949000D01*
X170251000Y-90051000D01*
G37*
G36*
X158676000Y-87626000D02*
G01*
X157574000Y-87626000D01*
X157574000Y-86524000D01*
X158676000Y-86524000D01*
X158676000Y-87626000D01*
G37*
G36*
X190651000Y-86551000D02*
G01*
X189549000Y-86551000D01*
X189549000Y-85449000D01*
X190651000Y-85449000D01*
X190651000Y-86551000D01*
G37*
G36*
X155542818Y-83807696D02*
G01*
X155656105Y-83842062D01*
X155760512Y-83897869D01*
X155852027Y-83972973D01*
X155927131Y-84064488D01*
X155982938Y-84168895D01*
X156017304Y-84282182D01*
X156026000Y-84370481D01*
X156026000Y-85129519D01*
X156017304Y-85217818D01*
X155982938Y-85331105D01*
X155927131Y-85435512D01*
X155927130Y-85435513D01*
X155852027Y-85527027D01*
X155776923Y-85588662D01*
X155760511Y-85602131D01*
X155656104Y-85657938D01*
X155542817Y-85692304D01*
X155425000Y-85703907D01*
X155307182Y-85692304D01*
X155193895Y-85657938D01*
X155089488Y-85602131D01*
X155075572Y-85590711D01*
X154997973Y-85527027D01*
X154922870Y-85435512D01*
X154922869Y-85435511D01*
X154867062Y-85331104D01*
X154832696Y-85217817D01*
X154824000Y-85129518D01*
X154824000Y-84370481D01*
X154832696Y-84282184D01*
X154854062Y-84211754D01*
X154867063Y-84168895D01*
X154922871Y-84064487D01*
X154997974Y-83972973D01*
X155089488Y-83897870D01*
X155089487Y-83897870D01*
X155089489Y-83897869D01*
X155193896Y-83842062D01*
X155307183Y-83807696D01*
X155425000Y-83796093D01*
X155542818Y-83807696D01*
G37*
G36*
X187376000Y-85476000D02*
G01*
X186274000Y-85476000D01*
X186274000Y-84374000D01*
X187376000Y-84374000D01*
X187376000Y-85476000D01*
G37*
G36*
X158676000Y-85476000D02*
G01*
X157574000Y-85476000D01*
X157574000Y-84374000D01*
X158676000Y-84374000D01*
X158676000Y-85476000D01*
G37*
G36*
X181406578Y-84024197D02*
G01*
X181459350Y-84034694D01*
X181558770Y-84075875D01*
X181648246Y-84135661D01*
X181724339Y-84211754D01*
X181784125Y-84301230D01*
X181825306Y-84400650D01*
X181846300Y-84506194D01*
X181846300Y-84613806D01*
X181825306Y-84719350D01*
X181784125Y-84818770D01*
X181724339Y-84908246D01*
X181648246Y-84984339D01*
X181558770Y-85044125D01*
X181459350Y-85085306D01*
X181406578Y-85095803D01*
X181353807Y-85106300D01*
X181246193Y-85106300D01*
X181193422Y-85095803D01*
X181140650Y-85085306D01*
X181041230Y-85044125D01*
X180951754Y-84984339D01*
X180875661Y-84908246D01*
X180815875Y-84818770D01*
X180774694Y-84719350D01*
X180753700Y-84613806D01*
X180753700Y-84506194D01*
X180774694Y-84400650D01*
X180815875Y-84301230D01*
X180875661Y-84211754D01*
X180951754Y-84135661D01*
X181041230Y-84075875D01*
X181140650Y-84034694D01*
X181193422Y-84024197D01*
X181246193Y-84013700D01*
X181353807Y-84013700D01*
X181406578Y-84024197D01*
G37*
G36*
X194427858Y-80796093D02*
G01*
X194620324Y-80834377D01*
X194728949Y-80879371D01*
X194882568Y-80943002D01*
X195118583Y-81100702D01*
X195319298Y-81301417D01*
X195476998Y-81537432D01*
X195540629Y-81691051D01*
X195585623Y-81799676D01*
X195593658Y-81840072D01*
X195641000Y-82078073D01*
X195641000Y-82361927D01*
X195585623Y-82640323D01*
X195476998Y-82902568D01*
X195319298Y-83138583D01*
X195118583Y-83339298D01*
X194882568Y-83496998D01*
X194728949Y-83560629D01*
X194620324Y-83605623D01*
X194481125Y-83633312D01*
X194341927Y-83661000D01*
X194058073Y-83661000D01*
X193918875Y-83633312D01*
X193779676Y-83605623D01*
X193671051Y-83560629D01*
X193517432Y-83496998D01*
X193281417Y-83339298D01*
X193080702Y-83138583D01*
X192923002Y-82902568D01*
X192814377Y-82640323D01*
X192759000Y-82361927D01*
X192759000Y-82078073D01*
X192806342Y-81840072D01*
X192814377Y-81799676D01*
X192859371Y-81691051D01*
X192923002Y-81537432D01*
X193080702Y-81301417D01*
X193281417Y-81100702D01*
X193517432Y-80943002D01*
X193671051Y-80879371D01*
X193779676Y-80834377D01*
X193972142Y-80796093D01*
X194058073Y-80779000D01*
X194341927Y-80779000D01*
X194427858Y-80796093D01*
G37*
G36*
X197827858Y-80796093D02*
G01*
X198020324Y-80834377D01*
X198128949Y-80879371D01*
X198282568Y-80943002D01*
X198518583Y-81100702D01*
X198719298Y-81301417D01*
X198876998Y-81537432D01*
X198940629Y-81691051D01*
X198985623Y-81799676D01*
X198993658Y-81840072D01*
X199041000Y-82078073D01*
X199041000Y-82361927D01*
X198985623Y-82640323D01*
X198876998Y-82902568D01*
X198719298Y-83138583D01*
X198518583Y-83339298D01*
X198282568Y-83496998D01*
X198128949Y-83560629D01*
X198020324Y-83605623D01*
X197881125Y-83633312D01*
X197741927Y-83661000D01*
X197458073Y-83661000D01*
X197318875Y-83633312D01*
X197179676Y-83605623D01*
X197071051Y-83560629D01*
X196917432Y-83496998D01*
X196681417Y-83339298D01*
X196480702Y-83138583D01*
X196323002Y-82902568D01*
X196214377Y-82640323D01*
X196159000Y-82361927D01*
X196159000Y-82078073D01*
X196206342Y-81840072D01*
X196214377Y-81799676D01*
X196259371Y-81691051D01*
X196323002Y-81537432D01*
X196480702Y-81301417D01*
X196681417Y-81100702D01*
X196917432Y-80943002D01*
X197071051Y-80879371D01*
X197179676Y-80834377D01*
X197372142Y-80796093D01*
X197458073Y-80779000D01*
X197741927Y-80779000D01*
X197827858Y-80796093D01*
G37*
G36*
X184309928Y-81751764D02*
G01*
X184331009Y-81758160D01*
X184350445Y-81768548D01*
X184367476Y-81782524D01*
X184381452Y-81799555D01*
X184391840Y-81818991D01*
X184398236Y-81840072D01*
X184401000Y-81868140D01*
X184401000Y-83281860D01*
X184398236Y-83309928D01*
X184391840Y-83331009D01*
X184381452Y-83350445D01*
X184367476Y-83367476D01*
X184350445Y-83381452D01*
X184331009Y-83391840D01*
X184309928Y-83398236D01*
X184281860Y-83401000D01*
X183818140Y-83401000D01*
X183790072Y-83398236D01*
X183768991Y-83391840D01*
X183749555Y-83381452D01*
X183732524Y-83367476D01*
X183718548Y-83350445D01*
X183708160Y-83331009D01*
X183701764Y-83309928D01*
X183699000Y-83281860D01*
X183699000Y-81868140D01*
X183701764Y-81840072D01*
X183708160Y-81818991D01*
X183718548Y-81799555D01*
X183732524Y-81782524D01*
X183749555Y-81768548D01*
X183768991Y-81758160D01*
X183790072Y-81751764D01*
X183818140Y-81749000D01*
X184281860Y-81749000D01*
X184309928Y-81751764D01*
G37*
G36*
X183309928Y-81751764D02*
G01*
X183331009Y-81758160D01*
X183350445Y-81768548D01*
X183367476Y-81782524D01*
X183381452Y-81799555D01*
X183391840Y-81818991D01*
X183398236Y-81840072D01*
X183401000Y-81868140D01*
X183401000Y-83281860D01*
X183398236Y-83309928D01*
X183391840Y-83331009D01*
X183381452Y-83350445D01*
X183367476Y-83367476D01*
X183350445Y-83381452D01*
X183331009Y-83391840D01*
X183309928Y-83398236D01*
X183281860Y-83401000D01*
X182818140Y-83401000D01*
X182790072Y-83398236D01*
X182768991Y-83391840D01*
X182749555Y-83381452D01*
X182732524Y-83367476D01*
X182718548Y-83350445D01*
X182708160Y-83331009D01*
X182701764Y-83309928D01*
X182699000Y-83281860D01*
X182699000Y-81868140D01*
X182701764Y-81840072D01*
X182708160Y-81818991D01*
X182718548Y-81799555D01*
X182732524Y-81782524D01*
X182749555Y-81768548D01*
X182768991Y-81758160D01*
X182790072Y-81751764D01*
X182818140Y-81749000D01*
X183281860Y-81749000D01*
X183309928Y-81751764D01*
G37*
G36*
X182309928Y-81751764D02*
G01*
X182331009Y-81758160D01*
X182350445Y-81768548D01*
X182367476Y-81782524D01*
X182381452Y-81799555D01*
X182391840Y-81818991D01*
X182398236Y-81840072D01*
X182401000Y-81868140D01*
X182401000Y-83281860D01*
X182398236Y-83309928D01*
X182391840Y-83331009D01*
X182381452Y-83350445D01*
X182367476Y-83367476D01*
X182350445Y-83381452D01*
X182331009Y-83391840D01*
X182309928Y-83398236D01*
X182281860Y-83401000D01*
X181818140Y-83401000D01*
X181790072Y-83398236D01*
X181768991Y-83391840D01*
X181749555Y-83381452D01*
X181732524Y-83367476D01*
X181718548Y-83350445D01*
X181708160Y-83331009D01*
X181701764Y-83309928D01*
X181699000Y-83281860D01*
X181699000Y-81868140D01*
X181701764Y-81840072D01*
X181708160Y-81818991D01*
X181718548Y-81799555D01*
X181732524Y-81782524D01*
X181749555Y-81768548D01*
X181768991Y-81758160D01*
X181790072Y-81751764D01*
X181818140Y-81749000D01*
X182281860Y-81749000D01*
X182309928Y-81751764D01*
G37*
G36*
X181309928Y-81751764D02*
G01*
X181331009Y-81758160D01*
X181350445Y-81768548D01*
X181367476Y-81782524D01*
X181381452Y-81799555D01*
X181391840Y-81818991D01*
X181398236Y-81840072D01*
X181401000Y-81868140D01*
X181401000Y-83281860D01*
X181398236Y-83309928D01*
X181391840Y-83331009D01*
X181381452Y-83350445D01*
X181367476Y-83367476D01*
X181350445Y-83381452D01*
X181331009Y-83391840D01*
X181309928Y-83398236D01*
X181281860Y-83401000D01*
X180818140Y-83401000D01*
X180790072Y-83398236D01*
X180768991Y-83391840D01*
X180749555Y-83381452D01*
X180732524Y-83367476D01*
X180718548Y-83350445D01*
X180708160Y-83331009D01*
X180701764Y-83309928D01*
X180699000Y-83281860D01*
X180699000Y-81868140D01*
X180701764Y-81840072D01*
X180708160Y-81818991D01*
X180718548Y-81799555D01*
X180732524Y-81782524D01*
X180749555Y-81768548D01*
X180768991Y-81758160D01*
X180790072Y-81751764D01*
X180818140Y-81749000D01*
X181281860Y-81749000D01*
X181309928Y-81751764D01*
G37*
G36*
X153392818Y-80807696D02*
G01*
X153506105Y-80842062D01*
X153610512Y-80897869D01*
X153702027Y-80972973D01*
X153777131Y-81064488D01*
X153832938Y-81168895D01*
X153867304Y-81282182D01*
X153876000Y-81370481D01*
X153876000Y-82529519D01*
X153867304Y-82617818D01*
X153832938Y-82731105D01*
X153777131Y-82835512D01*
X153777130Y-82835513D01*
X153702027Y-82927027D01*
X153626923Y-82988662D01*
X153610511Y-83002131D01*
X153506104Y-83057938D01*
X153392817Y-83092304D01*
X153275000Y-83103907D01*
X153157182Y-83092304D01*
X153043895Y-83057938D01*
X152939488Y-83002131D01*
X152925572Y-82990711D01*
X152847973Y-82927027D01*
X152772870Y-82835512D01*
X152772869Y-82835511D01*
X152717062Y-82731104D01*
X152682696Y-82617817D01*
X152674000Y-82529518D01*
X152674001Y-81370481D01*
X152682697Y-81282182D01*
X152717063Y-81168895D01*
X152772870Y-81064488D01*
X152847974Y-80972973D01*
X152939489Y-80897869D01*
X153043896Y-80842062D01*
X153157183Y-80807696D01*
X153275000Y-80796093D01*
X153392818Y-80807696D01*
G37*
G36*
X177851000Y-81451000D02*
G01*
X176749000Y-81451000D01*
X176749000Y-80349000D01*
X177851000Y-80349000D01*
X177851000Y-81451000D01*
G37*
G36*
X175701000Y-80801000D02*
G01*
X174599000Y-80801000D01*
X174599000Y-79699000D01*
X175701000Y-79699000D01*
X175701000Y-80801000D01*
G37*
G36*
X155542818Y-78207696D02*
G01*
X155656105Y-78242062D01*
X155760512Y-78297869D01*
X155852027Y-78372973D01*
X155927131Y-78464488D01*
X155982938Y-78568895D01*
X156017304Y-78682182D01*
X156026000Y-78770481D01*
X156026000Y-79529519D01*
X156017304Y-79617818D01*
X155982938Y-79731105D01*
X155927131Y-79835512D01*
X155927130Y-79835513D01*
X155852027Y-79927027D01*
X155776923Y-79988662D01*
X155760511Y-80002131D01*
X155656104Y-80057938D01*
X155542817Y-80092304D01*
X155425000Y-80103907D01*
X155307182Y-80092304D01*
X155193895Y-80057938D01*
X155089488Y-80002131D01*
X155075572Y-79990711D01*
X154997973Y-79927027D01*
X154922870Y-79835512D01*
X154922869Y-79835511D01*
X154867062Y-79731104D01*
X154832696Y-79617817D01*
X154824000Y-79529518D01*
X154824000Y-78770481D01*
X154832696Y-78682184D01*
X154852952Y-78615411D01*
X154867063Y-78568895D01*
X154922871Y-78464487D01*
X154997974Y-78372973D01*
X155089488Y-78297870D01*
X155089487Y-78297870D01*
X155089489Y-78297869D01*
X155193896Y-78242062D01*
X155307183Y-78207696D01*
X155425000Y-78196093D01*
X155542818Y-78207696D01*
G37*
G36*
X169111000Y-79851000D02*
G01*
X166709000Y-79851000D01*
X166709000Y-78249000D01*
X169111000Y-78249000D01*
X169111000Y-79851000D01*
G37*
G36*
X198288721Y-74931012D02*
G01*
X198301921Y-74935016D01*
X198314078Y-74941514D01*
X198324738Y-74950262D01*
X198333486Y-74960922D01*
X198339984Y-74973079D01*
X198343988Y-74986279D01*
X198345944Y-75006140D01*
X198345944Y-79693860D01*
X198343988Y-79713721D01*
X198339984Y-79726921D01*
X198333486Y-79739078D01*
X198324738Y-79749738D01*
X198314078Y-79758486D01*
X198301921Y-79764984D01*
X198288721Y-79768988D01*
X198268860Y-79770944D01*
X196731140Y-79770944D01*
X196711279Y-79768988D01*
X196698079Y-79764984D01*
X196685922Y-79758486D01*
X196675262Y-79749738D01*
X196666514Y-79739078D01*
X196660016Y-79726921D01*
X196656012Y-79713721D01*
X196654056Y-79693860D01*
X196654056Y-79645943D01*
X196651654Y-79621557D01*
X196644541Y-79598108D01*
X196632990Y-79576497D01*
X196617445Y-79557555D01*
X196598503Y-79542010D01*
X196576892Y-79530459D01*
X196553443Y-79523346D01*
X196529057Y-79520944D01*
X193656140Y-79520944D01*
X193636279Y-79518988D01*
X193623079Y-79514984D01*
X193610922Y-79508486D01*
X193600262Y-79499738D01*
X193591514Y-79489078D01*
X193585016Y-79476921D01*
X193581012Y-79463721D01*
X193579056Y-79443860D01*
X193579056Y-75256140D01*
X193581012Y-75236279D01*
X193585016Y-75223079D01*
X193591514Y-75210922D01*
X193600262Y-75200262D01*
X193610922Y-75191514D01*
X193623079Y-75185016D01*
X193636279Y-75181012D01*
X193656140Y-75179056D01*
X196529057Y-75179056D01*
X196553443Y-75176654D01*
X196576892Y-75169541D01*
X196598503Y-75157990D01*
X196617445Y-75142445D01*
X196632990Y-75123503D01*
X196644541Y-75101892D01*
X196651654Y-75078443D01*
X196654056Y-75054057D01*
X196654056Y-75006140D01*
X196656012Y-74986279D01*
X196660016Y-74973079D01*
X196666514Y-74960922D01*
X196675262Y-74950262D01*
X196685922Y-74941514D01*
X196698079Y-74935016D01*
X196711279Y-74931012D01*
X196731140Y-74929056D01*
X198268860Y-74929056D01*
X198288721Y-74931012D01*
G37*
G36*
X173701000Y-79751000D02*
G01*
X172599000Y-79751000D01*
X172599000Y-78649000D01*
X173701000Y-78649000D01*
X173701000Y-79751000D01*
G37*
G36*
X192675000Y-79680000D02*
G01*
X191385000Y-79680000D01*
X191385000Y-78840000D01*
X192675000Y-78840000D01*
X192675000Y-79680000D01*
G37*
G36*
X185841242Y-77753404D02*
G01*
X185878337Y-77764657D01*
X185912515Y-77782925D01*
X185942481Y-77807519D01*
X185967075Y-77837485D01*
X185985343Y-77871663D01*
X185996596Y-77908758D01*
X186001000Y-77953474D01*
X186001000Y-79446526D01*
X185996596Y-79491242D01*
X185985343Y-79528337D01*
X185967075Y-79562515D01*
X185942481Y-79592481D01*
X185912515Y-79617075D01*
X185878337Y-79635343D01*
X185841242Y-79646596D01*
X185796526Y-79651000D01*
X184903474Y-79651000D01*
X184858758Y-79646596D01*
X184821663Y-79635343D01*
X184787485Y-79617075D01*
X184757519Y-79592481D01*
X184732925Y-79562515D01*
X184714657Y-79528337D01*
X184703404Y-79491242D01*
X184699000Y-79446526D01*
X184699000Y-77953474D01*
X184703404Y-77908758D01*
X184714657Y-77871663D01*
X184732925Y-77837485D01*
X184757519Y-77807519D01*
X184787485Y-77782925D01*
X184821663Y-77764657D01*
X184858758Y-77753404D01*
X184903474Y-77749000D01*
X185796526Y-77749000D01*
X185841242Y-77753404D01*
G37*
G36*
X180241242Y-77753404D02*
G01*
X180278337Y-77764657D01*
X180312515Y-77782925D01*
X180342481Y-77807519D01*
X180367075Y-77837485D01*
X180385343Y-77871663D01*
X180396596Y-77908758D01*
X180401000Y-77953474D01*
X180401000Y-79446526D01*
X180396596Y-79491242D01*
X180385343Y-79528337D01*
X180367075Y-79562515D01*
X180342481Y-79592481D01*
X180312515Y-79617075D01*
X180278337Y-79635343D01*
X180241242Y-79646596D01*
X180196526Y-79651000D01*
X179303474Y-79651000D01*
X179258758Y-79646596D01*
X179221663Y-79635343D01*
X179187485Y-79617075D01*
X179157519Y-79592481D01*
X179132925Y-79562515D01*
X179114657Y-79528337D01*
X179103404Y-79491242D01*
X179099000Y-79446526D01*
X179099000Y-77953474D01*
X179103404Y-77908758D01*
X179114657Y-77871663D01*
X179132925Y-77837485D01*
X179157519Y-77807519D01*
X179187485Y-77782925D01*
X179221663Y-77764657D01*
X179258758Y-77753404D01*
X179303474Y-77749000D01*
X180196526Y-77749000D01*
X180241242Y-77753404D01*
G37*
G36*
X171201000Y-78951000D02*
G01*
X170099000Y-78951000D01*
X170099000Y-77849000D01*
X171201000Y-77849000D01*
X171201000Y-78951000D01*
G37*
G36*
X192675000Y-78410000D02*
G01*
X191385000Y-78410000D01*
X191385000Y-77570000D01*
X192675000Y-77570000D01*
X192675000Y-78410000D01*
G37*
G36*
X176251000Y-77751000D02*
G01*
X175149000Y-77751000D01*
X175149000Y-76649000D01*
X176251000Y-76649000D01*
X176251000Y-77751000D01*
G37*
G36*
X174151000Y-77751000D02*
G01*
X173049000Y-77751000D01*
X173049000Y-76649000D01*
X174151000Y-76649000D01*
X174151000Y-77751000D01*
G37*
G36*
X192675000Y-77130000D02*
G01*
X191385000Y-77130000D01*
X191385000Y-76290000D01*
X192675000Y-76290000D01*
X192675000Y-77130000D01*
G37*
G36*
X192675000Y-75860000D02*
G01*
X191385000Y-75860000D01*
X191385000Y-75020000D01*
X192675000Y-75020000D01*
X192675000Y-75860000D01*
G37*
G36*
X180051000Y-74851000D02*
G01*
X178949000Y-74851000D01*
X178949000Y-73749000D01*
X180051000Y-73749000D01*
X180051000Y-74851000D01*
G37*
G36*
X182151000Y-74851000D02*
G01*
X181049000Y-74851000D01*
X181049000Y-73749000D01*
X182151000Y-73749000D01*
X182151000Y-74851000D01*
G37*
G36*
X153662199Y-70349954D02*
G01*
X153674450Y-70350556D01*
X153692869Y-70350556D01*
X153715149Y-70352750D01*
X153799233Y-70369476D01*
X153820660Y-70375976D01*
X153899858Y-70408780D01*
X153905303Y-70411691D01*
X153905309Y-70411693D01*
X153914169Y-70416429D01*
X153914173Y-70416432D01*
X153919614Y-70419340D01*
X153990899Y-70466971D01*
X154008204Y-70481172D01*
X154068828Y-70541796D01*
X154083029Y-70559101D01*
X154130660Y-70630386D01*
X154133568Y-70635827D01*
X154133571Y-70635831D01*
X154138307Y-70644691D01*
X154138309Y-70644697D01*
X154141220Y-70650142D01*
X154174024Y-70729340D01*
X154180524Y-70750767D01*
X154197250Y-70834851D01*
X154199444Y-70857131D01*
X154199444Y-70875550D01*
X154200046Y-70887801D01*
X154201852Y-70906139D01*
X154201852Y-71443860D01*
X154200263Y-71459999D01*
X154195855Y-71474528D01*
X154190394Y-71487711D01*
X154185612Y-71511745D01*
X154185611Y-71536249D01*
X154190391Y-71560282D01*
X154199768Y-71582921D01*
X154201000Y-71584765D01*
X154201000Y-72816050D01*
X154194525Y-72828164D01*
X154187412Y-72851613D01*
X154185010Y-72875999D01*
X154187412Y-72900385D01*
X154194525Y-72923834D01*
X154196848Y-72928746D01*
X154200263Y-72940001D01*
X154201852Y-72956140D01*
X154201852Y-73493862D01*
X154200046Y-73512199D01*
X154199444Y-73524450D01*
X154199444Y-73542869D01*
X154197250Y-73565149D01*
X154180524Y-73649233D01*
X154174024Y-73670660D01*
X154141220Y-73749858D01*
X154138309Y-73755303D01*
X154138307Y-73755309D01*
X154133571Y-73764169D01*
X154133568Y-73764173D01*
X154130660Y-73769614D01*
X154083029Y-73840899D01*
X154068828Y-73858204D01*
X154008204Y-73918828D01*
X153990899Y-73933029D01*
X153919614Y-73980660D01*
X153914173Y-73983568D01*
X153914169Y-73983571D01*
X153905309Y-73988307D01*
X153905303Y-73988309D01*
X153899858Y-73991220D01*
X153820660Y-74024024D01*
X153799233Y-74030524D01*
X153715149Y-74047250D01*
X153692869Y-74049444D01*
X153674450Y-74049444D01*
X153662199Y-74050046D01*
X153643862Y-74051852D01*
X153156138Y-74051852D01*
X153137801Y-74050046D01*
X153125550Y-74049444D01*
X153107131Y-74049444D01*
X153084851Y-74047250D01*
X153000767Y-74030524D01*
X152979340Y-74024024D01*
X152900142Y-73991220D01*
X152894697Y-73988309D01*
X152894691Y-73988307D01*
X152885831Y-73983571D01*
X152885827Y-73983568D01*
X152880386Y-73980660D01*
X152809101Y-73933029D01*
X152791796Y-73918828D01*
X152731172Y-73858204D01*
X152716971Y-73840899D01*
X152669340Y-73769614D01*
X152666432Y-73764173D01*
X152666429Y-73764169D01*
X152661693Y-73755309D01*
X152661691Y-73755303D01*
X152658780Y-73749858D01*
X152625976Y-73670660D01*
X152619476Y-73649233D01*
X152602750Y-73565149D01*
X152600556Y-73542869D01*
X152600556Y-73524450D01*
X152599954Y-73512199D01*
X152598148Y-73493862D01*
X152598148Y-72956140D01*
X152599737Y-72940001D01*
X152604145Y-72925472D01*
X152609606Y-72912289D01*
X152614388Y-72888255D01*
X152614389Y-72863751D01*
X152609609Y-72839718D01*
X152600232Y-72817079D01*
X152599000Y-72815235D01*
X152599000Y-71583950D01*
X152605475Y-71571836D01*
X152612588Y-71548387D01*
X152614990Y-71524001D01*
X152612588Y-71499615D01*
X152605475Y-71476166D01*
X152603152Y-71471254D01*
X152599737Y-71459999D01*
X152598148Y-71443860D01*
X152598148Y-70906139D01*
X152599954Y-70887801D01*
X152600556Y-70875550D01*
X152600556Y-70857131D01*
X152602750Y-70834851D01*
X152619476Y-70750767D01*
X152625976Y-70729340D01*
X152658780Y-70650142D01*
X152661691Y-70644697D01*
X152661693Y-70644691D01*
X152666429Y-70635831D01*
X152666432Y-70635827D01*
X152669340Y-70630386D01*
X152716971Y-70559101D01*
X152731172Y-70541796D01*
X152791796Y-70481172D01*
X152809101Y-70466971D01*
X152880386Y-70419340D01*
X152885827Y-70416432D01*
X152885831Y-70416429D01*
X152894691Y-70411693D01*
X152894697Y-70411691D01*
X152900142Y-70408780D01*
X152979340Y-70375976D01*
X153000767Y-70369476D01*
X153084851Y-70352750D01*
X153107131Y-70350556D01*
X153125550Y-70350556D01*
X153137801Y-70349954D01*
X153156139Y-70348148D01*
X153643861Y-70348148D01*
X153662199Y-70349954D01*
G37*
G36*
X194474200Y-70885311D02*
G01*
X194620324Y-70914377D01*
X194728949Y-70959371D01*
X194882568Y-71023002D01*
X195118583Y-71180702D01*
X195319298Y-71381417D01*
X195476998Y-71617432D01*
X195540629Y-71771051D01*
X195585623Y-71879676D01*
X195641000Y-72158074D01*
X195641000Y-72441926D01*
X195585623Y-72720324D01*
X195546309Y-72815235D01*
X195476998Y-72982568D01*
X195319298Y-73218583D01*
X195118583Y-73419298D01*
X194882568Y-73576998D01*
X194728949Y-73640629D01*
X194620324Y-73685623D01*
X194481125Y-73713311D01*
X194341927Y-73741000D01*
X194058073Y-73741000D01*
X193918875Y-73713311D01*
X193779676Y-73685623D01*
X193671051Y-73640629D01*
X193517432Y-73576998D01*
X193281417Y-73419298D01*
X193080702Y-73218583D01*
X192923002Y-72982568D01*
X192853691Y-72815235D01*
X192814377Y-72720324D01*
X192759000Y-72441926D01*
X192759000Y-72158074D01*
X192814377Y-71879676D01*
X192859371Y-71771051D01*
X192923002Y-71617432D01*
X193080702Y-71381417D01*
X193281417Y-71180702D01*
X193517432Y-71023002D01*
X193671051Y-70959371D01*
X193779676Y-70914377D01*
X193925800Y-70885311D01*
X194058073Y-70859000D01*
X194341927Y-70859000D01*
X194474200Y-70885311D01*
G37*
G36*
X197874200Y-70885311D02*
G01*
X198020324Y-70914377D01*
X198128949Y-70959371D01*
X198282568Y-71023002D01*
X198518583Y-71180702D01*
X198719298Y-71381417D01*
X198876998Y-71617432D01*
X198940629Y-71771051D01*
X198985623Y-71879676D01*
X199041000Y-72158074D01*
X199041000Y-72441926D01*
X198985623Y-72720324D01*
X198946309Y-72815235D01*
X198876998Y-72982568D01*
X198719298Y-73218583D01*
X198518583Y-73419298D01*
X198282568Y-73576998D01*
X198128949Y-73640629D01*
X198020324Y-73685623D01*
X197881125Y-73713311D01*
X197741927Y-73741000D01*
X197458073Y-73741000D01*
X197318875Y-73713311D01*
X197179676Y-73685623D01*
X197071051Y-73640629D01*
X196917432Y-73576998D01*
X196681417Y-73419298D01*
X196480702Y-73218583D01*
X196323002Y-72982568D01*
X196253691Y-72815235D01*
X196214377Y-72720324D01*
X196159000Y-72441926D01*
X196159000Y-72158074D01*
X196214377Y-71879676D01*
X196259371Y-71771051D01*
X196323002Y-71617432D01*
X196480702Y-71381417D01*
X196681417Y-71180702D01*
X196917432Y-71023002D01*
X197071051Y-70959371D01*
X197179676Y-70914377D01*
X197325800Y-70885311D01*
X197458073Y-70859000D01*
X197741927Y-70859000D01*
X197874200Y-70885311D01*
G37*
G36*
X164301000Y-73476000D02*
G01*
X163199000Y-73476000D01*
X163199000Y-72374000D01*
X164301000Y-72374000D01*
X164301000Y-73476000D01*
G37*
G36*
X185612302Y-70079795D02*
G01*
X185682363Y-70108815D01*
X185745422Y-70150950D01*
X185799050Y-70204578D01*
X185841185Y-70267637D01*
X185870205Y-70337698D01*
X185885000Y-70412079D01*
X185885000Y-70487921D01*
X185870205Y-70562302D01*
X185841185Y-70632363D01*
X185799050Y-70695422D01*
X185745422Y-70749050D01*
X185682363Y-70791185D01*
X185612302Y-70820205D01*
X185537921Y-70835000D01*
X185462079Y-70835000D01*
X185387698Y-70820205D01*
X185317637Y-70791185D01*
X185254578Y-70749050D01*
X185200950Y-70695422D01*
X185158815Y-70632363D01*
X185129795Y-70562302D01*
X185115000Y-70487921D01*
X185115000Y-70412079D01*
X185129795Y-70337698D01*
X185158815Y-70267637D01*
X185200950Y-70204578D01*
X185254578Y-70150950D01*
X185317637Y-70108815D01*
X185387698Y-70079795D01*
X185462079Y-70065000D01*
X185537921Y-70065000D01*
X185612302Y-70079795D01*
G37*
G36*
X184312302Y-70079795D02*
G01*
X184382363Y-70108815D01*
X184445422Y-70150950D01*
X184499050Y-70204578D01*
X184541185Y-70267637D01*
X184570205Y-70337698D01*
X184585000Y-70412079D01*
X184585000Y-70487921D01*
X184570205Y-70562302D01*
X184541185Y-70632363D01*
X184499050Y-70695422D01*
X184445422Y-70749050D01*
X184382363Y-70791185D01*
X184312302Y-70820205D01*
X184237921Y-70835000D01*
X184162079Y-70835000D01*
X184087698Y-70820205D01*
X184017637Y-70791185D01*
X183954578Y-70749050D01*
X183900950Y-70695422D01*
X183858815Y-70632363D01*
X183829795Y-70562302D01*
X183815000Y-70487921D01*
X183815000Y-70412079D01*
X183829795Y-70337698D01*
X183858815Y-70267637D01*
X183900950Y-70204578D01*
X183954578Y-70150950D01*
X184017637Y-70108815D01*
X184087698Y-70079795D01*
X184162079Y-70065000D01*
X184237921Y-70065000D01*
X184312302Y-70079795D01*
G37*
G36*
X175712302Y-70079795D02*
G01*
X175782363Y-70108815D01*
X175845422Y-70150950D01*
X175899050Y-70204578D01*
X175941185Y-70267637D01*
X175970205Y-70337698D01*
X175985000Y-70412079D01*
X175985000Y-70487921D01*
X175970205Y-70562302D01*
X175941185Y-70632363D01*
X175899050Y-70695422D01*
X175845422Y-70749050D01*
X175782363Y-70791185D01*
X175712302Y-70820205D01*
X175637921Y-70835000D01*
X175562079Y-70835000D01*
X175487698Y-70820205D01*
X175417637Y-70791185D01*
X175354578Y-70749050D01*
X175300950Y-70695422D01*
X175258815Y-70632363D01*
X175229795Y-70562302D01*
X175215000Y-70487921D01*
X175215000Y-70412079D01*
X175229795Y-70337698D01*
X175258815Y-70267637D01*
X175300950Y-70204578D01*
X175354578Y-70150950D01*
X175417637Y-70108815D01*
X175487698Y-70079795D01*
X175562079Y-70065000D01*
X175637921Y-70065000D01*
X175712302Y-70079795D01*
G37*
G36*
X174412302Y-70079795D02*
G01*
X174482363Y-70108815D01*
X174545422Y-70150950D01*
X174599050Y-70204578D01*
X174641185Y-70267637D01*
X174670205Y-70337698D01*
X174685000Y-70412079D01*
X174685000Y-70487921D01*
X174670205Y-70562302D01*
X174641185Y-70632363D01*
X174599050Y-70695422D01*
X174545422Y-70749050D01*
X174482363Y-70791185D01*
X174412302Y-70820205D01*
X174337921Y-70835000D01*
X174262079Y-70835000D01*
X174187698Y-70820205D01*
X174117637Y-70791185D01*
X174054578Y-70749050D01*
X174000950Y-70695422D01*
X173958815Y-70632363D01*
X173929795Y-70562302D01*
X173915000Y-70487921D01*
X173915000Y-70412079D01*
X173929795Y-70337698D01*
X173958815Y-70267637D01*
X174000950Y-70204578D01*
X174054578Y-70150950D01*
X174117637Y-70108815D01*
X174187698Y-70079795D01*
X174262079Y-70065000D01*
X174337921Y-70065000D01*
X174412302Y-70079795D01*
G37*
G36*
X177012302Y-70079795D02*
G01*
X177082363Y-70108815D01*
X177145422Y-70150950D01*
X177199050Y-70204578D01*
X177241185Y-70267637D01*
X177270205Y-70337698D01*
X177285000Y-70412079D01*
X177285000Y-70487921D01*
X177270205Y-70562302D01*
X177241185Y-70632363D01*
X177199050Y-70695422D01*
X177145422Y-70749050D01*
X177082363Y-70791185D01*
X177012302Y-70820205D01*
X176937921Y-70835000D01*
X176862079Y-70835000D01*
X176787698Y-70820205D01*
X176717637Y-70791185D01*
X176654578Y-70749050D01*
X176600950Y-70695422D01*
X176558815Y-70632363D01*
X176529795Y-70562302D01*
X176515000Y-70487921D01*
X176515000Y-70412079D01*
X176529795Y-70337698D01*
X176558815Y-70267637D01*
X176600950Y-70204578D01*
X176654578Y-70150950D01*
X176717637Y-70108815D01*
X176787698Y-70079795D01*
X176862079Y-70065000D01*
X176937921Y-70065000D01*
X177012302Y-70079795D01*
G37*
G36*
X186912302Y-70079795D02*
G01*
X186982363Y-70108815D01*
X187045422Y-70150950D01*
X187099050Y-70204578D01*
X187141185Y-70267637D01*
X187170205Y-70337698D01*
X187185000Y-70412079D01*
X187185000Y-70487921D01*
X187170205Y-70562302D01*
X187141185Y-70632363D01*
X187099050Y-70695422D01*
X187045422Y-70749050D01*
X186982363Y-70791185D01*
X186912302Y-70820205D01*
X186837921Y-70835000D01*
X186762079Y-70835000D01*
X186687698Y-70820205D01*
X186617637Y-70791185D01*
X186554578Y-70749050D01*
X186500950Y-70695422D01*
X186458815Y-70632363D01*
X186429795Y-70562302D01*
X186415000Y-70487921D01*
X186415000Y-70412079D01*
X186429795Y-70337698D01*
X186458815Y-70267637D01*
X186500950Y-70204578D01*
X186554578Y-70150950D01*
X186617637Y-70108815D01*
X186687698Y-70079795D01*
X186762079Y-70065000D01*
X186837921Y-70065000D01*
X186912302Y-70079795D01*
G37*
G36*
X164351000Y-70326000D02*
G01*
X163249000Y-70326000D01*
X163249000Y-69224000D01*
X164351000Y-69224000D01*
X164351000Y-70326000D01*
G37*
G36*
X174412302Y-68779795D02*
G01*
X174482363Y-68808815D01*
X174545422Y-68850950D01*
X174599050Y-68904578D01*
X174641185Y-68967637D01*
X174670205Y-69037698D01*
X174685000Y-69112079D01*
X174685000Y-69187921D01*
X174670205Y-69262302D01*
X174641185Y-69332363D01*
X174599050Y-69395422D01*
X174545422Y-69449050D01*
X174482363Y-69491185D01*
X174412302Y-69520205D01*
X174337921Y-69535000D01*
X174262079Y-69535000D01*
X174187698Y-69520205D01*
X174117637Y-69491185D01*
X174054578Y-69449050D01*
X174000950Y-69395422D01*
X173958815Y-69332363D01*
X173929795Y-69262302D01*
X173915000Y-69187921D01*
X173915000Y-69112079D01*
X173929795Y-69037698D01*
X173958815Y-68967637D01*
X174000950Y-68904578D01*
X174054578Y-68850950D01*
X174117637Y-68808815D01*
X174187698Y-68779795D01*
X174262079Y-68765000D01*
X174337921Y-68765000D01*
X174412302Y-68779795D01*
G37*
G36*
X177012302Y-68779795D02*
G01*
X177082363Y-68808815D01*
X177145422Y-68850950D01*
X177199050Y-68904578D01*
X177241185Y-68967637D01*
X177270205Y-69037698D01*
X177285000Y-69112079D01*
X177285000Y-69187921D01*
X177270205Y-69262302D01*
X177241185Y-69332363D01*
X177199050Y-69395422D01*
X177145422Y-69449050D01*
X177082363Y-69491185D01*
X177012302Y-69520205D01*
X176937921Y-69535000D01*
X176862079Y-69535000D01*
X176787698Y-69520205D01*
X176717637Y-69491185D01*
X176654578Y-69449050D01*
X176600950Y-69395422D01*
X176558815Y-69332363D01*
X176529795Y-69262302D01*
X176515000Y-69187921D01*
X176515000Y-69112079D01*
X176529795Y-69037698D01*
X176558815Y-68967637D01*
X176600950Y-68904578D01*
X176654578Y-68850950D01*
X176717637Y-68808815D01*
X176787698Y-68779795D01*
X176862079Y-68765000D01*
X176937921Y-68765000D01*
X177012302Y-68779795D01*
G37*
G36*
X186912302Y-68779795D02*
G01*
X186982363Y-68808815D01*
X187045422Y-68850950D01*
X187099050Y-68904578D01*
X187141185Y-68967637D01*
X187170205Y-69037698D01*
X187185000Y-69112079D01*
X187185000Y-69187921D01*
X187170205Y-69262302D01*
X187141185Y-69332363D01*
X187099050Y-69395422D01*
X187045422Y-69449050D01*
X186982363Y-69491185D01*
X186912302Y-69520205D01*
X186837921Y-69535000D01*
X186762079Y-69535000D01*
X186687698Y-69520205D01*
X186617637Y-69491185D01*
X186554578Y-69449050D01*
X186500950Y-69395422D01*
X186458815Y-69332363D01*
X186429795Y-69262302D01*
X186415000Y-69187921D01*
X186415000Y-69112079D01*
X186429795Y-69037698D01*
X186458815Y-68967637D01*
X186500950Y-68904578D01*
X186554578Y-68850950D01*
X186617637Y-68808815D01*
X186687698Y-68779795D01*
X186762079Y-68765000D01*
X186837921Y-68765000D01*
X186912302Y-68779795D01*
G37*
G36*
X175712302Y-68779795D02*
G01*
X175782363Y-68808815D01*
X175845422Y-68850950D01*
X175899050Y-68904578D01*
X175941185Y-68967637D01*
X175970205Y-69037698D01*
X175985000Y-69112079D01*
X175985000Y-69187921D01*
X175970205Y-69262302D01*
X175941185Y-69332363D01*
X175899050Y-69395422D01*
X175845422Y-69449050D01*
X175782363Y-69491185D01*
X175712302Y-69520205D01*
X175637921Y-69535000D01*
X175562079Y-69535000D01*
X175487698Y-69520205D01*
X175417637Y-69491185D01*
X175354578Y-69449050D01*
X175300950Y-69395422D01*
X175258815Y-69332363D01*
X175229795Y-69262302D01*
X175215000Y-69187921D01*
X175215000Y-69112079D01*
X175229795Y-69037698D01*
X175258815Y-68967637D01*
X175300950Y-68904578D01*
X175354578Y-68850950D01*
X175417637Y-68808815D01*
X175487698Y-68779795D01*
X175562079Y-68765000D01*
X175637921Y-68765000D01*
X175712302Y-68779795D01*
G37*
G36*
X184312302Y-68779795D02*
G01*
X184382363Y-68808815D01*
X184445422Y-68850950D01*
X184499050Y-68904578D01*
X184541185Y-68967637D01*
X184570205Y-69037698D01*
X184585000Y-69112079D01*
X184585000Y-69187921D01*
X184570205Y-69262302D01*
X184541185Y-69332363D01*
X184499050Y-69395422D01*
X184445422Y-69449050D01*
X184382363Y-69491185D01*
X184312302Y-69520205D01*
X184237921Y-69535000D01*
X184162079Y-69535000D01*
X184087698Y-69520205D01*
X184017637Y-69491185D01*
X183954578Y-69449050D01*
X183900950Y-69395422D01*
X183858815Y-69332363D01*
X183829795Y-69262302D01*
X183815000Y-69187921D01*
X183815000Y-69112079D01*
X183829795Y-69037698D01*
X183858815Y-68967637D01*
X183900950Y-68904578D01*
X183954578Y-68850950D01*
X184017637Y-68808815D01*
X184087698Y-68779795D01*
X184162079Y-68765000D01*
X184237921Y-68765000D01*
X184312302Y-68779795D01*
G37*
G36*
X185612302Y-68779795D02*
G01*
X185682363Y-68808815D01*
X185745422Y-68850950D01*
X185799050Y-68904578D01*
X185841185Y-68967637D01*
X185870205Y-69037698D01*
X185885000Y-69112079D01*
X185885000Y-69187921D01*
X185870205Y-69262302D01*
X185841185Y-69332363D01*
X185799050Y-69395422D01*
X185745422Y-69449050D01*
X185682363Y-69491185D01*
X185612302Y-69520205D01*
X185537921Y-69535000D01*
X185462079Y-69535000D01*
X185387698Y-69520205D01*
X185317637Y-69491185D01*
X185254578Y-69449050D01*
X185200950Y-69395422D01*
X185158815Y-69332363D01*
X185129795Y-69262302D01*
X185115000Y-69187921D01*
X185115000Y-69112079D01*
X185129795Y-69037698D01*
X185158815Y-68967637D01*
X185200950Y-68904578D01*
X185254578Y-68850950D01*
X185317637Y-68808815D01*
X185387698Y-68779795D01*
X185462079Y-68765000D01*
X185537921Y-68765000D01*
X185612302Y-68779795D01*
G37*
G36*
X172451000Y-66651000D02*
G01*
X171349000Y-66651000D01*
X171349000Y-65549000D01*
X172451000Y-65549000D01*
X172451000Y-66651000D01*
G37*
G36*
X199051000Y-66551000D02*
G01*
X196949000Y-66551000D01*
X196949000Y-64449000D01*
X199051000Y-64449000D01*
X199051000Y-66551000D01*
G37*
G36*
X195951000Y-66551000D02*
G01*
X193849000Y-66551000D01*
X193849000Y-64449000D01*
X195951000Y-64449000D01*
X195951000Y-66551000D01*
G37*
G36*
X162562199Y-61324954D02*
G01*
X162574450Y-61325556D01*
X162592869Y-61325556D01*
X162615149Y-61327750D01*
X162699233Y-61344476D01*
X162720660Y-61350976D01*
X162799858Y-61383780D01*
X162805303Y-61386691D01*
X162805309Y-61386693D01*
X162814169Y-61391429D01*
X162814173Y-61391432D01*
X162819614Y-61394340D01*
X162890899Y-61441971D01*
X162908204Y-61456172D01*
X162968828Y-61516796D01*
X162983029Y-61534101D01*
X163030660Y-61605386D01*
X163033568Y-61610827D01*
X163033571Y-61610831D01*
X163038307Y-61619691D01*
X163038309Y-61619697D01*
X163041220Y-61625142D01*
X163074024Y-61704340D01*
X163080524Y-61725767D01*
X163097250Y-61809851D01*
X163099444Y-61832131D01*
X163099444Y-61850550D01*
X163100046Y-61862801D01*
X163101852Y-61881139D01*
X163101852Y-62418860D01*
X163100263Y-62434999D01*
X163095855Y-62449528D01*
X163090394Y-62462711D01*
X163085612Y-62486745D01*
X163085611Y-62511249D01*
X163090391Y-62535282D01*
X163099768Y-62557921D01*
X163101000Y-62559765D01*
X163101000Y-63791050D01*
X163094525Y-63803164D01*
X163087412Y-63826613D01*
X163085010Y-63850999D01*
X163087412Y-63875385D01*
X163094525Y-63898834D01*
X163096848Y-63903746D01*
X163100263Y-63915001D01*
X163101852Y-63931140D01*
X163101852Y-64468862D01*
X163100046Y-64487199D01*
X163099444Y-64499450D01*
X163099444Y-64517869D01*
X163097250Y-64540149D01*
X163080524Y-64624233D01*
X163074024Y-64645660D01*
X163041220Y-64724858D01*
X163038309Y-64730303D01*
X163038307Y-64730309D01*
X163033571Y-64739169D01*
X163033568Y-64739173D01*
X163030660Y-64744614D01*
X162983029Y-64815899D01*
X162968828Y-64833204D01*
X162908204Y-64893828D01*
X162890899Y-64908029D01*
X162819614Y-64955660D01*
X162814173Y-64958568D01*
X162814169Y-64958571D01*
X162805309Y-64963307D01*
X162805303Y-64963309D01*
X162799858Y-64966220D01*
X162720660Y-64999024D01*
X162699233Y-65005524D01*
X162615149Y-65022250D01*
X162592869Y-65024444D01*
X162574450Y-65024444D01*
X162562199Y-65025046D01*
X162543862Y-65026852D01*
X162056138Y-65026852D01*
X162037801Y-65025046D01*
X162025550Y-65024444D01*
X162007131Y-65024444D01*
X161984851Y-65022250D01*
X161900767Y-65005524D01*
X161879340Y-64999024D01*
X161800142Y-64966220D01*
X161794697Y-64963309D01*
X161794691Y-64963307D01*
X161785831Y-64958571D01*
X161785827Y-64958568D01*
X161780386Y-64955660D01*
X161709101Y-64908029D01*
X161691796Y-64893828D01*
X161631172Y-64833204D01*
X161616971Y-64815899D01*
X161569340Y-64744614D01*
X161566432Y-64739173D01*
X161566429Y-64739169D01*
X161561693Y-64730309D01*
X161561691Y-64730303D01*
X161558780Y-64724858D01*
X161525976Y-64645660D01*
X161519476Y-64624233D01*
X161502750Y-64540149D01*
X161500556Y-64517869D01*
X161500556Y-64499450D01*
X161499954Y-64487199D01*
X161498148Y-64468862D01*
X161498148Y-63931140D01*
X161499737Y-63915001D01*
X161504145Y-63900472D01*
X161509606Y-63887289D01*
X161514388Y-63863255D01*
X161514389Y-63838751D01*
X161509609Y-63814718D01*
X161500232Y-63792079D01*
X161499000Y-63790235D01*
X161499000Y-62558950D01*
X161505475Y-62546836D01*
X161512588Y-62523387D01*
X161514990Y-62499001D01*
X161512588Y-62474615D01*
X161505475Y-62451166D01*
X161503152Y-62446254D01*
X161499737Y-62434999D01*
X161498148Y-62418860D01*
X161498148Y-61881139D01*
X161499954Y-61862801D01*
X161500556Y-61850550D01*
X161500556Y-61832131D01*
X161502750Y-61809851D01*
X161519476Y-61725767D01*
X161525976Y-61704340D01*
X161558780Y-61625142D01*
X161561691Y-61619697D01*
X161561693Y-61619691D01*
X161566429Y-61610831D01*
X161566432Y-61610827D01*
X161569340Y-61605386D01*
X161616971Y-61534101D01*
X161631172Y-61516796D01*
X161691796Y-61456172D01*
X161709101Y-61441971D01*
X161780386Y-61394340D01*
X161785827Y-61391432D01*
X161785831Y-61391429D01*
X161794691Y-61386693D01*
X161794697Y-61386691D01*
X161800142Y-61383780D01*
X161879340Y-61350976D01*
X161900767Y-61344476D01*
X161984851Y-61327750D01*
X162007131Y-61325556D01*
X162025550Y-61325556D01*
X162037801Y-61324954D01*
X162056139Y-61323148D01*
X162543861Y-61323148D01*
X162562199Y-61324954D01*
G37*
G36*
X195206564Y-61989389D02*
G01*
X195397833Y-62068615D01*
X195397835Y-62068616D01*
X195569973Y-62183635D01*
X195716365Y-62330027D01*
X195821081Y-62486745D01*
X195831385Y-62502167D01*
X195910611Y-62693436D01*
X195951000Y-62896484D01*
X195951000Y-63103516D01*
X195910611Y-63306564D01*
X195831385Y-63497833D01*
X195831384Y-63497835D01*
X195716365Y-63669973D01*
X195569973Y-63816365D01*
X195397835Y-63931384D01*
X195397834Y-63931385D01*
X195397833Y-63931385D01*
X195206564Y-64010611D01*
X195003516Y-64051000D01*
X194796484Y-64051000D01*
X194593436Y-64010611D01*
X194402167Y-63931385D01*
X194402166Y-63931385D01*
X194402165Y-63931384D01*
X194230027Y-63816365D01*
X194083635Y-63669973D01*
X193968616Y-63497835D01*
X193968615Y-63497833D01*
X193889389Y-63306564D01*
X193849000Y-63103516D01*
X193849000Y-62896484D01*
X193889389Y-62693436D01*
X193968615Y-62502167D01*
X193978920Y-62486745D01*
X194083635Y-62330027D01*
X194230027Y-62183635D01*
X194402165Y-62068616D01*
X194402167Y-62068615D01*
X194593436Y-61989389D01*
X194796484Y-61949000D01*
X195003516Y-61949000D01*
X195206564Y-61989389D01*
G37*
G36*
X198306564Y-61989389D02*
G01*
X198497833Y-62068615D01*
X198497835Y-62068616D01*
X198669973Y-62183635D01*
X198816365Y-62330027D01*
X198921081Y-62486745D01*
X198931385Y-62502167D01*
X199010611Y-62693436D01*
X199051000Y-62896484D01*
X199051000Y-63103516D01*
X199010611Y-63306564D01*
X198931385Y-63497833D01*
X198931384Y-63497835D01*
X198816365Y-63669973D01*
X198669973Y-63816365D01*
X198497835Y-63931384D01*
X198497834Y-63931385D01*
X198497833Y-63931385D01*
X198306564Y-64010611D01*
X198103516Y-64051000D01*
X197896484Y-64051000D01*
X197693436Y-64010611D01*
X197502167Y-63931385D01*
X197502166Y-63931385D01*
X197502165Y-63931384D01*
X197330027Y-63816365D01*
X197183635Y-63669973D01*
X197068616Y-63497835D01*
X197068615Y-63497833D01*
X196989389Y-63306564D01*
X196949000Y-63103516D01*
X196949000Y-62896484D01*
X196989389Y-62693436D01*
X197068615Y-62502167D01*
X197078920Y-62486745D01*
X197183635Y-62330027D01*
X197330027Y-62183635D01*
X197502165Y-62068616D01*
X197502167Y-62068615D01*
X197693436Y-61989389D01*
X197896484Y-61949000D01*
X198103516Y-61949000D01*
X198306564Y-61989389D01*
G37*
G36*
X195206564Y-59489389D02*
G01*
X195397833Y-59568615D01*
X195397835Y-59568616D01*
X195569973Y-59683635D01*
X195716365Y-59830027D01*
X195831385Y-60002167D01*
X195910611Y-60193436D01*
X195951000Y-60396484D01*
X195951000Y-60603516D01*
X195910611Y-60806564D01*
X195831385Y-60997833D01*
X195831384Y-60997835D01*
X195716365Y-61169973D01*
X195569973Y-61316365D01*
X195397835Y-61431384D01*
X195397834Y-61431385D01*
X195397833Y-61431385D01*
X195206564Y-61510611D01*
X195003516Y-61551000D01*
X194796484Y-61551000D01*
X194593436Y-61510611D01*
X194402167Y-61431385D01*
X194402166Y-61431385D01*
X194402165Y-61431384D01*
X194230027Y-61316365D01*
X194083635Y-61169973D01*
X193968616Y-60997835D01*
X193968615Y-60997833D01*
X193889389Y-60806564D01*
X193849000Y-60603516D01*
X193849000Y-60396484D01*
X193889389Y-60193436D01*
X193968615Y-60002167D01*
X194083635Y-59830027D01*
X194230027Y-59683635D01*
X194402165Y-59568616D01*
X194402167Y-59568615D01*
X194593436Y-59489389D01*
X194796484Y-59449000D01*
X195003516Y-59449000D01*
X195206564Y-59489389D01*
G37*
G36*
X198306564Y-59489389D02*
G01*
X198497833Y-59568615D01*
X198497835Y-59568616D01*
X198669973Y-59683635D01*
X198816365Y-59830027D01*
X198931385Y-60002167D01*
X199010611Y-60193436D01*
X199051000Y-60396484D01*
X199051000Y-60603516D01*
X199010611Y-60806564D01*
X198931385Y-60997833D01*
X198931384Y-60997835D01*
X198816365Y-61169973D01*
X198669973Y-61316365D01*
X198497835Y-61431384D01*
X198497834Y-61431385D01*
X198497833Y-61431385D01*
X198306564Y-61510611D01*
X198103516Y-61551000D01*
X197896484Y-61551000D01*
X197693436Y-61510611D01*
X197502167Y-61431385D01*
X197502166Y-61431385D01*
X197502165Y-61431384D01*
X197330027Y-61316365D01*
X197183635Y-61169973D01*
X197068616Y-60997835D01*
X197068615Y-60997833D01*
X196989389Y-60806564D01*
X196949000Y-60603516D01*
X196949000Y-60396484D01*
X196989389Y-60193436D01*
X197068615Y-60002167D01*
X197183635Y-59830027D01*
X197330027Y-59683635D01*
X197502165Y-59568616D01*
X197502167Y-59568615D01*
X197693436Y-59489389D01*
X197896484Y-59449000D01*
X198103516Y-59449000D01*
X198306564Y-59489389D01*
G37*
G36*
X198306564Y-56989389D02*
G01*
X198468307Y-57056385D01*
X198497835Y-57068616D01*
X198598100Y-57135611D01*
X198669973Y-57183635D01*
X198816365Y-57330027D01*
X198931385Y-57502167D01*
X199010611Y-57693436D01*
X199051000Y-57896484D01*
X199051000Y-58103516D01*
X199010611Y-58306564D01*
X198931385Y-58497833D01*
X198931384Y-58497835D01*
X198816365Y-58669973D01*
X198669973Y-58816365D01*
X198497835Y-58931384D01*
X198497834Y-58931385D01*
X198497833Y-58931385D01*
X198306564Y-59010611D01*
X198103516Y-59051000D01*
X197896484Y-59051000D01*
X197693436Y-59010611D01*
X197502167Y-58931385D01*
X197502166Y-58931385D01*
X197502165Y-58931384D01*
X197330027Y-58816365D01*
X197183635Y-58669973D01*
X197068616Y-58497835D01*
X197068615Y-58497833D01*
X196989389Y-58306564D01*
X196949000Y-58103516D01*
X196949000Y-57896484D01*
X196989389Y-57693436D01*
X197068615Y-57502167D01*
X197183635Y-57330027D01*
X197330027Y-57183635D01*
X197401900Y-57135611D01*
X197502165Y-57068616D01*
X197531693Y-57056385D01*
X197693436Y-56989389D01*
X197896484Y-56949000D01*
X198103516Y-56949000D01*
X198306564Y-56989389D01*
G37*
G36*
X195206564Y-56989389D02*
G01*
X195368307Y-57056385D01*
X195397835Y-57068616D01*
X195498100Y-57135611D01*
X195569973Y-57183635D01*
X195716365Y-57330027D01*
X195831385Y-57502167D01*
X195910611Y-57693436D01*
X195951000Y-57896484D01*
X195951000Y-58103516D01*
X195910611Y-58306564D01*
X195831385Y-58497833D01*
X195831384Y-58497835D01*
X195716365Y-58669973D01*
X195569973Y-58816365D01*
X195397835Y-58931384D01*
X195397834Y-58931385D01*
X195397833Y-58931385D01*
X195206564Y-59010611D01*
X195003516Y-59051000D01*
X194796484Y-59051000D01*
X194593436Y-59010611D01*
X194402167Y-58931385D01*
X194402166Y-58931385D01*
X194402165Y-58931384D01*
X194230027Y-58816365D01*
X194083635Y-58669973D01*
X193968616Y-58497835D01*
X193968615Y-58497833D01*
X193889389Y-58306564D01*
X193849000Y-58103516D01*
X193849000Y-57896484D01*
X193889389Y-57693436D01*
X193968615Y-57502167D01*
X194083635Y-57330027D01*
X194230027Y-57183635D01*
X194301900Y-57135611D01*
X194402165Y-57068616D01*
X194431693Y-57056385D01*
X194593436Y-56989389D01*
X194796484Y-56949000D01*
X195003516Y-56949000D01*
X195206564Y-56989389D01*
G37*
G36*
X162656564Y-55139389D02*
G01*
X162847833Y-55218615D01*
X162847835Y-55218616D01*
X163019973Y-55333635D01*
X163166365Y-55480027D01*
X163264680Y-55627165D01*
X163281385Y-55652167D01*
X163360611Y-55843436D01*
X163401000Y-56046484D01*
X163401000Y-56253516D01*
X163360611Y-56456564D01*
X163291740Y-56622833D01*
X163281384Y-56647835D01*
X163166365Y-56819973D01*
X163019973Y-56966365D01*
X162847835Y-57081384D01*
X162847834Y-57081385D01*
X162847833Y-57081385D01*
X162656564Y-57160611D01*
X162453516Y-57201000D01*
X162246484Y-57201000D01*
X162043436Y-57160611D01*
X161852167Y-57081385D01*
X161852166Y-57081385D01*
X161852165Y-57081384D01*
X161680027Y-56966365D01*
X161533635Y-56819973D01*
X161418616Y-56647835D01*
X161408260Y-56622833D01*
X161339389Y-56456564D01*
X161299000Y-56253516D01*
X161299000Y-56046484D01*
X161339389Y-55843436D01*
X161418615Y-55652167D01*
X161435321Y-55627165D01*
X161533635Y-55480027D01*
X161680027Y-55333635D01*
X161852165Y-55218616D01*
X161852167Y-55218615D01*
X162043436Y-55139389D01*
X162246484Y-55099000D01*
X162453516Y-55099000D01*
X162656564Y-55139389D01*
G37*
G36*
X160901000Y-57201000D02*
G01*
X158799000Y-57201000D01*
X158799000Y-55099000D01*
X160901000Y-55099000D01*
X160901000Y-57201000D01*
G37*
G36*
X165156564Y-55139389D02*
G01*
X165347833Y-55218615D01*
X165347835Y-55218616D01*
X165519973Y-55333635D01*
X165666365Y-55480027D01*
X165764680Y-55627165D01*
X165781385Y-55652167D01*
X165860611Y-55843436D01*
X165901000Y-56046484D01*
X165901000Y-56253516D01*
X165860611Y-56456564D01*
X165791740Y-56622833D01*
X165781384Y-56647835D01*
X165666365Y-56819973D01*
X165519973Y-56966365D01*
X165347835Y-57081384D01*
X165347834Y-57081385D01*
X165347833Y-57081385D01*
X165156564Y-57160611D01*
X164953516Y-57201000D01*
X164746484Y-57201000D01*
X164543436Y-57160611D01*
X164352167Y-57081385D01*
X164352166Y-57081385D01*
X164352165Y-57081384D01*
X164180027Y-56966365D01*
X164033635Y-56819973D01*
X163918616Y-56647835D01*
X163908260Y-56622833D01*
X163839389Y-56456564D01*
X163799000Y-56253516D01*
X163799000Y-56046484D01*
X163839389Y-55843436D01*
X163918615Y-55652167D01*
X163935321Y-55627165D01*
X164033635Y-55480027D01*
X164180027Y-55333635D01*
X164352165Y-55218616D01*
X164352167Y-55218615D01*
X164543436Y-55139389D01*
X164746484Y-55099000D01*
X164953516Y-55099000D01*
X165156564Y-55139389D01*
G37*
G36*
X170156564Y-55139389D02*
G01*
X170347833Y-55218615D01*
X170347835Y-55218616D01*
X170519973Y-55333635D01*
X170666365Y-55480027D01*
X170764680Y-55627165D01*
X170781385Y-55652167D01*
X170860611Y-55843436D01*
X170901000Y-56046484D01*
X170901000Y-56253516D01*
X170860611Y-56456564D01*
X170791740Y-56622833D01*
X170781384Y-56647835D01*
X170666365Y-56819973D01*
X170519973Y-56966365D01*
X170347835Y-57081384D01*
X170347834Y-57081385D01*
X170347833Y-57081385D01*
X170156564Y-57160611D01*
X169953516Y-57201000D01*
X169746484Y-57201000D01*
X169543436Y-57160611D01*
X169352167Y-57081385D01*
X169352166Y-57081385D01*
X169352165Y-57081384D01*
X169180027Y-56966365D01*
X169033635Y-56819973D01*
X168918616Y-56647835D01*
X168908260Y-56622833D01*
X168839389Y-56456564D01*
X168799000Y-56253516D01*
X168799000Y-56046484D01*
X168839389Y-55843436D01*
X168918615Y-55652167D01*
X168935321Y-55627165D01*
X169033635Y-55480027D01*
X169180027Y-55333635D01*
X169352165Y-55218616D01*
X169352167Y-55218615D01*
X169543436Y-55139389D01*
X169746484Y-55099000D01*
X169953516Y-55099000D01*
X170156564Y-55139389D01*
G37*
G36*
X172656564Y-55139389D02*
G01*
X172847833Y-55218615D01*
X172847835Y-55218616D01*
X173019973Y-55333635D01*
X173166365Y-55480027D01*
X173264680Y-55627165D01*
X173281385Y-55652167D01*
X173360611Y-55843436D01*
X173401000Y-56046484D01*
X173401000Y-56253516D01*
X173360611Y-56456564D01*
X173291740Y-56622833D01*
X173281384Y-56647835D01*
X173166365Y-56819973D01*
X173019973Y-56966365D01*
X172847835Y-57081384D01*
X172847834Y-57081385D01*
X172847833Y-57081385D01*
X172656564Y-57160611D01*
X172453516Y-57201000D01*
X172246484Y-57201000D01*
X172043436Y-57160611D01*
X171852167Y-57081385D01*
X171852166Y-57081385D01*
X171852165Y-57081384D01*
X171680027Y-56966365D01*
X171533635Y-56819973D01*
X171418616Y-56647835D01*
X171408260Y-56622833D01*
X171339389Y-56456564D01*
X171299000Y-56253516D01*
X171299000Y-56046484D01*
X171339389Y-55843436D01*
X171418615Y-55652167D01*
X171435321Y-55627165D01*
X171533635Y-55480027D01*
X171680027Y-55333635D01*
X171852165Y-55218616D01*
X171852167Y-55218615D01*
X172043436Y-55139389D01*
X172246484Y-55099000D01*
X172453516Y-55099000D01*
X172656564Y-55139389D01*
G37*
G36*
X167656564Y-55139389D02*
G01*
X167847833Y-55218615D01*
X167847835Y-55218616D01*
X168019973Y-55333635D01*
X168166365Y-55480027D01*
X168264680Y-55627165D01*
X168281385Y-55652167D01*
X168360611Y-55843436D01*
X168401000Y-56046484D01*
X168401000Y-56253516D01*
X168360611Y-56456564D01*
X168291740Y-56622833D01*
X168281384Y-56647835D01*
X168166365Y-56819973D01*
X168019973Y-56966365D01*
X167847835Y-57081384D01*
X167847834Y-57081385D01*
X167847833Y-57081385D01*
X167656564Y-57160611D01*
X167453516Y-57201000D01*
X167246484Y-57201000D01*
X167043436Y-57160611D01*
X166852167Y-57081385D01*
X166852166Y-57081385D01*
X166852165Y-57081384D01*
X166680027Y-56966365D01*
X166533635Y-56819973D01*
X166418616Y-56647835D01*
X166408260Y-56622833D01*
X166339389Y-56456564D01*
X166299000Y-56253516D01*
X166299000Y-56046484D01*
X166339389Y-55843436D01*
X166418615Y-55652167D01*
X166435321Y-55627165D01*
X166533635Y-55480027D01*
X166680027Y-55333635D01*
X166852165Y-55218616D01*
X166852167Y-55218615D01*
X167043436Y-55139389D01*
X167246484Y-55099000D01*
X167453516Y-55099000D01*
X167656564Y-55139389D01*
G37*
G36*
X186281564Y-55114389D02*
G01*
X186402533Y-55164496D01*
X186472835Y-55193616D01*
X186510250Y-55218616D01*
X186644973Y-55308635D01*
X186791365Y-55455027D01*
X186906385Y-55627167D01*
X186985611Y-55818436D01*
X187026000Y-56021484D01*
X187026000Y-56228516D01*
X186985611Y-56431564D01*
X186975255Y-56456565D01*
X186906384Y-56622835D01*
X186791365Y-56794973D01*
X186644973Y-56941365D01*
X186472835Y-57056384D01*
X186472834Y-57056385D01*
X186472833Y-57056385D01*
X186281564Y-57135611D01*
X186078516Y-57176000D01*
X185871484Y-57176000D01*
X185668436Y-57135611D01*
X185477167Y-57056385D01*
X185477166Y-57056385D01*
X185477165Y-57056384D01*
X185305027Y-56941365D01*
X185158635Y-56794973D01*
X185043616Y-56622835D01*
X184974745Y-56456565D01*
X184964389Y-56431564D01*
X184924000Y-56228516D01*
X184924000Y-56021484D01*
X184964389Y-55818436D01*
X185043615Y-55627167D01*
X185158635Y-55455027D01*
X185305027Y-55308635D01*
X185439750Y-55218616D01*
X185477165Y-55193616D01*
X185547467Y-55164496D01*
X185668436Y-55114389D01*
X185871484Y-55074000D01*
X186078516Y-55074000D01*
X186281564Y-55114389D01*
G37*
G36*
X183781564Y-55114389D02*
G01*
X183902533Y-55164496D01*
X183972835Y-55193616D01*
X184010250Y-55218616D01*
X184144973Y-55308635D01*
X184291365Y-55455027D01*
X184406385Y-55627167D01*
X184485611Y-55818436D01*
X184526000Y-56021484D01*
X184526000Y-56228516D01*
X184485611Y-56431564D01*
X184475255Y-56456565D01*
X184406384Y-56622835D01*
X184291365Y-56794973D01*
X184144973Y-56941365D01*
X183972835Y-57056384D01*
X183972834Y-57056385D01*
X183972833Y-57056385D01*
X183781564Y-57135611D01*
X183578516Y-57176000D01*
X183371484Y-57176000D01*
X183168436Y-57135611D01*
X182977167Y-57056385D01*
X182977166Y-57056385D01*
X182977165Y-57056384D01*
X182805027Y-56941365D01*
X182658635Y-56794973D01*
X182543616Y-56622835D01*
X182474745Y-56456565D01*
X182464389Y-56431564D01*
X182424000Y-56228516D01*
X182424000Y-56021484D01*
X182464389Y-55818436D01*
X182543615Y-55627167D01*
X182658635Y-55455027D01*
X182805027Y-55308635D01*
X182939750Y-55218616D01*
X182977165Y-55193616D01*
X183047467Y-55164496D01*
X183168436Y-55114389D01*
X183371484Y-55074000D01*
X183578516Y-55074000D01*
X183781564Y-55114389D01*
G37*
G36*
X181281564Y-55114389D02*
G01*
X181402533Y-55164496D01*
X181472835Y-55193616D01*
X181510250Y-55218616D01*
X181644973Y-55308635D01*
X181791365Y-55455027D01*
X181906385Y-55627167D01*
X181985611Y-55818436D01*
X182026000Y-56021484D01*
X182026000Y-56228516D01*
X181985611Y-56431564D01*
X181975255Y-56456565D01*
X181906384Y-56622835D01*
X181791365Y-56794973D01*
X181644973Y-56941365D01*
X181472835Y-57056384D01*
X181472834Y-57056385D01*
X181472833Y-57056385D01*
X181281564Y-57135611D01*
X181078516Y-57176000D01*
X180871484Y-57176000D01*
X180668436Y-57135611D01*
X180477167Y-57056385D01*
X180477166Y-57056385D01*
X180477165Y-57056384D01*
X180305027Y-56941365D01*
X180158635Y-56794973D01*
X180043616Y-56622835D01*
X179974745Y-56456565D01*
X179964389Y-56431564D01*
X179924000Y-56228516D01*
X179924000Y-56021484D01*
X179964389Y-55818436D01*
X180043615Y-55627167D01*
X180158635Y-55455027D01*
X180305027Y-55308635D01*
X180439750Y-55218616D01*
X180477165Y-55193616D01*
X180547467Y-55164496D01*
X180668436Y-55114389D01*
X180871484Y-55074000D01*
X181078516Y-55074000D01*
X181281564Y-55114389D01*
G37*
G36*
X179526000Y-57176000D02*
G01*
X177424000Y-57176000D01*
X177424000Y-55074000D01*
X179526000Y-55074000D01*
X179526000Y-57176000D01*
G37*
G36*
X188781564Y-55114389D02*
G01*
X188902533Y-55164496D01*
X188972835Y-55193616D01*
X189010250Y-55218616D01*
X189144973Y-55308635D01*
X189291365Y-55455027D01*
X189406385Y-55627167D01*
X189485611Y-55818436D01*
X189526000Y-56021484D01*
X189526000Y-56228516D01*
X189485611Y-56431564D01*
X189475255Y-56456565D01*
X189406384Y-56622835D01*
X189291365Y-56794973D01*
X189144973Y-56941365D01*
X188972835Y-57056384D01*
X188972834Y-57056385D01*
X188972833Y-57056385D01*
X188781564Y-57135611D01*
X188578516Y-57176000D01*
X188371484Y-57176000D01*
X188168436Y-57135611D01*
X187977167Y-57056385D01*
X187977166Y-57056385D01*
X187977165Y-57056384D01*
X187805027Y-56941365D01*
X187658635Y-56794973D01*
X187543616Y-56622835D01*
X187474745Y-56456565D01*
X187464389Y-56431564D01*
X187424000Y-56228516D01*
X187424000Y-56021484D01*
X187464389Y-55818436D01*
X187543615Y-55627167D01*
X187658635Y-55455027D01*
X187805027Y-55308635D01*
X187939750Y-55218616D01*
X187977165Y-55193616D01*
X188047467Y-55164496D01*
X188168436Y-55114389D01*
X188371484Y-55074000D01*
X188578516Y-55074000D01*
X188781564Y-55114389D01*
G37*
G36*
X191281564Y-55114389D02*
G01*
X191402533Y-55164496D01*
X191472835Y-55193616D01*
X191510250Y-55218616D01*
X191644973Y-55308635D01*
X191791365Y-55455027D01*
X191906385Y-55627167D01*
X191985611Y-55818436D01*
X192026000Y-56021484D01*
X192026000Y-56228516D01*
X191985611Y-56431564D01*
X191975255Y-56456565D01*
X191906384Y-56622835D01*
X191791365Y-56794973D01*
X191644973Y-56941365D01*
X191472835Y-57056384D01*
X191472834Y-57056385D01*
X191472833Y-57056385D01*
X191281564Y-57135611D01*
X191078516Y-57176000D01*
X190871484Y-57176000D01*
X190668436Y-57135611D01*
X190477167Y-57056385D01*
X190477166Y-57056385D01*
X190477165Y-57056384D01*
X190305027Y-56941365D01*
X190158635Y-56794973D01*
X190043616Y-56622835D01*
X189974745Y-56456565D01*
X189964389Y-56431564D01*
X189924000Y-56228516D01*
X189924000Y-56021484D01*
X189964389Y-55818436D01*
X190043615Y-55627167D01*
X190158635Y-55455027D01*
X190305027Y-55308635D01*
X190439750Y-55218616D01*
X190477165Y-55193616D01*
X190547467Y-55164496D01*
X190668436Y-55114389D01*
X190871484Y-55074000D01*
X191078516Y-55074000D01*
X191281564Y-55114389D01*
G37*
G36*
X197275880Y-50759776D02*
G01*
X197656593Y-50835504D01*
X198066249Y-51005189D01*
X198434929Y-51251534D01*
X198748466Y-51565071D01*
X198994811Y-51933751D01*
X199164496Y-52343407D01*
X199251000Y-52778296D01*
X199251000Y-53221704D01*
X199164496Y-53656593D01*
X198994811Y-54066249D01*
X198748466Y-54434929D01*
X198434929Y-54748466D01*
X198066249Y-54994811D01*
X197656593Y-55164496D01*
X197275880Y-55240224D01*
X197221705Y-55251000D01*
X196778295Y-55251000D01*
X196724120Y-55240224D01*
X196343407Y-55164496D01*
X195933751Y-54994811D01*
X195565071Y-54748466D01*
X195251534Y-54434929D01*
X195005189Y-54066249D01*
X194835504Y-53656593D01*
X194749000Y-53221704D01*
X194749000Y-52778296D01*
X194835504Y-52343407D01*
X195005189Y-51933751D01*
X195251534Y-51565071D01*
X195565071Y-51251534D01*
X195933751Y-51005189D01*
X196343407Y-50835504D01*
X196724120Y-50759776D01*
X196778295Y-50749000D01*
X197221705Y-50749000D01*
X197275880Y-50759776D01*
G37*
G36*
X153275880Y-50759776D02*
G01*
X153656593Y-50835504D01*
X154066249Y-51005189D01*
X154434929Y-51251534D01*
X154748466Y-51565071D01*
X154994811Y-51933751D01*
X155164496Y-52343407D01*
X155251000Y-52778296D01*
X155251000Y-53221704D01*
X155164496Y-53656593D01*
X154994811Y-54066249D01*
X154748466Y-54434929D01*
X154434929Y-54748466D01*
X154066249Y-54994811D01*
X153656593Y-55164496D01*
X153275880Y-55240224D01*
X153221705Y-55251000D01*
X152778295Y-55251000D01*
X152724120Y-55240224D01*
X152343407Y-55164496D01*
X151933751Y-54994811D01*
X151565071Y-54748466D01*
X151251534Y-54434929D01*
X151005189Y-54066249D01*
X150835504Y-53656593D01*
X150749000Y-53221704D01*
X150749000Y-52778296D01*
X150835504Y-52343407D01*
X151005189Y-51933751D01*
X151251534Y-51565071D01*
X151565071Y-51251534D01*
X151933751Y-51005189D01*
X152343407Y-50835504D01*
X152724120Y-50759776D01*
X152778295Y-50749000D01*
X153221705Y-50749000D01*
X153275880Y-50759776D01*
G37*
G36*
X160901000Y-54101000D02*
G01*
X158799000Y-54101000D01*
X158799000Y-51999000D01*
X160901000Y-51999000D01*
X160901000Y-54101000D01*
G37*
G36*
X170156564Y-52039389D02*
G01*
X170347833Y-52118615D01*
X170347835Y-52118616D01*
X170519973Y-52233635D01*
X170666365Y-52380027D01*
X170764680Y-52527165D01*
X170781385Y-52552167D01*
X170860611Y-52743436D01*
X170901000Y-52946484D01*
X170901000Y-53153516D01*
X170860611Y-53356564D01*
X170848588Y-53385590D01*
X170781384Y-53547835D01*
X170666365Y-53719973D01*
X170519973Y-53866365D01*
X170347835Y-53981384D01*
X170347834Y-53981385D01*
X170347833Y-53981385D01*
X170156564Y-54060611D01*
X169953516Y-54101000D01*
X169746484Y-54101000D01*
X169543436Y-54060611D01*
X169352167Y-53981385D01*
X169352166Y-53981385D01*
X169352165Y-53981384D01*
X169180027Y-53866365D01*
X169033635Y-53719973D01*
X168918616Y-53547835D01*
X168851412Y-53385590D01*
X168839389Y-53356564D01*
X168799000Y-53153516D01*
X168799000Y-52946484D01*
X168839389Y-52743436D01*
X168918615Y-52552167D01*
X168935321Y-52527165D01*
X169033635Y-52380027D01*
X169180027Y-52233635D01*
X169352165Y-52118616D01*
X169352167Y-52118615D01*
X169543436Y-52039389D01*
X169746484Y-51999000D01*
X169953516Y-51999000D01*
X170156564Y-52039389D01*
G37*
G36*
X167656564Y-52039389D02*
G01*
X167847833Y-52118615D01*
X167847835Y-52118616D01*
X168019973Y-52233635D01*
X168166365Y-52380027D01*
X168264680Y-52527165D01*
X168281385Y-52552167D01*
X168360611Y-52743436D01*
X168401000Y-52946484D01*
X168401000Y-53153516D01*
X168360611Y-53356564D01*
X168348588Y-53385590D01*
X168281384Y-53547835D01*
X168166365Y-53719973D01*
X168019973Y-53866365D01*
X167847835Y-53981384D01*
X167847834Y-53981385D01*
X167847833Y-53981385D01*
X167656564Y-54060611D01*
X167453516Y-54101000D01*
X167246484Y-54101000D01*
X167043436Y-54060611D01*
X166852167Y-53981385D01*
X166852166Y-53981385D01*
X166852165Y-53981384D01*
X166680027Y-53866365D01*
X166533635Y-53719973D01*
X166418616Y-53547835D01*
X166351412Y-53385590D01*
X166339389Y-53356564D01*
X166299000Y-53153516D01*
X166299000Y-52946484D01*
X166339389Y-52743436D01*
X166418615Y-52552167D01*
X166435321Y-52527165D01*
X166533635Y-52380027D01*
X166680027Y-52233635D01*
X166852165Y-52118616D01*
X166852167Y-52118615D01*
X167043436Y-52039389D01*
X167246484Y-51999000D01*
X167453516Y-51999000D01*
X167656564Y-52039389D01*
G37*
G36*
X172656564Y-52039389D02*
G01*
X172847833Y-52118615D01*
X172847835Y-52118616D01*
X173019973Y-52233635D01*
X173166365Y-52380027D01*
X173264680Y-52527165D01*
X173281385Y-52552167D01*
X173360611Y-52743436D01*
X173401000Y-52946484D01*
X173401000Y-53153516D01*
X173360611Y-53356564D01*
X173348588Y-53385590D01*
X173281384Y-53547835D01*
X173166365Y-53719973D01*
X173019973Y-53866365D01*
X172847835Y-53981384D01*
X172847834Y-53981385D01*
X172847833Y-53981385D01*
X172656564Y-54060611D01*
X172453516Y-54101000D01*
X172246484Y-54101000D01*
X172043436Y-54060611D01*
X171852167Y-53981385D01*
X171852166Y-53981385D01*
X171852165Y-53981384D01*
X171680027Y-53866365D01*
X171533635Y-53719973D01*
X171418616Y-53547835D01*
X171351412Y-53385590D01*
X171339389Y-53356564D01*
X171299000Y-53153516D01*
X171299000Y-52946484D01*
X171339389Y-52743436D01*
X171418615Y-52552167D01*
X171435321Y-52527165D01*
X171533635Y-52380027D01*
X171680027Y-52233635D01*
X171852165Y-52118616D01*
X171852167Y-52118615D01*
X172043436Y-52039389D01*
X172246484Y-51999000D01*
X172453516Y-51999000D01*
X172656564Y-52039389D01*
G37*
G36*
X165156564Y-52039389D02*
G01*
X165347833Y-52118615D01*
X165347835Y-52118616D01*
X165519973Y-52233635D01*
X165666365Y-52380027D01*
X165764680Y-52527165D01*
X165781385Y-52552167D01*
X165860611Y-52743436D01*
X165901000Y-52946484D01*
X165901000Y-53153516D01*
X165860611Y-53356564D01*
X165848588Y-53385590D01*
X165781384Y-53547835D01*
X165666365Y-53719973D01*
X165519973Y-53866365D01*
X165347835Y-53981384D01*
X165347834Y-53981385D01*
X165347833Y-53981385D01*
X165156564Y-54060611D01*
X164953516Y-54101000D01*
X164746484Y-54101000D01*
X164543436Y-54060611D01*
X164352167Y-53981385D01*
X164352166Y-53981385D01*
X164352165Y-53981384D01*
X164180027Y-53866365D01*
X164033635Y-53719973D01*
X163918616Y-53547835D01*
X163851412Y-53385590D01*
X163839389Y-53356564D01*
X163799000Y-53153516D01*
X163799000Y-52946484D01*
X163839389Y-52743436D01*
X163918615Y-52552167D01*
X163935321Y-52527165D01*
X164033635Y-52380027D01*
X164180027Y-52233635D01*
X164352165Y-52118616D01*
X164352167Y-52118615D01*
X164543436Y-52039389D01*
X164746484Y-51999000D01*
X164953516Y-51999000D01*
X165156564Y-52039389D01*
G37*
G36*
X162656564Y-52039389D02*
G01*
X162847833Y-52118615D01*
X162847835Y-52118616D01*
X163019973Y-52233635D01*
X163166365Y-52380027D01*
X163264680Y-52527165D01*
X163281385Y-52552167D01*
X163360611Y-52743436D01*
X163401000Y-52946484D01*
X163401000Y-53153516D01*
X163360611Y-53356564D01*
X163348588Y-53385590D01*
X163281384Y-53547835D01*
X163166365Y-53719973D01*
X163019973Y-53866365D01*
X162847835Y-53981384D01*
X162847834Y-53981385D01*
X162847833Y-53981385D01*
X162656564Y-54060611D01*
X162453516Y-54101000D01*
X162246484Y-54101000D01*
X162043436Y-54060611D01*
X161852167Y-53981385D01*
X161852166Y-53981385D01*
X161852165Y-53981384D01*
X161680027Y-53866365D01*
X161533635Y-53719973D01*
X161418616Y-53547835D01*
X161351412Y-53385590D01*
X161339389Y-53356564D01*
X161299000Y-53153516D01*
X161299000Y-52946484D01*
X161339389Y-52743436D01*
X161418615Y-52552167D01*
X161435321Y-52527165D01*
X161533635Y-52380027D01*
X161680027Y-52233635D01*
X161852165Y-52118616D01*
X161852167Y-52118615D01*
X162043436Y-52039389D01*
X162246484Y-51999000D01*
X162453516Y-51999000D01*
X162656564Y-52039389D01*
G37*
G36*
X191281564Y-52014389D02*
G01*
X191461440Y-52088896D01*
X191472835Y-52093616D01*
X191510250Y-52118616D01*
X191644973Y-52208635D01*
X191791365Y-52355027D01*
X191906385Y-52527167D01*
X191985611Y-52718436D01*
X192026000Y-52921484D01*
X192026000Y-53128516D01*
X191985611Y-53331564D01*
X191906385Y-53522833D01*
X191906384Y-53522835D01*
X191791365Y-53694973D01*
X191644973Y-53841365D01*
X191472835Y-53956384D01*
X191472834Y-53956385D01*
X191472833Y-53956385D01*
X191281564Y-54035611D01*
X191078516Y-54076000D01*
X190871484Y-54076000D01*
X190668436Y-54035611D01*
X190477167Y-53956385D01*
X190477166Y-53956385D01*
X190477165Y-53956384D01*
X190305027Y-53841365D01*
X190158635Y-53694973D01*
X190043616Y-53522835D01*
X190043615Y-53522833D01*
X189964389Y-53331564D01*
X189924000Y-53128516D01*
X189924000Y-52921484D01*
X189964389Y-52718436D01*
X190043615Y-52527167D01*
X190158635Y-52355027D01*
X190305027Y-52208635D01*
X190439750Y-52118616D01*
X190477165Y-52093616D01*
X190488560Y-52088896D01*
X190668436Y-52014389D01*
X190871484Y-51974000D01*
X191078516Y-51974000D01*
X191281564Y-52014389D01*
G37*
G36*
X188781564Y-52014389D02*
G01*
X188961440Y-52088896D01*
X188972835Y-52093616D01*
X189010250Y-52118616D01*
X189144973Y-52208635D01*
X189291365Y-52355027D01*
X189406385Y-52527167D01*
X189485611Y-52718436D01*
X189526000Y-52921484D01*
X189526000Y-53128516D01*
X189485611Y-53331564D01*
X189406385Y-53522833D01*
X189406384Y-53522835D01*
X189291365Y-53694973D01*
X189144973Y-53841365D01*
X188972835Y-53956384D01*
X188972834Y-53956385D01*
X188972833Y-53956385D01*
X188781564Y-54035611D01*
X188578516Y-54076000D01*
X188371484Y-54076000D01*
X188168436Y-54035611D01*
X187977167Y-53956385D01*
X187977166Y-53956385D01*
X187977165Y-53956384D01*
X187805027Y-53841365D01*
X187658635Y-53694973D01*
X187543616Y-53522835D01*
X187543615Y-53522833D01*
X187464389Y-53331564D01*
X187424000Y-53128516D01*
X187424000Y-52921484D01*
X187464389Y-52718436D01*
X187543615Y-52527167D01*
X187658635Y-52355027D01*
X187805027Y-52208635D01*
X187939750Y-52118616D01*
X187977165Y-52093616D01*
X187988560Y-52088896D01*
X188168436Y-52014389D01*
X188371484Y-51974000D01*
X188578516Y-51974000D01*
X188781564Y-52014389D01*
G37*
G36*
X179526000Y-54076000D02*
G01*
X177424000Y-54076000D01*
X177424000Y-51974000D01*
X179526000Y-51974000D01*
X179526000Y-54076000D01*
G37*
G36*
X183781564Y-52014389D02*
G01*
X183961440Y-52088896D01*
X183972835Y-52093616D01*
X184010250Y-52118616D01*
X184144973Y-52208635D01*
X184291365Y-52355027D01*
X184406385Y-52527167D01*
X184485611Y-52718436D01*
X184526000Y-52921484D01*
X184526000Y-53128516D01*
X184485611Y-53331564D01*
X184406385Y-53522833D01*
X184406384Y-53522835D01*
X184291365Y-53694973D01*
X184144973Y-53841365D01*
X183972835Y-53956384D01*
X183972834Y-53956385D01*
X183972833Y-53956385D01*
X183781564Y-54035611D01*
X183578516Y-54076000D01*
X183371484Y-54076000D01*
X183168436Y-54035611D01*
X182977167Y-53956385D01*
X182977166Y-53956385D01*
X182977165Y-53956384D01*
X182805027Y-53841365D01*
X182658635Y-53694973D01*
X182543616Y-53522835D01*
X182543615Y-53522833D01*
X182464389Y-53331564D01*
X182424000Y-53128516D01*
X182424000Y-52921484D01*
X182464389Y-52718436D01*
X182543615Y-52527167D01*
X182658635Y-52355027D01*
X182805027Y-52208635D01*
X182939750Y-52118616D01*
X182977165Y-52093616D01*
X182988560Y-52088896D01*
X183168436Y-52014389D01*
X183371484Y-51974000D01*
X183578516Y-51974000D01*
X183781564Y-52014389D01*
G37*
G36*
X186281564Y-52014389D02*
G01*
X186461440Y-52088896D01*
X186472835Y-52093616D01*
X186510250Y-52118616D01*
X186644973Y-52208635D01*
X186791365Y-52355027D01*
X186906385Y-52527167D01*
X186985611Y-52718436D01*
X187026000Y-52921484D01*
X187026000Y-53128516D01*
X186985611Y-53331564D01*
X186906385Y-53522833D01*
X186906384Y-53522835D01*
X186791365Y-53694973D01*
X186644973Y-53841365D01*
X186472835Y-53956384D01*
X186472834Y-53956385D01*
X186472833Y-53956385D01*
X186281564Y-54035611D01*
X186078516Y-54076000D01*
X185871484Y-54076000D01*
X185668436Y-54035611D01*
X185477167Y-53956385D01*
X185477166Y-53956385D01*
X185477165Y-53956384D01*
X185305027Y-53841365D01*
X185158635Y-53694973D01*
X185043616Y-53522835D01*
X185043615Y-53522833D01*
X184964389Y-53331564D01*
X184924000Y-53128516D01*
X184924000Y-52921484D01*
X184964389Y-52718436D01*
X185043615Y-52527167D01*
X185158635Y-52355027D01*
X185305027Y-52208635D01*
X185439750Y-52118616D01*
X185477165Y-52093616D01*
X185488560Y-52088896D01*
X185668436Y-52014389D01*
X185871484Y-51974000D01*
X186078516Y-51974000D01*
X186281564Y-52014389D01*
G37*
G36*
X181281564Y-52014389D02*
G01*
X181461440Y-52088896D01*
X181472835Y-52093616D01*
X181510250Y-52118616D01*
X181644973Y-52208635D01*
X181791365Y-52355027D01*
X181906385Y-52527167D01*
X181985611Y-52718436D01*
X182026000Y-52921484D01*
X182026000Y-53128516D01*
X181985611Y-53331564D01*
X181906385Y-53522833D01*
X181906384Y-53522835D01*
X181791365Y-53694973D01*
X181644973Y-53841365D01*
X181472835Y-53956384D01*
X181472834Y-53956385D01*
X181472833Y-53956385D01*
X181281564Y-54035611D01*
X181078516Y-54076000D01*
X180871484Y-54076000D01*
X180668436Y-54035611D01*
X180477167Y-53956385D01*
X180477166Y-53956385D01*
X180477165Y-53956384D01*
X180305027Y-53841365D01*
X180158635Y-53694973D01*
X180043616Y-53522835D01*
X180043615Y-53522833D01*
X179964389Y-53331564D01*
X179924000Y-53128516D01*
X179924000Y-52921484D01*
X179964389Y-52718436D01*
X180043615Y-52527167D01*
X180158635Y-52355027D01*
X180305027Y-52208635D01*
X180439750Y-52118616D01*
X180477165Y-52093616D01*
X180488560Y-52088896D01*
X180668436Y-52014389D01*
X180871484Y-51974000D01*
X181078516Y-51974000D01*
X181281564Y-52014389D01*
G37*
M02*
