G04 #@! TF.GenerationSoftware,KiCad,Pcbnew,5.1.6-c6e7f7d~87~ubuntu18.04.1*
G04 #@! TF.CreationDate,2020-08-09T22:43:26+01:00*
G04 #@! TF.ProjectId,simpleboard,73696d70-6c65-4626-9f61-72642e6b6963,rev?*
G04 #@! TF.SameCoordinates,Original*
G04 #@! TF.FileFunction,Paste,Top*
G04 #@! TF.FilePolarity,Positive*
%FSLAX46Y46*%
G04 Gerber Fmt 4.6, Leading zero omitted, Abs format (unit mm)*
G04 Created by KiCad (PCBNEW 5.1.6-c6e7f7d~87~ubuntu18.04.1) date 2020-08-09 22:43:26*
%MOMM*%
%LPD*%
G01*
G04 APERTURE LIST*
%ADD10R,1.500000X0.450000*%
%ADD11R,1.000000X0.900000*%
%ADD12R,0.600000X0.250000*%
%ADD13R,0.250000X1.100000*%
%ADD14R,0.750000X1.100000*%
%ADD15R,0.250000X0.800000*%
%ADD16R,0.700000X0.250000*%
%ADD17R,1.100000X0.250000*%
%ADD18R,1.060000X0.650000*%
%ADD19R,0.500000X2.200000*%
%ADD20R,3.100000X2.400000*%
%ADD21R,0.400000X1.100000*%
%ADD22R,0.400000X1.060000*%
%ADD23R,1.000000X0.700000*%
%ADD24O,0.200000X0.500000*%
%ADD25R,1.200000X0.400000*%
%ADD26R,0.800000X0.900000*%
%ADD27R,1.900000X0.400000*%
G04 APERTURE END LIST*
G36*
G01*
X153100400Y-70300000D02*
X151799600Y-70300000D01*
G75*
G02*
X151550000Y-70050400I0J249600D01*
G01*
X151550000Y-69349600D01*
G75*
G02*
X151799600Y-69100000I249600J0D01*
G01*
X153100400Y-69100000D01*
G75*
G02*
X153350000Y-69349600I0J-249600D01*
G01*
X153350000Y-70050400D01*
G75*
G02*
X153100400Y-70300000I-249600J0D01*
G01*
G37*
G36*
G01*
X153100400Y-75900000D02*
X151799600Y-75900000D01*
G75*
G02*
X151550000Y-75650400I0J249600D01*
G01*
X151550000Y-74949600D01*
G75*
G02*
X151799600Y-74700000I249600J0D01*
G01*
X153100400Y-74700000D01*
G75*
G02*
X153350000Y-74949600I0J-249600D01*
G01*
X153350000Y-75650400D01*
G75*
G02*
X153100400Y-75900000I-249600J0D01*
G01*
G37*
G36*
G01*
X155600000Y-71300000D02*
X154350000Y-71300000D01*
G75*
G02*
X154200000Y-71150000I0J150000D01*
G01*
X154200000Y-70850000D01*
G75*
G02*
X154350000Y-70700000I150000J0D01*
G01*
X155600000Y-70700000D01*
G75*
G02*
X155750000Y-70850000I0J-150000D01*
G01*
X155750000Y-71150000D01*
G75*
G02*
X155600000Y-71300000I-150000J0D01*
G01*
G37*
G36*
G01*
X155600000Y-72300000D02*
X154350000Y-72300000D01*
G75*
G02*
X154200000Y-72150000I0J150000D01*
G01*
X154200000Y-71850000D01*
G75*
G02*
X154350000Y-71700000I150000J0D01*
G01*
X155600000Y-71700000D01*
G75*
G02*
X155750000Y-71850000I0J-150000D01*
G01*
X155750000Y-72150000D01*
G75*
G02*
X155600000Y-72300000I-150000J0D01*
G01*
G37*
G36*
G01*
X155600000Y-73300000D02*
X154350000Y-73300000D01*
G75*
G02*
X154200000Y-73150000I0J150000D01*
G01*
X154200000Y-72850000D01*
G75*
G02*
X154350000Y-72700000I150000J0D01*
G01*
X155600000Y-72700000D01*
G75*
G02*
X155750000Y-72850000I0J-150000D01*
G01*
X155750000Y-73150000D01*
G75*
G02*
X155600000Y-73300000I-150000J0D01*
G01*
G37*
G36*
G01*
X155600000Y-74300000D02*
X154350000Y-74300000D01*
G75*
G02*
X154200000Y-74150000I0J150000D01*
G01*
X154200000Y-73850000D01*
G75*
G02*
X154350000Y-73700000I150000J0D01*
G01*
X155600000Y-73700000D01*
G75*
G02*
X155750000Y-73850000I0J-150000D01*
G01*
X155750000Y-74150000D01*
G75*
G02*
X155600000Y-74300000I-150000J0D01*
G01*
G37*
G36*
G01*
X176472500Y-93610000D02*
X176127500Y-93610000D01*
G75*
G02*
X175980000Y-93462500I0J147500D01*
G01*
X175980000Y-93167500D01*
G75*
G02*
X176127500Y-93020000I147500J0D01*
G01*
X176472500Y-93020000D01*
G75*
G02*
X176620000Y-93167500I0J-147500D01*
G01*
X176620000Y-93462500D01*
G75*
G02*
X176472500Y-93610000I-147500J0D01*
G01*
G37*
G36*
G01*
X176472500Y-94580000D02*
X176127500Y-94580000D01*
G75*
G02*
X175980000Y-94432500I0J147500D01*
G01*
X175980000Y-94137500D01*
G75*
G02*
X176127500Y-93990000I147500J0D01*
G01*
X176472500Y-93990000D01*
G75*
G02*
X176620000Y-94137500I0J-147500D01*
G01*
X176620000Y-94432500D01*
G75*
G02*
X176472500Y-94580000I-147500J0D01*
G01*
G37*
D10*
X155175000Y-80650000D03*
X155175000Y-83250000D03*
X155175000Y-81300000D03*
X155175000Y-82600000D03*
X155175000Y-81950000D03*
G36*
G01*
X169702500Y-58815000D02*
X170047500Y-58815000D01*
G75*
G02*
X170195000Y-58962500I0J-147500D01*
G01*
X170195000Y-59257500D01*
G75*
G02*
X170047500Y-59405000I-147500J0D01*
G01*
X169702500Y-59405000D01*
G75*
G02*
X169555000Y-59257500I0J147500D01*
G01*
X169555000Y-58962500D01*
G75*
G02*
X169702500Y-58815000I147500J0D01*
G01*
G37*
G36*
G01*
X169702500Y-57845000D02*
X170047500Y-57845000D01*
G75*
G02*
X170195000Y-57992500I0J-147500D01*
G01*
X170195000Y-58287500D01*
G75*
G02*
X170047500Y-58435000I-147500J0D01*
G01*
X169702500Y-58435000D01*
G75*
G02*
X169555000Y-58287500I0J147500D01*
G01*
X169555000Y-57992500D01*
G75*
G02*
X169702500Y-57845000I147500J0D01*
G01*
G37*
G36*
G01*
X190177500Y-91940000D02*
X190522500Y-91940000D01*
G75*
G02*
X190670000Y-92087500I0J-147500D01*
G01*
X190670000Y-92382500D01*
G75*
G02*
X190522500Y-92530000I-147500J0D01*
G01*
X190177500Y-92530000D01*
G75*
G02*
X190030000Y-92382500I0J147500D01*
G01*
X190030000Y-92087500D01*
G75*
G02*
X190177500Y-91940000I147500J0D01*
G01*
G37*
G36*
G01*
X190177500Y-90970000D02*
X190522500Y-90970000D01*
G75*
G02*
X190670000Y-91117500I0J-147500D01*
G01*
X190670000Y-91412500D01*
G75*
G02*
X190522500Y-91560000I-147500J0D01*
G01*
X190177500Y-91560000D01*
G75*
G02*
X190030000Y-91412500I0J147500D01*
G01*
X190030000Y-91117500D01*
G75*
G02*
X190177500Y-90970000I147500J0D01*
G01*
G37*
G36*
G01*
X185950000Y-90243750D02*
X185950000Y-90756250D01*
G75*
G02*
X185731250Y-90975000I-218750J0D01*
G01*
X185293750Y-90975000D01*
G75*
G02*
X185075000Y-90756250I0J218750D01*
G01*
X185075000Y-90243750D01*
G75*
G02*
X185293750Y-90025000I218750J0D01*
G01*
X185731250Y-90025000D01*
G75*
G02*
X185950000Y-90243750I0J-218750D01*
G01*
G37*
G36*
G01*
X187525000Y-90243750D02*
X187525000Y-90756250D01*
G75*
G02*
X187306250Y-90975000I-218750J0D01*
G01*
X186868750Y-90975000D01*
G75*
G02*
X186650000Y-90756250I0J218750D01*
G01*
X186650000Y-90243750D01*
G75*
G02*
X186868750Y-90025000I218750J0D01*
G01*
X187306250Y-90025000D01*
G75*
G02*
X187525000Y-90243750I0J-218750D01*
G01*
G37*
G36*
G01*
X153847500Y-67335000D02*
X153502500Y-67335000D01*
G75*
G02*
X153355000Y-67187500I0J147500D01*
G01*
X153355000Y-66892500D01*
G75*
G02*
X153502500Y-66745000I147500J0D01*
G01*
X153847500Y-66745000D01*
G75*
G02*
X153995000Y-66892500I0J-147500D01*
G01*
X153995000Y-67187500D01*
G75*
G02*
X153847500Y-67335000I-147500J0D01*
G01*
G37*
G36*
G01*
X153847500Y-68305000D02*
X153502500Y-68305000D01*
G75*
G02*
X153355000Y-68157500I0J147500D01*
G01*
X153355000Y-67862500D01*
G75*
G02*
X153502500Y-67715000I147500J0D01*
G01*
X153847500Y-67715000D01*
G75*
G02*
X153995000Y-67862500I0J-147500D01*
G01*
X153995000Y-68157500D01*
G75*
G02*
X153847500Y-68305000I-147500J0D01*
G01*
G37*
G36*
G01*
X184631250Y-87000000D02*
X184118750Y-87000000D01*
G75*
G02*
X183900000Y-86781250I0J218750D01*
G01*
X183900000Y-86343750D01*
G75*
G02*
X184118750Y-86125000I218750J0D01*
G01*
X184631250Y-86125000D01*
G75*
G02*
X184850000Y-86343750I0J-218750D01*
G01*
X184850000Y-86781250D01*
G75*
G02*
X184631250Y-87000000I-218750J0D01*
G01*
G37*
G36*
G01*
X184631250Y-88575000D02*
X184118750Y-88575000D01*
G75*
G02*
X183900000Y-88356250I0J218750D01*
G01*
X183900000Y-87918750D01*
G75*
G02*
X184118750Y-87700000I218750J0D01*
G01*
X184631250Y-87700000D01*
G75*
G02*
X184850000Y-87918750I0J-218750D01*
G01*
X184850000Y-88356250D01*
G75*
G02*
X184631250Y-88575000I-218750J0D01*
G01*
G37*
G36*
G01*
X178756250Y-86625000D02*
X178243750Y-86625000D01*
G75*
G02*
X178025000Y-86406250I0J218750D01*
G01*
X178025000Y-85968750D01*
G75*
G02*
X178243750Y-85750000I218750J0D01*
G01*
X178756250Y-85750000D01*
G75*
G02*
X178975000Y-85968750I0J-218750D01*
G01*
X178975000Y-86406250D01*
G75*
G02*
X178756250Y-86625000I-218750J0D01*
G01*
G37*
G36*
G01*
X178756250Y-88200000D02*
X178243750Y-88200000D01*
G75*
G02*
X178025000Y-87981250I0J218750D01*
G01*
X178025000Y-87543750D01*
G75*
G02*
X178243750Y-87325000I218750J0D01*
G01*
X178756250Y-87325000D01*
G75*
G02*
X178975000Y-87543750I0J-218750D01*
G01*
X178975000Y-87981250D01*
G75*
G02*
X178756250Y-88200000I-218750J0D01*
G01*
G37*
G36*
G01*
X153318750Y-89025000D02*
X153831250Y-89025000D01*
G75*
G02*
X154050000Y-89243750I0J-218750D01*
G01*
X154050000Y-89681250D01*
G75*
G02*
X153831250Y-89900000I-218750J0D01*
G01*
X153318750Y-89900000D01*
G75*
G02*
X153100000Y-89681250I0J218750D01*
G01*
X153100000Y-89243750D01*
G75*
G02*
X153318750Y-89025000I218750J0D01*
G01*
G37*
G36*
G01*
X153318750Y-87450000D02*
X153831250Y-87450000D01*
G75*
G02*
X154050000Y-87668750I0J-218750D01*
G01*
X154050000Y-88106250D01*
G75*
G02*
X153831250Y-88325000I-218750J0D01*
G01*
X153318750Y-88325000D01*
G75*
G02*
X153100000Y-88106250I0J218750D01*
G01*
X153100000Y-87668750D01*
G75*
G02*
X153318750Y-87450000I218750J0D01*
G01*
G37*
G36*
G01*
X155143750Y-89050000D02*
X155656250Y-89050000D01*
G75*
G02*
X155875000Y-89268750I0J-218750D01*
G01*
X155875000Y-89706250D01*
G75*
G02*
X155656250Y-89925000I-218750J0D01*
G01*
X155143750Y-89925000D01*
G75*
G02*
X154925000Y-89706250I0J218750D01*
G01*
X154925000Y-89268750D01*
G75*
G02*
X155143750Y-89050000I218750J0D01*
G01*
G37*
G36*
G01*
X155143750Y-87475000D02*
X155656250Y-87475000D01*
G75*
G02*
X155875000Y-87693750I0J-218750D01*
G01*
X155875000Y-88131250D01*
G75*
G02*
X155656250Y-88350000I-218750J0D01*
G01*
X155143750Y-88350000D01*
G75*
G02*
X154925000Y-88131250I0J218750D01*
G01*
X154925000Y-87693750D01*
G75*
G02*
X155143750Y-87475000I218750J0D01*
G01*
G37*
G36*
G01*
X164250000Y-79056250D02*
X164250000Y-78543750D01*
G75*
G02*
X164468750Y-78325000I218750J0D01*
G01*
X164906250Y-78325000D01*
G75*
G02*
X165125000Y-78543750I0J-218750D01*
G01*
X165125000Y-79056250D01*
G75*
G02*
X164906250Y-79275000I-218750J0D01*
G01*
X164468750Y-79275000D01*
G75*
G02*
X164250000Y-79056250I0J218750D01*
G01*
G37*
G36*
G01*
X162675000Y-79056250D02*
X162675000Y-78543750D01*
G75*
G02*
X162893750Y-78325000I218750J0D01*
G01*
X163331250Y-78325000D01*
G75*
G02*
X163550000Y-78543750I0J-218750D01*
G01*
X163550000Y-79056250D01*
G75*
G02*
X163331250Y-79275000I-218750J0D01*
G01*
X162893750Y-79275000D01*
G75*
G02*
X162675000Y-79056250I0J218750D01*
G01*
G37*
G36*
G01*
X162093750Y-89100000D02*
X162606250Y-89100000D01*
G75*
G02*
X162825000Y-89318750I0J-218750D01*
G01*
X162825000Y-89756250D01*
G75*
G02*
X162606250Y-89975000I-218750J0D01*
G01*
X162093750Y-89975000D01*
G75*
G02*
X161875000Y-89756250I0J218750D01*
G01*
X161875000Y-89318750D01*
G75*
G02*
X162093750Y-89100000I218750J0D01*
G01*
G37*
G36*
G01*
X162093750Y-87525000D02*
X162606250Y-87525000D01*
G75*
G02*
X162825000Y-87743750I0J-218750D01*
G01*
X162825000Y-88181250D01*
G75*
G02*
X162606250Y-88400000I-218750J0D01*
G01*
X162093750Y-88400000D01*
G75*
G02*
X161875000Y-88181250I0J218750D01*
G01*
X161875000Y-87743750D01*
G75*
G02*
X162093750Y-87525000I218750J0D01*
G01*
G37*
G36*
G01*
X168227500Y-65540000D02*
X168572500Y-65540000D01*
G75*
G02*
X168720000Y-65687500I0J-147500D01*
G01*
X168720000Y-65982500D01*
G75*
G02*
X168572500Y-66130000I-147500J0D01*
G01*
X168227500Y-66130000D01*
G75*
G02*
X168080000Y-65982500I0J147500D01*
G01*
X168080000Y-65687500D01*
G75*
G02*
X168227500Y-65540000I147500J0D01*
G01*
G37*
G36*
G01*
X168227500Y-64570000D02*
X168572500Y-64570000D01*
G75*
G02*
X168720000Y-64717500I0J-147500D01*
G01*
X168720000Y-65012500D01*
G75*
G02*
X168572500Y-65160000I-147500J0D01*
G01*
X168227500Y-65160000D01*
G75*
G02*
X168080000Y-65012500I0J147500D01*
G01*
X168080000Y-64717500D01*
G75*
G02*
X168227500Y-64570000I147500J0D01*
G01*
G37*
G36*
G01*
X188647500Y-58710000D02*
X188302500Y-58710000D01*
G75*
G02*
X188155000Y-58562500I0J147500D01*
G01*
X188155000Y-58267500D01*
G75*
G02*
X188302500Y-58120000I147500J0D01*
G01*
X188647500Y-58120000D01*
G75*
G02*
X188795000Y-58267500I0J-147500D01*
G01*
X188795000Y-58562500D01*
G75*
G02*
X188647500Y-58710000I-147500J0D01*
G01*
G37*
G36*
G01*
X188647500Y-59680000D02*
X188302500Y-59680000D01*
G75*
G02*
X188155000Y-59532500I0J147500D01*
G01*
X188155000Y-59237500D01*
G75*
G02*
X188302500Y-59090000I147500J0D01*
G01*
X188647500Y-59090000D01*
G75*
G02*
X188795000Y-59237500I0J-147500D01*
G01*
X188795000Y-59532500D01*
G75*
G02*
X188647500Y-59680000I-147500J0D01*
G01*
G37*
G36*
G01*
X168172500Y-71510000D02*
X167827500Y-71510000D01*
G75*
G02*
X167680000Y-71362500I0J147500D01*
G01*
X167680000Y-71067500D01*
G75*
G02*
X167827500Y-70920000I147500J0D01*
G01*
X168172500Y-70920000D01*
G75*
G02*
X168320000Y-71067500I0J-147500D01*
G01*
X168320000Y-71362500D01*
G75*
G02*
X168172500Y-71510000I-147500J0D01*
G01*
G37*
G36*
G01*
X168172500Y-72480000D02*
X167827500Y-72480000D01*
G75*
G02*
X167680000Y-72332500I0J147500D01*
G01*
X167680000Y-72037500D01*
G75*
G02*
X167827500Y-71890000I147500J0D01*
G01*
X168172500Y-71890000D01*
G75*
G02*
X168320000Y-72037500I0J-147500D01*
G01*
X168320000Y-72332500D01*
G75*
G02*
X168172500Y-72480000I-147500J0D01*
G01*
G37*
G36*
G01*
X168172500Y-74010000D02*
X167827500Y-74010000D01*
G75*
G02*
X167680000Y-73862500I0J147500D01*
G01*
X167680000Y-73567500D01*
G75*
G02*
X167827500Y-73420000I147500J0D01*
G01*
X168172500Y-73420000D01*
G75*
G02*
X168320000Y-73567500I0J-147500D01*
G01*
X168320000Y-73862500D01*
G75*
G02*
X168172500Y-74010000I-147500J0D01*
G01*
G37*
G36*
G01*
X168172500Y-74980000D02*
X167827500Y-74980000D01*
G75*
G02*
X167680000Y-74832500I0J147500D01*
G01*
X167680000Y-74537500D01*
G75*
G02*
X167827500Y-74390000I147500J0D01*
G01*
X168172500Y-74390000D01*
G75*
G02*
X168320000Y-74537500I0J-147500D01*
G01*
X168320000Y-74832500D01*
G75*
G02*
X168172500Y-74980000I-147500J0D01*
G01*
G37*
D11*
X188400000Y-94250000D03*
X186800000Y-94250000D03*
X188400000Y-98350000D03*
X186800000Y-98350000D03*
G36*
G01*
X156315000Y-67422500D02*
X156315000Y-67077500D01*
G75*
G02*
X156462500Y-66930000I147500J0D01*
G01*
X156757500Y-66930000D01*
G75*
G02*
X156905000Y-67077500I0J-147500D01*
G01*
X156905000Y-67422500D01*
G75*
G02*
X156757500Y-67570000I-147500J0D01*
G01*
X156462500Y-67570000D01*
G75*
G02*
X156315000Y-67422500I0J147500D01*
G01*
G37*
G36*
G01*
X155345000Y-67422500D02*
X155345000Y-67077500D01*
G75*
G02*
X155492500Y-66930000I147500J0D01*
G01*
X155787500Y-66930000D01*
G75*
G02*
X155935000Y-67077500I0J-147500D01*
G01*
X155935000Y-67422500D01*
G75*
G02*
X155787500Y-67570000I-147500J0D01*
G01*
X155492500Y-67570000D01*
G75*
G02*
X155345000Y-67422500I0J147500D01*
G01*
G37*
G36*
G01*
X155935000Y-65877500D02*
X155935000Y-66222500D01*
G75*
G02*
X155787500Y-66370000I-147500J0D01*
G01*
X155492500Y-66370000D01*
G75*
G02*
X155345000Y-66222500I0J147500D01*
G01*
X155345000Y-65877500D01*
G75*
G02*
X155492500Y-65730000I147500J0D01*
G01*
X155787500Y-65730000D01*
G75*
G02*
X155935000Y-65877500I0J-147500D01*
G01*
G37*
G36*
G01*
X156905000Y-65877500D02*
X156905000Y-66222500D01*
G75*
G02*
X156757500Y-66370000I-147500J0D01*
G01*
X156462500Y-66370000D01*
G75*
G02*
X156315000Y-66222500I0J147500D01*
G01*
X156315000Y-65877500D01*
G75*
G02*
X156462500Y-65730000I147500J0D01*
G01*
X156757500Y-65730000D01*
G75*
G02*
X156905000Y-65877500I0J-147500D01*
G01*
G37*
D12*
X157745000Y-62770000D03*
X157745000Y-63470000D03*
D13*
X157395000Y-61870000D03*
D14*
X158945000Y-61870000D03*
D13*
X159545000Y-61870000D03*
D14*
X160145000Y-61870000D03*
X160145000Y-64370000D03*
D13*
X158045000Y-61870000D03*
D15*
X156745000Y-61720000D03*
D13*
X159545000Y-64370000D03*
D14*
X158945000Y-64370000D03*
D13*
X158045000Y-64370000D03*
X157395000Y-64370000D03*
D15*
X156745000Y-64520000D03*
D16*
X155845000Y-61870000D03*
X155845000Y-62370000D03*
D17*
X156045000Y-62870000D03*
X156045000Y-63370000D03*
D16*
X155845000Y-63870000D03*
X155845000Y-64370000D03*
G36*
G01*
X189556250Y-64050000D02*
X189043750Y-64050000D01*
G75*
G02*
X188825000Y-63831250I0J218750D01*
G01*
X188825000Y-63393750D01*
G75*
G02*
X189043750Y-63175000I218750J0D01*
G01*
X189556250Y-63175000D01*
G75*
G02*
X189775000Y-63393750I0J-218750D01*
G01*
X189775000Y-63831250D01*
G75*
G02*
X189556250Y-64050000I-218750J0D01*
G01*
G37*
G36*
G01*
X189556250Y-65625000D02*
X189043750Y-65625000D01*
G75*
G02*
X188825000Y-65406250I0J218750D01*
G01*
X188825000Y-64968750D01*
G75*
G02*
X189043750Y-64750000I218750J0D01*
G01*
X189556250Y-64750000D01*
G75*
G02*
X189775000Y-64968750I0J-218750D01*
G01*
X189775000Y-65406250D01*
G75*
G02*
X189556250Y-65625000I-218750J0D01*
G01*
G37*
D18*
X184175000Y-61400000D03*
X184175000Y-60450000D03*
X184175000Y-62350000D03*
X181975000Y-62350000D03*
X181975000Y-61400000D03*
X181975000Y-60450000D03*
X175675000Y-61500000D03*
X175675000Y-60550000D03*
X175675000Y-62450000D03*
X173475000Y-62450000D03*
X173475000Y-61500000D03*
X173475000Y-60550000D03*
D19*
X183595000Y-66925000D03*
X184865000Y-66925000D03*
X186135000Y-66925000D03*
X187405000Y-66925000D03*
X187405000Y-72675000D03*
X186135000Y-72675000D03*
X184865000Y-72675000D03*
X183595000Y-72675000D03*
D20*
X185500000Y-69800000D03*
D18*
X160900000Y-78650000D03*
X160900000Y-80550000D03*
X158700000Y-80550000D03*
X158700000Y-79600000D03*
X158700000Y-78650000D03*
D21*
X169625000Y-70750000D03*
X170275000Y-70750000D03*
X170925000Y-70750000D03*
X171575000Y-70750000D03*
X171575000Y-75050000D03*
X170925000Y-75050000D03*
X170275000Y-75050000D03*
X169625000Y-75050000D03*
D22*
X190380000Y-83700000D03*
X189730000Y-83700000D03*
X189070000Y-83700000D03*
X188420000Y-83700000D03*
X188420000Y-81500000D03*
X189070000Y-81500000D03*
X189730000Y-81500000D03*
X190380000Y-81500000D03*
D19*
X173695000Y-66925000D03*
X174965000Y-66925000D03*
X176235000Y-66925000D03*
X177505000Y-66925000D03*
X177505000Y-72675000D03*
X176235000Y-72675000D03*
X174965000Y-72675000D03*
X173695000Y-72675000D03*
D20*
X175600000Y-69800000D03*
G36*
G01*
X189852500Y-59040000D02*
X190197500Y-59040000D01*
G75*
G02*
X190345000Y-59187500I0J-147500D01*
G01*
X190345000Y-59482500D01*
G75*
G02*
X190197500Y-59630000I-147500J0D01*
G01*
X189852500Y-59630000D01*
G75*
G02*
X189705000Y-59482500I0J147500D01*
G01*
X189705000Y-59187500D01*
G75*
G02*
X189852500Y-59040000I147500J0D01*
G01*
G37*
G36*
G01*
X189852500Y-58070000D02*
X190197500Y-58070000D01*
G75*
G02*
X190345000Y-58217500I0J-147500D01*
G01*
X190345000Y-58512500D01*
G75*
G02*
X190197500Y-58660000I-147500J0D01*
G01*
X189852500Y-58660000D01*
G75*
G02*
X189705000Y-58512500I0J147500D01*
G01*
X189705000Y-58217500D01*
G75*
G02*
X189852500Y-58070000I147500J0D01*
G01*
G37*
G36*
G01*
X171660000Y-58627500D02*
X171660000Y-58972500D01*
G75*
G02*
X171512500Y-59120000I-147500J0D01*
G01*
X171217500Y-59120000D01*
G75*
G02*
X171070000Y-58972500I0J147500D01*
G01*
X171070000Y-58627500D01*
G75*
G02*
X171217500Y-58480000I147500J0D01*
G01*
X171512500Y-58480000D01*
G75*
G02*
X171660000Y-58627500I0J-147500D01*
G01*
G37*
G36*
G01*
X172630000Y-58627500D02*
X172630000Y-58972500D01*
G75*
G02*
X172482500Y-59120000I-147500J0D01*
G01*
X172187500Y-59120000D01*
G75*
G02*
X172040000Y-58972500I0J147500D01*
G01*
X172040000Y-58627500D01*
G75*
G02*
X172187500Y-58480000I147500J0D01*
G01*
X172482500Y-58480000D01*
G75*
G02*
X172630000Y-58627500I0J-147500D01*
G01*
G37*
G36*
G01*
X184235000Y-58552500D02*
X184235000Y-58897500D01*
G75*
G02*
X184087500Y-59045000I-147500J0D01*
G01*
X183792500Y-59045000D01*
G75*
G02*
X183645000Y-58897500I0J147500D01*
G01*
X183645000Y-58552500D01*
G75*
G02*
X183792500Y-58405000I147500J0D01*
G01*
X184087500Y-58405000D01*
G75*
G02*
X184235000Y-58552500I0J-147500D01*
G01*
G37*
G36*
G01*
X185205000Y-58552500D02*
X185205000Y-58897500D01*
G75*
G02*
X185057500Y-59045000I-147500J0D01*
G01*
X184762500Y-59045000D01*
G75*
G02*
X184615000Y-58897500I0J147500D01*
G01*
X184615000Y-58552500D01*
G75*
G02*
X184762500Y-58405000I147500J0D01*
G01*
X185057500Y-58405000D01*
G75*
G02*
X185205000Y-58552500I0J-147500D01*
G01*
G37*
G36*
G01*
X167127500Y-58815000D02*
X167472500Y-58815000D01*
G75*
G02*
X167620000Y-58962500I0J-147500D01*
G01*
X167620000Y-59257500D01*
G75*
G02*
X167472500Y-59405000I-147500J0D01*
G01*
X167127500Y-59405000D01*
G75*
G02*
X166980000Y-59257500I0J147500D01*
G01*
X166980000Y-58962500D01*
G75*
G02*
X167127500Y-58815000I147500J0D01*
G01*
G37*
G36*
G01*
X167127500Y-57845000D02*
X167472500Y-57845000D01*
G75*
G02*
X167620000Y-57992500I0J-147500D01*
G01*
X167620000Y-58287500D01*
G75*
G02*
X167472500Y-58435000I-147500J0D01*
G01*
X167127500Y-58435000D01*
G75*
G02*
X166980000Y-58287500I0J147500D01*
G01*
X166980000Y-57992500D01*
G75*
G02*
X167127500Y-57845000I147500J0D01*
G01*
G37*
G36*
G01*
X192772500Y-94010000D02*
X192427500Y-94010000D01*
G75*
G02*
X192280000Y-93862500I0J147500D01*
G01*
X192280000Y-93567500D01*
G75*
G02*
X192427500Y-93420000I147500J0D01*
G01*
X192772500Y-93420000D01*
G75*
G02*
X192920000Y-93567500I0J-147500D01*
G01*
X192920000Y-93862500D01*
G75*
G02*
X192772500Y-94010000I-147500J0D01*
G01*
G37*
G36*
G01*
X192772500Y-94980000D02*
X192427500Y-94980000D01*
G75*
G02*
X192280000Y-94832500I0J147500D01*
G01*
X192280000Y-94537500D01*
G75*
G02*
X192427500Y-94390000I147500J0D01*
G01*
X192772500Y-94390000D01*
G75*
G02*
X192920000Y-94537500I0J-147500D01*
G01*
X192920000Y-94832500D01*
G75*
G02*
X192772500Y-94980000I-147500J0D01*
G01*
G37*
G36*
G01*
X188925000Y-75625000D02*
X190175000Y-75625000D01*
G75*
G02*
X190425000Y-75875000I0J-250000D01*
G01*
X190425000Y-76625000D01*
G75*
G02*
X190175000Y-76875000I-250000J0D01*
G01*
X188925000Y-76875000D01*
G75*
G02*
X188675000Y-76625000I0J250000D01*
G01*
X188675000Y-75875000D01*
G75*
G02*
X188925000Y-75625000I250000J0D01*
G01*
G37*
G36*
G01*
X188925000Y-72825000D02*
X190175000Y-72825000D01*
G75*
G02*
X190425000Y-73075000I0J-250000D01*
G01*
X190425000Y-73825000D01*
G75*
G02*
X190175000Y-74075000I-250000J0D01*
G01*
X188925000Y-74075000D01*
G75*
G02*
X188675000Y-73825000I0J250000D01*
G01*
X188675000Y-73075000D01*
G75*
G02*
X188925000Y-72825000I250000J0D01*
G01*
G37*
G36*
G01*
X186010000Y-88527500D02*
X186010000Y-88872500D01*
G75*
G02*
X185862500Y-89020000I-147500J0D01*
G01*
X185567500Y-89020000D01*
G75*
G02*
X185420000Y-88872500I0J147500D01*
G01*
X185420000Y-88527500D01*
G75*
G02*
X185567500Y-88380000I147500J0D01*
G01*
X185862500Y-88380000D01*
G75*
G02*
X186010000Y-88527500I0J-147500D01*
G01*
G37*
G36*
G01*
X186980000Y-88527500D02*
X186980000Y-88872500D01*
G75*
G02*
X186832500Y-89020000I-147500J0D01*
G01*
X186537500Y-89020000D01*
G75*
G02*
X186390000Y-88872500I0J147500D01*
G01*
X186390000Y-88527500D01*
G75*
G02*
X186537500Y-88380000I147500J0D01*
G01*
X186832500Y-88380000D01*
G75*
G02*
X186980000Y-88527500I0J-147500D01*
G01*
G37*
G36*
G01*
X191327500Y-91890000D02*
X191672500Y-91890000D01*
G75*
G02*
X191820000Y-92037500I0J-147500D01*
G01*
X191820000Y-92332500D01*
G75*
G02*
X191672500Y-92480000I-147500J0D01*
G01*
X191327500Y-92480000D01*
G75*
G02*
X191180000Y-92332500I0J147500D01*
G01*
X191180000Y-92037500D01*
G75*
G02*
X191327500Y-91890000I147500J0D01*
G01*
G37*
G36*
G01*
X191327500Y-90920000D02*
X191672500Y-90920000D01*
G75*
G02*
X191820000Y-91067500I0J-147500D01*
G01*
X191820000Y-91362500D01*
G75*
G02*
X191672500Y-91510000I-147500J0D01*
G01*
X191327500Y-91510000D01*
G75*
G02*
X191180000Y-91362500I0J147500D01*
G01*
X191180000Y-91067500D01*
G75*
G02*
X191327500Y-90920000I147500J0D01*
G01*
G37*
G36*
G01*
X186010000Y-87327500D02*
X186010000Y-87672500D01*
G75*
G02*
X185862500Y-87820000I-147500J0D01*
G01*
X185567500Y-87820000D01*
G75*
G02*
X185420000Y-87672500I0J147500D01*
G01*
X185420000Y-87327500D01*
G75*
G02*
X185567500Y-87180000I147500J0D01*
G01*
X185862500Y-87180000D01*
G75*
G02*
X186010000Y-87327500I0J-147500D01*
G01*
G37*
G36*
G01*
X186980000Y-87327500D02*
X186980000Y-87672500D01*
G75*
G02*
X186832500Y-87820000I-147500J0D01*
G01*
X186537500Y-87820000D01*
G75*
G02*
X186390000Y-87672500I0J147500D01*
G01*
X186390000Y-87327500D01*
G75*
G02*
X186537500Y-87180000I147500J0D01*
G01*
X186832500Y-87180000D01*
G75*
G02*
X186980000Y-87327500I0J-147500D01*
G01*
G37*
G36*
G01*
X185818750Y-62000000D02*
X186731250Y-62000000D01*
G75*
G02*
X186975000Y-62243750I0J-243750D01*
G01*
X186975000Y-62731250D01*
G75*
G02*
X186731250Y-62975000I-243750J0D01*
G01*
X185818750Y-62975000D01*
G75*
G02*
X185575000Y-62731250I0J243750D01*
G01*
X185575000Y-62243750D01*
G75*
G02*
X185818750Y-62000000I243750J0D01*
G01*
G37*
G36*
G01*
X185818750Y-60125000D02*
X186731250Y-60125000D01*
G75*
G02*
X186975000Y-60368750I0J-243750D01*
G01*
X186975000Y-60856250D01*
G75*
G02*
X186731250Y-61100000I-243750J0D01*
G01*
X185818750Y-61100000D01*
G75*
G02*
X185575000Y-60856250I0J243750D01*
G01*
X185575000Y-60368750D01*
G75*
G02*
X185818750Y-60125000I243750J0D01*
G01*
G37*
G36*
G01*
X177518750Y-61650000D02*
X178431250Y-61650000D01*
G75*
G02*
X178675000Y-61893750I0J-243750D01*
G01*
X178675000Y-62381250D01*
G75*
G02*
X178431250Y-62625000I-243750J0D01*
G01*
X177518750Y-62625000D01*
G75*
G02*
X177275000Y-62381250I0J243750D01*
G01*
X177275000Y-61893750D01*
G75*
G02*
X177518750Y-61650000I243750J0D01*
G01*
G37*
G36*
G01*
X177518750Y-59775000D02*
X178431250Y-59775000D01*
G75*
G02*
X178675000Y-60018750I0J-243750D01*
G01*
X178675000Y-60506250D01*
G75*
G02*
X178431250Y-60750000I-243750J0D01*
G01*
X177518750Y-60750000D01*
G75*
G02*
X177275000Y-60506250I0J243750D01*
G01*
X177275000Y-60018750D01*
G75*
G02*
X177518750Y-59775000I243750J0D01*
G01*
G37*
G36*
G01*
X187177500Y-75440000D02*
X187522500Y-75440000D01*
G75*
G02*
X187670000Y-75587500I0J-147500D01*
G01*
X187670000Y-75882500D01*
G75*
G02*
X187522500Y-76030000I-147500J0D01*
G01*
X187177500Y-76030000D01*
G75*
G02*
X187030000Y-75882500I0J147500D01*
G01*
X187030000Y-75587500D01*
G75*
G02*
X187177500Y-75440000I147500J0D01*
G01*
G37*
G36*
G01*
X187177500Y-74470000D02*
X187522500Y-74470000D01*
G75*
G02*
X187670000Y-74617500I0J-147500D01*
G01*
X187670000Y-74912500D01*
G75*
G02*
X187522500Y-75060000I-147500J0D01*
G01*
X187177500Y-75060000D01*
G75*
G02*
X187030000Y-74912500I0J147500D01*
G01*
X187030000Y-74617500D01*
G75*
G02*
X187177500Y-74470000I147500J0D01*
G01*
G37*
G36*
G01*
X177327500Y-75390000D02*
X177672500Y-75390000D01*
G75*
G02*
X177820000Y-75537500I0J-147500D01*
G01*
X177820000Y-75832500D01*
G75*
G02*
X177672500Y-75980000I-147500J0D01*
G01*
X177327500Y-75980000D01*
G75*
G02*
X177180000Y-75832500I0J147500D01*
G01*
X177180000Y-75537500D01*
G75*
G02*
X177327500Y-75390000I147500J0D01*
G01*
G37*
G36*
G01*
X177327500Y-74420000D02*
X177672500Y-74420000D01*
G75*
G02*
X177820000Y-74567500I0J-147500D01*
G01*
X177820000Y-74862500D01*
G75*
G02*
X177672500Y-75010000I-147500J0D01*
G01*
X177327500Y-75010000D01*
G75*
G02*
X177180000Y-74862500I0J147500D01*
G01*
X177180000Y-74567500D01*
G75*
G02*
X177327500Y-74420000I147500J0D01*
G01*
G37*
G36*
G01*
X169810000Y-67127500D02*
X169810000Y-67472500D01*
G75*
G02*
X169662500Y-67620000I-147500J0D01*
G01*
X169367500Y-67620000D01*
G75*
G02*
X169220000Y-67472500I0J147500D01*
G01*
X169220000Y-67127500D01*
G75*
G02*
X169367500Y-66980000I147500J0D01*
G01*
X169662500Y-66980000D01*
G75*
G02*
X169810000Y-67127500I0J-147500D01*
G01*
G37*
G36*
G01*
X170780000Y-67127500D02*
X170780000Y-67472500D01*
G75*
G02*
X170632500Y-67620000I-147500J0D01*
G01*
X170337500Y-67620000D01*
G75*
G02*
X170190000Y-67472500I0J147500D01*
G01*
X170190000Y-67127500D01*
G75*
G02*
X170337500Y-66980000I147500J0D01*
G01*
X170632500Y-66980000D01*
G75*
G02*
X170780000Y-67127500I0J-147500D01*
G01*
G37*
G36*
G01*
X170190000Y-65072500D02*
X170190000Y-64727500D01*
G75*
G02*
X170337500Y-64580000I147500J0D01*
G01*
X170632500Y-64580000D01*
G75*
G02*
X170780000Y-64727500I0J-147500D01*
G01*
X170780000Y-65072500D01*
G75*
G02*
X170632500Y-65220000I-147500J0D01*
G01*
X170337500Y-65220000D01*
G75*
G02*
X170190000Y-65072500I0J147500D01*
G01*
G37*
G36*
G01*
X169220000Y-65072500D02*
X169220000Y-64727500D01*
G75*
G02*
X169367500Y-64580000I147500J0D01*
G01*
X169662500Y-64580000D01*
G75*
G02*
X169810000Y-64727500I0J-147500D01*
G01*
X169810000Y-65072500D01*
G75*
G02*
X169662500Y-65220000I-147500J0D01*
G01*
X169367500Y-65220000D01*
G75*
G02*
X169220000Y-65072500I0J147500D01*
G01*
G37*
D23*
X191300000Y-88600000D03*
X191300000Y-87650000D03*
X191300000Y-89550000D03*
X188700000Y-89550000D03*
X188700000Y-88600000D03*
X188700000Y-87650000D03*
G36*
G01*
X197349600Y-92000000D02*
X198650400Y-92000000D01*
G75*
G02*
X198900000Y-92249600I0J-249600D01*
G01*
X198900000Y-92950400D01*
G75*
G02*
X198650400Y-93200000I-249600J0D01*
G01*
X197349600Y-93200000D01*
G75*
G02*
X197100000Y-92950400I0J249600D01*
G01*
X197100000Y-92249600D01*
G75*
G02*
X197349600Y-92000000I249600J0D01*
G01*
G37*
G36*
G01*
X197349600Y-86400000D02*
X198650400Y-86400000D01*
G75*
G02*
X198900000Y-86649600I0J-249600D01*
G01*
X198900000Y-87350400D01*
G75*
G02*
X198650400Y-87600000I-249600J0D01*
G01*
X197349600Y-87600000D01*
G75*
G02*
X197100000Y-87350400I0J249600D01*
G01*
X197100000Y-86649600D01*
G75*
G02*
X197349600Y-86400000I249600J0D01*
G01*
G37*
G36*
G01*
X194850000Y-91000000D02*
X196100000Y-91000000D01*
G75*
G02*
X196250000Y-91150000I0J-150000D01*
G01*
X196250000Y-91450000D01*
G75*
G02*
X196100000Y-91600000I-150000J0D01*
G01*
X194850000Y-91600000D01*
G75*
G02*
X194700000Y-91450000I0J150000D01*
G01*
X194700000Y-91150000D01*
G75*
G02*
X194850000Y-91000000I150000J0D01*
G01*
G37*
G36*
G01*
X194850000Y-90000000D02*
X196100000Y-90000000D01*
G75*
G02*
X196250000Y-90150000I0J-150000D01*
G01*
X196250000Y-90450000D01*
G75*
G02*
X196100000Y-90600000I-150000J0D01*
G01*
X194850000Y-90600000D01*
G75*
G02*
X194700000Y-90450000I0J150000D01*
G01*
X194700000Y-90150000D01*
G75*
G02*
X194850000Y-90000000I150000J0D01*
G01*
G37*
G36*
G01*
X194850000Y-89000000D02*
X196100000Y-89000000D01*
G75*
G02*
X196250000Y-89150000I0J-150000D01*
G01*
X196250000Y-89450000D01*
G75*
G02*
X196100000Y-89600000I-150000J0D01*
G01*
X194850000Y-89600000D01*
G75*
G02*
X194700000Y-89450000I0J150000D01*
G01*
X194700000Y-89150000D01*
G75*
G02*
X194850000Y-89000000I150000J0D01*
G01*
G37*
G36*
G01*
X194850000Y-88000000D02*
X196100000Y-88000000D01*
G75*
G02*
X196250000Y-88150000I0J-150000D01*
G01*
X196250000Y-88450000D01*
G75*
G02*
X196100000Y-88600000I-150000J0D01*
G01*
X194850000Y-88600000D01*
G75*
G02*
X194700000Y-88450000I0J150000D01*
G01*
X194700000Y-88150000D01*
G75*
G02*
X194850000Y-88000000I150000J0D01*
G01*
G37*
D24*
X161025000Y-70075000D03*
X161425000Y-70075000D03*
X160625000Y-70075000D03*
X160225000Y-70075000D03*
X160225000Y-71375000D03*
X160625000Y-71375000D03*
X161025000Y-71375000D03*
X161425000Y-71375000D03*
D25*
X160825000Y-70725000D03*
G36*
G01*
X165125000Y-63775000D02*
X166375000Y-63775000D01*
G75*
G02*
X166625000Y-64025000I0J-250000D01*
G01*
X166625000Y-64775000D01*
G75*
G02*
X166375000Y-65025000I-250000J0D01*
G01*
X165125000Y-65025000D01*
G75*
G02*
X164875000Y-64775000I0J250000D01*
G01*
X164875000Y-64025000D01*
G75*
G02*
X165125000Y-63775000I250000J0D01*
G01*
G37*
G36*
G01*
X165125000Y-60975000D02*
X166375000Y-60975000D01*
G75*
G02*
X166625000Y-61225000I0J-250000D01*
G01*
X166625000Y-61975000D01*
G75*
G02*
X166375000Y-62225000I-250000J0D01*
G01*
X165125000Y-62225000D01*
G75*
G02*
X164875000Y-61975000I0J250000D01*
G01*
X164875000Y-61225000D01*
G75*
G02*
X165125000Y-60975000I250000J0D01*
G01*
G37*
G36*
G01*
X192886250Y-96470000D02*
X192373750Y-96470000D01*
G75*
G02*
X192155000Y-96251250I0J218750D01*
G01*
X192155000Y-95813750D01*
G75*
G02*
X192373750Y-95595000I218750J0D01*
G01*
X192886250Y-95595000D01*
G75*
G02*
X193105000Y-95813750I0J-218750D01*
G01*
X193105000Y-96251250D01*
G75*
G02*
X192886250Y-96470000I-218750J0D01*
G01*
G37*
G36*
G01*
X192886250Y-98045000D02*
X192373750Y-98045000D01*
G75*
G02*
X192155000Y-97826250I0J218750D01*
G01*
X192155000Y-97388750D01*
G75*
G02*
X192373750Y-97170000I218750J0D01*
G01*
X192886250Y-97170000D01*
G75*
G02*
X193105000Y-97388750I0J-218750D01*
G01*
X193105000Y-97826250D01*
G75*
G02*
X192886250Y-98045000I-218750J0D01*
G01*
G37*
D26*
X161500000Y-76500000D03*
X160550000Y-74500000D03*
X162450000Y-74500000D03*
G36*
G01*
X156575000Y-59093750D02*
X156575000Y-60006250D01*
G75*
G02*
X156331250Y-60250000I-243750J0D01*
G01*
X155843750Y-60250000D01*
G75*
G02*
X155600000Y-60006250I0J243750D01*
G01*
X155600000Y-59093750D01*
G75*
G02*
X155843750Y-58850000I243750J0D01*
G01*
X156331250Y-58850000D01*
G75*
G02*
X156575000Y-59093750I0J-243750D01*
G01*
G37*
G36*
G01*
X158450000Y-59093750D02*
X158450000Y-60006250D01*
G75*
G02*
X158206250Y-60250000I-243750J0D01*
G01*
X157718750Y-60250000D01*
G75*
G02*
X157475000Y-60006250I0J243750D01*
G01*
X157475000Y-59093750D01*
G75*
G02*
X157718750Y-58850000I243750J0D01*
G01*
X158206250Y-58850000D01*
G75*
G02*
X158450000Y-59093750I0J-243750D01*
G01*
G37*
G36*
G01*
X158290000Y-77172500D02*
X158290000Y-76827500D01*
G75*
G02*
X158437500Y-76680000I147500J0D01*
G01*
X158732500Y-76680000D01*
G75*
G02*
X158880000Y-76827500I0J-147500D01*
G01*
X158880000Y-77172500D01*
G75*
G02*
X158732500Y-77320000I-147500J0D01*
G01*
X158437500Y-77320000D01*
G75*
G02*
X158290000Y-77172500I0J147500D01*
G01*
G37*
G36*
G01*
X157320000Y-77172500D02*
X157320000Y-76827500D01*
G75*
G02*
X157467500Y-76680000I147500J0D01*
G01*
X157762500Y-76680000D01*
G75*
G02*
X157910000Y-76827500I0J-147500D01*
G01*
X157910000Y-77172500D01*
G75*
G02*
X157762500Y-77320000I-147500J0D01*
G01*
X157467500Y-77320000D01*
G75*
G02*
X157320000Y-77172500I0J147500D01*
G01*
G37*
G36*
G01*
X154631250Y-60775000D02*
X153718750Y-60775000D01*
G75*
G02*
X153475000Y-60531250I0J243750D01*
G01*
X153475000Y-60043750D01*
G75*
G02*
X153718750Y-59800000I243750J0D01*
G01*
X154631250Y-59800000D01*
G75*
G02*
X154875000Y-60043750I0J-243750D01*
G01*
X154875000Y-60531250D01*
G75*
G02*
X154631250Y-60775000I-243750J0D01*
G01*
G37*
G36*
G01*
X154631250Y-62650000D02*
X153718750Y-62650000D01*
G75*
G02*
X153475000Y-62406250I0J243750D01*
G01*
X153475000Y-61918750D01*
G75*
G02*
X153718750Y-61675000I243750J0D01*
G01*
X154631250Y-61675000D01*
G75*
G02*
X154875000Y-61918750I0J-243750D01*
G01*
X154875000Y-62406250D01*
G75*
G02*
X154631250Y-62650000I-243750J0D01*
G01*
G37*
G36*
G01*
X153693750Y-65275000D02*
X154606250Y-65275000D01*
G75*
G02*
X154850000Y-65518750I0J-243750D01*
G01*
X154850000Y-66006250D01*
G75*
G02*
X154606250Y-66250000I-243750J0D01*
G01*
X153693750Y-66250000D01*
G75*
G02*
X153450000Y-66006250I0J243750D01*
G01*
X153450000Y-65518750D01*
G75*
G02*
X153693750Y-65275000I243750J0D01*
G01*
G37*
G36*
G01*
X153693750Y-63400000D02*
X154606250Y-63400000D01*
G75*
G02*
X154850000Y-63643750I0J-243750D01*
G01*
X154850000Y-64131250D01*
G75*
G02*
X154606250Y-64375000I-243750J0D01*
G01*
X153693750Y-64375000D01*
G75*
G02*
X153450000Y-64131250I0J243750D01*
G01*
X153450000Y-63643750D01*
G75*
G02*
X153693750Y-63400000I243750J0D01*
G01*
G37*
G36*
G01*
X170090000Y-69472500D02*
X170090000Y-69127500D01*
G75*
G02*
X170237500Y-68980000I147500J0D01*
G01*
X170532500Y-68980000D01*
G75*
G02*
X170680000Y-69127500I0J-147500D01*
G01*
X170680000Y-69472500D01*
G75*
G02*
X170532500Y-69620000I-147500J0D01*
G01*
X170237500Y-69620000D01*
G75*
G02*
X170090000Y-69472500I0J147500D01*
G01*
G37*
G36*
G01*
X169120000Y-69472500D02*
X169120000Y-69127500D01*
G75*
G02*
X169267500Y-68980000I147500J0D01*
G01*
X169562500Y-68980000D01*
G75*
G02*
X169710000Y-69127500I0J-147500D01*
G01*
X169710000Y-69472500D01*
G75*
G02*
X169562500Y-69620000I-147500J0D01*
G01*
X169267500Y-69620000D01*
G75*
G02*
X169120000Y-69472500I0J147500D01*
G01*
G37*
G36*
G01*
X186727500Y-83190000D02*
X187072500Y-83190000D01*
G75*
G02*
X187220000Y-83337500I0J-147500D01*
G01*
X187220000Y-83632500D01*
G75*
G02*
X187072500Y-83780000I-147500J0D01*
G01*
X186727500Y-83780000D01*
G75*
G02*
X186580000Y-83632500I0J147500D01*
G01*
X186580000Y-83337500D01*
G75*
G02*
X186727500Y-83190000I147500J0D01*
G01*
G37*
G36*
G01*
X186727500Y-82220000D02*
X187072500Y-82220000D01*
G75*
G02*
X187220000Y-82367500I0J-147500D01*
G01*
X187220000Y-82662500D01*
G75*
G02*
X187072500Y-82810000I-147500J0D01*
G01*
X186727500Y-82810000D01*
G75*
G02*
X186580000Y-82662500I0J147500D01*
G01*
X186580000Y-82367500D01*
G75*
G02*
X186727500Y-82220000I147500J0D01*
G01*
G37*
G36*
G01*
X180102500Y-62090000D02*
X180447500Y-62090000D01*
G75*
G02*
X180595000Y-62237500I0J-147500D01*
G01*
X180595000Y-62532500D01*
G75*
G02*
X180447500Y-62680000I-147500J0D01*
G01*
X180102500Y-62680000D01*
G75*
G02*
X179955000Y-62532500I0J147500D01*
G01*
X179955000Y-62237500D01*
G75*
G02*
X180102500Y-62090000I147500J0D01*
G01*
G37*
G36*
G01*
X180102500Y-61120000D02*
X180447500Y-61120000D01*
G75*
G02*
X180595000Y-61267500I0J-147500D01*
G01*
X180595000Y-61562500D01*
G75*
G02*
X180447500Y-61710000I-147500J0D01*
G01*
X180102500Y-61710000D01*
G75*
G02*
X179955000Y-61562500I0J147500D01*
G01*
X179955000Y-61267500D01*
G75*
G02*
X180102500Y-61120000I147500J0D01*
G01*
G37*
G36*
G01*
X171602500Y-62590000D02*
X171947500Y-62590000D01*
G75*
G02*
X172095000Y-62737500I0J-147500D01*
G01*
X172095000Y-63032500D01*
G75*
G02*
X171947500Y-63180000I-147500J0D01*
G01*
X171602500Y-63180000D01*
G75*
G02*
X171455000Y-63032500I0J147500D01*
G01*
X171455000Y-62737500D01*
G75*
G02*
X171602500Y-62590000I147500J0D01*
G01*
G37*
G36*
G01*
X171602500Y-61620000D02*
X171947500Y-61620000D01*
G75*
G02*
X172095000Y-61767500I0J-147500D01*
G01*
X172095000Y-62062500D01*
G75*
G02*
X171947500Y-62210000I-147500J0D01*
G01*
X171602500Y-62210000D01*
G75*
G02*
X171455000Y-62062500I0J147500D01*
G01*
X171455000Y-61767500D01*
G75*
G02*
X171602500Y-61620000I147500J0D01*
G01*
G37*
G36*
G01*
X189043750Y-67950000D02*
X189556250Y-67950000D01*
G75*
G02*
X189775000Y-68168750I0J-218750D01*
G01*
X189775000Y-68606250D01*
G75*
G02*
X189556250Y-68825000I-218750J0D01*
G01*
X189043750Y-68825000D01*
G75*
G02*
X188825000Y-68606250I0J218750D01*
G01*
X188825000Y-68168750D01*
G75*
G02*
X189043750Y-67950000I218750J0D01*
G01*
G37*
G36*
G01*
X189043750Y-66375000D02*
X189556250Y-66375000D01*
G75*
G02*
X189775000Y-66593750I0J-218750D01*
G01*
X189775000Y-67031250D01*
G75*
G02*
X189556250Y-67250000I-218750J0D01*
G01*
X189043750Y-67250000D01*
G75*
G02*
X188825000Y-67031250I0J218750D01*
G01*
X188825000Y-66593750D01*
G75*
G02*
X189043750Y-66375000I218750J0D01*
G01*
G37*
G36*
G01*
X180550000Y-68456250D02*
X180550000Y-67943750D01*
G75*
G02*
X180768750Y-67725000I218750J0D01*
G01*
X181206250Y-67725000D01*
G75*
G02*
X181425000Y-67943750I0J-218750D01*
G01*
X181425000Y-68456250D01*
G75*
G02*
X181206250Y-68675000I-218750J0D01*
G01*
X180768750Y-68675000D01*
G75*
G02*
X180550000Y-68456250I0J218750D01*
G01*
G37*
G36*
G01*
X178975000Y-68456250D02*
X178975000Y-67943750D01*
G75*
G02*
X179193750Y-67725000I218750J0D01*
G01*
X179631250Y-67725000D01*
G75*
G02*
X179850000Y-67943750I0J-218750D01*
G01*
X179850000Y-68456250D01*
G75*
G02*
X179631250Y-68675000I-218750J0D01*
G01*
X179193750Y-68675000D01*
G75*
G02*
X178975000Y-68456250I0J218750D01*
G01*
G37*
G36*
G01*
X169810000Y-65927500D02*
X169810000Y-66272500D01*
G75*
G02*
X169662500Y-66420000I-147500J0D01*
G01*
X169367500Y-66420000D01*
G75*
G02*
X169220000Y-66272500I0J147500D01*
G01*
X169220000Y-65927500D01*
G75*
G02*
X169367500Y-65780000I147500J0D01*
G01*
X169662500Y-65780000D01*
G75*
G02*
X169810000Y-65927500I0J-147500D01*
G01*
G37*
G36*
G01*
X170780000Y-65927500D02*
X170780000Y-66272500D01*
G75*
G02*
X170632500Y-66420000I-147500J0D01*
G01*
X170337500Y-66420000D01*
G75*
G02*
X170190000Y-66272500I0J147500D01*
G01*
X170190000Y-65927500D01*
G75*
G02*
X170337500Y-65780000I147500J0D01*
G01*
X170632500Y-65780000D01*
G75*
G02*
X170780000Y-65927500I0J-147500D01*
G01*
G37*
G36*
G01*
X179756250Y-65250000D02*
X179243750Y-65250000D01*
G75*
G02*
X179025000Y-65031250I0J218750D01*
G01*
X179025000Y-64593750D01*
G75*
G02*
X179243750Y-64375000I218750J0D01*
G01*
X179756250Y-64375000D01*
G75*
G02*
X179975000Y-64593750I0J-218750D01*
G01*
X179975000Y-65031250D01*
G75*
G02*
X179756250Y-65250000I-218750J0D01*
G01*
G37*
G36*
G01*
X179756250Y-66825000D02*
X179243750Y-66825000D01*
G75*
G02*
X179025000Y-66606250I0J218750D01*
G01*
X179025000Y-66168750D01*
G75*
G02*
X179243750Y-65950000I218750J0D01*
G01*
X179756250Y-65950000D01*
G75*
G02*
X179975000Y-66168750I0J-218750D01*
G01*
X179975000Y-66606250D01*
G75*
G02*
X179756250Y-66825000I-218750J0D01*
G01*
G37*
G36*
G01*
X182150000Y-78150000D02*
X182150000Y-79250000D01*
G75*
G02*
X181900000Y-79500000I-250000J0D01*
G01*
X178900000Y-79500000D01*
G75*
G02*
X178650000Y-79250000I0J250000D01*
G01*
X178650000Y-78150000D01*
G75*
G02*
X178900000Y-77900000I250000J0D01*
G01*
X181900000Y-77900000D01*
G75*
G02*
X182150000Y-78150000I0J-250000D01*
G01*
G37*
G36*
G01*
X187550000Y-78150000D02*
X187550000Y-79250000D01*
G75*
G02*
X187300000Y-79500000I-250000J0D01*
G01*
X184300000Y-79500000D01*
G75*
G02*
X184050000Y-79250000I0J250000D01*
G01*
X184050000Y-78150000D01*
G75*
G02*
X184300000Y-77900000I250000J0D01*
G01*
X187300000Y-77900000D01*
G75*
G02*
X187550000Y-78150000I0J-250000D01*
G01*
G37*
D11*
X183000000Y-94250000D03*
X181400000Y-94250000D03*
X183000000Y-98350000D03*
X181400000Y-98350000D03*
D27*
X161100000Y-85200000D03*
X161100000Y-84000000D03*
X161100000Y-82800000D03*
G36*
G01*
X166500000Y-83025000D02*
X166500000Y-81625000D01*
G75*
G02*
X166575000Y-81550000I75000J0D01*
G01*
X166725000Y-81550000D01*
G75*
G02*
X166800000Y-81625000I0J-75000D01*
G01*
X166800000Y-83025000D01*
G75*
G02*
X166725000Y-83100000I-75000J0D01*
G01*
X166575000Y-83100000D01*
G75*
G02*
X166500000Y-83025000I0J75000D01*
G01*
G37*
G36*
G01*
X167000000Y-83025000D02*
X167000000Y-81625000D01*
G75*
G02*
X167075000Y-81550000I75000J0D01*
G01*
X167225000Y-81550000D01*
G75*
G02*
X167300000Y-81625000I0J-75000D01*
G01*
X167300000Y-83025000D01*
G75*
G02*
X167225000Y-83100000I-75000J0D01*
G01*
X167075000Y-83100000D01*
G75*
G02*
X167000000Y-83025000I0J75000D01*
G01*
G37*
G36*
G01*
X167500000Y-83025000D02*
X167500000Y-81625000D01*
G75*
G02*
X167575000Y-81550000I75000J0D01*
G01*
X167725000Y-81550000D01*
G75*
G02*
X167800000Y-81625000I0J-75000D01*
G01*
X167800000Y-83025000D01*
G75*
G02*
X167725000Y-83100000I-75000J0D01*
G01*
X167575000Y-83100000D01*
G75*
G02*
X167500000Y-83025000I0J75000D01*
G01*
G37*
G36*
G01*
X168000000Y-83025000D02*
X168000000Y-81625000D01*
G75*
G02*
X168075000Y-81550000I75000J0D01*
G01*
X168225000Y-81550000D01*
G75*
G02*
X168300000Y-81625000I0J-75000D01*
G01*
X168300000Y-83025000D01*
G75*
G02*
X168225000Y-83100000I-75000J0D01*
G01*
X168075000Y-83100000D01*
G75*
G02*
X168000000Y-83025000I0J75000D01*
G01*
G37*
G36*
G01*
X168500000Y-83025000D02*
X168500000Y-81625000D01*
G75*
G02*
X168575000Y-81550000I75000J0D01*
G01*
X168725000Y-81550000D01*
G75*
G02*
X168800000Y-81625000I0J-75000D01*
G01*
X168800000Y-83025000D01*
G75*
G02*
X168725000Y-83100000I-75000J0D01*
G01*
X168575000Y-83100000D01*
G75*
G02*
X168500000Y-83025000I0J75000D01*
G01*
G37*
G36*
G01*
X169000000Y-83025000D02*
X169000000Y-81625000D01*
G75*
G02*
X169075000Y-81550000I75000J0D01*
G01*
X169225000Y-81550000D01*
G75*
G02*
X169300000Y-81625000I0J-75000D01*
G01*
X169300000Y-83025000D01*
G75*
G02*
X169225000Y-83100000I-75000J0D01*
G01*
X169075000Y-83100000D01*
G75*
G02*
X169000000Y-83025000I0J75000D01*
G01*
G37*
G36*
G01*
X169500000Y-83025000D02*
X169500000Y-81625000D01*
G75*
G02*
X169575000Y-81550000I75000J0D01*
G01*
X169725000Y-81550000D01*
G75*
G02*
X169800000Y-81625000I0J-75000D01*
G01*
X169800000Y-83025000D01*
G75*
G02*
X169725000Y-83100000I-75000J0D01*
G01*
X169575000Y-83100000D01*
G75*
G02*
X169500000Y-83025000I0J75000D01*
G01*
G37*
G36*
G01*
X170000000Y-83025000D02*
X170000000Y-81625000D01*
G75*
G02*
X170075000Y-81550000I75000J0D01*
G01*
X170225000Y-81550000D01*
G75*
G02*
X170300000Y-81625000I0J-75000D01*
G01*
X170300000Y-83025000D01*
G75*
G02*
X170225000Y-83100000I-75000J0D01*
G01*
X170075000Y-83100000D01*
G75*
G02*
X170000000Y-83025000I0J75000D01*
G01*
G37*
G36*
G01*
X170500000Y-83025000D02*
X170500000Y-81625000D01*
G75*
G02*
X170575000Y-81550000I75000J0D01*
G01*
X170725000Y-81550000D01*
G75*
G02*
X170800000Y-81625000I0J-75000D01*
G01*
X170800000Y-83025000D01*
G75*
G02*
X170725000Y-83100000I-75000J0D01*
G01*
X170575000Y-83100000D01*
G75*
G02*
X170500000Y-83025000I0J75000D01*
G01*
G37*
G36*
G01*
X171000000Y-83025000D02*
X171000000Y-81625000D01*
G75*
G02*
X171075000Y-81550000I75000J0D01*
G01*
X171225000Y-81550000D01*
G75*
G02*
X171300000Y-81625000I0J-75000D01*
G01*
X171300000Y-83025000D01*
G75*
G02*
X171225000Y-83100000I-75000J0D01*
G01*
X171075000Y-83100000D01*
G75*
G02*
X171000000Y-83025000I0J75000D01*
G01*
G37*
G36*
G01*
X171500000Y-83025000D02*
X171500000Y-81625000D01*
G75*
G02*
X171575000Y-81550000I75000J0D01*
G01*
X171725000Y-81550000D01*
G75*
G02*
X171800000Y-81625000I0J-75000D01*
G01*
X171800000Y-83025000D01*
G75*
G02*
X171725000Y-83100000I-75000J0D01*
G01*
X171575000Y-83100000D01*
G75*
G02*
X171500000Y-83025000I0J75000D01*
G01*
G37*
G36*
G01*
X172000000Y-83025000D02*
X172000000Y-81625000D01*
G75*
G02*
X172075000Y-81550000I75000J0D01*
G01*
X172225000Y-81550000D01*
G75*
G02*
X172300000Y-81625000I0J-75000D01*
G01*
X172300000Y-83025000D01*
G75*
G02*
X172225000Y-83100000I-75000J0D01*
G01*
X172075000Y-83100000D01*
G75*
G02*
X172000000Y-83025000I0J75000D01*
G01*
G37*
G36*
G01*
X172500000Y-83025000D02*
X172500000Y-81625000D01*
G75*
G02*
X172575000Y-81550000I75000J0D01*
G01*
X172725000Y-81550000D01*
G75*
G02*
X172800000Y-81625000I0J-75000D01*
G01*
X172800000Y-83025000D01*
G75*
G02*
X172725000Y-83100000I-75000J0D01*
G01*
X172575000Y-83100000D01*
G75*
G02*
X172500000Y-83025000I0J75000D01*
G01*
G37*
G36*
G01*
X173000000Y-83025000D02*
X173000000Y-81625000D01*
G75*
G02*
X173075000Y-81550000I75000J0D01*
G01*
X173225000Y-81550000D01*
G75*
G02*
X173300000Y-81625000I0J-75000D01*
G01*
X173300000Y-83025000D01*
G75*
G02*
X173225000Y-83100000I-75000J0D01*
G01*
X173075000Y-83100000D01*
G75*
G02*
X173000000Y-83025000I0J75000D01*
G01*
G37*
G36*
G01*
X173500000Y-83025000D02*
X173500000Y-81625000D01*
G75*
G02*
X173575000Y-81550000I75000J0D01*
G01*
X173725000Y-81550000D01*
G75*
G02*
X173800000Y-81625000I0J-75000D01*
G01*
X173800000Y-83025000D01*
G75*
G02*
X173725000Y-83100000I-75000J0D01*
G01*
X173575000Y-83100000D01*
G75*
G02*
X173500000Y-83025000I0J75000D01*
G01*
G37*
G36*
G01*
X174000000Y-83025000D02*
X174000000Y-81625000D01*
G75*
G02*
X174075000Y-81550000I75000J0D01*
G01*
X174225000Y-81550000D01*
G75*
G02*
X174300000Y-81625000I0J-75000D01*
G01*
X174300000Y-83025000D01*
G75*
G02*
X174225000Y-83100000I-75000J0D01*
G01*
X174075000Y-83100000D01*
G75*
G02*
X174000000Y-83025000I0J75000D01*
G01*
G37*
G36*
G01*
X175300000Y-84325000D02*
X175300000Y-84175000D01*
G75*
G02*
X175375000Y-84100000I75000J0D01*
G01*
X176775000Y-84100000D01*
G75*
G02*
X176850000Y-84175000I0J-75000D01*
G01*
X176850000Y-84325000D01*
G75*
G02*
X176775000Y-84400000I-75000J0D01*
G01*
X175375000Y-84400000D01*
G75*
G02*
X175300000Y-84325000I0J75000D01*
G01*
G37*
G36*
G01*
X175300000Y-84825000D02*
X175300000Y-84675000D01*
G75*
G02*
X175375000Y-84600000I75000J0D01*
G01*
X176775000Y-84600000D01*
G75*
G02*
X176850000Y-84675000I0J-75000D01*
G01*
X176850000Y-84825000D01*
G75*
G02*
X176775000Y-84900000I-75000J0D01*
G01*
X175375000Y-84900000D01*
G75*
G02*
X175300000Y-84825000I0J75000D01*
G01*
G37*
G36*
G01*
X175300000Y-85325000D02*
X175300000Y-85175000D01*
G75*
G02*
X175375000Y-85100000I75000J0D01*
G01*
X176775000Y-85100000D01*
G75*
G02*
X176850000Y-85175000I0J-75000D01*
G01*
X176850000Y-85325000D01*
G75*
G02*
X176775000Y-85400000I-75000J0D01*
G01*
X175375000Y-85400000D01*
G75*
G02*
X175300000Y-85325000I0J75000D01*
G01*
G37*
G36*
G01*
X175300000Y-85825000D02*
X175300000Y-85675000D01*
G75*
G02*
X175375000Y-85600000I75000J0D01*
G01*
X176775000Y-85600000D01*
G75*
G02*
X176850000Y-85675000I0J-75000D01*
G01*
X176850000Y-85825000D01*
G75*
G02*
X176775000Y-85900000I-75000J0D01*
G01*
X175375000Y-85900000D01*
G75*
G02*
X175300000Y-85825000I0J75000D01*
G01*
G37*
G36*
G01*
X175300000Y-86325000D02*
X175300000Y-86175000D01*
G75*
G02*
X175375000Y-86100000I75000J0D01*
G01*
X176775000Y-86100000D01*
G75*
G02*
X176850000Y-86175000I0J-75000D01*
G01*
X176850000Y-86325000D01*
G75*
G02*
X176775000Y-86400000I-75000J0D01*
G01*
X175375000Y-86400000D01*
G75*
G02*
X175300000Y-86325000I0J75000D01*
G01*
G37*
G36*
G01*
X175300000Y-86825000D02*
X175300000Y-86675000D01*
G75*
G02*
X175375000Y-86600000I75000J0D01*
G01*
X176775000Y-86600000D01*
G75*
G02*
X176850000Y-86675000I0J-75000D01*
G01*
X176850000Y-86825000D01*
G75*
G02*
X176775000Y-86900000I-75000J0D01*
G01*
X175375000Y-86900000D01*
G75*
G02*
X175300000Y-86825000I0J75000D01*
G01*
G37*
G36*
G01*
X175300000Y-87325000D02*
X175300000Y-87175000D01*
G75*
G02*
X175375000Y-87100000I75000J0D01*
G01*
X176775000Y-87100000D01*
G75*
G02*
X176850000Y-87175000I0J-75000D01*
G01*
X176850000Y-87325000D01*
G75*
G02*
X176775000Y-87400000I-75000J0D01*
G01*
X175375000Y-87400000D01*
G75*
G02*
X175300000Y-87325000I0J75000D01*
G01*
G37*
G36*
G01*
X175300000Y-87825000D02*
X175300000Y-87675000D01*
G75*
G02*
X175375000Y-87600000I75000J0D01*
G01*
X176775000Y-87600000D01*
G75*
G02*
X176850000Y-87675000I0J-75000D01*
G01*
X176850000Y-87825000D01*
G75*
G02*
X176775000Y-87900000I-75000J0D01*
G01*
X175375000Y-87900000D01*
G75*
G02*
X175300000Y-87825000I0J75000D01*
G01*
G37*
G36*
G01*
X175300000Y-88325000D02*
X175300000Y-88175000D01*
G75*
G02*
X175375000Y-88100000I75000J0D01*
G01*
X176775000Y-88100000D01*
G75*
G02*
X176850000Y-88175000I0J-75000D01*
G01*
X176850000Y-88325000D01*
G75*
G02*
X176775000Y-88400000I-75000J0D01*
G01*
X175375000Y-88400000D01*
G75*
G02*
X175300000Y-88325000I0J75000D01*
G01*
G37*
G36*
G01*
X175300000Y-88825000D02*
X175300000Y-88675000D01*
G75*
G02*
X175375000Y-88600000I75000J0D01*
G01*
X176775000Y-88600000D01*
G75*
G02*
X176850000Y-88675000I0J-75000D01*
G01*
X176850000Y-88825000D01*
G75*
G02*
X176775000Y-88900000I-75000J0D01*
G01*
X175375000Y-88900000D01*
G75*
G02*
X175300000Y-88825000I0J75000D01*
G01*
G37*
G36*
G01*
X175300000Y-89325000D02*
X175300000Y-89175000D01*
G75*
G02*
X175375000Y-89100000I75000J0D01*
G01*
X176775000Y-89100000D01*
G75*
G02*
X176850000Y-89175000I0J-75000D01*
G01*
X176850000Y-89325000D01*
G75*
G02*
X176775000Y-89400000I-75000J0D01*
G01*
X175375000Y-89400000D01*
G75*
G02*
X175300000Y-89325000I0J75000D01*
G01*
G37*
G36*
G01*
X175300000Y-89825000D02*
X175300000Y-89675000D01*
G75*
G02*
X175375000Y-89600000I75000J0D01*
G01*
X176775000Y-89600000D01*
G75*
G02*
X176850000Y-89675000I0J-75000D01*
G01*
X176850000Y-89825000D01*
G75*
G02*
X176775000Y-89900000I-75000J0D01*
G01*
X175375000Y-89900000D01*
G75*
G02*
X175300000Y-89825000I0J75000D01*
G01*
G37*
G36*
G01*
X175300000Y-90325000D02*
X175300000Y-90175000D01*
G75*
G02*
X175375000Y-90100000I75000J0D01*
G01*
X176775000Y-90100000D01*
G75*
G02*
X176850000Y-90175000I0J-75000D01*
G01*
X176850000Y-90325000D01*
G75*
G02*
X176775000Y-90400000I-75000J0D01*
G01*
X175375000Y-90400000D01*
G75*
G02*
X175300000Y-90325000I0J75000D01*
G01*
G37*
G36*
G01*
X175300000Y-90825000D02*
X175300000Y-90675000D01*
G75*
G02*
X175375000Y-90600000I75000J0D01*
G01*
X176775000Y-90600000D01*
G75*
G02*
X176850000Y-90675000I0J-75000D01*
G01*
X176850000Y-90825000D01*
G75*
G02*
X176775000Y-90900000I-75000J0D01*
G01*
X175375000Y-90900000D01*
G75*
G02*
X175300000Y-90825000I0J75000D01*
G01*
G37*
G36*
G01*
X175300000Y-91325000D02*
X175300000Y-91175000D01*
G75*
G02*
X175375000Y-91100000I75000J0D01*
G01*
X176775000Y-91100000D01*
G75*
G02*
X176850000Y-91175000I0J-75000D01*
G01*
X176850000Y-91325000D01*
G75*
G02*
X176775000Y-91400000I-75000J0D01*
G01*
X175375000Y-91400000D01*
G75*
G02*
X175300000Y-91325000I0J75000D01*
G01*
G37*
G36*
G01*
X175300000Y-91825000D02*
X175300000Y-91675000D01*
G75*
G02*
X175375000Y-91600000I75000J0D01*
G01*
X176775000Y-91600000D01*
G75*
G02*
X176850000Y-91675000I0J-75000D01*
G01*
X176850000Y-91825000D01*
G75*
G02*
X176775000Y-91900000I-75000J0D01*
G01*
X175375000Y-91900000D01*
G75*
G02*
X175300000Y-91825000I0J75000D01*
G01*
G37*
G36*
G01*
X174000000Y-94375000D02*
X174000000Y-92975000D01*
G75*
G02*
X174075000Y-92900000I75000J0D01*
G01*
X174225000Y-92900000D01*
G75*
G02*
X174300000Y-92975000I0J-75000D01*
G01*
X174300000Y-94375000D01*
G75*
G02*
X174225000Y-94450000I-75000J0D01*
G01*
X174075000Y-94450000D01*
G75*
G02*
X174000000Y-94375000I0J75000D01*
G01*
G37*
G36*
G01*
X173500000Y-94375000D02*
X173500000Y-92975000D01*
G75*
G02*
X173575000Y-92900000I75000J0D01*
G01*
X173725000Y-92900000D01*
G75*
G02*
X173800000Y-92975000I0J-75000D01*
G01*
X173800000Y-94375000D01*
G75*
G02*
X173725000Y-94450000I-75000J0D01*
G01*
X173575000Y-94450000D01*
G75*
G02*
X173500000Y-94375000I0J75000D01*
G01*
G37*
G36*
G01*
X173000000Y-94375000D02*
X173000000Y-92975000D01*
G75*
G02*
X173075000Y-92900000I75000J0D01*
G01*
X173225000Y-92900000D01*
G75*
G02*
X173300000Y-92975000I0J-75000D01*
G01*
X173300000Y-94375000D01*
G75*
G02*
X173225000Y-94450000I-75000J0D01*
G01*
X173075000Y-94450000D01*
G75*
G02*
X173000000Y-94375000I0J75000D01*
G01*
G37*
G36*
G01*
X172500000Y-94375000D02*
X172500000Y-92975000D01*
G75*
G02*
X172575000Y-92900000I75000J0D01*
G01*
X172725000Y-92900000D01*
G75*
G02*
X172800000Y-92975000I0J-75000D01*
G01*
X172800000Y-94375000D01*
G75*
G02*
X172725000Y-94450000I-75000J0D01*
G01*
X172575000Y-94450000D01*
G75*
G02*
X172500000Y-94375000I0J75000D01*
G01*
G37*
G36*
G01*
X172000000Y-94375000D02*
X172000000Y-92975000D01*
G75*
G02*
X172075000Y-92900000I75000J0D01*
G01*
X172225000Y-92900000D01*
G75*
G02*
X172300000Y-92975000I0J-75000D01*
G01*
X172300000Y-94375000D01*
G75*
G02*
X172225000Y-94450000I-75000J0D01*
G01*
X172075000Y-94450000D01*
G75*
G02*
X172000000Y-94375000I0J75000D01*
G01*
G37*
G36*
G01*
X171500000Y-94375000D02*
X171500000Y-92975000D01*
G75*
G02*
X171575000Y-92900000I75000J0D01*
G01*
X171725000Y-92900000D01*
G75*
G02*
X171800000Y-92975000I0J-75000D01*
G01*
X171800000Y-94375000D01*
G75*
G02*
X171725000Y-94450000I-75000J0D01*
G01*
X171575000Y-94450000D01*
G75*
G02*
X171500000Y-94375000I0J75000D01*
G01*
G37*
G36*
G01*
X171000000Y-94375000D02*
X171000000Y-92975000D01*
G75*
G02*
X171075000Y-92900000I75000J0D01*
G01*
X171225000Y-92900000D01*
G75*
G02*
X171300000Y-92975000I0J-75000D01*
G01*
X171300000Y-94375000D01*
G75*
G02*
X171225000Y-94450000I-75000J0D01*
G01*
X171075000Y-94450000D01*
G75*
G02*
X171000000Y-94375000I0J75000D01*
G01*
G37*
G36*
G01*
X170500000Y-94375000D02*
X170500000Y-92975000D01*
G75*
G02*
X170575000Y-92900000I75000J0D01*
G01*
X170725000Y-92900000D01*
G75*
G02*
X170800000Y-92975000I0J-75000D01*
G01*
X170800000Y-94375000D01*
G75*
G02*
X170725000Y-94450000I-75000J0D01*
G01*
X170575000Y-94450000D01*
G75*
G02*
X170500000Y-94375000I0J75000D01*
G01*
G37*
G36*
G01*
X170000000Y-94375000D02*
X170000000Y-92975000D01*
G75*
G02*
X170075000Y-92900000I75000J0D01*
G01*
X170225000Y-92900000D01*
G75*
G02*
X170300000Y-92975000I0J-75000D01*
G01*
X170300000Y-94375000D01*
G75*
G02*
X170225000Y-94450000I-75000J0D01*
G01*
X170075000Y-94450000D01*
G75*
G02*
X170000000Y-94375000I0J75000D01*
G01*
G37*
G36*
G01*
X169500000Y-94375000D02*
X169500000Y-92975000D01*
G75*
G02*
X169575000Y-92900000I75000J0D01*
G01*
X169725000Y-92900000D01*
G75*
G02*
X169800000Y-92975000I0J-75000D01*
G01*
X169800000Y-94375000D01*
G75*
G02*
X169725000Y-94450000I-75000J0D01*
G01*
X169575000Y-94450000D01*
G75*
G02*
X169500000Y-94375000I0J75000D01*
G01*
G37*
G36*
G01*
X169000000Y-94375000D02*
X169000000Y-92975000D01*
G75*
G02*
X169075000Y-92900000I75000J0D01*
G01*
X169225000Y-92900000D01*
G75*
G02*
X169300000Y-92975000I0J-75000D01*
G01*
X169300000Y-94375000D01*
G75*
G02*
X169225000Y-94450000I-75000J0D01*
G01*
X169075000Y-94450000D01*
G75*
G02*
X169000000Y-94375000I0J75000D01*
G01*
G37*
G36*
G01*
X168500000Y-94375000D02*
X168500000Y-92975000D01*
G75*
G02*
X168575000Y-92900000I75000J0D01*
G01*
X168725000Y-92900000D01*
G75*
G02*
X168800000Y-92975000I0J-75000D01*
G01*
X168800000Y-94375000D01*
G75*
G02*
X168725000Y-94450000I-75000J0D01*
G01*
X168575000Y-94450000D01*
G75*
G02*
X168500000Y-94375000I0J75000D01*
G01*
G37*
G36*
G01*
X168000000Y-94375000D02*
X168000000Y-92975000D01*
G75*
G02*
X168075000Y-92900000I75000J0D01*
G01*
X168225000Y-92900000D01*
G75*
G02*
X168300000Y-92975000I0J-75000D01*
G01*
X168300000Y-94375000D01*
G75*
G02*
X168225000Y-94450000I-75000J0D01*
G01*
X168075000Y-94450000D01*
G75*
G02*
X168000000Y-94375000I0J75000D01*
G01*
G37*
G36*
G01*
X167500000Y-94375000D02*
X167500000Y-92975000D01*
G75*
G02*
X167575000Y-92900000I75000J0D01*
G01*
X167725000Y-92900000D01*
G75*
G02*
X167800000Y-92975000I0J-75000D01*
G01*
X167800000Y-94375000D01*
G75*
G02*
X167725000Y-94450000I-75000J0D01*
G01*
X167575000Y-94450000D01*
G75*
G02*
X167500000Y-94375000I0J75000D01*
G01*
G37*
G36*
G01*
X167000000Y-94375000D02*
X167000000Y-92975000D01*
G75*
G02*
X167075000Y-92900000I75000J0D01*
G01*
X167225000Y-92900000D01*
G75*
G02*
X167300000Y-92975000I0J-75000D01*
G01*
X167300000Y-94375000D01*
G75*
G02*
X167225000Y-94450000I-75000J0D01*
G01*
X167075000Y-94450000D01*
G75*
G02*
X167000000Y-94375000I0J75000D01*
G01*
G37*
G36*
G01*
X166500000Y-94375000D02*
X166500000Y-92975000D01*
G75*
G02*
X166575000Y-92900000I75000J0D01*
G01*
X166725000Y-92900000D01*
G75*
G02*
X166800000Y-92975000I0J-75000D01*
G01*
X166800000Y-94375000D01*
G75*
G02*
X166725000Y-94450000I-75000J0D01*
G01*
X166575000Y-94450000D01*
G75*
G02*
X166500000Y-94375000I0J75000D01*
G01*
G37*
G36*
G01*
X163950000Y-91825000D02*
X163950000Y-91675000D01*
G75*
G02*
X164025000Y-91600000I75000J0D01*
G01*
X165425000Y-91600000D01*
G75*
G02*
X165500000Y-91675000I0J-75000D01*
G01*
X165500000Y-91825000D01*
G75*
G02*
X165425000Y-91900000I-75000J0D01*
G01*
X164025000Y-91900000D01*
G75*
G02*
X163950000Y-91825000I0J75000D01*
G01*
G37*
G36*
G01*
X163950000Y-91325000D02*
X163950000Y-91175000D01*
G75*
G02*
X164025000Y-91100000I75000J0D01*
G01*
X165425000Y-91100000D01*
G75*
G02*
X165500000Y-91175000I0J-75000D01*
G01*
X165500000Y-91325000D01*
G75*
G02*
X165425000Y-91400000I-75000J0D01*
G01*
X164025000Y-91400000D01*
G75*
G02*
X163950000Y-91325000I0J75000D01*
G01*
G37*
G36*
G01*
X163950000Y-90825000D02*
X163950000Y-90675000D01*
G75*
G02*
X164025000Y-90600000I75000J0D01*
G01*
X165425000Y-90600000D01*
G75*
G02*
X165500000Y-90675000I0J-75000D01*
G01*
X165500000Y-90825000D01*
G75*
G02*
X165425000Y-90900000I-75000J0D01*
G01*
X164025000Y-90900000D01*
G75*
G02*
X163950000Y-90825000I0J75000D01*
G01*
G37*
G36*
G01*
X163950000Y-90325000D02*
X163950000Y-90175000D01*
G75*
G02*
X164025000Y-90100000I75000J0D01*
G01*
X165425000Y-90100000D01*
G75*
G02*
X165500000Y-90175000I0J-75000D01*
G01*
X165500000Y-90325000D01*
G75*
G02*
X165425000Y-90400000I-75000J0D01*
G01*
X164025000Y-90400000D01*
G75*
G02*
X163950000Y-90325000I0J75000D01*
G01*
G37*
G36*
G01*
X163950000Y-89825000D02*
X163950000Y-89675000D01*
G75*
G02*
X164025000Y-89600000I75000J0D01*
G01*
X165425000Y-89600000D01*
G75*
G02*
X165500000Y-89675000I0J-75000D01*
G01*
X165500000Y-89825000D01*
G75*
G02*
X165425000Y-89900000I-75000J0D01*
G01*
X164025000Y-89900000D01*
G75*
G02*
X163950000Y-89825000I0J75000D01*
G01*
G37*
G36*
G01*
X163950000Y-89325000D02*
X163950000Y-89175000D01*
G75*
G02*
X164025000Y-89100000I75000J0D01*
G01*
X165425000Y-89100000D01*
G75*
G02*
X165500000Y-89175000I0J-75000D01*
G01*
X165500000Y-89325000D01*
G75*
G02*
X165425000Y-89400000I-75000J0D01*
G01*
X164025000Y-89400000D01*
G75*
G02*
X163950000Y-89325000I0J75000D01*
G01*
G37*
G36*
G01*
X163950000Y-88825000D02*
X163950000Y-88675000D01*
G75*
G02*
X164025000Y-88600000I75000J0D01*
G01*
X165425000Y-88600000D01*
G75*
G02*
X165500000Y-88675000I0J-75000D01*
G01*
X165500000Y-88825000D01*
G75*
G02*
X165425000Y-88900000I-75000J0D01*
G01*
X164025000Y-88900000D01*
G75*
G02*
X163950000Y-88825000I0J75000D01*
G01*
G37*
G36*
G01*
X163950000Y-88325000D02*
X163950000Y-88175000D01*
G75*
G02*
X164025000Y-88100000I75000J0D01*
G01*
X165425000Y-88100000D01*
G75*
G02*
X165500000Y-88175000I0J-75000D01*
G01*
X165500000Y-88325000D01*
G75*
G02*
X165425000Y-88400000I-75000J0D01*
G01*
X164025000Y-88400000D01*
G75*
G02*
X163950000Y-88325000I0J75000D01*
G01*
G37*
G36*
G01*
X163950000Y-87825000D02*
X163950000Y-87675000D01*
G75*
G02*
X164025000Y-87600000I75000J0D01*
G01*
X165425000Y-87600000D01*
G75*
G02*
X165500000Y-87675000I0J-75000D01*
G01*
X165500000Y-87825000D01*
G75*
G02*
X165425000Y-87900000I-75000J0D01*
G01*
X164025000Y-87900000D01*
G75*
G02*
X163950000Y-87825000I0J75000D01*
G01*
G37*
G36*
G01*
X163950000Y-87325000D02*
X163950000Y-87175000D01*
G75*
G02*
X164025000Y-87100000I75000J0D01*
G01*
X165425000Y-87100000D01*
G75*
G02*
X165500000Y-87175000I0J-75000D01*
G01*
X165500000Y-87325000D01*
G75*
G02*
X165425000Y-87400000I-75000J0D01*
G01*
X164025000Y-87400000D01*
G75*
G02*
X163950000Y-87325000I0J75000D01*
G01*
G37*
G36*
G01*
X163950000Y-86825000D02*
X163950000Y-86675000D01*
G75*
G02*
X164025000Y-86600000I75000J0D01*
G01*
X165425000Y-86600000D01*
G75*
G02*
X165500000Y-86675000I0J-75000D01*
G01*
X165500000Y-86825000D01*
G75*
G02*
X165425000Y-86900000I-75000J0D01*
G01*
X164025000Y-86900000D01*
G75*
G02*
X163950000Y-86825000I0J75000D01*
G01*
G37*
G36*
G01*
X163950000Y-86325000D02*
X163950000Y-86175000D01*
G75*
G02*
X164025000Y-86100000I75000J0D01*
G01*
X165425000Y-86100000D01*
G75*
G02*
X165500000Y-86175000I0J-75000D01*
G01*
X165500000Y-86325000D01*
G75*
G02*
X165425000Y-86400000I-75000J0D01*
G01*
X164025000Y-86400000D01*
G75*
G02*
X163950000Y-86325000I0J75000D01*
G01*
G37*
G36*
G01*
X163950000Y-85825000D02*
X163950000Y-85675000D01*
G75*
G02*
X164025000Y-85600000I75000J0D01*
G01*
X165425000Y-85600000D01*
G75*
G02*
X165500000Y-85675000I0J-75000D01*
G01*
X165500000Y-85825000D01*
G75*
G02*
X165425000Y-85900000I-75000J0D01*
G01*
X164025000Y-85900000D01*
G75*
G02*
X163950000Y-85825000I0J75000D01*
G01*
G37*
G36*
G01*
X163950000Y-85325000D02*
X163950000Y-85175000D01*
G75*
G02*
X164025000Y-85100000I75000J0D01*
G01*
X165425000Y-85100000D01*
G75*
G02*
X165500000Y-85175000I0J-75000D01*
G01*
X165500000Y-85325000D01*
G75*
G02*
X165425000Y-85400000I-75000J0D01*
G01*
X164025000Y-85400000D01*
G75*
G02*
X163950000Y-85325000I0J75000D01*
G01*
G37*
G36*
G01*
X163950000Y-84825000D02*
X163950000Y-84675000D01*
G75*
G02*
X164025000Y-84600000I75000J0D01*
G01*
X165425000Y-84600000D01*
G75*
G02*
X165500000Y-84675000I0J-75000D01*
G01*
X165500000Y-84825000D01*
G75*
G02*
X165425000Y-84900000I-75000J0D01*
G01*
X164025000Y-84900000D01*
G75*
G02*
X163950000Y-84825000I0J75000D01*
G01*
G37*
G36*
G01*
X163950000Y-84325000D02*
X163950000Y-84175000D01*
G75*
G02*
X164025000Y-84100000I75000J0D01*
G01*
X165425000Y-84100000D01*
G75*
G02*
X165500000Y-84175000I0J-75000D01*
G01*
X165500000Y-84325000D01*
G75*
G02*
X165425000Y-84400000I-75000J0D01*
G01*
X164025000Y-84400000D01*
G75*
G02*
X163950000Y-84325000I0J75000D01*
G01*
G37*
G36*
G01*
X162710000Y-96227500D02*
X162710000Y-96572500D01*
G75*
G02*
X162562500Y-96720000I-147500J0D01*
G01*
X162267500Y-96720000D01*
G75*
G02*
X162120000Y-96572500I0J147500D01*
G01*
X162120000Y-96227500D01*
G75*
G02*
X162267500Y-96080000I147500J0D01*
G01*
X162562500Y-96080000D01*
G75*
G02*
X162710000Y-96227500I0J-147500D01*
G01*
G37*
G36*
G01*
X163680000Y-96227500D02*
X163680000Y-96572500D01*
G75*
G02*
X163532500Y-96720000I-147500J0D01*
G01*
X163237500Y-96720000D01*
G75*
G02*
X163090000Y-96572500I0J147500D01*
G01*
X163090000Y-96227500D01*
G75*
G02*
X163237500Y-96080000I147500J0D01*
G01*
X163532500Y-96080000D01*
G75*
G02*
X163680000Y-96227500I0J-147500D01*
G01*
G37*
G36*
G01*
X162710000Y-95027500D02*
X162710000Y-95372500D01*
G75*
G02*
X162562500Y-95520000I-147500J0D01*
G01*
X162267500Y-95520000D01*
G75*
G02*
X162120000Y-95372500I0J147500D01*
G01*
X162120000Y-95027500D01*
G75*
G02*
X162267500Y-94880000I147500J0D01*
G01*
X162562500Y-94880000D01*
G75*
G02*
X162710000Y-95027500I0J-147500D01*
G01*
G37*
G36*
G01*
X163680000Y-95027500D02*
X163680000Y-95372500D01*
G75*
G02*
X163532500Y-95520000I-147500J0D01*
G01*
X163237500Y-95520000D01*
G75*
G02*
X163090000Y-95372500I0J147500D01*
G01*
X163090000Y-95027500D01*
G75*
G02*
X163237500Y-94880000I147500J0D01*
G01*
X163532500Y-94880000D01*
G75*
G02*
X163680000Y-95027500I0J-147500D01*
G01*
G37*
G36*
G01*
X158427500Y-89490000D02*
X158772500Y-89490000D01*
G75*
G02*
X158920000Y-89637500I0J-147500D01*
G01*
X158920000Y-89932500D01*
G75*
G02*
X158772500Y-90080000I-147500J0D01*
G01*
X158427500Y-90080000D01*
G75*
G02*
X158280000Y-89932500I0J147500D01*
G01*
X158280000Y-89637500D01*
G75*
G02*
X158427500Y-89490000I147500J0D01*
G01*
G37*
G36*
G01*
X158427500Y-88520000D02*
X158772500Y-88520000D01*
G75*
G02*
X158920000Y-88667500I0J-147500D01*
G01*
X158920000Y-88962500D01*
G75*
G02*
X158772500Y-89110000I-147500J0D01*
G01*
X158427500Y-89110000D01*
G75*
G02*
X158280000Y-88962500I0J147500D01*
G01*
X158280000Y-88667500D01*
G75*
G02*
X158427500Y-88520000I147500J0D01*
G01*
G37*
G36*
G01*
X160740000Y-87822500D02*
X160740000Y-87477500D01*
G75*
G02*
X160887500Y-87330000I147500J0D01*
G01*
X161182500Y-87330000D01*
G75*
G02*
X161330000Y-87477500I0J-147500D01*
G01*
X161330000Y-87822500D01*
G75*
G02*
X161182500Y-87970000I-147500J0D01*
G01*
X160887500Y-87970000D01*
G75*
G02*
X160740000Y-87822500I0J147500D01*
G01*
G37*
G36*
G01*
X159770000Y-87822500D02*
X159770000Y-87477500D01*
G75*
G02*
X159917500Y-87330000I147500J0D01*
G01*
X160212500Y-87330000D01*
G75*
G02*
X160360000Y-87477500I0J-147500D01*
G01*
X160360000Y-87822500D01*
G75*
G02*
X160212500Y-87970000I-147500J0D01*
G01*
X159917500Y-87970000D01*
G75*
G02*
X159770000Y-87822500I0J147500D01*
G01*
G37*
G36*
G01*
X157910000Y-82027500D02*
X157910000Y-82372500D01*
G75*
G02*
X157762500Y-82520000I-147500J0D01*
G01*
X157467500Y-82520000D01*
G75*
G02*
X157320000Y-82372500I0J147500D01*
G01*
X157320000Y-82027500D01*
G75*
G02*
X157467500Y-81880000I147500J0D01*
G01*
X157762500Y-81880000D01*
G75*
G02*
X157910000Y-82027500I0J-147500D01*
G01*
G37*
G36*
G01*
X158880000Y-82027500D02*
X158880000Y-82372500D01*
G75*
G02*
X158732500Y-82520000I-147500J0D01*
G01*
X158437500Y-82520000D01*
G75*
G02*
X158290000Y-82372500I0J147500D01*
G01*
X158290000Y-82027500D01*
G75*
G02*
X158437500Y-81880000I147500J0D01*
G01*
X158732500Y-81880000D01*
G75*
G02*
X158880000Y-82027500I0J-147500D01*
G01*
G37*
G36*
G01*
X157910000Y-83227500D02*
X157910000Y-83572500D01*
G75*
G02*
X157762500Y-83720000I-147500J0D01*
G01*
X157467500Y-83720000D01*
G75*
G02*
X157320000Y-83572500I0J147500D01*
G01*
X157320000Y-83227500D01*
G75*
G02*
X157467500Y-83080000I147500J0D01*
G01*
X157762500Y-83080000D01*
G75*
G02*
X157910000Y-83227500I0J-147500D01*
G01*
G37*
G36*
G01*
X158880000Y-83227500D02*
X158880000Y-83572500D01*
G75*
G02*
X158732500Y-83720000I-147500J0D01*
G01*
X158437500Y-83720000D01*
G75*
G02*
X158290000Y-83572500I0J147500D01*
G01*
X158290000Y-83227500D01*
G75*
G02*
X158437500Y-83080000I147500J0D01*
G01*
X158732500Y-83080000D01*
G75*
G02*
X158880000Y-83227500I0J-147500D01*
G01*
G37*
G36*
G01*
X167810000Y-79327500D02*
X167810000Y-79672500D01*
G75*
G02*
X167662500Y-79820000I-147500J0D01*
G01*
X167367500Y-79820000D01*
G75*
G02*
X167220000Y-79672500I0J147500D01*
G01*
X167220000Y-79327500D01*
G75*
G02*
X167367500Y-79180000I147500J0D01*
G01*
X167662500Y-79180000D01*
G75*
G02*
X167810000Y-79327500I0J-147500D01*
G01*
G37*
G36*
G01*
X168780000Y-79327500D02*
X168780000Y-79672500D01*
G75*
G02*
X168632500Y-79820000I-147500J0D01*
G01*
X168337500Y-79820000D01*
G75*
G02*
X168190000Y-79672500I0J147500D01*
G01*
X168190000Y-79327500D01*
G75*
G02*
X168337500Y-79180000I147500J0D01*
G01*
X168632500Y-79180000D01*
G75*
G02*
X168780000Y-79327500I0J-147500D01*
G01*
G37*
G36*
G01*
X160743750Y-97950000D02*
X161256250Y-97950000D01*
G75*
G02*
X161475000Y-98168750I0J-218750D01*
G01*
X161475000Y-98606250D01*
G75*
G02*
X161256250Y-98825000I-218750J0D01*
G01*
X160743750Y-98825000D01*
G75*
G02*
X160525000Y-98606250I0J218750D01*
G01*
X160525000Y-98168750D01*
G75*
G02*
X160743750Y-97950000I218750J0D01*
G01*
G37*
G36*
G01*
X160743750Y-96375000D02*
X161256250Y-96375000D01*
G75*
G02*
X161475000Y-96593750I0J-218750D01*
G01*
X161475000Y-97031250D01*
G75*
G02*
X161256250Y-97250000I-218750J0D01*
G01*
X160743750Y-97250000D01*
G75*
G02*
X160525000Y-97031250I0J218750D01*
G01*
X160525000Y-96593750D01*
G75*
G02*
X160743750Y-96375000I218750J0D01*
G01*
G37*
G36*
G01*
X158843750Y-97950000D02*
X159356250Y-97950000D01*
G75*
G02*
X159575000Y-98168750I0J-218750D01*
G01*
X159575000Y-98606250D01*
G75*
G02*
X159356250Y-98825000I-218750J0D01*
G01*
X158843750Y-98825000D01*
G75*
G02*
X158625000Y-98606250I0J218750D01*
G01*
X158625000Y-98168750D01*
G75*
G02*
X158843750Y-97950000I218750J0D01*
G01*
G37*
G36*
G01*
X158843750Y-96375000D02*
X159356250Y-96375000D01*
G75*
G02*
X159575000Y-96593750I0J-218750D01*
G01*
X159575000Y-97031250D01*
G75*
G02*
X159356250Y-97250000I-218750J0D01*
G01*
X158843750Y-97250000D01*
G75*
G02*
X158625000Y-97031250I0J218750D01*
G01*
X158625000Y-96593750D01*
G75*
G02*
X158843750Y-96375000I218750J0D01*
G01*
G37*
G36*
G01*
X156943750Y-97950000D02*
X157456250Y-97950000D01*
G75*
G02*
X157675000Y-98168750I0J-218750D01*
G01*
X157675000Y-98606250D01*
G75*
G02*
X157456250Y-98825000I-218750J0D01*
G01*
X156943750Y-98825000D01*
G75*
G02*
X156725000Y-98606250I0J218750D01*
G01*
X156725000Y-98168750D01*
G75*
G02*
X156943750Y-97950000I218750J0D01*
G01*
G37*
G36*
G01*
X156943750Y-96375000D02*
X157456250Y-96375000D01*
G75*
G02*
X157675000Y-96593750I0J-218750D01*
G01*
X157675000Y-97031250D01*
G75*
G02*
X157456250Y-97250000I-218750J0D01*
G01*
X156943750Y-97250000D01*
G75*
G02*
X156725000Y-97031250I0J218750D01*
G01*
X156725000Y-96593750D01*
G75*
G02*
X156943750Y-96375000I218750J0D01*
G01*
G37*
G36*
G01*
X157022500Y-69060000D02*
X156677500Y-69060000D01*
G75*
G02*
X156530000Y-68912500I0J147500D01*
G01*
X156530000Y-68617500D01*
G75*
G02*
X156677500Y-68470000I147500J0D01*
G01*
X157022500Y-68470000D01*
G75*
G02*
X157170000Y-68617500I0J-147500D01*
G01*
X157170000Y-68912500D01*
G75*
G02*
X157022500Y-69060000I-147500J0D01*
G01*
G37*
G36*
G01*
X157022500Y-70030000D02*
X156677500Y-70030000D01*
G75*
G02*
X156530000Y-69882500I0J147500D01*
G01*
X156530000Y-69587500D01*
G75*
G02*
X156677500Y-69440000I147500J0D01*
G01*
X157022500Y-69440000D01*
G75*
G02*
X157170000Y-69587500I0J-147500D01*
G01*
X157170000Y-69882500D01*
G75*
G02*
X157022500Y-70030000I-147500J0D01*
G01*
G37*
G36*
G01*
X160360000Y-86427500D02*
X160360000Y-86772500D01*
G75*
G02*
X160212500Y-86920000I-147500J0D01*
G01*
X159917500Y-86920000D01*
G75*
G02*
X159770000Y-86772500I0J147500D01*
G01*
X159770000Y-86427500D01*
G75*
G02*
X159917500Y-86280000I147500J0D01*
G01*
X160212500Y-86280000D01*
G75*
G02*
X160360000Y-86427500I0J-147500D01*
G01*
G37*
G36*
G01*
X161330000Y-86427500D02*
X161330000Y-86772500D01*
G75*
G02*
X161182500Y-86920000I-147500J0D01*
G01*
X160887500Y-86920000D01*
G75*
G02*
X160740000Y-86772500I0J147500D01*
G01*
X160740000Y-86427500D01*
G75*
G02*
X160887500Y-86280000I147500J0D01*
G01*
X161182500Y-86280000D01*
G75*
G02*
X161330000Y-86427500I0J-147500D01*
G01*
G37*
G36*
G01*
X161310000Y-90727500D02*
X161310000Y-91072500D01*
G75*
G02*
X161162500Y-91220000I-147500J0D01*
G01*
X160867500Y-91220000D01*
G75*
G02*
X160720000Y-91072500I0J147500D01*
G01*
X160720000Y-90727500D01*
G75*
G02*
X160867500Y-90580000I147500J0D01*
G01*
X161162500Y-90580000D01*
G75*
G02*
X161310000Y-90727500I0J-147500D01*
G01*
G37*
G36*
G01*
X162280000Y-90727500D02*
X162280000Y-91072500D01*
G75*
G02*
X162132500Y-91220000I-147500J0D01*
G01*
X161837500Y-91220000D01*
G75*
G02*
X161690000Y-91072500I0J147500D01*
G01*
X161690000Y-90727500D01*
G75*
G02*
X161837500Y-90580000I147500J0D01*
G01*
X162132500Y-90580000D01*
G75*
G02*
X162280000Y-90727500I0J-147500D01*
G01*
G37*
G36*
G01*
X159972500Y-89110000D02*
X159627500Y-89110000D01*
G75*
G02*
X159480000Y-88962500I0J147500D01*
G01*
X159480000Y-88667500D01*
G75*
G02*
X159627500Y-88520000I147500J0D01*
G01*
X159972500Y-88520000D01*
G75*
G02*
X160120000Y-88667500I0J-147500D01*
G01*
X160120000Y-88962500D01*
G75*
G02*
X159972500Y-89110000I-147500J0D01*
G01*
G37*
G36*
G01*
X159972500Y-90080000D02*
X159627500Y-90080000D01*
G75*
G02*
X159480000Y-89932500I0J147500D01*
G01*
X159480000Y-89637500D01*
G75*
G02*
X159627500Y-89490000I147500J0D01*
G01*
X159972500Y-89490000D01*
G75*
G02*
X160120000Y-89637500I0J-147500D01*
G01*
X160120000Y-89932500D01*
G75*
G02*
X159972500Y-90080000I-147500J0D01*
G01*
G37*
G36*
G01*
X162527500Y-92590000D02*
X162872500Y-92590000D01*
G75*
G02*
X163020000Y-92737500I0J-147500D01*
G01*
X163020000Y-93032500D01*
G75*
G02*
X162872500Y-93180000I-147500J0D01*
G01*
X162527500Y-93180000D01*
G75*
G02*
X162380000Y-93032500I0J147500D01*
G01*
X162380000Y-92737500D01*
G75*
G02*
X162527500Y-92590000I147500J0D01*
G01*
G37*
G36*
G01*
X162527500Y-91620000D02*
X162872500Y-91620000D01*
G75*
G02*
X163020000Y-91767500I0J-147500D01*
G01*
X163020000Y-92062500D01*
G75*
G02*
X162872500Y-92210000I-147500J0D01*
G01*
X162527500Y-92210000D01*
G75*
G02*
X162380000Y-92062500I0J147500D01*
G01*
X162380000Y-91767500D01*
G75*
G02*
X162527500Y-91620000I147500J0D01*
G01*
G37*
G36*
G01*
X163690000Y-80772500D02*
X163690000Y-80427500D01*
G75*
G02*
X163837500Y-80280000I147500J0D01*
G01*
X164132500Y-80280000D01*
G75*
G02*
X164280000Y-80427500I0J-147500D01*
G01*
X164280000Y-80772500D01*
G75*
G02*
X164132500Y-80920000I-147500J0D01*
G01*
X163837500Y-80920000D01*
G75*
G02*
X163690000Y-80772500I0J147500D01*
G01*
G37*
G36*
G01*
X162720000Y-80772500D02*
X162720000Y-80427500D01*
G75*
G02*
X162867500Y-80280000I147500J0D01*
G01*
X163162500Y-80280000D01*
G75*
G02*
X163310000Y-80427500I0J-147500D01*
G01*
X163310000Y-80772500D01*
G75*
G02*
X163162500Y-80920000I-147500J0D01*
G01*
X162867500Y-80920000D01*
G75*
G02*
X162720000Y-80772500I0J147500D01*
G01*
G37*
G36*
G01*
X163690000Y-82172500D02*
X163690000Y-81827500D01*
G75*
G02*
X163837500Y-81680000I147500J0D01*
G01*
X164132500Y-81680000D01*
G75*
G02*
X164280000Y-81827500I0J-147500D01*
G01*
X164280000Y-82172500D01*
G75*
G02*
X164132500Y-82320000I-147500J0D01*
G01*
X163837500Y-82320000D01*
G75*
G02*
X163690000Y-82172500I0J147500D01*
G01*
G37*
G36*
G01*
X162720000Y-82172500D02*
X162720000Y-81827500D01*
G75*
G02*
X162867500Y-81680000I147500J0D01*
G01*
X163162500Y-81680000D01*
G75*
G02*
X163310000Y-81827500I0J-147500D01*
G01*
X163310000Y-82172500D01*
G75*
G02*
X163162500Y-82320000I-147500J0D01*
G01*
X162867500Y-82320000D01*
G75*
G02*
X162720000Y-82172500I0J147500D01*
G01*
G37*
G36*
G01*
X161172500Y-89110000D02*
X160827500Y-89110000D01*
G75*
G02*
X160680000Y-88962500I0J147500D01*
G01*
X160680000Y-88667500D01*
G75*
G02*
X160827500Y-88520000I147500J0D01*
G01*
X161172500Y-88520000D01*
G75*
G02*
X161320000Y-88667500I0J-147500D01*
G01*
X161320000Y-88962500D01*
G75*
G02*
X161172500Y-89110000I-147500J0D01*
G01*
G37*
G36*
G01*
X161172500Y-90080000D02*
X160827500Y-90080000D01*
G75*
G02*
X160680000Y-89932500I0J147500D01*
G01*
X160680000Y-89637500D01*
G75*
G02*
X160827500Y-89490000I147500J0D01*
G01*
X161172500Y-89490000D01*
G75*
G02*
X161320000Y-89637500I0J-147500D01*
G01*
X161320000Y-89932500D01*
G75*
G02*
X161172500Y-90080000I-147500J0D01*
G01*
G37*
G36*
G01*
X163877500Y-93890000D02*
X164222500Y-93890000D01*
G75*
G02*
X164370000Y-94037500I0J-147500D01*
G01*
X164370000Y-94332500D01*
G75*
G02*
X164222500Y-94480000I-147500J0D01*
G01*
X163877500Y-94480000D01*
G75*
G02*
X163730000Y-94332500I0J147500D01*
G01*
X163730000Y-94037500D01*
G75*
G02*
X163877500Y-93890000I147500J0D01*
G01*
G37*
G36*
G01*
X163877500Y-92920000D02*
X164222500Y-92920000D01*
G75*
G02*
X164370000Y-93067500I0J-147500D01*
G01*
X164370000Y-93362500D01*
G75*
G02*
X164222500Y-93510000I-147500J0D01*
G01*
X163877500Y-93510000D01*
G75*
G02*
X163730000Y-93362500I0J147500D01*
G01*
X163730000Y-93067500D01*
G75*
G02*
X163877500Y-92920000I147500J0D01*
G01*
G37*
G36*
G01*
X178490000Y-84372500D02*
X178490000Y-84027500D01*
G75*
G02*
X178637500Y-83880000I147500J0D01*
G01*
X178932500Y-83880000D01*
G75*
G02*
X179080000Y-84027500I0J-147500D01*
G01*
X179080000Y-84372500D01*
G75*
G02*
X178932500Y-84520000I-147500J0D01*
G01*
X178637500Y-84520000D01*
G75*
G02*
X178490000Y-84372500I0J147500D01*
G01*
G37*
G36*
G01*
X177520000Y-84372500D02*
X177520000Y-84027500D01*
G75*
G02*
X177667500Y-83880000I147500J0D01*
G01*
X177962500Y-83880000D01*
G75*
G02*
X178110000Y-84027500I0J-147500D01*
G01*
X178110000Y-84372500D01*
G75*
G02*
X177962500Y-84520000I-147500J0D01*
G01*
X177667500Y-84520000D01*
G75*
G02*
X177520000Y-84372500I0J147500D01*
G01*
G37*
G36*
G01*
X175677500Y-97490000D02*
X176022500Y-97490000D01*
G75*
G02*
X176170000Y-97637500I0J-147500D01*
G01*
X176170000Y-97932500D01*
G75*
G02*
X176022500Y-98080000I-147500J0D01*
G01*
X175677500Y-98080000D01*
G75*
G02*
X175530000Y-97932500I0J147500D01*
G01*
X175530000Y-97637500D01*
G75*
G02*
X175677500Y-97490000I147500J0D01*
G01*
G37*
G36*
G01*
X175677500Y-96520000D02*
X176022500Y-96520000D01*
G75*
G02*
X176170000Y-96667500I0J-147500D01*
G01*
X176170000Y-96962500D01*
G75*
G02*
X176022500Y-97110000I-147500J0D01*
G01*
X175677500Y-97110000D01*
G75*
G02*
X175530000Y-96962500I0J147500D01*
G01*
X175530000Y-96667500D01*
G75*
G02*
X175677500Y-96520000I147500J0D01*
G01*
G37*
G36*
G01*
X178110000Y-82927500D02*
X178110000Y-83272500D01*
G75*
G02*
X177962500Y-83420000I-147500J0D01*
G01*
X177667500Y-83420000D01*
G75*
G02*
X177520000Y-83272500I0J147500D01*
G01*
X177520000Y-82927500D01*
G75*
G02*
X177667500Y-82780000I147500J0D01*
G01*
X177962500Y-82780000D01*
G75*
G02*
X178110000Y-82927500I0J-147500D01*
G01*
G37*
G36*
G01*
X179080000Y-82927500D02*
X179080000Y-83272500D01*
G75*
G02*
X178932500Y-83420000I-147500J0D01*
G01*
X178637500Y-83420000D01*
G75*
G02*
X178490000Y-83272500I0J147500D01*
G01*
X178490000Y-82927500D01*
G75*
G02*
X178637500Y-82780000I147500J0D01*
G01*
X178932500Y-82780000D01*
G75*
G02*
X179080000Y-82927500I0J-147500D01*
G01*
G37*
G36*
G01*
X174490000Y-95622500D02*
X174490000Y-95277500D01*
G75*
G02*
X174637500Y-95130000I147500J0D01*
G01*
X174932500Y-95130000D01*
G75*
G02*
X175080000Y-95277500I0J-147500D01*
G01*
X175080000Y-95622500D01*
G75*
G02*
X174932500Y-95770000I-147500J0D01*
G01*
X174637500Y-95770000D01*
G75*
G02*
X174490000Y-95622500I0J147500D01*
G01*
G37*
G36*
G01*
X173520000Y-95622500D02*
X173520000Y-95277500D01*
G75*
G02*
X173667500Y-95130000I147500J0D01*
G01*
X173962500Y-95130000D01*
G75*
G02*
X174110000Y-95277500I0J-147500D01*
G01*
X174110000Y-95622500D01*
G75*
G02*
X173962500Y-95770000I-147500J0D01*
G01*
X173667500Y-95770000D01*
G75*
G02*
X173520000Y-95622500I0J147500D01*
G01*
G37*
M02*
