G04 #@! TF.GenerationSoftware,KiCad,Pcbnew,5.1.5-52549c5~84~ubuntu18.04.1*
G04 #@! TF.CreationDate,2020-01-06T23:59:47+00:00*
G04 #@! TF.ProjectId,simpleboard,73696d70-6c65-4626-9f61-72642e6b6963,rev?*
G04 #@! TF.SameCoordinates,Original*
G04 #@! TF.FileFunction,Legend,Top*
G04 #@! TF.FilePolarity,Positive*
%FSLAX46Y46*%
G04 Gerber Fmt 4.6, Leading zero omitted, Abs format (unit mm)*
G04 Created by KiCad (PCBNEW 5.1.5-52549c5~84~ubuntu18.04.1) date 2020-01-06 23:59:47*
%MOMM*%
%LPD*%
G04 APERTURE LIST*
%ADD10C,0.125000*%
%ADD11C,0.175000*%
%ADD12C,0.400000*%
%ADD13C,0.200000*%
%ADD14C,0.120000*%
%ADD15C,0.150000*%
G04 APERTURE END LIST*
D10*
X153157142Y-89902678D02*
X154057142Y-89736011D01*
X153157142Y-89569345D01*
X153157142Y-89307440D02*
X153157142Y-89259821D01*
X153200000Y-89212202D01*
X153242857Y-89188392D01*
X153328571Y-89164583D01*
X153500000Y-89140773D01*
X153714285Y-89140773D01*
X153885714Y-89164583D01*
X153971428Y-89188392D01*
X154014285Y-89212202D01*
X154057142Y-89259821D01*
X154057142Y-89307440D01*
X154014285Y-89355059D01*
X153971428Y-89378869D01*
X153885714Y-89402678D01*
X153714285Y-89426488D01*
X153500000Y-89426488D01*
X153328571Y-89402678D01*
X153242857Y-89378869D01*
X153200000Y-89355059D01*
X153157142Y-89307440D01*
X153971428Y-88926488D02*
X154014285Y-88902678D01*
X154057142Y-88926488D01*
X154014285Y-88950297D01*
X153971428Y-88926488D01*
X154057142Y-88926488D01*
X154057142Y-88426488D02*
X154057142Y-88712202D01*
X154057142Y-88569345D02*
X153157142Y-88569345D01*
X153285714Y-88616964D01*
X153371428Y-88664583D01*
X153414285Y-88712202D01*
X151519642Y-91647916D02*
X150619642Y-91647916D01*
X150919642Y-91409821D02*
X151519642Y-91409821D01*
X151005357Y-91409821D02*
X150962500Y-91386011D01*
X150919642Y-91338392D01*
X150919642Y-91266964D01*
X150962500Y-91219345D01*
X151048214Y-91195535D01*
X151519642Y-91195535D01*
X150919642Y-91028869D02*
X150919642Y-90838392D01*
X150619642Y-90957440D02*
X151391071Y-90957440D01*
X151476785Y-90933630D01*
X151519642Y-90886011D01*
X151519642Y-90838392D01*
X151476785Y-90481250D02*
X151519642Y-90528869D01*
X151519642Y-90624107D01*
X151476785Y-90671726D01*
X151391071Y-90695535D01*
X151048214Y-90695535D01*
X150962500Y-90671726D01*
X150919642Y-90624107D01*
X150919642Y-90528869D01*
X150962500Y-90481250D01*
X151048214Y-90457440D01*
X151133928Y-90457440D01*
X151219642Y-90695535D01*
X150919642Y-90028869D02*
X151648214Y-90028869D01*
X151733928Y-90052678D01*
X151776785Y-90076488D01*
X151819642Y-90124107D01*
X151819642Y-90195535D01*
X151776785Y-90243154D01*
X151476785Y-90028869D02*
X151519642Y-90076488D01*
X151519642Y-90171726D01*
X151476785Y-90219345D01*
X151433928Y-90243154D01*
X151348214Y-90266964D01*
X151091071Y-90266964D01*
X151005357Y-90243154D01*
X150962500Y-90219345D01*
X150919642Y-90171726D01*
X150919642Y-90076488D01*
X150962500Y-90028869D01*
X151519642Y-89790773D02*
X150919642Y-89790773D01*
X151091071Y-89790773D02*
X151005357Y-89766964D01*
X150962500Y-89743154D01*
X150919642Y-89695535D01*
X150919642Y-89647916D01*
X151519642Y-89266964D02*
X151048214Y-89266964D01*
X150962500Y-89290773D01*
X150919642Y-89338392D01*
X150919642Y-89433630D01*
X150962500Y-89481250D01*
X151476785Y-89266964D02*
X151519642Y-89314583D01*
X151519642Y-89433630D01*
X151476785Y-89481250D01*
X151391071Y-89505059D01*
X151305357Y-89505059D01*
X151219642Y-89481250D01*
X151176785Y-89433630D01*
X151176785Y-89314583D01*
X151133928Y-89266964D01*
X150919642Y-89100297D02*
X150919642Y-88909821D01*
X150619642Y-89028869D02*
X151391071Y-89028869D01*
X151476785Y-89005059D01*
X151519642Y-88957440D01*
X151519642Y-88909821D01*
X151476785Y-88552678D02*
X151519642Y-88600297D01*
X151519642Y-88695535D01*
X151476785Y-88743154D01*
X151391071Y-88766964D01*
X151048214Y-88766964D01*
X150962500Y-88743154D01*
X150919642Y-88695535D01*
X150919642Y-88600297D01*
X150962500Y-88552678D01*
X151048214Y-88528869D01*
X151133928Y-88528869D01*
X151219642Y-88766964D01*
X151519642Y-88100297D02*
X150619642Y-88100297D01*
X151476785Y-88100297D02*
X151519642Y-88147916D01*
X151519642Y-88243154D01*
X151476785Y-88290773D01*
X151433928Y-88314583D01*
X151348214Y-88338392D01*
X151091071Y-88338392D01*
X151005357Y-88314583D01*
X150962500Y-88290773D01*
X150919642Y-88243154D01*
X150919642Y-88147916D01*
X150962500Y-88100297D01*
X152994642Y-94052678D02*
X152394642Y-94052678D01*
X152480357Y-94052678D02*
X152437500Y-94028869D01*
X152394642Y-93981250D01*
X152394642Y-93909821D01*
X152437500Y-93862202D01*
X152523214Y-93838392D01*
X152994642Y-93838392D01*
X152523214Y-93838392D02*
X152437500Y-93814583D01*
X152394642Y-93766964D01*
X152394642Y-93695535D01*
X152437500Y-93647916D01*
X152523214Y-93624107D01*
X152994642Y-93624107D01*
X152994642Y-93314583D02*
X152951785Y-93362202D01*
X152908928Y-93386011D01*
X152823214Y-93409821D01*
X152566071Y-93409821D01*
X152480357Y-93386011D01*
X152437500Y-93362202D01*
X152394642Y-93314583D01*
X152394642Y-93243154D01*
X152437500Y-93195535D01*
X152480357Y-93171726D01*
X152566071Y-93147916D01*
X152823214Y-93147916D01*
X152908928Y-93171726D01*
X152951785Y-93195535D01*
X152994642Y-93243154D01*
X152994642Y-93314583D01*
X152394642Y-93005059D02*
X152394642Y-92814583D01*
X152094642Y-92933630D02*
X152866071Y-92933630D01*
X152951785Y-92909821D01*
X152994642Y-92862202D01*
X152994642Y-92814583D01*
X152994642Y-92576488D02*
X152951785Y-92624107D01*
X152908928Y-92647916D01*
X152823214Y-92671726D01*
X152566071Y-92671726D01*
X152480357Y-92647916D01*
X152437500Y-92624107D01*
X152394642Y-92576488D01*
X152394642Y-92505059D01*
X152437500Y-92457440D01*
X152480357Y-92433630D01*
X152566071Y-92409821D01*
X152823214Y-92409821D01*
X152908928Y-92433630D01*
X152951785Y-92457440D01*
X152994642Y-92505059D01*
X152994642Y-92576488D01*
X152994642Y-92195535D02*
X152394642Y-92195535D01*
X152566071Y-92195535D02*
X152480357Y-92171726D01*
X152437500Y-92147916D01*
X152394642Y-92100297D01*
X152394642Y-92052678D01*
X152951785Y-91290773D02*
X152994642Y-91338392D01*
X152994642Y-91433630D01*
X152951785Y-91481250D01*
X152908928Y-91505059D01*
X152823214Y-91528869D01*
X152566071Y-91528869D01*
X152480357Y-91505059D01*
X152437500Y-91481250D01*
X152394642Y-91433630D01*
X152394642Y-91338392D01*
X152437500Y-91290773D01*
X152994642Y-91005059D02*
X152951785Y-91052678D01*
X152908928Y-91076488D01*
X152823214Y-91100297D01*
X152566071Y-91100297D01*
X152480357Y-91076488D01*
X152437500Y-91052678D01*
X152394642Y-91005059D01*
X152394642Y-90933630D01*
X152437500Y-90886011D01*
X152480357Y-90862202D01*
X152566071Y-90838392D01*
X152823214Y-90838392D01*
X152908928Y-90862202D01*
X152951785Y-90886011D01*
X152994642Y-90933630D01*
X152994642Y-91005059D01*
X152394642Y-90624107D02*
X152994642Y-90624107D01*
X152480357Y-90624107D02*
X152437500Y-90600297D01*
X152394642Y-90552678D01*
X152394642Y-90481250D01*
X152437500Y-90433630D01*
X152523214Y-90409821D01*
X152994642Y-90409821D01*
X152394642Y-90243154D02*
X152394642Y-90052678D01*
X152094642Y-90171726D02*
X152866071Y-90171726D01*
X152951785Y-90147916D01*
X152994642Y-90100297D01*
X152994642Y-90052678D01*
X152994642Y-89886011D02*
X152394642Y-89886011D01*
X152566071Y-89886011D02*
X152480357Y-89862202D01*
X152437500Y-89838392D01*
X152394642Y-89790773D01*
X152394642Y-89743154D01*
X152994642Y-89505059D02*
X152951785Y-89552678D01*
X152908928Y-89576488D01*
X152823214Y-89600297D01*
X152566071Y-89600297D01*
X152480357Y-89576488D01*
X152437500Y-89552678D01*
X152394642Y-89505059D01*
X152394642Y-89433630D01*
X152437500Y-89386011D01*
X152480357Y-89362202D01*
X152566071Y-89338392D01*
X152823214Y-89338392D01*
X152908928Y-89362202D01*
X152951785Y-89386011D01*
X152994642Y-89433630D01*
X152994642Y-89505059D01*
X152994642Y-89052678D02*
X152951785Y-89100297D01*
X152866071Y-89124107D01*
X152094642Y-89124107D01*
X152994642Y-88790773D02*
X152951785Y-88838392D01*
X152866071Y-88862202D01*
X152094642Y-88862202D01*
X152951785Y-88409821D02*
X152994642Y-88457440D01*
X152994642Y-88552678D01*
X152951785Y-88600297D01*
X152866071Y-88624107D01*
X152523214Y-88624107D01*
X152437500Y-88600297D01*
X152394642Y-88552678D01*
X152394642Y-88457440D01*
X152437500Y-88409821D01*
X152523214Y-88386011D01*
X152608928Y-88386011D01*
X152694642Y-88624107D01*
X152994642Y-88171726D02*
X152394642Y-88171726D01*
X152566071Y-88171726D02*
X152480357Y-88147916D01*
X152437500Y-88124107D01*
X152394642Y-88076488D01*
X152394642Y-88028869D01*
D11*
X166516666Y-50884523D02*
X166650000Y-50884523D01*
X166716666Y-50925000D01*
X166783333Y-51005952D01*
X166816666Y-51167857D01*
X166816666Y-51451190D01*
X166783333Y-51613095D01*
X166716666Y-51694047D01*
X166650000Y-51734523D01*
X166516666Y-51734523D01*
X166450000Y-51694047D01*
X166383333Y-51613095D01*
X166350000Y-51451190D01*
X166350000Y-51167857D01*
X166383333Y-51005952D01*
X166450000Y-50925000D01*
X166516666Y-50884523D01*
X167016666Y-51167857D02*
X167283333Y-51167857D01*
X167116666Y-51734523D02*
X167116666Y-51005952D01*
X167150000Y-50925000D01*
X167216666Y-50884523D01*
X167283333Y-50884523D01*
X167416666Y-51167857D02*
X167683333Y-51167857D01*
X167516666Y-51734523D02*
X167516666Y-51005952D01*
X167550000Y-50925000D01*
X167616666Y-50884523D01*
X167683333Y-50884523D01*
X167916666Y-51734523D02*
X167916666Y-51167857D01*
X167916666Y-50884523D02*
X167883333Y-50925000D01*
X167916666Y-50965476D01*
X167950000Y-50925000D01*
X167916666Y-50884523D01*
X167916666Y-50965476D01*
X168550000Y-51694047D02*
X168483333Y-51734523D01*
X168350000Y-51734523D01*
X168283333Y-51694047D01*
X168250000Y-51653571D01*
X168216666Y-51572619D01*
X168216666Y-51329761D01*
X168250000Y-51248809D01*
X168283333Y-51208333D01*
X168350000Y-51167857D01*
X168483333Y-51167857D01*
X168550000Y-51208333D01*
X168850000Y-51734523D02*
X168850000Y-51167857D01*
X168850000Y-50884523D02*
X168816666Y-50925000D01*
X168850000Y-50965476D01*
X168883333Y-50925000D01*
X168850000Y-50884523D01*
X168850000Y-50965476D01*
X169183333Y-51167857D02*
X169183333Y-51734523D01*
X169183333Y-51248809D02*
X169216666Y-51208333D01*
X169283333Y-51167857D01*
X169383333Y-51167857D01*
X169450000Y-51208333D01*
X169483333Y-51289285D01*
X169483333Y-51734523D01*
X170083333Y-51694047D02*
X170016666Y-51734523D01*
X169883333Y-51734523D01*
X169816666Y-51694047D01*
X169783333Y-51613095D01*
X169783333Y-51289285D01*
X169816666Y-51208333D01*
X169883333Y-51167857D01*
X170016666Y-51167857D01*
X170083333Y-51208333D01*
X170116666Y-51289285D01*
X170116666Y-51370238D01*
X169783333Y-51451190D01*
X170816666Y-51734523D02*
X170583333Y-51329761D01*
X170416666Y-51734523D02*
X170416666Y-50884523D01*
X170683333Y-50884523D01*
X170750000Y-50925000D01*
X170783333Y-50965476D01*
X170816666Y-51046428D01*
X170816666Y-51167857D01*
X170783333Y-51248809D01*
X170750000Y-51289285D01*
X170683333Y-51329761D01*
X170416666Y-51329761D01*
X171216666Y-51734523D02*
X171150000Y-51694047D01*
X171116666Y-51653571D01*
X171083333Y-51572619D01*
X171083333Y-51329761D01*
X171116666Y-51248809D01*
X171150000Y-51208333D01*
X171216666Y-51167857D01*
X171316666Y-51167857D01*
X171383333Y-51208333D01*
X171416666Y-51248809D01*
X171450000Y-51329761D01*
X171450000Y-51572619D01*
X171416666Y-51653571D01*
X171383333Y-51694047D01*
X171316666Y-51734523D01*
X171216666Y-51734523D01*
X171750000Y-51734523D02*
X171750000Y-50884523D01*
X171750000Y-51208333D02*
X171816666Y-51167857D01*
X171950000Y-51167857D01*
X172016666Y-51208333D01*
X172050000Y-51248809D01*
X172083333Y-51329761D01*
X172083333Y-51572619D01*
X172050000Y-51653571D01*
X172016666Y-51694047D01*
X171950000Y-51734523D01*
X171816666Y-51734523D01*
X171750000Y-51694047D01*
X172483333Y-51734523D02*
X172416666Y-51694047D01*
X172383333Y-51653571D01*
X172350000Y-51572619D01*
X172350000Y-51329761D01*
X172383333Y-51248809D01*
X172416666Y-51208333D01*
X172483333Y-51167857D01*
X172583333Y-51167857D01*
X172650000Y-51208333D01*
X172683333Y-51248809D01*
X172716666Y-51329761D01*
X172716666Y-51572619D01*
X172683333Y-51653571D01*
X172650000Y-51694047D01*
X172583333Y-51734523D01*
X172483333Y-51734523D01*
X172916666Y-51167857D02*
X173183333Y-51167857D01*
X173016666Y-50884523D02*
X173016666Y-51613095D01*
X173050000Y-51694047D01*
X173116666Y-51734523D01*
X173183333Y-51734523D01*
X173416666Y-51734523D02*
X173416666Y-51167857D01*
X173416666Y-50884523D02*
X173383333Y-50925000D01*
X173416666Y-50965476D01*
X173450000Y-50925000D01*
X173416666Y-50884523D01*
X173416666Y-50965476D01*
X174050000Y-51694047D02*
X173983333Y-51734523D01*
X173850000Y-51734523D01*
X173783333Y-51694047D01*
X173750000Y-51653571D01*
X173716666Y-51572619D01*
X173716666Y-51329761D01*
X173750000Y-51248809D01*
X173783333Y-51208333D01*
X173850000Y-51167857D01*
X173983333Y-51167857D01*
X174050000Y-51208333D01*
X174350000Y-51734523D02*
X174350000Y-50884523D01*
X174650000Y-51734523D02*
X174650000Y-51289285D01*
X174616666Y-51208333D01*
X174550000Y-51167857D01*
X174450000Y-51167857D01*
X174383333Y-51208333D01*
X174350000Y-51248809D01*
X175250000Y-51694047D02*
X175183333Y-51734523D01*
X175050000Y-51734523D01*
X174983333Y-51694047D01*
X174950000Y-51613095D01*
X174950000Y-51289285D01*
X174983333Y-51208333D01*
X175050000Y-51167857D01*
X175183333Y-51167857D01*
X175250000Y-51208333D01*
X175283333Y-51289285D01*
X175283333Y-51370238D01*
X174950000Y-51451190D01*
X175583333Y-51653571D02*
X175616666Y-51694047D01*
X175583333Y-51734523D01*
X175550000Y-51694047D01*
X175583333Y-51653571D01*
X175583333Y-51734523D01*
X175916666Y-51734523D02*
X175916666Y-51167857D01*
X175916666Y-50884523D02*
X175883333Y-50925000D01*
X175916666Y-50965476D01*
X175950000Y-50925000D01*
X175916666Y-50884523D01*
X175916666Y-50965476D01*
X176150000Y-51167857D02*
X176416666Y-51167857D01*
X176250000Y-50884523D02*
X176250000Y-51613095D01*
X176283333Y-51694047D01*
X176350000Y-51734523D01*
X176416666Y-51734523D01*
D10*
X163904761Y-77434523D02*
X163904761Y-76989285D01*
X163866666Y-76908333D01*
X163790476Y-76867857D01*
X163638095Y-76867857D01*
X163561904Y-76908333D01*
X163904761Y-77394047D02*
X163828571Y-77434523D01*
X163638095Y-77434523D01*
X163561904Y-77394047D01*
X163523809Y-77313095D01*
X163523809Y-77232142D01*
X163561904Y-77151190D01*
X163638095Y-77110714D01*
X163828571Y-77110714D01*
X163904761Y-77070238D01*
X164400000Y-76584523D02*
X164400000Y-76786904D01*
X164209523Y-76705952D02*
X164400000Y-76786904D01*
X164590476Y-76705952D01*
X164285714Y-76948809D02*
X164400000Y-76786904D01*
X164514285Y-76948809D01*
X164895238Y-77434523D02*
X164895238Y-76867857D01*
X164895238Y-76948809D02*
X164933333Y-76908333D01*
X165009523Y-76867857D01*
X165123809Y-76867857D01*
X165200000Y-76908333D01*
X165238095Y-76989285D01*
X165238095Y-77434523D01*
X165238095Y-76989285D02*
X165276190Y-76908333D01*
X165352380Y-76867857D01*
X165466666Y-76867857D01*
X165542857Y-76908333D01*
X165580952Y-76989285D01*
X165580952Y-77434523D01*
X166533333Y-76665476D02*
X166571428Y-76625000D01*
X166647619Y-76584523D01*
X166838095Y-76584523D01*
X166914285Y-76625000D01*
X166952380Y-76665476D01*
X166990476Y-76746428D01*
X166990476Y-76827380D01*
X166952380Y-76948809D01*
X166495238Y-77434523D01*
X166990476Y-77434523D01*
X167485714Y-76584523D02*
X167561904Y-76584523D01*
X167638095Y-76625000D01*
X167676190Y-76665476D01*
X167714285Y-76746428D01*
X167752380Y-76908333D01*
X167752380Y-77110714D01*
X167714285Y-77272619D01*
X167676190Y-77353571D01*
X167638095Y-77394047D01*
X167561904Y-77434523D01*
X167485714Y-77434523D01*
X167409523Y-77394047D01*
X167371428Y-77353571D01*
X167333333Y-77272619D01*
X167295238Y-77110714D01*
X167295238Y-76908333D01*
X167333333Y-76746428D01*
X167371428Y-76665476D01*
X167409523Y-76625000D01*
X167485714Y-76584523D01*
X168057142Y-76665476D02*
X168095238Y-76625000D01*
X168171428Y-76584523D01*
X168361904Y-76584523D01*
X168438095Y-76625000D01*
X168476190Y-76665476D01*
X168514285Y-76746428D01*
X168514285Y-76827380D01*
X168476190Y-76948809D01*
X168019047Y-77434523D01*
X168514285Y-77434523D01*
X169009523Y-76584523D02*
X169085714Y-76584523D01*
X169161904Y-76625000D01*
X169200000Y-76665476D01*
X169238095Y-76746428D01*
X169276190Y-76908333D01*
X169276190Y-77110714D01*
X169238095Y-77272619D01*
X169200000Y-77353571D01*
X169161904Y-77394047D01*
X169085714Y-77434523D01*
X169009523Y-77434523D01*
X168933333Y-77394047D01*
X168895238Y-77353571D01*
X168857142Y-77272619D01*
X168819047Y-77110714D01*
X168819047Y-76908333D01*
X168857142Y-76746428D01*
X168895238Y-76665476D01*
X168933333Y-76625000D01*
X169009523Y-76584523D01*
D12*
X170261904Y-56657142D02*
X170261904Y-58657142D01*
X169404761Y-56657142D02*
X169404761Y-58228571D01*
X169500000Y-58514285D01*
X169690476Y-58657142D01*
X169976190Y-58657142D01*
X170166666Y-58514285D01*
X170261904Y-58371428D01*
X171214285Y-58657142D02*
X171214285Y-55657142D01*
X172357142Y-58657142D01*
X172357142Y-55657142D01*
X174166666Y-58657142D02*
X174166666Y-57085714D01*
X174071428Y-56800000D01*
X173880952Y-56657142D01*
X173500000Y-56657142D01*
X173309523Y-56800000D01*
X174166666Y-58514285D02*
X173976190Y-58657142D01*
X173500000Y-58657142D01*
X173309523Y-58514285D01*
X173214285Y-58228571D01*
X173214285Y-57942857D01*
X173309523Y-57657142D01*
X173500000Y-57514285D01*
X173976190Y-57514285D01*
X174166666Y-57371428D01*
X174928571Y-56657142D02*
X175404761Y-58657142D01*
X175880952Y-56657142D01*
X176547619Y-55942857D02*
X176642857Y-55800000D01*
X176833333Y-55657142D01*
X177309523Y-55657142D01*
X177500000Y-55800000D01*
X177595238Y-55942857D01*
X177690476Y-56228571D01*
X177690476Y-56514285D01*
X177595238Y-56942857D01*
X176452380Y-58657142D01*
X177690476Y-58657142D01*
D13*
X179430952Y-86821428D02*
X179430952Y-88154761D01*
X179002380Y-86821428D02*
X179002380Y-87869047D01*
X179050000Y-88059523D01*
X179145238Y-88154761D01*
X179288095Y-88154761D01*
X179383333Y-88059523D01*
X179430952Y-87964285D01*
X179907142Y-88154761D02*
X179907142Y-86154761D01*
X180478571Y-88154761D01*
X180478571Y-86154761D01*
X181383333Y-88154761D02*
X181383333Y-87107142D01*
X181335714Y-86916666D01*
X181240476Y-86821428D01*
X181050000Y-86821428D01*
X180954761Y-86916666D01*
X181383333Y-88059523D02*
X181288095Y-88154761D01*
X181050000Y-88154761D01*
X180954761Y-88059523D01*
X180907142Y-87869047D01*
X180907142Y-87678571D01*
X180954761Y-87488095D01*
X181050000Y-87392857D01*
X181288095Y-87392857D01*
X181383333Y-87297619D01*
X181764285Y-86821428D02*
X182002380Y-88154761D01*
X182240476Y-86821428D01*
X182573809Y-86345238D02*
X182621428Y-86250000D01*
X182716666Y-86154761D01*
X182954761Y-86154761D01*
X183050000Y-86250000D01*
X183097619Y-86345238D01*
X183145238Y-86535714D01*
X183145238Y-86726190D01*
X183097619Y-87011904D01*
X182526190Y-88154761D01*
X183145238Y-88154761D01*
D11*
X177766666Y-90392857D02*
X177900000Y-90392857D01*
X177966666Y-90450000D01*
X178033333Y-90564285D01*
X178066666Y-90792857D01*
X178066666Y-91192857D01*
X178033333Y-91421428D01*
X177966666Y-91535714D01*
X177900000Y-91592857D01*
X177766666Y-91592857D01*
X177700000Y-91535714D01*
X177633333Y-91421428D01*
X177600000Y-91192857D01*
X177600000Y-90792857D01*
X177633333Y-90564285D01*
X177700000Y-90450000D01*
X177766666Y-90392857D01*
X178266666Y-90792857D02*
X178533333Y-90792857D01*
X178366666Y-91592857D02*
X178366666Y-90564285D01*
X178400000Y-90450000D01*
X178466666Y-90392857D01*
X178533333Y-90392857D01*
X178666666Y-90792857D02*
X178933333Y-90792857D01*
X178766666Y-91592857D02*
X178766666Y-90564285D01*
X178800000Y-90450000D01*
X178866666Y-90392857D01*
X178933333Y-90392857D01*
X179166666Y-91592857D02*
X179166666Y-90792857D01*
X179166666Y-90392857D02*
X179133333Y-90450000D01*
X179166666Y-90507142D01*
X179200000Y-90450000D01*
X179166666Y-90392857D01*
X179166666Y-90507142D01*
X179800000Y-91535714D02*
X179733333Y-91592857D01*
X179600000Y-91592857D01*
X179533333Y-91535714D01*
X179500000Y-91478571D01*
X179466666Y-91364285D01*
X179466666Y-91021428D01*
X179500000Y-90907142D01*
X179533333Y-90850000D01*
X179600000Y-90792857D01*
X179733333Y-90792857D01*
X179800000Y-90850000D01*
X180100000Y-91592857D02*
X180100000Y-90792857D01*
X180100000Y-90392857D02*
X180066666Y-90450000D01*
X180100000Y-90507142D01*
X180133333Y-90450000D01*
X180100000Y-90392857D01*
X180100000Y-90507142D01*
X180433333Y-90792857D02*
X180433333Y-91592857D01*
X180433333Y-90907142D02*
X180466666Y-90850000D01*
X180533333Y-90792857D01*
X180633333Y-90792857D01*
X180700000Y-90850000D01*
X180733333Y-90964285D01*
X180733333Y-91592857D01*
X181333333Y-91535714D02*
X181266666Y-91592857D01*
X181133333Y-91592857D01*
X181066666Y-91535714D01*
X181033333Y-91421428D01*
X181033333Y-90964285D01*
X181066666Y-90850000D01*
X181133333Y-90792857D01*
X181266666Y-90792857D01*
X181333333Y-90850000D01*
X181366666Y-90964285D01*
X181366666Y-91078571D01*
X181033333Y-91192857D01*
X182066666Y-91592857D02*
X181833333Y-91021428D01*
X181666666Y-91592857D02*
X181666666Y-90392857D01*
X181933333Y-90392857D01*
X182000000Y-90450000D01*
X182033333Y-90507142D01*
X182066666Y-90621428D01*
X182066666Y-90792857D01*
X182033333Y-90907142D01*
X182000000Y-90964285D01*
X181933333Y-91021428D01*
X181666666Y-91021428D01*
X182466666Y-91592857D02*
X182400000Y-91535714D01*
X182366666Y-91478571D01*
X182333333Y-91364285D01*
X182333333Y-91021428D01*
X182366666Y-90907142D01*
X182400000Y-90850000D01*
X182466666Y-90792857D01*
X182566666Y-90792857D01*
X182633333Y-90850000D01*
X182666666Y-90907142D01*
X182700000Y-91021428D01*
X182700000Y-91364285D01*
X182666666Y-91478571D01*
X182633333Y-91535714D01*
X182566666Y-91592857D01*
X182466666Y-91592857D01*
X183000000Y-91592857D02*
X183000000Y-90392857D01*
X183000000Y-90850000D02*
X183066666Y-90792857D01*
X183200000Y-90792857D01*
X183266666Y-90850000D01*
X183300000Y-90907142D01*
X183333333Y-91021428D01*
X183333333Y-91364285D01*
X183300000Y-91478571D01*
X183266666Y-91535714D01*
X183200000Y-91592857D01*
X183066666Y-91592857D01*
X183000000Y-91535714D01*
X183733333Y-91592857D02*
X183666666Y-91535714D01*
X183633333Y-91478571D01*
X183600000Y-91364285D01*
X183600000Y-91021428D01*
X183633333Y-90907142D01*
X183666666Y-90850000D01*
X183733333Y-90792857D01*
X183833333Y-90792857D01*
X183900000Y-90850000D01*
X183933333Y-90907142D01*
X183966666Y-91021428D01*
X183966666Y-91364285D01*
X183933333Y-91478571D01*
X183900000Y-91535714D01*
X183833333Y-91592857D01*
X183733333Y-91592857D01*
X184166666Y-90792857D02*
X184433333Y-90792857D01*
X184266666Y-90392857D02*
X184266666Y-91421428D01*
X184300000Y-91535714D01*
X184366666Y-91592857D01*
X184433333Y-91592857D01*
X184666666Y-91592857D02*
X184666666Y-90792857D01*
X184666666Y-90392857D02*
X184633333Y-90450000D01*
X184666666Y-90507142D01*
X184700000Y-90450000D01*
X184666666Y-90392857D01*
X184666666Y-90507142D01*
X185300000Y-91535714D02*
X185233333Y-91592857D01*
X185100000Y-91592857D01*
X185033333Y-91535714D01*
X185000000Y-91478571D01*
X184966666Y-91364285D01*
X184966666Y-91021428D01*
X185000000Y-90907142D01*
X185033333Y-90850000D01*
X185100000Y-90792857D01*
X185233333Y-90792857D01*
X185300000Y-90850000D01*
X185600000Y-91592857D02*
X185600000Y-90392857D01*
X185900000Y-91592857D02*
X185900000Y-90964285D01*
X185866666Y-90850000D01*
X185800000Y-90792857D01*
X185700000Y-90792857D01*
X185633333Y-90850000D01*
X185600000Y-90907142D01*
X186500000Y-91535714D02*
X186433333Y-91592857D01*
X186300000Y-91592857D01*
X186233333Y-91535714D01*
X186200000Y-91421428D01*
X186200000Y-90964285D01*
X186233333Y-90850000D01*
X186300000Y-90792857D01*
X186433333Y-90792857D01*
X186500000Y-90850000D01*
X186533333Y-90964285D01*
X186533333Y-91078571D01*
X186200000Y-91192857D01*
X186833333Y-91478571D02*
X186866666Y-91535714D01*
X186833333Y-91592857D01*
X186800000Y-91535714D01*
X186833333Y-91478571D01*
X186833333Y-91592857D01*
X187166666Y-91592857D02*
X187166666Y-90792857D01*
X187166666Y-90392857D02*
X187133333Y-90450000D01*
X187166666Y-90507142D01*
X187200000Y-90450000D01*
X187166666Y-90392857D01*
X187166666Y-90507142D01*
X187400000Y-90792857D02*
X187666666Y-90792857D01*
X187500000Y-90392857D02*
X187500000Y-91421428D01*
X187533333Y-91535714D01*
X187600000Y-91592857D01*
X187666666Y-91592857D01*
D10*
X190339285Y-80097619D02*
X190339285Y-80364285D01*
X190784523Y-80364285D02*
X189934523Y-80364285D01*
X189934523Y-79983333D01*
X189934523Y-79678571D02*
X190622619Y-79678571D01*
X190703571Y-79640476D01*
X190744047Y-79602380D01*
X190784523Y-79526190D01*
X190784523Y-79373809D01*
X190744047Y-79297619D01*
X190703571Y-79259523D01*
X190622619Y-79221428D01*
X189934523Y-79221428D01*
X190744047Y-78878571D02*
X190784523Y-78764285D01*
X190784523Y-78573809D01*
X190744047Y-78497619D01*
X190703571Y-78459523D01*
X190622619Y-78421428D01*
X190541666Y-78421428D01*
X190460714Y-78459523D01*
X190420238Y-78497619D01*
X190379761Y-78573809D01*
X190339285Y-78726190D01*
X190298809Y-78802380D01*
X190258333Y-78840476D01*
X190177380Y-78878571D01*
X190096428Y-78878571D01*
X190015476Y-78840476D01*
X189975000Y-78802380D01*
X189934523Y-78726190D01*
X189934523Y-78535714D01*
X189975000Y-78421428D01*
X190339285Y-78078571D02*
X190339285Y-77811904D01*
X190784523Y-77697619D02*
X190784523Y-78078571D01*
X189934523Y-78078571D01*
X189934523Y-77697619D01*
X192184523Y-79545238D02*
X192184523Y-80002380D01*
X192184523Y-79773809D02*
X191334523Y-79773809D01*
X191455952Y-79850000D01*
X191536904Y-79926190D01*
X191577380Y-80002380D01*
X191334523Y-79050000D02*
X191334523Y-78973809D01*
X191375000Y-78897619D01*
X191415476Y-78859523D01*
X191496428Y-78821428D01*
X191658333Y-78783333D01*
X191860714Y-78783333D01*
X192022619Y-78821428D01*
X192103571Y-78859523D01*
X192144047Y-78897619D01*
X192184523Y-78973809D01*
X192184523Y-79050000D01*
X192144047Y-79126190D01*
X192103571Y-79164285D01*
X192022619Y-79202380D01*
X191860714Y-79240476D01*
X191658333Y-79240476D01*
X191496428Y-79202380D01*
X191415476Y-79164285D01*
X191375000Y-79126190D01*
X191334523Y-79050000D01*
X191941666Y-78478571D02*
X191941666Y-78097619D01*
X192184523Y-78554761D02*
X191334523Y-78288095D01*
X192184523Y-78021428D01*
X191339285Y-66571428D02*
X191379761Y-66457142D01*
X191420238Y-66419047D01*
X191501190Y-66380952D01*
X191622619Y-66380952D01*
X191703571Y-66419047D01*
X191744047Y-66457142D01*
X191784523Y-66533333D01*
X191784523Y-66838095D01*
X190934523Y-66838095D01*
X190934523Y-66571428D01*
X190975000Y-66495238D01*
X191015476Y-66457142D01*
X191096428Y-66419047D01*
X191177380Y-66419047D01*
X191258333Y-66457142D01*
X191298809Y-66495238D01*
X191339285Y-66571428D01*
X191339285Y-66838095D01*
X191541666Y-66076190D02*
X191541666Y-65695238D01*
X191784523Y-66152380D02*
X190934523Y-65885714D01*
X191784523Y-65619047D01*
X190934523Y-65466666D02*
X190934523Y-65009523D01*
X191784523Y-65238095D02*
X190934523Y-65238095D01*
X190934523Y-64857142D02*
X190934523Y-64400000D01*
X191784523Y-64628571D02*
X190934523Y-64628571D01*
X191339285Y-64133333D02*
X191339285Y-63866666D01*
X191784523Y-63752380D02*
X191784523Y-64133333D01*
X190934523Y-64133333D01*
X190934523Y-63752380D01*
X191784523Y-62952380D02*
X191379761Y-63219047D01*
X191784523Y-63409523D02*
X190934523Y-63409523D01*
X190934523Y-63104761D01*
X190975000Y-63028571D01*
X191015476Y-62990476D01*
X191096428Y-62952380D01*
X191217857Y-62952380D01*
X191298809Y-62990476D01*
X191339285Y-63028571D01*
X191379761Y-63104761D01*
X191379761Y-63409523D01*
X191379761Y-62457142D02*
X191784523Y-62457142D01*
X190934523Y-62723809D02*
X191379761Y-62457142D01*
X190934523Y-62190476D01*
X192067857Y-61733333D02*
X190853571Y-61733333D01*
X191541666Y-61200000D02*
X191541666Y-60819047D01*
X191784523Y-61276190D02*
X190934523Y-61009523D01*
X191784523Y-60742857D01*
X190934523Y-60476190D02*
X191622619Y-60476190D01*
X191703571Y-60438095D01*
X191744047Y-60400000D01*
X191784523Y-60323809D01*
X191784523Y-60171428D01*
X191744047Y-60095238D01*
X191703571Y-60057142D01*
X191622619Y-60019047D01*
X190934523Y-60019047D01*
X190934523Y-59714285D02*
X191784523Y-59180952D01*
X190934523Y-59180952D02*
X191784523Y-59714285D01*
X190934523Y-58114285D02*
X190934523Y-57961904D01*
X190975000Y-57885714D01*
X191055952Y-57809523D01*
X191217857Y-57771428D01*
X191501190Y-57771428D01*
X191663095Y-57809523D01*
X191744047Y-57885714D01*
X191784523Y-57961904D01*
X191784523Y-58114285D01*
X191744047Y-58190476D01*
X191663095Y-58266666D01*
X191501190Y-58304761D01*
X191217857Y-58304761D01*
X191055952Y-58266666D01*
X190975000Y-58190476D01*
X190934523Y-58114285D01*
X190934523Y-57428571D02*
X191622619Y-57428571D01*
X191703571Y-57390476D01*
X191744047Y-57352380D01*
X191784523Y-57276190D01*
X191784523Y-57123809D01*
X191744047Y-57047619D01*
X191703571Y-57009523D01*
X191622619Y-56971428D01*
X190934523Y-56971428D01*
X190934523Y-56704761D02*
X190934523Y-56247619D01*
X191784523Y-56476190D02*
X190934523Y-56476190D01*
X192760714Y-66583333D02*
X192760714Y-65973809D01*
X193084523Y-66278571D02*
X192436904Y-66278571D01*
X192275000Y-63954761D02*
X192234523Y-64030952D01*
X192234523Y-64145238D01*
X192275000Y-64259523D01*
X192355952Y-64335714D01*
X192436904Y-64373809D01*
X192598809Y-64411904D01*
X192720238Y-64411904D01*
X192882142Y-64373809D01*
X192963095Y-64335714D01*
X193044047Y-64259523D01*
X193084523Y-64145238D01*
X193084523Y-64069047D01*
X193044047Y-63954761D01*
X193003571Y-63916666D01*
X192720238Y-63916666D01*
X192720238Y-64069047D01*
X193084523Y-63573809D02*
X192234523Y-63573809D01*
X193084523Y-63116666D01*
X192234523Y-63116666D01*
X193084523Y-62735714D02*
X192234523Y-62735714D01*
X192234523Y-62545238D01*
X192275000Y-62430952D01*
X192355952Y-62354761D01*
X192436904Y-62316666D01*
X192598809Y-62278571D01*
X192720238Y-62278571D01*
X192882142Y-62316666D01*
X192963095Y-62354761D01*
X193044047Y-62430952D01*
X193084523Y-62545238D01*
X193084523Y-62735714D01*
X193367857Y-61745238D02*
X192153571Y-61745238D01*
X192760714Y-61173809D02*
X192760714Y-60564285D01*
X193084523Y-60869047D02*
X192436904Y-60869047D01*
X192275000Y-59154761D02*
X192234523Y-59230952D01*
X192234523Y-59345238D01*
X192275000Y-59459523D01*
X192355952Y-59535714D01*
X192436904Y-59573809D01*
X192598809Y-59611904D01*
X192720238Y-59611904D01*
X192882142Y-59573809D01*
X192963095Y-59535714D01*
X193044047Y-59459523D01*
X193084523Y-59345238D01*
X193084523Y-59269047D01*
X193044047Y-59154761D01*
X193003571Y-59116666D01*
X192720238Y-59116666D01*
X192720238Y-59269047D01*
X193084523Y-58773809D02*
X192234523Y-58773809D01*
X193084523Y-58316666D01*
X192234523Y-58316666D01*
X193084523Y-57935714D02*
X192234523Y-57935714D01*
X192234523Y-57745238D01*
X192275000Y-57630952D01*
X192355952Y-57554761D01*
X192436904Y-57516666D01*
X192598809Y-57478571D01*
X192720238Y-57478571D01*
X192882142Y-57516666D01*
X192963095Y-57554761D01*
X193044047Y-57630952D01*
X193084523Y-57745238D01*
X193084523Y-57935714D01*
X190584523Y-62680952D02*
X189734523Y-62680952D01*
X189734523Y-62376190D01*
X189775000Y-62300000D01*
X189815476Y-62261904D01*
X189896428Y-62223809D01*
X190017857Y-62223809D01*
X190098809Y-62261904D01*
X190139285Y-62300000D01*
X190179761Y-62376190D01*
X190179761Y-62680952D01*
X190584523Y-61766666D02*
X190544047Y-61842857D01*
X190503571Y-61880952D01*
X190422619Y-61919047D01*
X190179761Y-61919047D01*
X190098809Y-61880952D01*
X190058333Y-61842857D01*
X190017857Y-61766666D01*
X190017857Y-61652380D01*
X190058333Y-61576190D01*
X190098809Y-61538095D01*
X190179761Y-61500000D01*
X190422619Y-61500000D01*
X190503571Y-61538095D01*
X190544047Y-61576190D01*
X190584523Y-61652380D01*
X190584523Y-61766666D01*
X190017857Y-61233333D02*
X190584523Y-61080952D01*
X190179761Y-60928571D01*
X190584523Y-60776190D01*
X190017857Y-60623809D01*
X190544047Y-60014285D02*
X190584523Y-60090476D01*
X190584523Y-60242857D01*
X190544047Y-60319047D01*
X190463095Y-60357142D01*
X190139285Y-60357142D01*
X190058333Y-60319047D01*
X190017857Y-60242857D01*
X190017857Y-60090476D01*
X190058333Y-60014285D01*
X190139285Y-59976190D01*
X190220238Y-59976190D01*
X190301190Y-60357142D01*
X190584523Y-59633333D02*
X190017857Y-59633333D01*
X190179761Y-59633333D02*
X190098809Y-59595238D01*
X190058333Y-59557142D01*
X190017857Y-59480952D01*
X190017857Y-59404761D01*
X188890476Y-58115476D02*
X188890476Y-58965476D01*
X188623809Y-58358333D01*
X188357142Y-58965476D01*
X188357142Y-58115476D01*
X187861904Y-58115476D02*
X187938095Y-58155952D01*
X187976190Y-58196428D01*
X188014285Y-58277380D01*
X188014285Y-58520238D01*
X187976190Y-58601190D01*
X187938095Y-58641666D01*
X187861904Y-58682142D01*
X187747619Y-58682142D01*
X187671428Y-58641666D01*
X187633333Y-58601190D01*
X187595238Y-58520238D01*
X187595238Y-58277380D01*
X187633333Y-58196428D01*
X187671428Y-58155952D01*
X187747619Y-58115476D01*
X187861904Y-58115476D01*
X187366666Y-58682142D02*
X187061904Y-58682142D01*
X187252380Y-58965476D02*
X187252380Y-58236904D01*
X187214285Y-58155952D01*
X187138095Y-58115476D01*
X187061904Y-58115476D01*
X186680952Y-58115476D02*
X186757142Y-58155952D01*
X186795238Y-58196428D01*
X186833333Y-58277380D01*
X186833333Y-58520238D01*
X186795238Y-58601190D01*
X186757142Y-58641666D01*
X186680952Y-58682142D01*
X186566666Y-58682142D01*
X186490476Y-58641666D01*
X186452380Y-58601190D01*
X186414285Y-58520238D01*
X186414285Y-58277380D01*
X186452380Y-58196428D01*
X186490476Y-58155952D01*
X186566666Y-58115476D01*
X186680952Y-58115476D01*
X186071428Y-58115476D02*
X186071428Y-58682142D01*
X186071428Y-58520238D02*
X186033333Y-58601190D01*
X185995238Y-58641666D01*
X185919047Y-58682142D01*
X185842857Y-58682142D01*
X185614285Y-58155952D02*
X185538095Y-58115476D01*
X185385714Y-58115476D01*
X185309523Y-58155952D01*
X185271428Y-58236904D01*
X185271428Y-58277380D01*
X185309523Y-58358333D01*
X185385714Y-58398809D01*
X185500000Y-58398809D01*
X185576190Y-58439285D01*
X185614285Y-58520238D01*
X185614285Y-58560714D01*
X185576190Y-58641666D01*
X185500000Y-58682142D01*
X185385714Y-58682142D01*
X185309523Y-58641666D01*
X190738095Y-56765476D02*
X190738095Y-57615476D01*
X190471428Y-57008333D01*
X190204761Y-57615476D01*
X190204761Y-56765476D01*
X189861904Y-57534523D02*
X189823809Y-57575000D01*
X189747619Y-57615476D01*
X189557142Y-57615476D01*
X189480952Y-57575000D01*
X189442857Y-57534523D01*
X189404761Y-57453571D01*
X189404761Y-57372619D01*
X189442857Y-57251190D01*
X189900000Y-56765476D01*
X189404761Y-56765476D01*
X188795238Y-57210714D02*
X188680952Y-57170238D01*
X188642857Y-57129761D01*
X188604761Y-57048809D01*
X188604761Y-56927380D01*
X188642857Y-56846428D01*
X188680952Y-56805952D01*
X188757142Y-56765476D01*
X189061904Y-56765476D01*
X189061904Y-57615476D01*
X188795238Y-57615476D01*
X188719047Y-57575000D01*
X188680952Y-57534523D01*
X188642857Y-57453571D01*
X188642857Y-57372619D01*
X188680952Y-57291666D01*
X188719047Y-57251190D01*
X188795238Y-57210714D01*
X189061904Y-57210714D01*
X187652380Y-56765476D02*
X187652380Y-57615476D01*
X187385714Y-57008333D01*
X187119047Y-57615476D01*
X187119047Y-56765476D01*
X186776190Y-57534523D02*
X186738095Y-57575000D01*
X186661904Y-57615476D01*
X186471428Y-57615476D01*
X186395238Y-57575000D01*
X186357142Y-57534523D01*
X186319047Y-57453571D01*
X186319047Y-57372619D01*
X186357142Y-57251190D01*
X186814285Y-56765476D01*
X186319047Y-56765476D01*
X186014285Y-57008333D02*
X185633333Y-57008333D01*
X186090476Y-56765476D02*
X185823809Y-57615476D01*
X185557142Y-56765476D01*
X185100000Y-56482142D02*
X185100000Y-57696428D01*
X184528571Y-56765476D02*
X184528571Y-57615476D01*
X184261904Y-57008333D01*
X183995238Y-57615476D01*
X183995238Y-56765476D01*
X183195238Y-56765476D02*
X183652380Y-56765476D01*
X183423809Y-56765476D02*
X183423809Y-57615476D01*
X183500000Y-57494047D01*
X183576190Y-57413095D01*
X183652380Y-57372619D01*
X182585714Y-57210714D02*
X182471428Y-57170238D01*
X182433333Y-57129761D01*
X182395238Y-57048809D01*
X182395238Y-56927380D01*
X182433333Y-56846428D01*
X182471428Y-56805952D01*
X182547619Y-56765476D01*
X182852380Y-56765476D01*
X182852380Y-57615476D01*
X182585714Y-57615476D01*
X182509523Y-57575000D01*
X182471428Y-57534523D01*
X182433333Y-57453571D01*
X182433333Y-57372619D01*
X182471428Y-57291666D01*
X182509523Y-57251190D01*
X182585714Y-57210714D01*
X182852380Y-57210714D01*
X181442857Y-56765476D02*
X181442857Y-57615476D01*
X181176190Y-57008333D01*
X180909523Y-57615476D01*
X180909523Y-56765476D01*
X180109523Y-56765476D02*
X180566666Y-56765476D01*
X180338095Y-56765476D02*
X180338095Y-57615476D01*
X180414285Y-57494047D01*
X180490476Y-57413095D01*
X180566666Y-57372619D01*
X179804761Y-57008333D02*
X179423809Y-57008333D01*
X179880952Y-56765476D02*
X179614285Y-57615476D01*
X179347619Y-56765476D01*
D11*
X192894047Y-91250000D02*
X193986904Y-91850000D01*
X192934523Y-90583333D02*
X192934523Y-90183333D01*
X193784523Y-90383333D02*
X192934523Y-90383333D01*
X192975000Y-89050000D02*
X192934523Y-89116666D01*
X192934523Y-89216666D01*
X192975000Y-89316666D01*
X193055952Y-89383333D01*
X193136904Y-89416666D01*
X193298809Y-89450000D01*
X193420238Y-89450000D01*
X193582142Y-89416666D01*
X193663095Y-89383333D01*
X193744047Y-89316666D01*
X193784523Y-89216666D01*
X193784523Y-89150000D01*
X193744047Y-89050000D01*
X193703571Y-89016666D01*
X193420238Y-89016666D01*
X193420238Y-89150000D01*
X192934523Y-87850000D02*
X192934523Y-88183333D01*
X193339285Y-88216666D01*
X193298809Y-88183333D01*
X193258333Y-88116666D01*
X193258333Y-87950000D01*
X193298809Y-87883333D01*
X193339285Y-87850000D01*
X193420238Y-87816666D01*
X193622619Y-87816666D01*
X193703571Y-87850000D01*
X193744047Y-87883333D01*
X193784523Y-87950000D01*
X193784523Y-88116666D01*
X193744047Y-88183333D01*
X193703571Y-88216666D01*
X192934523Y-87616666D02*
X193784523Y-87383333D01*
X192934523Y-87150000D01*
X192133333Y-86239285D02*
X191900000Y-86239285D01*
X191900000Y-86684523D02*
X191900000Y-85834523D01*
X192233333Y-85834523D01*
X192466666Y-86441666D02*
X192800000Y-86441666D01*
X192400000Y-86684523D02*
X192633333Y-85834523D01*
X192866666Y-86684523D01*
X193100000Y-86684523D02*
X193100000Y-85834523D01*
X193500000Y-86684523D01*
X193500000Y-85834523D01*
D10*
X157915476Y-58385714D02*
X158765476Y-58385714D01*
X158158333Y-58652380D01*
X158765476Y-58919047D01*
X157915476Y-58919047D01*
X158765476Y-59452380D02*
X158765476Y-59604761D01*
X158725000Y-59680952D01*
X158644047Y-59757142D01*
X158482142Y-59795238D01*
X158198809Y-59795238D01*
X158036904Y-59757142D01*
X157955952Y-59680952D01*
X157915476Y-59604761D01*
X157915476Y-59452380D01*
X157955952Y-59376190D01*
X158036904Y-59300000D01*
X158198809Y-59261904D01*
X158482142Y-59261904D01*
X158644047Y-59300000D01*
X158725000Y-59376190D01*
X158765476Y-59452380D01*
X158765476Y-60023809D02*
X158765476Y-60480952D01*
X157915476Y-60252380D02*
X158765476Y-60252380D01*
X157915476Y-61166666D02*
X157915476Y-60709523D01*
X157915476Y-60938095D02*
X158765476Y-60938095D01*
X158644047Y-60861904D01*
X158563095Y-60785714D01*
X158522619Y-60709523D01*
X157632142Y-61700000D02*
X158846428Y-61700000D01*
X157915476Y-62271428D02*
X158765476Y-62271428D01*
X158158333Y-62538095D01*
X158765476Y-62804761D01*
X157915476Y-62804761D01*
X158765476Y-63338095D02*
X158765476Y-63490476D01*
X158725000Y-63566666D01*
X158644047Y-63642857D01*
X158482142Y-63680952D01*
X158198809Y-63680952D01*
X158036904Y-63642857D01*
X157955952Y-63566666D01*
X157915476Y-63490476D01*
X157915476Y-63338095D01*
X157955952Y-63261904D01*
X158036904Y-63185714D01*
X158198809Y-63147619D01*
X158482142Y-63147619D01*
X158644047Y-63185714D01*
X158725000Y-63261904D01*
X158765476Y-63338095D01*
X158765476Y-63909523D02*
X158765476Y-64366666D01*
X157915476Y-64138095D02*
X158765476Y-64138095D01*
X158684523Y-64595238D02*
X158725000Y-64633333D01*
X158765476Y-64709523D01*
X158765476Y-64900000D01*
X158725000Y-64976190D01*
X158684523Y-65014285D01*
X158603571Y-65052380D01*
X158522619Y-65052380D01*
X158401190Y-65014285D01*
X157915476Y-64557142D01*
X157915476Y-65052380D01*
X156958333Y-57985714D02*
X156958333Y-58223809D01*
X156715476Y-57938095D02*
X157565476Y-58104761D01*
X156715476Y-58271428D01*
X157160714Y-58985714D02*
X157120238Y-59057142D01*
X157079761Y-59080952D01*
X156998809Y-59104761D01*
X156877380Y-59104761D01*
X156796428Y-59080952D01*
X156755952Y-59057142D01*
X156715476Y-59009523D01*
X156715476Y-58819047D01*
X157565476Y-58819047D01*
X157565476Y-58985714D01*
X157525000Y-59033333D01*
X157484523Y-59057142D01*
X157403571Y-59080952D01*
X157322619Y-59080952D01*
X157241666Y-59057142D01*
X157201190Y-59033333D01*
X157160714Y-58985714D01*
X157160714Y-58819047D01*
X157039285Y-59700000D02*
X157039285Y-60080952D01*
X156715476Y-59890476D02*
X157363095Y-59890476D01*
X157525000Y-60961904D02*
X157565476Y-60914285D01*
X157565476Y-60842857D01*
X157525000Y-60771428D01*
X157444047Y-60723809D01*
X157363095Y-60700000D01*
X157201190Y-60676190D01*
X157079761Y-60676190D01*
X156917857Y-60700000D01*
X156836904Y-60723809D01*
X156755952Y-60771428D01*
X156715476Y-60842857D01*
X156715476Y-60890476D01*
X156755952Y-60961904D01*
X156796428Y-60985714D01*
X157079761Y-60985714D01*
X157079761Y-60890476D01*
X156432142Y-61700000D02*
X157646428Y-61700000D01*
X156958333Y-62414285D02*
X156958333Y-62652380D01*
X156715476Y-62366666D02*
X157565476Y-62533333D01*
X156715476Y-62700000D01*
X157160714Y-63414285D02*
X157120238Y-63485714D01*
X157079761Y-63509523D01*
X156998809Y-63533333D01*
X156877380Y-63533333D01*
X156796428Y-63509523D01*
X156755952Y-63485714D01*
X156715476Y-63438095D01*
X156715476Y-63247619D01*
X157565476Y-63247619D01*
X157565476Y-63414285D01*
X157525000Y-63461904D01*
X157484523Y-63485714D01*
X157403571Y-63509523D01*
X157322619Y-63509523D01*
X157241666Y-63485714D01*
X157201190Y-63461904D01*
X157160714Y-63414285D01*
X157160714Y-63247619D01*
X157039285Y-64128571D02*
X157039285Y-64509523D01*
X156715476Y-64319047D02*
X157363095Y-64319047D01*
X157525000Y-65390476D02*
X157565476Y-65342857D01*
X157565476Y-65271428D01*
X157525000Y-65200000D01*
X157444047Y-65152380D01*
X157363095Y-65128571D01*
X157201190Y-65104761D01*
X157079761Y-65104761D01*
X156917857Y-65128571D01*
X156836904Y-65152380D01*
X156755952Y-65200000D01*
X156715476Y-65271428D01*
X156715476Y-65319047D01*
X156755952Y-65390476D01*
X156796428Y-65414285D01*
X157079761Y-65414285D01*
X157079761Y-65319047D01*
X160060714Y-60785714D02*
X160060714Y-61052380D01*
X159615476Y-61166666D02*
X159615476Y-60785714D01*
X160465476Y-60785714D01*
X160465476Y-61166666D01*
X160182142Y-61509523D02*
X159615476Y-61509523D01*
X160101190Y-61509523D02*
X160141666Y-61547619D01*
X160182142Y-61623809D01*
X160182142Y-61738095D01*
X160141666Y-61814285D01*
X160060714Y-61852380D01*
X159615476Y-61852380D01*
X159655952Y-62576190D02*
X159615476Y-62500000D01*
X159615476Y-62347619D01*
X159655952Y-62271428D01*
X159696428Y-62233333D01*
X159777380Y-62195238D01*
X160020238Y-62195238D01*
X160101190Y-62233333D01*
X160141666Y-62271428D01*
X160182142Y-62347619D01*
X160182142Y-62500000D01*
X160141666Y-62576190D01*
X159615476Y-63033333D02*
X159655952Y-62957142D01*
X159696428Y-62919047D01*
X159777380Y-62880952D01*
X160020238Y-62880952D01*
X160101190Y-62919047D01*
X160141666Y-62957142D01*
X160182142Y-63033333D01*
X160182142Y-63147619D01*
X160141666Y-63223809D01*
X160101190Y-63261904D01*
X160020238Y-63300000D01*
X159777380Y-63300000D01*
X159696428Y-63261904D01*
X159655952Y-63223809D01*
X159615476Y-63147619D01*
X159615476Y-63033333D01*
X159615476Y-63985714D02*
X160465476Y-63985714D01*
X159655952Y-63985714D02*
X159615476Y-63909523D01*
X159615476Y-63757142D01*
X159655952Y-63680952D01*
X159696428Y-63642857D01*
X159777380Y-63604761D01*
X160020238Y-63604761D01*
X160101190Y-63642857D01*
X160141666Y-63680952D01*
X160182142Y-63757142D01*
X160182142Y-63909523D01*
X160141666Y-63985714D01*
X159655952Y-64671428D02*
X159615476Y-64595238D01*
X159615476Y-64442857D01*
X159655952Y-64366666D01*
X159736904Y-64328571D01*
X160060714Y-64328571D01*
X160141666Y-64366666D01*
X160182142Y-64442857D01*
X160182142Y-64595238D01*
X160141666Y-64671428D01*
X160060714Y-64709523D01*
X159979761Y-64709523D01*
X159898809Y-64328571D01*
X159615476Y-65052380D02*
X160182142Y-65052380D01*
X160020238Y-65052380D02*
X160101190Y-65090476D01*
X160141666Y-65128571D01*
X160182142Y-65204761D01*
X160182142Y-65280952D01*
X159655952Y-65509523D02*
X159615476Y-65585714D01*
X159615476Y-65738095D01*
X159655952Y-65814285D01*
X159736904Y-65852380D01*
X159777380Y-65852380D01*
X159858333Y-65814285D01*
X159898809Y-65738095D01*
X159898809Y-65623809D01*
X159939285Y-65547619D01*
X160020238Y-65509523D01*
X160060714Y-65509523D01*
X160141666Y-65547619D01*
X160182142Y-65623809D01*
X160182142Y-65738095D01*
X160141666Y-65814285D01*
D13*
X184928571Y-98138095D02*
X184928571Y-97871428D01*
X185452380Y-97757142D02*
X185452380Y-98138095D01*
X184452380Y-98138095D01*
X184452380Y-97757142D01*
X185404761Y-97452380D02*
X185452380Y-97376190D01*
X185452380Y-97223809D01*
X185404761Y-97147619D01*
X185309523Y-97109523D01*
X185261904Y-97109523D01*
X185166666Y-97147619D01*
X185119047Y-97223809D01*
X185119047Y-97338095D01*
X185071428Y-97414285D01*
X184976190Y-97452380D01*
X184928571Y-97452380D01*
X184833333Y-97414285D01*
X184785714Y-97338095D01*
X184785714Y-97223809D01*
X184833333Y-97147619D01*
X185404761Y-96423809D02*
X185452380Y-96500000D01*
X185452380Y-96652380D01*
X185404761Y-96728571D01*
X185357142Y-96766666D01*
X185261904Y-96804761D01*
X184976190Y-96804761D01*
X184880952Y-96766666D01*
X184833333Y-96728571D01*
X184785714Y-96652380D01*
X184785714Y-96500000D01*
X184833333Y-96423809D01*
X180004761Y-98195238D02*
X180052380Y-98080952D01*
X180052380Y-97890476D01*
X180004761Y-97814285D01*
X179957142Y-97776190D01*
X179861904Y-97738095D01*
X179766666Y-97738095D01*
X179671428Y-97776190D01*
X179623809Y-97814285D01*
X179576190Y-97890476D01*
X179528571Y-98042857D01*
X179480952Y-98119047D01*
X179433333Y-98157142D01*
X179338095Y-98195238D01*
X179242857Y-98195238D01*
X179147619Y-98157142D01*
X179100000Y-98119047D01*
X179052380Y-98042857D01*
X179052380Y-97852380D01*
X179100000Y-97738095D01*
X180004761Y-97090476D02*
X180052380Y-97166666D01*
X180052380Y-97319047D01*
X180004761Y-97395238D01*
X179909523Y-97433333D01*
X179528571Y-97433333D01*
X179433333Y-97395238D01*
X179385714Y-97319047D01*
X179385714Y-97166666D01*
X179433333Y-97090476D01*
X179528571Y-97052380D01*
X179623809Y-97052380D01*
X179719047Y-97433333D01*
X180052380Y-96595238D02*
X180004761Y-96671428D01*
X179909523Y-96709523D01*
X179052380Y-96709523D01*
X180004761Y-95985714D02*
X180052380Y-96061904D01*
X180052380Y-96214285D01*
X180004761Y-96290476D01*
X179909523Y-96328571D01*
X179528571Y-96328571D01*
X179433333Y-96290476D01*
X179385714Y-96214285D01*
X179385714Y-96061904D01*
X179433333Y-95985714D01*
X179528571Y-95947619D01*
X179623809Y-95947619D01*
X179719047Y-96328571D01*
X180004761Y-95261904D02*
X180052380Y-95338095D01*
X180052380Y-95490476D01*
X180004761Y-95566666D01*
X179957142Y-95604761D01*
X179861904Y-95642857D01*
X179576190Y-95642857D01*
X179480952Y-95604761D01*
X179433333Y-95566666D01*
X179385714Y-95490476D01*
X179385714Y-95338095D01*
X179433333Y-95261904D01*
X179385714Y-95033333D02*
X179385714Y-94728571D01*
X179052380Y-94919047D02*
X179909523Y-94919047D01*
X180004761Y-94880952D01*
X180052380Y-94804761D01*
X180052380Y-94728571D01*
D11*
X158180952Y-70616666D02*
X158140476Y-70716666D01*
X158140476Y-70883333D01*
X158180952Y-70950000D01*
X158221428Y-70983333D01*
X158302380Y-71016666D01*
X158383333Y-71016666D01*
X158464285Y-70983333D01*
X158504761Y-70950000D01*
X158545238Y-70883333D01*
X158585714Y-70750000D01*
X158626190Y-70683333D01*
X158666666Y-70650000D01*
X158747619Y-70616666D01*
X158828571Y-70616666D01*
X158909523Y-70650000D01*
X158950000Y-70683333D01*
X158990476Y-70750000D01*
X158990476Y-70916666D01*
X158950000Y-71016666D01*
X158180952Y-71583333D02*
X158140476Y-71516666D01*
X158140476Y-71383333D01*
X158180952Y-71316666D01*
X158261904Y-71283333D01*
X158585714Y-71283333D01*
X158666666Y-71316666D01*
X158707142Y-71383333D01*
X158707142Y-71516666D01*
X158666666Y-71583333D01*
X158585714Y-71616666D01*
X158504761Y-71616666D01*
X158423809Y-71283333D01*
X158140476Y-71916666D02*
X158707142Y-71916666D01*
X158545238Y-71916666D02*
X158626190Y-71950000D01*
X158666666Y-71983333D01*
X158707142Y-72050000D01*
X158707142Y-72116666D01*
X158140476Y-72350000D02*
X158707142Y-72350000D01*
X158990476Y-72350000D02*
X158950000Y-72316666D01*
X158909523Y-72350000D01*
X158950000Y-72383333D01*
X158990476Y-72350000D01*
X158909523Y-72350000D01*
X158140476Y-72983333D02*
X158585714Y-72983333D01*
X158666666Y-72950000D01*
X158707142Y-72883333D01*
X158707142Y-72750000D01*
X158666666Y-72683333D01*
X158180952Y-72983333D02*
X158140476Y-72916666D01*
X158140476Y-72750000D01*
X158180952Y-72683333D01*
X158261904Y-72650000D01*
X158342857Y-72650000D01*
X158423809Y-72683333D01*
X158464285Y-72750000D01*
X158464285Y-72916666D01*
X158504761Y-72983333D01*
X158140476Y-73416666D02*
X158180952Y-73350000D01*
X158261904Y-73316666D01*
X158990476Y-73316666D01*
X158140476Y-74583333D02*
X158140476Y-74183333D01*
X158140476Y-74383333D02*
X158990476Y-74383333D01*
X158869047Y-74316666D01*
X158788095Y-74250000D01*
X158747619Y-74183333D01*
X156690476Y-70966666D02*
X157095238Y-70733333D01*
X156690476Y-70566666D02*
X157540476Y-70566666D01*
X157540476Y-70833333D01*
X157500000Y-70900000D01*
X157459523Y-70933333D01*
X157378571Y-70966666D01*
X157257142Y-70966666D01*
X157176190Y-70933333D01*
X157135714Y-70900000D01*
X157095238Y-70833333D01*
X157095238Y-70566666D01*
X157540476Y-71700000D02*
X157540476Y-72100000D01*
X156690476Y-71900000D02*
X157540476Y-71900000D01*
X157014285Y-72866666D02*
X157014285Y-73400000D01*
X156690476Y-73133333D02*
X157338095Y-73133333D01*
X157500000Y-74633333D02*
X157540476Y-74566666D01*
X157540476Y-74466666D01*
X157500000Y-74366666D01*
X157419047Y-74300000D01*
X157338095Y-74266666D01*
X157176190Y-74233333D01*
X157054761Y-74233333D01*
X156892857Y-74266666D01*
X156811904Y-74300000D01*
X156730952Y-74366666D01*
X156690476Y-74466666D01*
X156690476Y-74533333D01*
X156730952Y-74633333D01*
X156771428Y-74666666D01*
X157054761Y-74666666D01*
X157054761Y-74533333D01*
D13*
X191552380Y-98180952D02*
X190552380Y-98180952D01*
X190552380Y-97876190D01*
X190600000Y-97800000D01*
X190647619Y-97761904D01*
X190742857Y-97723809D01*
X190885714Y-97723809D01*
X190980952Y-97761904D01*
X191028571Y-97800000D01*
X191076190Y-97876190D01*
X191076190Y-98180952D01*
X191552380Y-97266666D02*
X191504761Y-97342857D01*
X191457142Y-97380952D01*
X191361904Y-97419047D01*
X191076190Y-97419047D01*
X190980952Y-97380952D01*
X190933333Y-97342857D01*
X190885714Y-97266666D01*
X190885714Y-97152380D01*
X190933333Y-97076190D01*
X190980952Y-97038095D01*
X191076190Y-97000000D01*
X191361904Y-97000000D01*
X191457142Y-97038095D01*
X191504761Y-97076190D01*
X191552380Y-97152380D01*
X191552380Y-97266666D01*
X190885714Y-96733333D02*
X191552380Y-96580952D01*
X191076190Y-96428571D01*
X191552380Y-96276190D01*
X190885714Y-96123809D01*
X191504761Y-95514285D02*
X191552380Y-95590476D01*
X191552380Y-95742857D01*
X191504761Y-95819047D01*
X191409523Y-95857142D01*
X191028571Y-95857142D01*
X190933333Y-95819047D01*
X190885714Y-95742857D01*
X190885714Y-95590476D01*
X190933333Y-95514285D01*
X191028571Y-95476190D01*
X191123809Y-95476190D01*
X191219047Y-95857142D01*
X191552380Y-95133333D02*
X190885714Y-95133333D01*
X191076190Y-95133333D02*
X190980952Y-95095238D01*
X190933333Y-95057142D01*
X190885714Y-94980952D01*
X190885714Y-94904761D01*
D11*
X160652380Y-95750000D02*
X161652380Y-95583333D01*
X160938095Y-95450000D01*
X161652380Y-95316666D01*
X160652380Y-95150000D01*
X161652380Y-94583333D02*
X161128571Y-94583333D01*
X161033333Y-94616666D01*
X160985714Y-94683333D01*
X160985714Y-94816666D01*
X161033333Y-94883333D01*
X161604761Y-94583333D02*
X161652380Y-94650000D01*
X161652380Y-94816666D01*
X161604761Y-94883333D01*
X161509523Y-94916666D01*
X161414285Y-94916666D01*
X161319047Y-94883333D01*
X161271428Y-94816666D01*
X161271428Y-94650000D01*
X161223809Y-94583333D01*
X161652380Y-94250000D02*
X160985714Y-94250000D01*
X161176190Y-94250000D02*
X161080952Y-94216666D01*
X161033333Y-94183333D01*
X160985714Y-94116666D01*
X160985714Y-94050000D01*
X160604761Y-93316666D02*
X161890476Y-93916666D01*
X161128571Y-93083333D02*
X161128571Y-92850000D01*
X161652380Y-92750000D02*
X161652380Y-93083333D01*
X160652380Y-93083333D01*
X160652380Y-92750000D01*
X161652380Y-92450000D02*
X160985714Y-92450000D01*
X161176190Y-92450000D02*
X161080952Y-92416666D01*
X161033333Y-92383333D01*
X160985714Y-92316666D01*
X160985714Y-92250000D01*
X161652380Y-92016666D02*
X160985714Y-92016666D01*
X161176190Y-92016666D02*
X161080952Y-91983333D01*
X161033333Y-91950000D01*
X160985714Y-91883333D01*
X160985714Y-91816666D01*
D13*
X159366666Y-95700000D02*
X159366666Y-95319047D01*
X159652380Y-95776190D02*
X158652380Y-95509523D01*
X159652380Y-95242857D01*
X159604761Y-94633333D02*
X159652380Y-94709523D01*
X159652380Y-94861904D01*
X159604761Y-94938095D01*
X159557142Y-94976190D01*
X159461904Y-95014285D01*
X159176190Y-95014285D01*
X159080952Y-94976190D01*
X159033333Y-94938095D01*
X158985714Y-94861904D01*
X158985714Y-94709523D01*
X159033333Y-94633333D01*
X158985714Y-94404761D02*
X158985714Y-94100000D01*
X158652380Y-94290476D02*
X159509523Y-94290476D01*
X159604761Y-94252380D01*
X159652380Y-94176190D01*
X159652380Y-94100000D01*
X159652380Y-93833333D02*
X158985714Y-93833333D01*
X158652380Y-93833333D02*
X158700000Y-93871428D01*
X158747619Y-93833333D01*
X158700000Y-93795238D01*
X158652380Y-93833333D01*
X158747619Y-93833333D01*
X158985714Y-93528571D02*
X159652380Y-93338095D01*
X158985714Y-93147619D01*
X159604761Y-92538095D02*
X159652380Y-92614285D01*
X159652380Y-92766666D01*
X159604761Y-92842857D01*
X159509523Y-92880952D01*
X159128571Y-92880952D01*
X159033333Y-92842857D01*
X158985714Y-92766666D01*
X158985714Y-92614285D01*
X159033333Y-92538095D01*
X159128571Y-92500000D01*
X159223809Y-92500000D01*
X159319047Y-92880952D01*
X157752380Y-95804761D02*
X156752380Y-95804761D01*
X157228571Y-95804761D02*
X157228571Y-95347619D01*
X157752380Y-95347619D02*
X156752380Y-95347619D01*
X157704761Y-94661904D02*
X157752380Y-94738095D01*
X157752380Y-94890476D01*
X157704761Y-94966666D01*
X157609523Y-95004761D01*
X157228571Y-95004761D01*
X157133333Y-94966666D01*
X157085714Y-94890476D01*
X157085714Y-94738095D01*
X157133333Y-94661904D01*
X157228571Y-94623809D01*
X157323809Y-94623809D01*
X157419047Y-95004761D01*
X157752380Y-93938095D02*
X157228571Y-93938095D01*
X157133333Y-93976190D01*
X157085714Y-94052380D01*
X157085714Y-94204761D01*
X157133333Y-94280952D01*
X157704761Y-93938095D02*
X157752380Y-94014285D01*
X157752380Y-94204761D01*
X157704761Y-94280952D01*
X157609523Y-94319047D01*
X157514285Y-94319047D01*
X157419047Y-94280952D01*
X157371428Y-94204761D01*
X157371428Y-94014285D01*
X157323809Y-93938095D01*
X157752380Y-93557142D02*
X157085714Y-93557142D01*
X157276190Y-93557142D02*
X157180952Y-93519047D01*
X157133333Y-93480952D01*
X157085714Y-93404761D01*
X157085714Y-93328571D01*
X157085714Y-93176190D02*
X157085714Y-92871428D01*
X156752380Y-93061904D02*
X157609523Y-93061904D01*
X157704761Y-93023809D01*
X157752380Y-92947619D01*
X157752380Y-92871428D01*
X157752380Y-92604761D02*
X156752380Y-92604761D01*
X157133333Y-92604761D02*
X157085714Y-92528571D01*
X157085714Y-92376190D01*
X157133333Y-92300000D01*
X157180952Y-92261904D01*
X157276190Y-92223809D01*
X157561904Y-92223809D01*
X157657142Y-92261904D01*
X157704761Y-92300000D01*
X157752380Y-92376190D01*
X157752380Y-92528571D01*
X157704761Y-92604761D01*
X157704761Y-91576190D02*
X157752380Y-91652380D01*
X157752380Y-91804761D01*
X157704761Y-91880952D01*
X157609523Y-91919047D01*
X157228571Y-91919047D01*
X157133333Y-91880952D01*
X157085714Y-91804761D01*
X157085714Y-91652380D01*
X157133333Y-91576190D01*
X157228571Y-91538095D01*
X157323809Y-91538095D01*
X157419047Y-91919047D01*
X157752380Y-90852380D02*
X157228571Y-90852380D01*
X157133333Y-90890476D01*
X157085714Y-90966666D01*
X157085714Y-91119047D01*
X157133333Y-91195238D01*
X157704761Y-90852380D02*
X157752380Y-90928571D01*
X157752380Y-91119047D01*
X157704761Y-91195238D01*
X157609523Y-91233333D01*
X157514285Y-91233333D01*
X157419047Y-91195238D01*
X157371428Y-91119047D01*
X157371428Y-90928571D01*
X157323809Y-90852380D01*
X157085714Y-90585714D02*
X157085714Y-90280952D01*
X156752380Y-90471428D02*
X157609523Y-90471428D01*
X157704761Y-90433333D01*
X157752380Y-90357142D01*
X157752380Y-90280952D01*
D14*
X178200000Y-100000000D02*
X162200000Y-100000000D01*
X178200000Y-82000000D02*
X178200000Y-100000000D01*
X162200000Y-82000000D02*
X178200000Y-82000000D01*
X162200000Y-100000000D02*
X162200000Y-82000000D01*
X197900000Y-75660000D02*
X197900000Y-78860000D01*
X193900000Y-78860000D02*
X193900000Y-75660000D01*
X195900000Y-76510000D02*
X195900000Y-78010000D01*
X199370000Y-85360000D02*
X199370000Y-69160000D01*
X192430000Y-85360000D02*
X199370000Y-85360000D01*
X192430000Y-69160000D02*
X192430000Y-85360000D01*
X199370000Y-69160000D02*
X192430000Y-69160000D01*
X161840000Y-88587221D02*
X161840000Y-88912779D01*
X162860000Y-88587221D02*
X162860000Y-88912779D01*
X164370000Y-99530000D02*
X164370000Y-98200000D01*
X165700000Y-99530000D02*
X164370000Y-99530000D01*
X166970000Y-99530000D02*
X166970000Y-96870000D01*
X166970000Y-96870000D02*
X174650000Y-96870000D01*
X166970000Y-99530000D02*
X174650000Y-99530000D01*
X174650000Y-99530000D02*
X174650000Y-96870000D01*
X150615000Y-57760000D02*
X150615000Y-65640000D01*
X155085000Y-66810000D02*
X155085000Y-65760000D01*
X152585000Y-66810000D02*
X155085000Y-66810000D01*
X155085000Y-57640000D02*
X156075000Y-57640000D01*
X155085000Y-56590000D02*
X155085000Y-57640000D01*
X152585000Y-56590000D02*
X155085000Y-56590000D01*
X150615000Y-70560000D02*
X150615000Y-74440000D01*
X155085000Y-75610000D02*
X155085000Y-74560000D01*
X152585000Y-75610000D02*
X155085000Y-75610000D01*
X155085000Y-70440000D02*
X156075000Y-70440000D01*
X155085000Y-69390000D02*
X155085000Y-70440000D01*
X152585000Y-69390000D02*
X155085000Y-69390000D01*
X199200000Y-68150000D02*
X199200000Y-66900000D01*
X197710000Y-68150000D02*
X199200000Y-68150000D01*
X195900000Y-59664000D02*
X195900000Y-58835000D01*
X195900000Y-62164000D02*
X195900000Y-61335000D01*
X195900000Y-64260000D02*
X195900000Y-63835000D01*
X194900000Y-64260000D02*
X194900000Y-64255000D01*
X194900000Y-67500000D02*
X195900000Y-67500000D01*
X195900000Y-67500000D02*
X195900000Y-66740000D01*
X194900000Y-67500000D02*
X194900000Y-66740000D01*
X196000000Y-57290000D02*
X196900000Y-57290000D01*
X193840000Y-67910000D02*
X198961000Y-67910000D01*
X198961000Y-59664000D02*
X198961000Y-58835000D01*
X198961000Y-62164000D02*
X198961000Y-61335000D01*
X198961000Y-64260000D02*
X198961000Y-63835000D01*
X198961000Y-67910000D02*
X198961000Y-66740000D01*
X193840000Y-59762000D02*
X193840000Y-58737000D01*
X193840000Y-62262000D02*
X193840000Y-61237000D01*
X193840000Y-64260000D02*
X193840000Y-63737000D01*
X193840000Y-67910000D02*
X193840000Y-66740000D01*
X198488617Y-59156270D02*
G75*
G02X198452000Y-59309000I-988617J156270D01*
G01*
X196911302Y-59809389D02*
G75*
G02X196745000Y-58343000I588698J809389D01*
G01*
X198488617Y-61656270D02*
G75*
G02X198452000Y-61809000I-988617J156270D01*
G01*
X196911302Y-62309389D02*
G75*
G02X196745000Y-60843000I588698J809389D01*
G01*
X198488343Y-64155712D02*
G75*
G02X198462000Y-64275000I-988343J155712D01*
G01*
X196767680Y-64682189D02*
G75*
G02X196745000Y-63343000I732320J682189D01*
G01*
X198474931Y-66724629D02*
G75*
G02X196768000Y-65818000I-974931J224629D01*
G01*
X178650000Y-56100000D02*
X179900000Y-56100000D01*
X178650000Y-54610000D02*
X178650000Y-56100000D01*
X187136000Y-52800000D02*
X187965000Y-52800000D01*
X184636000Y-52800000D02*
X185465000Y-52800000D01*
X182540000Y-52800000D02*
X182965000Y-52800000D01*
X182540000Y-51800000D02*
X182545000Y-51800000D01*
X179300000Y-51800000D02*
X179300000Y-52800000D01*
X179300000Y-52800000D02*
X180060000Y-52800000D01*
X179300000Y-51800000D02*
X180060000Y-51800000D01*
X189510000Y-52900000D02*
X189510000Y-53800000D01*
X178890000Y-50740000D02*
X178890000Y-55861000D01*
X187136000Y-55861000D02*
X187965000Y-55861000D01*
X184636000Y-55861000D02*
X185465000Y-55861000D01*
X182540000Y-55861000D02*
X182965000Y-55861000D01*
X178890000Y-55861000D02*
X180060000Y-55861000D01*
X187038000Y-50740000D02*
X188063000Y-50740000D01*
X184538000Y-50740000D02*
X185563000Y-50740000D01*
X182540000Y-50740000D02*
X183063000Y-50740000D01*
X178890000Y-50740000D02*
X180060000Y-50740000D01*
X187643730Y-55388617D02*
G75*
G02X187491000Y-55352000I156270J988617D01*
G01*
X186990611Y-53811302D02*
G75*
G02X188457000Y-53645000I809389J-588698D01*
G01*
X185143730Y-55388617D02*
G75*
G02X184991000Y-55352000I156270J988617D01*
G01*
X184490611Y-53811302D02*
G75*
G02X185957000Y-53645000I809389J-588698D01*
G01*
X182644288Y-55388343D02*
G75*
G02X182525000Y-55362000I155712J988343D01*
G01*
X182117811Y-53667680D02*
G75*
G02X183457000Y-53645000I682189J-732320D01*
G01*
X180075371Y-55374931D02*
G75*
G02X180982000Y-53668000I224629J974931D01*
G01*
X187650000Y-98500000D02*
X187550000Y-98500000D01*
X186050000Y-94100000D02*
X186050000Y-98500000D01*
X189150000Y-98500000D02*
X189150000Y-94100000D01*
X187650000Y-94100000D02*
X187550000Y-94100000D01*
D15*
X164511421Y-60370000D02*
G75*
G03X164511421Y-60370000I-141421J0D01*
G01*
D14*
X189810000Y-64562779D02*
X189810000Y-64237221D01*
X188790000Y-64562779D02*
X188790000Y-64237221D01*
X184000000Y-59090000D02*
X181550000Y-59090000D01*
X182200000Y-62310000D02*
X184000000Y-62310000D01*
X175500000Y-59190000D02*
X173050000Y-59190000D01*
X173700000Y-62410000D02*
X175500000Y-62410000D01*
D15*
X182975000Y-71875000D02*
X182975000Y-73275000D01*
X188075000Y-71875000D02*
X188075000Y-67725000D01*
X182925000Y-71875000D02*
X182925000Y-67725000D01*
X188075000Y-71875000D02*
X187930000Y-71875000D01*
X188075000Y-67725000D02*
X187930000Y-67725000D01*
X182925000Y-67725000D02*
X183070000Y-67725000D01*
X182925000Y-71875000D02*
X182975000Y-71875000D01*
D14*
X160700000Y-77990000D02*
X158250000Y-77990000D01*
X158900000Y-81210000D02*
X160700000Y-81210000D01*
D15*
X169100000Y-74525000D02*
X169100000Y-75600000D01*
X172225000Y-74525000D02*
X172225000Y-71275000D01*
X168975000Y-74525000D02*
X168975000Y-71275000D01*
X172225000Y-74525000D02*
X172000000Y-74525000D01*
X172225000Y-71275000D02*
X172000000Y-71275000D01*
X168975000Y-71275000D02*
X169200000Y-71275000D01*
X168975000Y-74525000D02*
X169100000Y-74525000D01*
D14*
X191010000Y-83500000D02*
X191010000Y-81050000D01*
X187790000Y-81700000D02*
X187790000Y-83500000D01*
D15*
X173075000Y-71875000D02*
X173075000Y-73275000D01*
X178175000Y-71875000D02*
X178175000Y-67725000D01*
X173025000Y-71875000D02*
X173025000Y-67725000D01*
X178175000Y-71875000D02*
X178030000Y-71875000D01*
X178175000Y-67725000D02*
X178030000Y-67725000D01*
X173025000Y-67725000D02*
X173170000Y-67725000D01*
X173025000Y-71875000D02*
X173075000Y-71875000D01*
D14*
X188640000Y-73897936D02*
X188640000Y-75102064D01*
X190460000Y-73897936D02*
X190460000Y-75102064D01*
X185590000Y-60591422D02*
X185590000Y-61108578D01*
X187010000Y-60591422D02*
X187010000Y-61108578D01*
X177290000Y-60241422D02*
X177290000Y-60758578D01*
X178710000Y-60241422D02*
X178710000Y-60758578D01*
X190850000Y-90200000D02*
X189150000Y-90200000D01*
X190850000Y-87000000D02*
X188250000Y-87000000D01*
X198810000Y-87860000D02*
X198810000Y-91740000D01*
X195690000Y-92910000D02*
X195690000Y-91860000D01*
X196840000Y-92910000D02*
X195690000Y-92910000D01*
X195690000Y-87740000D02*
X194700000Y-87740000D01*
X195690000Y-86690000D02*
X195690000Y-87740000D01*
X196840000Y-86690000D02*
X195690000Y-86690000D01*
D15*
X161024868Y-68800000D02*
G75*
G03X161024868Y-68800000I-94868J0D01*
G01*
X159150000Y-68600000D02*
X159200000Y-68600000D01*
X160850000Y-70300000D02*
X160800000Y-70300000D01*
X159150000Y-70300000D02*
X159200000Y-70300000D01*
X160850000Y-68600000D02*
X160800000Y-68600000D01*
X159150000Y-70250000D02*
X159150000Y-68650000D01*
X160850000Y-68600000D02*
X160850000Y-70300000D01*
D14*
X174597936Y-54710000D02*
X175802064Y-54710000D01*
X174597936Y-52890000D02*
X175802064Y-52890000D01*
X193365000Y-98305000D02*
X193365000Y-96020000D01*
X191895000Y-98305000D02*
X193365000Y-98305000D01*
X191895000Y-96020000D02*
X191895000Y-98305000D01*
X159920000Y-76260000D02*
X159920000Y-74800000D01*
X163080000Y-76260000D02*
X163080000Y-74100000D01*
X163080000Y-76260000D02*
X162150000Y-76260000D01*
X159920000Y-76260000D02*
X160850000Y-76260000D01*
X165458578Y-54090000D02*
X164941422Y-54090000D01*
X165458578Y-55510000D02*
X164941422Y-55510000D01*
X161658578Y-56990000D02*
X161141422Y-56990000D01*
X161658578Y-58410000D02*
X161141422Y-58410000D01*
X161658578Y-59090000D02*
X161141422Y-59090000D01*
X161658578Y-60510000D02*
X161141422Y-60510000D01*
X188790000Y-67437221D02*
X188790000Y-67762779D01*
X189810000Y-67437221D02*
X189810000Y-67762779D01*
X180037221Y-68710000D02*
X180362779Y-68710000D01*
X180037221Y-67690000D02*
X180362779Y-67690000D01*
X180010000Y-65762779D02*
X180010000Y-65437221D01*
X178990000Y-65762779D02*
X178990000Y-65437221D01*
X187143750Y-80941250D02*
X187143750Y-80153750D01*
X187537500Y-80547500D02*
X186750000Y-80547500D01*
X186510000Y-76354437D02*
X185445563Y-75290000D01*
X186510000Y-81045563D02*
X185445563Y-82110000D01*
X186510000Y-81045563D02*
X186510000Y-79760000D01*
X186510000Y-76354437D02*
X186510000Y-77640000D01*
X185445563Y-75290000D02*
X179690000Y-75290000D01*
X185445563Y-82110000D02*
X179690000Y-82110000D01*
X179690000Y-82110000D02*
X179690000Y-79760000D01*
X179690000Y-75290000D02*
X179690000Y-77640000D01*
X182250000Y-98500000D02*
X182150000Y-98500000D01*
X180650000Y-94100000D02*
X180650000Y-98500000D01*
X183750000Y-98500000D02*
X183750000Y-94100000D01*
X182250000Y-94100000D02*
X182150000Y-94100000D01*
X160300000Y-82000000D02*
X159900000Y-82000000D01*
X160300000Y-82200000D02*
X159900000Y-82200000D01*
X160300000Y-85800000D02*
X159900000Y-85800000D01*
X162300000Y-82000000D02*
X160300000Y-82000000D01*
X159900000Y-83200000D02*
X159500000Y-83200000D01*
X159900000Y-83200000D02*
X159900000Y-82200000D01*
X160300000Y-82200000D02*
X162300000Y-82200000D01*
X162300000Y-82200000D02*
X162300000Y-83200000D01*
X162300000Y-85000000D02*
X162300000Y-85800000D01*
X162300000Y-85800000D02*
X160300000Y-85800000D01*
X159900000Y-85800000D02*
X159900000Y-85000000D01*
X165290000Y-83840000D02*
X163950000Y-83840000D01*
X165290000Y-82890000D02*
X165290000Y-83840000D01*
X166240000Y-82890000D02*
X165290000Y-82890000D01*
X175510000Y-82890000D02*
X175510000Y-83840000D01*
X174560000Y-82890000D02*
X175510000Y-82890000D01*
X165290000Y-93110000D02*
X165290000Y-92160000D01*
X166240000Y-93110000D02*
X165290000Y-93110000D01*
X175510000Y-93110000D02*
X175510000Y-92160000D01*
X174560000Y-93110000D02*
X175510000Y-93110000D01*
X151500000Y-78390000D02*
X151760000Y-78390000D01*
X154040000Y-78390000D02*
X155810000Y-78390000D01*
X155810000Y-78390000D02*
X155810000Y-78770000D01*
X155810000Y-86010000D02*
X154040000Y-86010000D01*
X151760000Y-86010000D02*
X151500000Y-86010000D01*
X155810000Y-86010000D02*
X155810000Y-85630000D01*
X160265000Y-96115000D02*
X160265000Y-98400000D01*
X161735000Y-96115000D02*
X160265000Y-96115000D01*
X161735000Y-98400000D02*
X161735000Y-96115000D01*
X158365000Y-96115000D02*
X158365000Y-98400000D01*
X159835000Y-96115000D02*
X158365000Y-96115000D01*
X159835000Y-98400000D02*
X159835000Y-96115000D01*
X156465000Y-96115000D02*
X156465000Y-98400000D01*
X157935000Y-96115000D02*
X156465000Y-96115000D01*
X157935000Y-98400000D02*
X157935000Y-96115000D01*
D15*
X162822380Y-98533333D02*
X163536666Y-98533333D01*
X163679523Y-98580952D01*
X163774761Y-98676190D01*
X163822380Y-98819047D01*
X163822380Y-98914285D01*
X163822380Y-97533333D02*
X163822380Y-98104761D01*
X163822380Y-97819047D02*
X162822380Y-97819047D01*
X162965238Y-97914285D01*
X163060476Y-98009523D01*
X163108095Y-98104761D01*
M02*
