G04 #@! TF.GenerationSoftware,KiCad,Pcbnew,5.1.6-c6e7f7d~87~ubuntu18.04.1*
G04 #@! TF.CreationDate,2020-08-09T22:43:26+01:00*
G04 #@! TF.ProjectId,simpleboard,73696d70-6c65-4626-9f61-72642e6b6963,rev?*
G04 #@! TF.SameCoordinates,Original*
G04 #@! TF.FileFunction,Legend,Top*
G04 #@! TF.FilePolarity,Positive*
%FSLAX46Y46*%
G04 Gerber Fmt 4.6, Leading zero omitted, Abs format (unit mm)*
G04 Created by KiCad (PCBNEW 5.1.6-c6e7f7d~87~ubuntu18.04.1) date 2020-08-09 22:43:26*
%MOMM*%
%LPD*%
G01*
G04 APERTURE LIST*
%ADD10C,0.200000*%
%ADD11C,0.125000*%
%ADD12C,0.175000*%
%ADD13C,0.400000*%
%ADD14C,0.120000*%
%ADD15C,0.150000*%
G04 APERTURE END LIST*
D10*
X176880952Y-58877380D02*
X176880952Y-57877380D01*
X177214285Y-58591666D01*
X177547619Y-57877380D01*
X177547619Y-58877380D01*
X178214285Y-57877380D02*
X178404761Y-57877380D01*
X178500000Y-57925000D01*
X178595238Y-58020238D01*
X178642857Y-58210714D01*
X178642857Y-58544047D01*
X178595238Y-58734523D01*
X178500000Y-58829761D01*
X178404761Y-58877380D01*
X178214285Y-58877380D01*
X178119047Y-58829761D01*
X178023809Y-58734523D01*
X177976190Y-58544047D01*
X177976190Y-58210714D01*
X178023809Y-58020238D01*
X178119047Y-57925000D01*
X178214285Y-57877380D01*
X178928571Y-57877380D02*
X179500000Y-57877380D01*
X179214285Y-58877380D02*
X179214285Y-57877380D01*
X180023809Y-57877380D02*
X180214285Y-57877380D01*
X180309523Y-57925000D01*
X180404761Y-58020238D01*
X180452380Y-58210714D01*
X180452380Y-58544047D01*
X180404761Y-58734523D01*
X180309523Y-58829761D01*
X180214285Y-58877380D01*
X180023809Y-58877380D01*
X179928571Y-58829761D01*
X179833333Y-58734523D01*
X179785714Y-58544047D01*
X179785714Y-58210714D01*
X179833333Y-58020238D01*
X179928571Y-57925000D01*
X180023809Y-57877380D01*
X181452380Y-58877380D02*
X181119047Y-58401190D01*
X180880952Y-58877380D02*
X180880952Y-57877380D01*
X181261904Y-57877380D01*
X181357142Y-57925000D01*
X181404761Y-57972619D01*
X181452380Y-58067857D01*
X181452380Y-58210714D01*
X181404761Y-58305952D01*
X181357142Y-58353571D01*
X181261904Y-58401190D01*
X180880952Y-58401190D01*
X182595238Y-57972619D02*
X182642857Y-57925000D01*
X182738095Y-57877380D01*
X182976190Y-57877380D01*
X183071428Y-57925000D01*
X183119047Y-57972619D01*
X183166666Y-58067857D01*
X183166666Y-58163095D01*
X183119047Y-58305952D01*
X182547619Y-58877380D01*
X183166666Y-58877380D01*
X158955952Y-58752380D02*
X158955952Y-57752380D01*
X159289285Y-58466666D01*
X159622619Y-57752380D01*
X159622619Y-58752380D01*
X160289285Y-57752380D02*
X160479761Y-57752380D01*
X160575000Y-57800000D01*
X160670238Y-57895238D01*
X160717857Y-58085714D01*
X160717857Y-58419047D01*
X160670238Y-58609523D01*
X160575000Y-58704761D01*
X160479761Y-58752380D01*
X160289285Y-58752380D01*
X160194047Y-58704761D01*
X160098809Y-58609523D01*
X160051190Y-58419047D01*
X160051190Y-58085714D01*
X160098809Y-57895238D01*
X160194047Y-57800000D01*
X160289285Y-57752380D01*
X161003571Y-57752380D02*
X161575000Y-57752380D01*
X161289285Y-58752380D02*
X161289285Y-57752380D01*
X162098809Y-57752380D02*
X162289285Y-57752380D01*
X162384523Y-57800000D01*
X162479761Y-57895238D01*
X162527380Y-58085714D01*
X162527380Y-58419047D01*
X162479761Y-58609523D01*
X162384523Y-58704761D01*
X162289285Y-58752380D01*
X162098809Y-58752380D01*
X162003571Y-58704761D01*
X161908333Y-58609523D01*
X161860714Y-58419047D01*
X161860714Y-58085714D01*
X161908333Y-57895238D01*
X162003571Y-57800000D01*
X162098809Y-57752380D01*
X163527380Y-58752380D02*
X163194047Y-58276190D01*
X162955952Y-58752380D02*
X162955952Y-57752380D01*
X163336904Y-57752380D01*
X163432142Y-57800000D01*
X163479761Y-57847619D01*
X163527380Y-57942857D01*
X163527380Y-58085714D01*
X163479761Y-58180952D01*
X163432142Y-58228571D01*
X163336904Y-58276190D01*
X162955952Y-58276190D01*
X165241666Y-58752380D02*
X164670238Y-58752380D01*
X164955952Y-58752380D02*
X164955952Y-57752380D01*
X164860714Y-57895238D01*
X164765476Y-57990476D01*
X164670238Y-58038095D01*
D11*
X191314285Y-66578571D02*
X191354761Y-66464285D01*
X191395238Y-66426190D01*
X191476190Y-66388095D01*
X191597619Y-66388095D01*
X191678571Y-66426190D01*
X191719047Y-66464285D01*
X191759523Y-66540476D01*
X191759523Y-66845238D01*
X190909523Y-66845238D01*
X190909523Y-66578571D01*
X190950000Y-66502380D01*
X190990476Y-66464285D01*
X191071428Y-66426190D01*
X191152380Y-66426190D01*
X191233333Y-66464285D01*
X191273809Y-66502380D01*
X191314285Y-66578571D01*
X191314285Y-66845238D01*
X191516666Y-66083333D02*
X191516666Y-65702380D01*
X191759523Y-66159523D02*
X190909523Y-65892857D01*
X191759523Y-65626190D01*
X190909523Y-65473809D02*
X190909523Y-65016666D01*
X191759523Y-65245238D02*
X190909523Y-65245238D01*
X190909523Y-64864285D02*
X190909523Y-64407142D01*
X191759523Y-64635714D02*
X190909523Y-64635714D01*
X191314285Y-64140476D02*
X191314285Y-63873809D01*
X191759523Y-63759523D02*
X191759523Y-64140476D01*
X190909523Y-64140476D01*
X190909523Y-63759523D01*
X191759523Y-62959523D02*
X191354761Y-63226190D01*
X191759523Y-63416666D02*
X190909523Y-63416666D01*
X190909523Y-63111904D01*
X190950000Y-63035714D01*
X190990476Y-62997619D01*
X191071428Y-62959523D01*
X191192857Y-62959523D01*
X191273809Y-62997619D01*
X191314285Y-63035714D01*
X191354761Y-63111904D01*
X191354761Y-63416666D01*
X191354761Y-62464285D02*
X191759523Y-62464285D01*
X190909523Y-62730952D02*
X191354761Y-62464285D01*
X190909523Y-62197619D01*
X192042857Y-61740476D02*
X190828571Y-61740476D01*
X191314285Y-60902380D02*
X191354761Y-60788095D01*
X191395238Y-60750000D01*
X191476190Y-60711904D01*
X191597619Y-60711904D01*
X191678571Y-60750000D01*
X191719047Y-60788095D01*
X191759523Y-60864285D01*
X191759523Y-61169047D01*
X190909523Y-61169047D01*
X190909523Y-60902380D01*
X190950000Y-60826190D01*
X190990476Y-60788095D01*
X191071428Y-60750000D01*
X191152380Y-60750000D01*
X191233333Y-60788095D01*
X191273809Y-60826190D01*
X191314285Y-60902380D01*
X191314285Y-61169047D01*
X190909523Y-59607142D02*
X190909523Y-59454761D01*
X190950000Y-59378571D01*
X191030952Y-59302380D01*
X191192857Y-59264285D01*
X191476190Y-59264285D01*
X191638095Y-59302380D01*
X191719047Y-59378571D01*
X191759523Y-59454761D01*
X191759523Y-59607142D01*
X191719047Y-59683333D01*
X191638095Y-59759523D01*
X191476190Y-59797619D01*
X191192857Y-59797619D01*
X191030952Y-59759523D01*
X190950000Y-59683333D01*
X190909523Y-59607142D01*
X190909523Y-58921428D02*
X191597619Y-58921428D01*
X191678571Y-58883333D01*
X191719047Y-58845238D01*
X191759523Y-58769047D01*
X191759523Y-58616666D01*
X191719047Y-58540476D01*
X191678571Y-58502380D01*
X191597619Y-58464285D01*
X190909523Y-58464285D01*
X190909523Y-58197619D02*
X190909523Y-57740476D01*
X191759523Y-57969047D02*
X190909523Y-57969047D01*
X192760714Y-66164285D02*
X192760714Y-65554761D01*
X193084523Y-65859523D02*
X192436904Y-65859523D01*
X192275000Y-62316666D02*
X192234523Y-62392857D01*
X192234523Y-62507142D01*
X192275000Y-62621428D01*
X192355952Y-62697619D01*
X192436904Y-62735714D01*
X192598809Y-62773809D01*
X192720238Y-62773809D01*
X192882142Y-62735714D01*
X192963095Y-62697619D01*
X193044047Y-62621428D01*
X193084523Y-62507142D01*
X193084523Y-62430952D01*
X193044047Y-62316666D01*
X193003571Y-62278571D01*
X192720238Y-62278571D01*
X192720238Y-62430952D01*
X193367857Y-61745238D02*
X192153571Y-61745238D01*
X192760714Y-61173809D02*
X192760714Y-60564285D01*
X193084523Y-60869047D02*
X192436904Y-60869047D01*
X192275000Y-57935714D02*
X192234523Y-58011904D01*
X192234523Y-58126190D01*
X192275000Y-58240476D01*
X192355952Y-58316666D01*
X192436904Y-58354761D01*
X192598809Y-58392857D01*
X192720238Y-58392857D01*
X192882142Y-58354761D01*
X192963095Y-58316666D01*
X193044047Y-58240476D01*
X193084523Y-58126190D01*
X193084523Y-58050000D01*
X193044047Y-57935714D01*
X193003571Y-57897619D01*
X192720238Y-57897619D01*
X192720238Y-58050000D01*
X153357142Y-93552678D02*
X154257142Y-93386011D01*
X153357142Y-93219345D01*
X153357142Y-92957440D02*
X153357142Y-92909821D01*
X153400000Y-92862202D01*
X153442857Y-92838392D01*
X153528571Y-92814583D01*
X153700000Y-92790773D01*
X153914285Y-92790773D01*
X154085714Y-92814583D01*
X154171428Y-92838392D01*
X154214285Y-92862202D01*
X154257142Y-92909821D01*
X154257142Y-92957440D01*
X154214285Y-93005059D01*
X154171428Y-93028869D01*
X154085714Y-93052678D01*
X153914285Y-93076488D01*
X153700000Y-93076488D01*
X153528571Y-93052678D01*
X153442857Y-93028869D01*
X153400000Y-93005059D01*
X153357142Y-92957440D01*
X154171428Y-92576488D02*
X154214285Y-92552678D01*
X154257142Y-92576488D01*
X154214285Y-92600297D01*
X154171428Y-92576488D01*
X154257142Y-92576488D01*
X153357142Y-92386011D02*
X153357142Y-92076488D01*
X153700000Y-92243154D01*
X153700000Y-92171726D01*
X153742857Y-92124107D01*
X153785714Y-92100297D01*
X153871428Y-92076488D01*
X154085714Y-92076488D01*
X154171428Y-92100297D01*
X154214285Y-92124107D01*
X154257142Y-92171726D01*
X154257142Y-92314583D01*
X154214285Y-92362202D01*
X154171428Y-92386011D01*
X159741369Y-68682142D02*
X159741369Y-68082142D01*
X159741369Y-68167857D02*
X159765178Y-68125000D01*
X159812797Y-68082142D01*
X159884226Y-68082142D01*
X159931845Y-68125000D01*
X159955654Y-68210714D01*
X159955654Y-68682142D01*
X159955654Y-68210714D02*
X159979464Y-68125000D01*
X160027083Y-68082142D01*
X160098511Y-68082142D01*
X160146130Y-68125000D01*
X160169940Y-68210714D01*
X160169940Y-68682142D01*
X160479464Y-68682142D02*
X160431845Y-68639285D01*
X160408035Y-68596428D01*
X160384226Y-68510714D01*
X160384226Y-68253571D01*
X160408035Y-68167857D01*
X160431845Y-68125000D01*
X160479464Y-68082142D01*
X160550892Y-68082142D01*
X160598511Y-68125000D01*
X160622321Y-68167857D01*
X160646130Y-68253571D01*
X160646130Y-68510714D01*
X160622321Y-68596428D01*
X160598511Y-68639285D01*
X160550892Y-68682142D01*
X160479464Y-68682142D01*
X160788988Y-68082142D02*
X160979464Y-68082142D01*
X160860416Y-67782142D02*
X160860416Y-68553571D01*
X160884226Y-68639285D01*
X160931845Y-68682142D01*
X160979464Y-68682142D01*
X161146130Y-68682142D02*
X161146130Y-68082142D01*
X161146130Y-67782142D02*
X161122321Y-67825000D01*
X161146130Y-67867857D01*
X161169940Y-67825000D01*
X161146130Y-67782142D01*
X161146130Y-67867857D01*
X161455654Y-68682142D02*
X161408035Y-68639285D01*
X161384226Y-68596428D01*
X161360416Y-68510714D01*
X161360416Y-68253571D01*
X161384226Y-68167857D01*
X161408035Y-68125000D01*
X161455654Y-68082142D01*
X161527083Y-68082142D01*
X161574702Y-68125000D01*
X161598511Y-68167857D01*
X161622321Y-68253571D01*
X161622321Y-68510714D01*
X161598511Y-68596428D01*
X161574702Y-68639285D01*
X161527083Y-68682142D01*
X161455654Y-68682142D01*
X161836607Y-68082142D02*
X161836607Y-68682142D01*
X161836607Y-68167857D02*
X161860416Y-68125000D01*
X161908035Y-68082142D01*
X161979464Y-68082142D01*
X162027083Y-68125000D01*
X162050892Y-68210714D01*
X162050892Y-68682142D01*
X162884226Y-68639285D02*
X162836607Y-68682142D01*
X162741369Y-68682142D01*
X162693750Y-68639285D01*
X162669940Y-68596428D01*
X162646130Y-68510714D01*
X162646130Y-68253571D01*
X162669940Y-68167857D01*
X162693750Y-68125000D01*
X162741369Y-68082142D01*
X162836607Y-68082142D01*
X162884226Y-68125000D01*
X163169940Y-68682142D02*
X163122321Y-68639285D01*
X163098511Y-68596428D01*
X163074702Y-68510714D01*
X163074702Y-68253571D01*
X163098511Y-68167857D01*
X163122321Y-68125000D01*
X163169940Y-68082142D01*
X163241369Y-68082142D01*
X163288988Y-68125000D01*
X163312797Y-68167857D01*
X163336607Y-68253571D01*
X163336607Y-68510714D01*
X163312797Y-68596428D01*
X163288988Y-68639285D01*
X163241369Y-68682142D01*
X163169940Y-68682142D01*
X163550892Y-68082142D02*
X163550892Y-68682142D01*
X163550892Y-68167857D02*
X163574702Y-68125000D01*
X163622321Y-68082142D01*
X163693750Y-68082142D01*
X163741369Y-68125000D01*
X163765178Y-68210714D01*
X163765178Y-68682142D01*
X163931845Y-68082142D02*
X164122321Y-68082142D01*
X164003273Y-67782142D02*
X164003273Y-68553571D01*
X164027083Y-68639285D01*
X164074702Y-68682142D01*
X164122321Y-68682142D01*
X164288988Y-68682142D02*
X164288988Y-68082142D01*
X164288988Y-68253571D02*
X164312797Y-68167857D01*
X164336607Y-68125000D01*
X164384226Y-68082142D01*
X164431845Y-68082142D01*
X164669940Y-68682142D02*
X164622321Y-68639285D01*
X164598511Y-68596428D01*
X164574702Y-68510714D01*
X164574702Y-68253571D01*
X164598511Y-68167857D01*
X164622321Y-68125000D01*
X164669940Y-68082142D01*
X164741369Y-68082142D01*
X164788988Y-68125000D01*
X164812797Y-68167857D01*
X164836607Y-68253571D01*
X164836607Y-68510714D01*
X164812797Y-68596428D01*
X164788988Y-68639285D01*
X164741369Y-68682142D01*
X164669940Y-68682142D01*
X165122321Y-68682142D02*
X165074702Y-68639285D01*
X165050892Y-68553571D01*
X165050892Y-67782142D01*
X165384226Y-68682142D02*
X165336607Y-68639285D01*
X165312797Y-68553571D01*
X165312797Y-67782142D01*
X165765178Y-68639285D02*
X165717559Y-68682142D01*
X165622321Y-68682142D01*
X165574702Y-68639285D01*
X165550892Y-68553571D01*
X165550892Y-68210714D01*
X165574702Y-68125000D01*
X165622321Y-68082142D01*
X165717559Y-68082142D01*
X165765178Y-68125000D01*
X165788988Y-68210714D01*
X165788988Y-68296428D01*
X165550892Y-68382142D01*
X166003273Y-68682142D02*
X166003273Y-68082142D01*
X166003273Y-68253571D02*
X166027083Y-68167857D01*
X166050892Y-68125000D01*
X166098511Y-68082142D01*
X166146130Y-68082142D01*
D12*
X151517857Y-68041666D02*
X152084523Y-68041666D01*
X151517857Y-68341666D02*
X151963095Y-68341666D01*
X152044047Y-68308333D01*
X152084523Y-68241666D01*
X152084523Y-68141666D01*
X152044047Y-68075000D01*
X152003571Y-68041666D01*
X151517857Y-67708333D02*
X152084523Y-67708333D01*
X151598809Y-67708333D02*
X151558333Y-67675000D01*
X151517857Y-67608333D01*
X151517857Y-67508333D01*
X151558333Y-67441666D01*
X151639285Y-67408333D01*
X152084523Y-67408333D01*
X152084523Y-66775000D02*
X151639285Y-66775000D01*
X151558333Y-66808333D01*
X151517857Y-66875000D01*
X151517857Y-67008333D01*
X151558333Y-67075000D01*
X152044047Y-66775000D02*
X152084523Y-66841666D01*
X152084523Y-67008333D01*
X152044047Y-67075000D01*
X151963095Y-67108333D01*
X151882142Y-67108333D01*
X151801190Y-67075000D01*
X151760714Y-67008333D01*
X151760714Y-66841666D01*
X151720238Y-66775000D01*
X151517857Y-66508333D02*
X152084523Y-66341666D01*
X151517857Y-66175000D01*
X152003571Y-65908333D02*
X152044047Y-65875000D01*
X152084523Y-65908333D01*
X152044047Y-65941666D01*
X152003571Y-65908333D01*
X152084523Y-65908333D01*
X152084523Y-65475000D02*
X152044047Y-65541666D01*
X152003571Y-65575000D01*
X151922619Y-65608333D01*
X151679761Y-65608333D01*
X151598809Y-65575000D01*
X151558333Y-65541666D01*
X151517857Y-65475000D01*
X151517857Y-65375000D01*
X151558333Y-65308333D01*
X151598809Y-65275000D01*
X151679761Y-65241666D01*
X151922619Y-65241666D01*
X152003571Y-65275000D01*
X152044047Y-65308333D01*
X152084523Y-65375000D01*
X152084523Y-65475000D01*
X151517857Y-65041666D02*
X151517857Y-64775000D01*
X152084523Y-64941666D02*
X151355952Y-64941666D01*
X151275000Y-64908333D01*
X151234523Y-64841666D01*
X151234523Y-64775000D01*
X151517857Y-64641666D02*
X151517857Y-64375000D01*
X152084523Y-64541666D02*
X151355952Y-64541666D01*
X151275000Y-64508333D01*
X151234523Y-64441666D01*
X151234523Y-64375000D01*
X152084523Y-64141666D02*
X151517857Y-64141666D01*
X151234523Y-64141666D02*
X151275000Y-64175000D01*
X151315476Y-64141666D01*
X151275000Y-64108333D01*
X151234523Y-64141666D01*
X151315476Y-64141666D01*
X152044047Y-63508333D02*
X152084523Y-63575000D01*
X152084523Y-63708333D01*
X152044047Y-63775000D01*
X152003571Y-63808333D01*
X151922619Y-63841666D01*
X151679761Y-63841666D01*
X151598809Y-63808333D01*
X151558333Y-63775000D01*
X151517857Y-63708333D01*
X151517857Y-63575000D01*
X151558333Y-63508333D01*
X152084523Y-63208333D02*
X151517857Y-63208333D01*
X151234523Y-63208333D02*
X151275000Y-63241666D01*
X151315476Y-63208333D01*
X151275000Y-63175000D01*
X151234523Y-63208333D01*
X151315476Y-63208333D01*
X151517857Y-62875000D02*
X152084523Y-62875000D01*
X151598809Y-62875000D02*
X151558333Y-62841666D01*
X151517857Y-62775000D01*
X151517857Y-62675000D01*
X151558333Y-62608333D01*
X151639285Y-62575000D01*
X152084523Y-62575000D01*
X152044047Y-61975000D02*
X152084523Y-62041666D01*
X152084523Y-62175000D01*
X152044047Y-62241666D01*
X151963095Y-62275000D01*
X151639285Y-62275000D01*
X151558333Y-62241666D01*
X151517857Y-62175000D01*
X151517857Y-62041666D01*
X151558333Y-61975000D01*
X151639285Y-61941666D01*
X151720238Y-61941666D01*
X151801190Y-62275000D01*
X152084523Y-61641666D02*
X151517857Y-61641666D01*
X151679761Y-61641666D02*
X151598809Y-61608333D01*
X151558333Y-61575000D01*
X151517857Y-61508333D01*
X151517857Y-61441666D01*
X152084523Y-61108333D02*
X152044047Y-61175000D01*
X152003571Y-61208333D01*
X151922619Y-61241666D01*
X151679761Y-61241666D01*
X151598809Y-61208333D01*
X151558333Y-61175000D01*
X151517857Y-61108333D01*
X151517857Y-61008333D01*
X151558333Y-60941666D01*
X151598809Y-60908333D01*
X151679761Y-60875000D01*
X151922619Y-60875000D01*
X152003571Y-60908333D01*
X152044047Y-60941666D01*
X152084523Y-61008333D01*
X152084523Y-61108333D01*
X152084523Y-60575000D02*
X151234523Y-60575000D01*
X151558333Y-60575000D02*
X151517857Y-60508333D01*
X151517857Y-60375000D01*
X151558333Y-60308333D01*
X151598809Y-60275000D01*
X151679761Y-60241666D01*
X151922619Y-60241666D01*
X152003571Y-60275000D01*
X152044047Y-60308333D01*
X152084523Y-60375000D01*
X152084523Y-60508333D01*
X152044047Y-60575000D01*
X152084523Y-59841666D02*
X152044047Y-59908333D01*
X152003571Y-59941666D01*
X151922619Y-59975000D01*
X151679761Y-59975000D01*
X151598809Y-59941666D01*
X151558333Y-59908333D01*
X151517857Y-59841666D01*
X151517857Y-59741666D01*
X151558333Y-59675000D01*
X151598809Y-59641666D01*
X151679761Y-59608333D01*
X151922619Y-59608333D01*
X152003571Y-59641666D01*
X152044047Y-59675000D01*
X152084523Y-59741666D01*
X152084523Y-59841666D01*
X151517857Y-59408333D02*
X151517857Y-59141666D01*
X151234523Y-59308333D02*
X151963095Y-59308333D01*
X152044047Y-59275000D01*
X152084523Y-59208333D01*
X152084523Y-59141666D01*
X152084523Y-58908333D02*
X151517857Y-58908333D01*
X151234523Y-58908333D02*
X151275000Y-58941666D01*
X151315476Y-58908333D01*
X151275000Y-58875000D01*
X151234523Y-58908333D01*
X151315476Y-58908333D01*
X152044047Y-58275000D02*
X152084523Y-58341666D01*
X152084523Y-58475000D01*
X152044047Y-58541666D01*
X152003571Y-58575000D01*
X151922619Y-58608333D01*
X151679761Y-58608333D01*
X151598809Y-58575000D01*
X151558333Y-58541666D01*
X151517857Y-58475000D01*
X151517857Y-58341666D01*
X151558333Y-58275000D01*
X152084523Y-57975000D02*
X151234523Y-57975000D01*
X152084523Y-57675000D02*
X151639285Y-57675000D01*
X151558333Y-57708333D01*
X151517857Y-57775000D01*
X151517857Y-57875000D01*
X151558333Y-57941666D01*
X151598809Y-57975000D01*
X152044047Y-57075000D02*
X152084523Y-57141666D01*
X152084523Y-57275000D01*
X152044047Y-57341666D01*
X151963095Y-57375000D01*
X151639285Y-57375000D01*
X151558333Y-57341666D01*
X151517857Y-57275000D01*
X151517857Y-57141666D01*
X151558333Y-57075000D01*
X151639285Y-57041666D01*
X151720238Y-57041666D01*
X151801190Y-57375000D01*
X152003571Y-56741666D02*
X152044047Y-56708333D01*
X152084523Y-56741666D01*
X152044047Y-56775000D01*
X152003571Y-56741666D01*
X152084523Y-56741666D01*
X152084523Y-56408333D02*
X151517857Y-56408333D01*
X151234523Y-56408333D02*
X151275000Y-56441666D01*
X151315476Y-56408333D01*
X151275000Y-56375000D01*
X151234523Y-56408333D01*
X151315476Y-56408333D01*
X151517857Y-56175000D02*
X151517857Y-55908333D01*
X151234523Y-56075000D02*
X151963095Y-56075000D01*
X152044047Y-56041666D01*
X152084523Y-55975000D01*
X152084523Y-55908333D01*
D11*
X166959523Y-74770238D02*
X166514285Y-74770238D01*
X166433333Y-74808333D01*
X166392857Y-74884523D01*
X166392857Y-75036904D01*
X166433333Y-75113095D01*
X166919047Y-74770238D02*
X166959523Y-74846428D01*
X166959523Y-75036904D01*
X166919047Y-75113095D01*
X166838095Y-75151190D01*
X166757142Y-75151190D01*
X166676190Y-75113095D01*
X166635714Y-75036904D01*
X166635714Y-74846428D01*
X166595238Y-74770238D01*
X166109523Y-74275000D02*
X166311904Y-74275000D01*
X166230952Y-74465476D02*
X166311904Y-74275000D01*
X166230952Y-74084523D01*
X166473809Y-74389285D02*
X166311904Y-74275000D01*
X166473809Y-74160714D01*
X166959523Y-73779761D02*
X166392857Y-73779761D01*
X166473809Y-73779761D02*
X166433333Y-73741666D01*
X166392857Y-73665476D01*
X166392857Y-73551190D01*
X166433333Y-73475000D01*
X166514285Y-73436904D01*
X166959523Y-73436904D01*
X166514285Y-73436904D02*
X166433333Y-73398809D01*
X166392857Y-73322619D01*
X166392857Y-73208333D01*
X166433333Y-73132142D01*
X166514285Y-73094047D01*
X166959523Y-73094047D01*
X166190476Y-72141666D02*
X166150000Y-72103571D01*
X166109523Y-72027380D01*
X166109523Y-71836904D01*
X166150000Y-71760714D01*
X166190476Y-71722619D01*
X166271428Y-71684523D01*
X166352380Y-71684523D01*
X166473809Y-71722619D01*
X166959523Y-72179761D01*
X166959523Y-71684523D01*
X166109523Y-71189285D02*
X166109523Y-71113095D01*
X166150000Y-71036904D01*
X166190476Y-70998809D01*
X166271428Y-70960714D01*
X166433333Y-70922619D01*
X166635714Y-70922619D01*
X166797619Y-70960714D01*
X166878571Y-70998809D01*
X166919047Y-71036904D01*
X166959523Y-71113095D01*
X166959523Y-71189285D01*
X166919047Y-71265476D01*
X166878571Y-71303571D01*
X166797619Y-71341666D01*
X166635714Y-71379761D01*
X166433333Y-71379761D01*
X166271428Y-71341666D01*
X166190476Y-71303571D01*
X166150000Y-71265476D01*
X166109523Y-71189285D01*
X166190476Y-70617857D02*
X166150000Y-70579761D01*
X166109523Y-70503571D01*
X166109523Y-70313095D01*
X166150000Y-70236904D01*
X166190476Y-70198809D01*
X166271428Y-70160714D01*
X166352380Y-70160714D01*
X166473809Y-70198809D01*
X166959523Y-70655952D01*
X166959523Y-70160714D01*
X166109523Y-69665476D02*
X166109523Y-69589285D01*
X166150000Y-69513095D01*
X166190476Y-69475000D01*
X166271428Y-69436904D01*
X166433333Y-69398809D01*
X166635714Y-69398809D01*
X166797619Y-69436904D01*
X166878571Y-69475000D01*
X166919047Y-69513095D01*
X166959523Y-69589285D01*
X166959523Y-69665476D01*
X166919047Y-69741666D01*
X166878571Y-69779761D01*
X166797619Y-69817857D01*
X166635714Y-69855952D01*
X166433333Y-69855952D01*
X166271428Y-69817857D01*
X166190476Y-69779761D01*
X166150000Y-69741666D01*
X166109523Y-69665476D01*
D13*
X160714285Y-65457142D02*
X160714285Y-67457142D01*
X159857142Y-65457142D02*
X159857142Y-67028571D01*
X159952380Y-67314285D01*
X160142857Y-67457142D01*
X160428571Y-67457142D01*
X160619047Y-67314285D01*
X160714285Y-67171428D01*
X161666666Y-67457142D02*
X161666666Y-64457142D01*
X162809523Y-67457142D01*
X162809523Y-64457142D01*
X164619047Y-67457142D02*
X164619047Y-65885714D01*
X164523809Y-65600000D01*
X164333333Y-65457142D01*
X163952380Y-65457142D01*
X163761904Y-65600000D01*
X164619047Y-67314285D02*
X164428571Y-67457142D01*
X163952380Y-67457142D01*
X163761904Y-67314285D01*
X163666666Y-67028571D01*
X163666666Y-66742857D01*
X163761904Y-66457142D01*
X163952380Y-66314285D01*
X164428571Y-66314285D01*
X164619047Y-66171428D01*
X165380952Y-65457142D02*
X165857142Y-67457142D01*
X166333333Y-65457142D01*
D10*
X151621428Y-93142857D02*
X152954761Y-93142857D01*
X151621428Y-93571428D02*
X152669047Y-93571428D01*
X152859523Y-93523809D01*
X152954761Y-93428571D01*
X152954761Y-93285714D01*
X152859523Y-93190476D01*
X152764285Y-93142857D01*
X152954761Y-92666666D02*
X150954761Y-92666666D01*
X152954761Y-92095238D01*
X150954761Y-92095238D01*
X152954761Y-91190476D02*
X151907142Y-91190476D01*
X151716666Y-91238095D01*
X151621428Y-91333333D01*
X151621428Y-91523809D01*
X151716666Y-91619047D01*
X152859523Y-91190476D02*
X152954761Y-91285714D01*
X152954761Y-91523809D01*
X152859523Y-91619047D01*
X152669047Y-91666666D01*
X152478571Y-91666666D01*
X152288095Y-91619047D01*
X152192857Y-91523809D01*
X152192857Y-91285714D01*
X152097619Y-91190476D01*
X151621428Y-90809523D02*
X152954761Y-90571428D01*
X151621428Y-90333333D01*
D12*
X178916666Y-91583333D02*
X179050000Y-91583333D01*
X179116666Y-91650000D01*
X179183333Y-91783333D01*
X179216666Y-92050000D01*
X179216666Y-92516666D01*
X179183333Y-92783333D01*
X179116666Y-92916666D01*
X179050000Y-92983333D01*
X178916666Y-92983333D01*
X178850000Y-92916666D01*
X178783333Y-92783333D01*
X178750000Y-92516666D01*
X178750000Y-92050000D01*
X178783333Y-91783333D01*
X178850000Y-91650000D01*
X178916666Y-91583333D01*
X179416666Y-92050000D02*
X179683333Y-92050000D01*
X179516666Y-92983333D02*
X179516666Y-91783333D01*
X179550000Y-91650000D01*
X179616666Y-91583333D01*
X179683333Y-91583333D01*
X179816666Y-92050000D02*
X180083333Y-92050000D01*
X179916666Y-92983333D02*
X179916666Y-91783333D01*
X179950000Y-91650000D01*
X180016666Y-91583333D01*
X180083333Y-91583333D01*
X180316666Y-92983333D02*
X180316666Y-92050000D01*
X180316666Y-91583333D02*
X180283333Y-91650000D01*
X180316666Y-91716666D01*
X180350000Y-91650000D01*
X180316666Y-91583333D01*
X180316666Y-91716666D01*
X180950000Y-92916666D02*
X180883333Y-92983333D01*
X180750000Y-92983333D01*
X180683333Y-92916666D01*
X180650000Y-92850000D01*
X180616666Y-92716666D01*
X180616666Y-92316666D01*
X180650000Y-92183333D01*
X180683333Y-92116666D01*
X180750000Y-92050000D01*
X180883333Y-92050000D01*
X180950000Y-92116666D01*
X181250000Y-92983333D02*
X181250000Y-92050000D01*
X181250000Y-91583333D02*
X181216666Y-91650000D01*
X181250000Y-91716666D01*
X181283333Y-91650000D01*
X181250000Y-91583333D01*
X181250000Y-91716666D01*
X181583333Y-92050000D02*
X181583333Y-92983333D01*
X181583333Y-92183333D02*
X181616666Y-92116666D01*
X181683333Y-92050000D01*
X181783333Y-92050000D01*
X181850000Y-92116666D01*
X181883333Y-92250000D01*
X181883333Y-92983333D01*
X182483333Y-92916666D02*
X182416666Y-92983333D01*
X182283333Y-92983333D01*
X182216666Y-92916666D01*
X182183333Y-92783333D01*
X182183333Y-92250000D01*
X182216666Y-92116666D01*
X182283333Y-92050000D01*
X182416666Y-92050000D01*
X182483333Y-92116666D01*
X182516666Y-92250000D01*
X182516666Y-92383333D01*
X182183333Y-92516666D01*
X183216666Y-92983333D02*
X182983333Y-92316666D01*
X182816666Y-92983333D02*
X182816666Y-91583333D01*
X183083333Y-91583333D01*
X183150000Y-91650000D01*
X183183333Y-91716666D01*
X183216666Y-91850000D01*
X183216666Y-92050000D01*
X183183333Y-92183333D01*
X183150000Y-92250000D01*
X183083333Y-92316666D01*
X182816666Y-92316666D01*
X183616666Y-92983333D02*
X183550000Y-92916666D01*
X183516666Y-92850000D01*
X183483333Y-92716666D01*
X183483333Y-92316666D01*
X183516666Y-92183333D01*
X183550000Y-92116666D01*
X183616666Y-92050000D01*
X183716666Y-92050000D01*
X183783333Y-92116666D01*
X183816666Y-92183333D01*
X183850000Y-92316666D01*
X183850000Y-92716666D01*
X183816666Y-92850000D01*
X183783333Y-92916666D01*
X183716666Y-92983333D01*
X183616666Y-92983333D01*
X184150000Y-92983333D02*
X184150000Y-91583333D01*
X184150000Y-92116666D02*
X184216666Y-92050000D01*
X184350000Y-92050000D01*
X184416666Y-92116666D01*
X184450000Y-92183333D01*
X184483333Y-92316666D01*
X184483333Y-92716666D01*
X184450000Y-92850000D01*
X184416666Y-92916666D01*
X184350000Y-92983333D01*
X184216666Y-92983333D01*
X184150000Y-92916666D01*
X184883333Y-92983333D02*
X184816666Y-92916666D01*
X184783333Y-92850000D01*
X184750000Y-92716666D01*
X184750000Y-92316666D01*
X184783333Y-92183333D01*
X184816666Y-92116666D01*
X184883333Y-92050000D01*
X184983333Y-92050000D01*
X185050000Y-92116666D01*
X185083333Y-92183333D01*
X185116666Y-92316666D01*
X185116666Y-92716666D01*
X185083333Y-92850000D01*
X185050000Y-92916666D01*
X184983333Y-92983333D01*
X184883333Y-92983333D01*
X185316666Y-92050000D02*
X185583333Y-92050000D01*
X185416666Y-91583333D02*
X185416666Y-92783333D01*
X185450000Y-92916666D01*
X185516666Y-92983333D01*
X185583333Y-92983333D01*
X185816666Y-92983333D02*
X185816666Y-92050000D01*
X185816666Y-91583333D02*
X185783333Y-91650000D01*
X185816666Y-91716666D01*
X185850000Y-91650000D01*
X185816666Y-91583333D01*
X185816666Y-91716666D01*
X186450000Y-92916666D02*
X186383333Y-92983333D01*
X186250000Y-92983333D01*
X186183333Y-92916666D01*
X186150000Y-92850000D01*
X186116666Y-92716666D01*
X186116666Y-92316666D01*
X186150000Y-92183333D01*
X186183333Y-92116666D01*
X186250000Y-92050000D01*
X186383333Y-92050000D01*
X186450000Y-92116666D01*
X186750000Y-92983333D02*
X186750000Y-91583333D01*
X187050000Y-92983333D02*
X187050000Y-92250000D01*
X187016666Y-92116666D01*
X186950000Y-92050000D01*
X186850000Y-92050000D01*
X186783333Y-92116666D01*
X186750000Y-92183333D01*
X187650000Y-92916666D02*
X187583333Y-92983333D01*
X187450000Y-92983333D01*
X187383333Y-92916666D01*
X187350000Y-92783333D01*
X187350000Y-92250000D01*
X187383333Y-92116666D01*
X187450000Y-92050000D01*
X187583333Y-92050000D01*
X187650000Y-92116666D01*
X187683333Y-92250000D01*
X187683333Y-92383333D01*
X187350000Y-92516666D01*
X187983333Y-92850000D02*
X188016666Y-92916666D01*
X187983333Y-92983333D01*
X187950000Y-92916666D01*
X187983333Y-92850000D01*
X187983333Y-92983333D01*
X188316666Y-92983333D02*
X188316666Y-92050000D01*
X188316666Y-91583333D02*
X188283333Y-91650000D01*
X188316666Y-91716666D01*
X188350000Y-91650000D01*
X188316666Y-91583333D01*
X188316666Y-91716666D01*
X188550000Y-92050000D02*
X188816666Y-92050000D01*
X188650000Y-91583333D02*
X188650000Y-92783333D01*
X188683333Y-92916666D01*
X188750000Y-92983333D01*
X188816666Y-92983333D01*
D11*
X190339285Y-80097619D02*
X190339285Y-80364285D01*
X190784523Y-80364285D02*
X189934523Y-80364285D01*
X189934523Y-79983333D01*
X189934523Y-79678571D02*
X190622619Y-79678571D01*
X190703571Y-79640476D01*
X190744047Y-79602380D01*
X190784523Y-79526190D01*
X190784523Y-79373809D01*
X190744047Y-79297619D01*
X190703571Y-79259523D01*
X190622619Y-79221428D01*
X189934523Y-79221428D01*
X190744047Y-78878571D02*
X190784523Y-78764285D01*
X190784523Y-78573809D01*
X190744047Y-78497619D01*
X190703571Y-78459523D01*
X190622619Y-78421428D01*
X190541666Y-78421428D01*
X190460714Y-78459523D01*
X190420238Y-78497619D01*
X190379761Y-78573809D01*
X190339285Y-78726190D01*
X190298809Y-78802380D01*
X190258333Y-78840476D01*
X190177380Y-78878571D01*
X190096428Y-78878571D01*
X190015476Y-78840476D01*
X189975000Y-78802380D01*
X189934523Y-78726190D01*
X189934523Y-78535714D01*
X189975000Y-78421428D01*
X190339285Y-78078571D02*
X190339285Y-77811904D01*
X190784523Y-77697619D02*
X190784523Y-78078571D01*
X189934523Y-78078571D01*
X189934523Y-77697619D01*
X192184523Y-79545238D02*
X192184523Y-80002380D01*
X192184523Y-79773809D02*
X191334523Y-79773809D01*
X191455952Y-79850000D01*
X191536904Y-79926190D01*
X191577380Y-80002380D01*
X191334523Y-79050000D02*
X191334523Y-78973809D01*
X191375000Y-78897619D01*
X191415476Y-78859523D01*
X191496428Y-78821428D01*
X191658333Y-78783333D01*
X191860714Y-78783333D01*
X192022619Y-78821428D01*
X192103571Y-78859523D01*
X192144047Y-78897619D01*
X192184523Y-78973809D01*
X192184523Y-79050000D01*
X192144047Y-79126190D01*
X192103571Y-79164285D01*
X192022619Y-79202380D01*
X191860714Y-79240476D01*
X191658333Y-79240476D01*
X191496428Y-79202380D01*
X191415476Y-79164285D01*
X191375000Y-79126190D01*
X191334523Y-79050000D01*
X191941666Y-78478571D02*
X191941666Y-78097619D01*
X192184523Y-78554761D02*
X191334523Y-78288095D01*
X192184523Y-78021428D01*
X174440476Y-52709523D02*
X175290476Y-52709523D01*
X174683333Y-52976190D01*
X175290476Y-53242857D01*
X174440476Y-53242857D01*
X174440476Y-53738095D02*
X174480952Y-53661904D01*
X174521428Y-53623809D01*
X174602380Y-53585714D01*
X174845238Y-53585714D01*
X174926190Y-53623809D01*
X174966666Y-53661904D01*
X175007142Y-53738095D01*
X175007142Y-53852380D01*
X174966666Y-53928571D01*
X174926190Y-53966666D01*
X174845238Y-54004761D01*
X174602380Y-54004761D01*
X174521428Y-53966666D01*
X174480952Y-53928571D01*
X174440476Y-53852380D01*
X174440476Y-53738095D01*
X175007142Y-54233333D02*
X175007142Y-54538095D01*
X175290476Y-54347619D02*
X174561904Y-54347619D01*
X174480952Y-54385714D01*
X174440476Y-54461904D01*
X174440476Y-54538095D01*
X174440476Y-54919047D02*
X174480952Y-54842857D01*
X174521428Y-54804761D01*
X174602380Y-54766666D01*
X174845238Y-54766666D01*
X174926190Y-54804761D01*
X174966666Y-54842857D01*
X175007142Y-54919047D01*
X175007142Y-55033333D01*
X174966666Y-55109523D01*
X174926190Y-55147619D01*
X174845238Y-55185714D01*
X174602380Y-55185714D01*
X174521428Y-55147619D01*
X174480952Y-55109523D01*
X174440476Y-55033333D01*
X174440476Y-54919047D01*
X174440476Y-55528571D02*
X175007142Y-55528571D01*
X174845238Y-55528571D02*
X174926190Y-55566666D01*
X174966666Y-55604761D01*
X175007142Y-55680952D01*
X175007142Y-55757142D01*
X174480952Y-55985714D02*
X174440476Y-56061904D01*
X174440476Y-56214285D01*
X174480952Y-56290476D01*
X174561904Y-56328571D01*
X174602380Y-56328571D01*
X174683333Y-56290476D01*
X174723809Y-56214285D01*
X174723809Y-56100000D01*
X174764285Y-56023809D01*
X174845238Y-55985714D01*
X174885714Y-55985714D01*
X174966666Y-56023809D01*
X175007142Y-56100000D01*
X175007142Y-56214285D01*
X174966666Y-56290476D01*
D12*
X192894047Y-91250000D02*
X193986904Y-91850000D01*
X192934523Y-90583333D02*
X192934523Y-90183333D01*
X193784523Y-90383333D02*
X192934523Y-90383333D01*
X192975000Y-89050000D02*
X192934523Y-89116666D01*
X192934523Y-89216666D01*
X192975000Y-89316666D01*
X193055952Y-89383333D01*
X193136904Y-89416666D01*
X193298809Y-89450000D01*
X193420238Y-89450000D01*
X193582142Y-89416666D01*
X193663095Y-89383333D01*
X193744047Y-89316666D01*
X193784523Y-89216666D01*
X193784523Y-89150000D01*
X193744047Y-89050000D01*
X193703571Y-89016666D01*
X193420238Y-89016666D01*
X193420238Y-89150000D01*
X192934523Y-87850000D02*
X192934523Y-88183333D01*
X193339285Y-88216666D01*
X193298809Y-88183333D01*
X193258333Y-88116666D01*
X193258333Y-87950000D01*
X193298809Y-87883333D01*
X193339285Y-87850000D01*
X193420238Y-87816666D01*
X193622619Y-87816666D01*
X193703571Y-87850000D01*
X193744047Y-87883333D01*
X193784523Y-87950000D01*
X193784523Y-88116666D01*
X193744047Y-88183333D01*
X193703571Y-88216666D01*
X192934523Y-87616666D02*
X193784523Y-87383333D01*
X192934523Y-87150000D01*
X192133333Y-86239285D02*
X191900000Y-86239285D01*
X191900000Y-86684523D02*
X191900000Y-85834523D01*
X192233333Y-85834523D01*
X192466666Y-86441666D02*
X192800000Y-86441666D01*
X192400000Y-86684523D02*
X192633333Y-85834523D01*
X192866666Y-86684523D01*
X193100000Y-86684523D02*
X193100000Y-85834523D01*
X193500000Y-86684523D01*
X193500000Y-85834523D01*
D10*
X185427380Y-99045238D02*
X184427380Y-99045238D01*
X185427380Y-98588095D01*
X184427380Y-98588095D01*
X185427380Y-97864285D02*
X184903571Y-97864285D01*
X184808333Y-97902380D01*
X184760714Y-97978571D01*
X184760714Y-98130952D01*
X184808333Y-98207142D01*
X185379761Y-97864285D02*
X185427380Y-97940476D01*
X185427380Y-98130952D01*
X185379761Y-98207142D01*
X185284523Y-98245238D01*
X185189285Y-98245238D01*
X185094047Y-98207142D01*
X185046428Y-98130952D01*
X185046428Y-97940476D01*
X184998809Y-97864285D01*
X184760714Y-97559523D02*
X185427380Y-97369047D01*
X184760714Y-97178571D01*
X179503571Y-99054523D02*
X179503571Y-98787857D01*
X180027380Y-98673571D02*
X180027380Y-99054523D01*
X179027380Y-99054523D01*
X179027380Y-98673571D01*
X179360714Y-98330714D02*
X180027380Y-98330714D01*
X179455952Y-98330714D02*
X179408333Y-98292619D01*
X179360714Y-98216428D01*
X179360714Y-98102142D01*
X179408333Y-98025952D01*
X179503571Y-97987857D01*
X180027380Y-97987857D01*
X179360714Y-97721190D02*
X179360714Y-97416428D01*
X179027380Y-97606904D02*
X179884523Y-97606904D01*
X179979761Y-97568809D01*
X180027380Y-97492619D01*
X180027380Y-97416428D01*
X178979761Y-96578333D02*
X180265476Y-97264047D01*
X179503571Y-96311666D02*
X179503571Y-96045000D01*
X180027380Y-95930714D02*
X180027380Y-96311666D01*
X179027380Y-96311666D01*
X179027380Y-95930714D01*
X179979761Y-95625952D02*
X180027380Y-95549761D01*
X180027380Y-95397380D01*
X179979761Y-95321190D01*
X179884523Y-95283095D01*
X179836904Y-95283095D01*
X179741666Y-95321190D01*
X179694047Y-95397380D01*
X179694047Y-95511666D01*
X179646428Y-95587857D01*
X179551190Y-95625952D01*
X179503571Y-95625952D01*
X179408333Y-95587857D01*
X179360714Y-95511666D01*
X179360714Y-95397380D01*
X179408333Y-95321190D01*
X179979761Y-94597380D02*
X180027380Y-94673571D01*
X180027380Y-94825952D01*
X179979761Y-94902142D01*
X179932142Y-94940238D01*
X179836904Y-94978333D01*
X179551190Y-94978333D01*
X179455952Y-94940238D01*
X179408333Y-94902142D01*
X179360714Y-94825952D01*
X179360714Y-94673571D01*
X179408333Y-94597380D01*
D12*
X158180952Y-70616666D02*
X158140476Y-70716666D01*
X158140476Y-70883333D01*
X158180952Y-70950000D01*
X158221428Y-70983333D01*
X158302380Y-71016666D01*
X158383333Y-71016666D01*
X158464285Y-70983333D01*
X158504761Y-70950000D01*
X158545238Y-70883333D01*
X158585714Y-70750000D01*
X158626190Y-70683333D01*
X158666666Y-70650000D01*
X158747619Y-70616666D01*
X158828571Y-70616666D01*
X158909523Y-70650000D01*
X158950000Y-70683333D01*
X158990476Y-70750000D01*
X158990476Y-70916666D01*
X158950000Y-71016666D01*
X158180952Y-71583333D02*
X158140476Y-71516666D01*
X158140476Y-71383333D01*
X158180952Y-71316666D01*
X158261904Y-71283333D01*
X158585714Y-71283333D01*
X158666666Y-71316666D01*
X158707142Y-71383333D01*
X158707142Y-71516666D01*
X158666666Y-71583333D01*
X158585714Y-71616666D01*
X158504761Y-71616666D01*
X158423809Y-71283333D01*
X158140476Y-71916666D02*
X158707142Y-71916666D01*
X158545238Y-71916666D02*
X158626190Y-71950000D01*
X158666666Y-71983333D01*
X158707142Y-72050000D01*
X158707142Y-72116666D01*
X158140476Y-72350000D02*
X158707142Y-72350000D01*
X158990476Y-72350000D02*
X158950000Y-72316666D01*
X158909523Y-72350000D01*
X158950000Y-72383333D01*
X158990476Y-72350000D01*
X158909523Y-72350000D01*
X158140476Y-72983333D02*
X158585714Y-72983333D01*
X158666666Y-72950000D01*
X158707142Y-72883333D01*
X158707142Y-72750000D01*
X158666666Y-72683333D01*
X158180952Y-72983333D02*
X158140476Y-72916666D01*
X158140476Y-72750000D01*
X158180952Y-72683333D01*
X158261904Y-72650000D01*
X158342857Y-72650000D01*
X158423809Y-72683333D01*
X158464285Y-72750000D01*
X158464285Y-72916666D01*
X158504761Y-72983333D01*
X158140476Y-73416666D02*
X158180952Y-73350000D01*
X158261904Y-73316666D01*
X158990476Y-73316666D01*
X158140476Y-74583333D02*
X158140476Y-74183333D01*
X158140476Y-74383333D02*
X158990476Y-74383333D01*
X158869047Y-74316666D01*
X158788095Y-74250000D01*
X158747619Y-74183333D01*
X157500000Y-70933333D02*
X157540476Y-70866666D01*
X157540476Y-70766666D01*
X157500000Y-70666666D01*
X157419047Y-70600000D01*
X157338095Y-70566666D01*
X157176190Y-70533333D01*
X157054761Y-70533333D01*
X156892857Y-70566666D01*
X156811904Y-70600000D01*
X156730952Y-70666666D01*
X156690476Y-70766666D01*
X156690476Y-70833333D01*
X156730952Y-70933333D01*
X156771428Y-70966666D01*
X157054761Y-70966666D01*
X157054761Y-70833333D01*
X157014285Y-71800000D02*
X157014285Y-72333333D01*
X156690476Y-72066666D02*
X157338095Y-72066666D01*
X157540476Y-73100000D02*
X157540476Y-73500000D01*
X156690476Y-73300000D02*
X157540476Y-73300000D01*
X156690476Y-74666666D02*
X157095238Y-74433333D01*
X156690476Y-74266666D02*
X157540476Y-74266666D01*
X157540476Y-74533333D01*
X157500000Y-74600000D01*
X157459523Y-74633333D01*
X157378571Y-74666666D01*
X157257142Y-74666666D01*
X157176190Y-74633333D01*
X157135714Y-74600000D01*
X157095238Y-74533333D01*
X157095238Y-74266666D01*
D10*
X191552380Y-98180952D02*
X190552380Y-98180952D01*
X190552380Y-97876190D01*
X190600000Y-97800000D01*
X190647619Y-97761904D01*
X190742857Y-97723809D01*
X190885714Y-97723809D01*
X190980952Y-97761904D01*
X191028571Y-97800000D01*
X191076190Y-97876190D01*
X191076190Y-98180952D01*
X191552380Y-97266666D02*
X191504761Y-97342857D01*
X191457142Y-97380952D01*
X191361904Y-97419047D01*
X191076190Y-97419047D01*
X190980952Y-97380952D01*
X190933333Y-97342857D01*
X190885714Y-97266666D01*
X190885714Y-97152380D01*
X190933333Y-97076190D01*
X190980952Y-97038095D01*
X191076190Y-97000000D01*
X191361904Y-97000000D01*
X191457142Y-97038095D01*
X191504761Y-97076190D01*
X191552380Y-97152380D01*
X191552380Y-97266666D01*
X190885714Y-96733333D02*
X191552380Y-96580952D01*
X191076190Y-96428571D01*
X191552380Y-96276190D01*
X190885714Y-96123809D01*
X191504761Y-95514285D02*
X191552380Y-95590476D01*
X191552380Y-95742857D01*
X191504761Y-95819047D01*
X191409523Y-95857142D01*
X191028571Y-95857142D01*
X190933333Y-95819047D01*
X190885714Y-95742857D01*
X190885714Y-95590476D01*
X190933333Y-95514285D01*
X191028571Y-95476190D01*
X191123809Y-95476190D01*
X191219047Y-95857142D01*
X191552380Y-95133333D02*
X190885714Y-95133333D01*
X191076190Y-95133333D02*
X190980952Y-95095238D01*
X190933333Y-95057142D01*
X190885714Y-94980952D01*
X190885714Y-94904761D01*
D12*
X160652380Y-95750000D02*
X161652380Y-95583333D01*
X160938095Y-95450000D01*
X161652380Y-95316666D01*
X160652380Y-95150000D01*
X161652380Y-94583333D02*
X161128571Y-94583333D01*
X161033333Y-94616666D01*
X160985714Y-94683333D01*
X160985714Y-94816666D01*
X161033333Y-94883333D01*
X161604761Y-94583333D02*
X161652380Y-94650000D01*
X161652380Y-94816666D01*
X161604761Y-94883333D01*
X161509523Y-94916666D01*
X161414285Y-94916666D01*
X161319047Y-94883333D01*
X161271428Y-94816666D01*
X161271428Y-94650000D01*
X161223809Y-94583333D01*
X161652380Y-94250000D02*
X160985714Y-94250000D01*
X161176190Y-94250000D02*
X161080952Y-94216666D01*
X161033333Y-94183333D01*
X160985714Y-94116666D01*
X160985714Y-94050000D01*
X160604761Y-93316666D02*
X161890476Y-93916666D01*
X161128571Y-93083333D02*
X161128571Y-92850000D01*
X161652380Y-92750000D02*
X161652380Y-93083333D01*
X160652380Y-93083333D01*
X160652380Y-92750000D01*
X161652380Y-92450000D02*
X160985714Y-92450000D01*
X161176190Y-92450000D02*
X161080952Y-92416666D01*
X161033333Y-92383333D01*
X160985714Y-92316666D01*
X160985714Y-92250000D01*
X161652380Y-92016666D02*
X160985714Y-92016666D01*
X161176190Y-92016666D02*
X161080952Y-91983333D01*
X161033333Y-91950000D01*
X160985714Y-91883333D01*
X160985714Y-91816666D01*
D10*
X159366666Y-95700000D02*
X159366666Y-95319047D01*
X159652380Y-95776190D02*
X158652380Y-95509523D01*
X159652380Y-95242857D01*
X159604761Y-94633333D02*
X159652380Y-94709523D01*
X159652380Y-94861904D01*
X159604761Y-94938095D01*
X159557142Y-94976190D01*
X159461904Y-95014285D01*
X159176190Y-95014285D01*
X159080952Y-94976190D01*
X159033333Y-94938095D01*
X158985714Y-94861904D01*
X158985714Y-94709523D01*
X159033333Y-94633333D01*
X158985714Y-94404761D02*
X158985714Y-94100000D01*
X158652380Y-94290476D02*
X159509523Y-94290476D01*
X159604761Y-94252380D01*
X159652380Y-94176190D01*
X159652380Y-94100000D01*
X159652380Y-93833333D02*
X158985714Y-93833333D01*
X158652380Y-93833333D02*
X158700000Y-93871428D01*
X158747619Y-93833333D01*
X158700000Y-93795238D01*
X158652380Y-93833333D01*
X158747619Y-93833333D01*
X158985714Y-93528571D02*
X159652380Y-93338095D01*
X158985714Y-93147619D01*
X159604761Y-92538095D02*
X159652380Y-92614285D01*
X159652380Y-92766666D01*
X159604761Y-92842857D01*
X159509523Y-92880952D01*
X159128571Y-92880952D01*
X159033333Y-92842857D01*
X158985714Y-92766666D01*
X158985714Y-92614285D01*
X159033333Y-92538095D01*
X159128571Y-92500000D01*
X159223809Y-92500000D01*
X159319047Y-92880952D01*
X157752380Y-95804761D02*
X156752380Y-95804761D01*
X157228571Y-95804761D02*
X157228571Y-95347619D01*
X157752380Y-95347619D02*
X156752380Y-95347619D01*
X157704761Y-94661904D02*
X157752380Y-94738095D01*
X157752380Y-94890476D01*
X157704761Y-94966666D01*
X157609523Y-95004761D01*
X157228571Y-95004761D01*
X157133333Y-94966666D01*
X157085714Y-94890476D01*
X157085714Y-94738095D01*
X157133333Y-94661904D01*
X157228571Y-94623809D01*
X157323809Y-94623809D01*
X157419047Y-95004761D01*
X157752380Y-93938095D02*
X157228571Y-93938095D01*
X157133333Y-93976190D01*
X157085714Y-94052380D01*
X157085714Y-94204761D01*
X157133333Y-94280952D01*
X157704761Y-93938095D02*
X157752380Y-94014285D01*
X157752380Y-94204761D01*
X157704761Y-94280952D01*
X157609523Y-94319047D01*
X157514285Y-94319047D01*
X157419047Y-94280952D01*
X157371428Y-94204761D01*
X157371428Y-94014285D01*
X157323809Y-93938095D01*
X157752380Y-93557142D02*
X157085714Y-93557142D01*
X157276190Y-93557142D02*
X157180952Y-93519047D01*
X157133333Y-93480952D01*
X157085714Y-93404761D01*
X157085714Y-93328571D01*
X157085714Y-93176190D02*
X157085714Y-92871428D01*
X156752380Y-93061904D02*
X157609523Y-93061904D01*
X157704761Y-93023809D01*
X157752380Y-92947619D01*
X157752380Y-92871428D01*
X157752380Y-92604761D02*
X156752380Y-92604761D01*
X157133333Y-92604761D02*
X157085714Y-92528571D01*
X157085714Y-92376190D01*
X157133333Y-92300000D01*
X157180952Y-92261904D01*
X157276190Y-92223809D01*
X157561904Y-92223809D01*
X157657142Y-92261904D01*
X157704761Y-92300000D01*
X157752380Y-92376190D01*
X157752380Y-92528571D01*
X157704761Y-92604761D01*
X157704761Y-91576190D02*
X157752380Y-91652380D01*
X157752380Y-91804761D01*
X157704761Y-91880952D01*
X157609523Y-91919047D01*
X157228571Y-91919047D01*
X157133333Y-91880952D01*
X157085714Y-91804761D01*
X157085714Y-91652380D01*
X157133333Y-91576190D01*
X157228571Y-91538095D01*
X157323809Y-91538095D01*
X157419047Y-91919047D01*
X157752380Y-90852380D02*
X157228571Y-90852380D01*
X157133333Y-90890476D01*
X157085714Y-90966666D01*
X157085714Y-91119047D01*
X157133333Y-91195238D01*
X157704761Y-90852380D02*
X157752380Y-90928571D01*
X157752380Y-91119047D01*
X157704761Y-91195238D01*
X157609523Y-91233333D01*
X157514285Y-91233333D01*
X157419047Y-91195238D01*
X157371428Y-91119047D01*
X157371428Y-90928571D01*
X157323809Y-90852380D01*
X157085714Y-90585714D02*
X157085714Y-90280952D01*
X156752380Y-90471428D02*
X157609523Y-90471428D01*
X157704761Y-90433333D01*
X157752380Y-90357142D01*
X157752380Y-90280952D01*
D14*
X153610000Y-75610000D02*
X154760000Y-75610000D01*
X154760000Y-75610000D02*
X154760000Y-74560000D01*
X154760000Y-74560000D02*
X155750000Y-74560000D01*
X153610000Y-69390000D02*
X154760000Y-69390000D01*
X154760000Y-69390000D02*
X154760000Y-70440000D01*
X151640000Y-74440000D02*
X151640000Y-70560000D01*
X155425000Y-80250000D02*
X156175000Y-80250000D01*
X156175000Y-80250000D02*
X156175000Y-80850000D01*
X156175000Y-79950000D02*
X156175000Y-77800000D01*
X156175000Y-86100000D02*
X152625000Y-86100000D01*
X152625000Y-77800000D02*
X152625000Y-80700000D01*
X156175000Y-77800000D02*
X152625000Y-77800000D01*
X152625000Y-86100000D02*
X152625000Y-83200000D01*
X156175000Y-83950000D02*
X156175000Y-86100000D01*
X176065000Y-51965000D02*
X177235000Y-51965000D01*
X179715000Y-51965000D02*
X180238000Y-51965000D01*
X181713000Y-51965000D02*
X182738000Y-51965000D01*
X184213000Y-51965000D02*
X185238000Y-51965000D01*
X186713000Y-51965000D02*
X187738000Y-51965000D01*
X189213000Y-51965000D02*
X190238000Y-51965000D01*
X176065000Y-57086000D02*
X177235000Y-57086000D01*
X179715000Y-57086000D02*
X180140000Y-57086000D01*
X181811000Y-57086000D02*
X182640000Y-57086000D01*
X184311000Y-57086000D02*
X185140000Y-57086000D01*
X186811000Y-57086000D02*
X187640000Y-57086000D01*
X189311000Y-57086000D02*
X190140000Y-57086000D01*
X176065000Y-51965000D02*
X176065000Y-57086000D01*
X191685000Y-54125000D02*
X191685000Y-55025000D01*
X176475000Y-53025000D02*
X177235000Y-53025000D01*
X176475000Y-54025000D02*
X177235000Y-54025000D01*
X176475000Y-53025000D02*
X176475000Y-54025000D01*
X179715000Y-53025000D02*
X179720000Y-53025000D01*
X179715000Y-54025000D02*
X180140000Y-54025000D01*
X181811000Y-54025000D02*
X182640000Y-54025000D01*
X184311000Y-54025000D02*
X185140000Y-54025000D01*
X186811000Y-54025000D02*
X187640000Y-54025000D01*
X189311000Y-54025000D02*
X190140000Y-54025000D01*
X175825000Y-55835000D02*
X175825000Y-57325000D01*
X175825000Y-57325000D02*
X177075000Y-57325000D01*
X189818730Y-56613617D02*
G75*
G02*
X189666000Y-56577000I156270J988617D01*
G01*
X189165611Y-55036302D02*
G75*
G02*
X190632000Y-54870000I809389J-588698D01*
G01*
X187318730Y-56613617D02*
G75*
G02*
X187166000Y-56577000I156270J988617D01*
G01*
X186665611Y-55036302D02*
G75*
G02*
X188132000Y-54870000I809389J-588698D01*
G01*
X184818730Y-56613617D02*
G75*
G02*
X184666000Y-56577000I156270J988617D01*
G01*
X184165611Y-55036302D02*
G75*
G02*
X185632000Y-54870000I809389J-588698D01*
G01*
X182318730Y-56613617D02*
G75*
G02*
X182166000Y-56577000I156270J988617D01*
G01*
X181665611Y-55036302D02*
G75*
G02*
X183132000Y-54870000I809389J-588698D01*
G01*
X179819288Y-56613343D02*
G75*
G02*
X179700000Y-56587000I155712J988343D01*
G01*
X179292811Y-54892680D02*
G75*
G02*
X180632000Y-54870000I682189J-732320D01*
G01*
X177250371Y-56599931D02*
G75*
G02*
X178157000Y-54893000I224629J974931D01*
G01*
X157440000Y-51990000D02*
X158610000Y-51990000D01*
X161090000Y-51990000D02*
X161613000Y-51990000D01*
X163088000Y-51990000D02*
X164113000Y-51990000D01*
X165588000Y-51990000D02*
X166613000Y-51990000D01*
X168088000Y-51990000D02*
X169113000Y-51990000D01*
X170588000Y-51990000D02*
X171613000Y-51990000D01*
X157440000Y-57111000D02*
X158610000Y-57111000D01*
X161090000Y-57111000D02*
X161515000Y-57111000D01*
X163186000Y-57111000D02*
X164015000Y-57111000D01*
X165686000Y-57111000D02*
X166515000Y-57111000D01*
X168186000Y-57111000D02*
X169015000Y-57111000D01*
X170686000Y-57111000D02*
X171515000Y-57111000D01*
X157440000Y-51990000D02*
X157440000Y-57111000D01*
X173060000Y-54150000D02*
X173060000Y-55050000D01*
X157850000Y-53050000D02*
X158610000Y-53050000D01*
X157850000Y-54050000D02*
X158610000Y-54050000D01*
X157850000Y-53050000D02*
X157850000Y-54050000D01*
X161090000Y-53050000D02*
X161095000Y-53050000D01*
X161090000Y-54050000D02*
X161515000Y-54050000D01*
X163186000Y-54050000D02*
X164015000Y-54050000D01*
X165686000Y-54050000D02*
X166515000Y-54050000D01*
X168186000Y-54050000D02*
X169015000Y-54050000D01*
X170686000Y-54050000D02*
X171515000Y-54050000D01*
X157200000Y-55860000D02*
X157200000Y-57350000D01*
X157200000Y-57350000D02*
X158450000Y-57350000D01*
X171193730Y-56638617D02*
G75*
G02*
X171041000Y-56602000I156270J988617D01*
G01*
X170540611Y-55061302D02*
G75*
G02*
X172007000Y-54895000I809389J-588698D01*
G01*
X168693730Y-56638617D02*
G75*
G02*
X168541000Y-56602000I156270J988617D01*
G01*
X168040611Y-55061302D02*
G75*
G02*
X169507000Y-54895000I809389J-588698D01*
G01*
X166193730Y-56638617D02*
G75*
G02*
X166041000Y-56602000I156270J988617D01*
G01*
X165540611Y-55061302D02*
G75*
G02*
X167007000Y-54895000I809389J-588698D01*
G01*
X163693730Y-56638617D02*
G75*
G02*
X163541000Y-56602000I156270J988617D01*
G01*
X163040611Y-55061302D02*
G75*
G02*
X164507000Y-54895000I809389J-588698D01*
G01*
X161194288Y-56638343D02*
G75*
G02*
X161075000Y-56612000I155712J988343D01*
G01*
X160667811Y-54917680D02*
G75*
G02*
X162007000Y-54895000I682189J-732320D01*
G01*
X158625371Y-56624931D02*
G75*
G02*
X159532000Y-54918000I224629J974931D01*
G01*
X185500000Y-91235000D02*
X187785000Y-91235000D01*
X187785000Y-91235000D02*
X187785000Y-89765000D01*
X187785000Y-89765000D02*
X185500000Y-89765000D01*
X183640000Y-86550000D02*
X183640000Y-88835000D01*
X183640000Y-88835000D02*
X185110000Y-88835000D01*
X185110000Y-88835000D02*
X185110000Y-86550000D01*
X177765000Y-86175000D02*
X177765000Y-88460000D01*
X177765000Y-88460000D02*
X179235000Y-88460000D01*
X179235000Y-88460000D02*
X179235000Y-86175000D01*
X154310000Y-89475000D02*
X154310000Y-87190000D01*
X154310000Y-87190000D02*
X152840000Y-87190000D01*
X152840000Y-87190000D02*
X152840000Y-89475000D01*
X156135000Y-89500000D02*
X156135000Y-87215000D01*
X156135000Y-87215000D02*
X154665000Y-87215000D01*
X154665000Y-87215000D02*
X154665000Y-89500000D01*
X163737221Y-78290000D02*
X164062779Y-78290000D01*
X163737221Y-79310000D02*
X164062779Y-79310000D01*
X199370000Y-69160000D02*
X192430000Y-69160000D01*
X192430000Y-69160000D02*
X192430000Y-85360000D01*
X192430000Y-85360000D02*
X199370000Y-85360000D01*
X199370000Y-85360000D02*
X199370000Y-69160000D01*
X195900000Y-76510000D02*
X195900000Y-78010000D01*
X193900000Y-78860000D02*
X193900000Y-75660000D01*
X197900000Y-75660000D02*
X197900000Y-78860000D01*
X162860000Y-88587221D02*
X162860000Y-88912779D01*
X161840000Y-88587221D02*
X161840000Y-88912779D01*
X174650000Y-99530000D02*
X174650000Y-96870000D01*
X166970000Y-99530000D02*
X174650000Y-99530000D01*
X166970000Y-96870000D02*
X174650000Y-96870000D01*
X166970000Y-99530000D02*
X166970000Y-96870000D01*
X165700000Y-99530000D02*
X164370000Y-99530000D01*
X164370000Y-99530000D02*
X164370000Y-98200000D01*
X157425000Y-84225000D02*
X158825000Y-84225000D01*
X158825000Y-84225000D02*
X158825000Y-85625000D01*
X158825000Y-85625000D02*
X157425000Y-85625000D01*
X157425000Y-85625000D02*
X157425000Y-84225000D01*
X157425000Y-86375000D02*
X158825000Y-86375000D01*
X158825000Y-86375000D02*
X158825000Y-87775000D01*
X158825000Y-87775000D02*
X157425000Y-87775000D01*
X157425000Y-87775000D02*
X157425000Y-86375000D01*
X193840000Y-67910000D02*
X193840000Y-66740000D01*
X193840000Y-64260000D02*
X193840000Y-63737000D01*
X193840000Y-62262000D02*
X193840000Y-61237000D01*
X193840000Y-59762000D02*
X193840000Y-58737000D01*
X198961000Y-67910000D02*
X198961000Y-66740000D01*
X198961000Y-64260000D02*
X198961000Y-63835000D01*
X198961000Y-62164000D02*
X198961000Y-61335000D01*
X198961000Y-59664000D02*
X198961000Y-58835000D01*
X193840000Y-67910000D02*
X198961000Y-67910000D01*
X196000000Y-57290000D02*
X196900000Y-57290000D01*
X194900000Y-67500000D02*
X194900000Y-66740000D01*
X195900000Y-67500000D02*
X195900000Y-66740000D01*
X194900000Y-67500000D02*
X195900000Y-67500000D01*
X194900000Y-64260000D02*
X194900000Y-64255000D01*
X195900000Y-64260000D02*
X195900000Y-63835000D01*
X195900000Y-62164000D02*
X195900000Y-61335000D01*
X195900000Y-59664000D02*
X195900000Y-58835000D01*
X197710000Y-68150000D02*
X199200000Y-68150000D01*
X199200000Y-68150000D02*
X199200000Y-66900000D01*
X198488617Y-59156270D02*
G75*
G02*
X198452000Y-59309000I-988617J156270D01*
G01*
X196911302Y-59809389D02*
G75*
G02*
X196745000Y-58343000I588698J809389D01*
G01*
X198488617Y-61656270D02*
G75*
G02*
X198452000Y-61809000I-988617J156270D01*
G01*
X196911302Y-62309389D02*
G75*
G02*
X196745000Y-60843000I588698J809389D01*
G01*
X198488343Y-64155712D02*
G75*
G02*
X198462000Y-64275000I-988343J155712D01*
G01*
X196767680Y-64682189D02*
G75*
G02*
X196745000Y-63343000I732320J682189D01*
G01*
X198474931Y-66724629D02*
G75*
G02*
X196768000Y-65818000I-974931J224629D01*
G01*
X187650000Y-94100000D02*
X187550000Y-94100000D01*
X189150000Y-98500000D02*
X189150000Y-94100000D01*
X186050000Y-94100000D02*
X186050000Y-98500000D01*
X187650000Y-98500000D02*
X187550000Y-98500000D01*
D15*
X156336421Y-65120000D02*
G75*
G03*
X156336421Y-65120000I-141421J0D01*
G01*
D14*
X188790000Y-64562779D02*
X188790000Y-64237221D01*
X189810000Y-64562779D02*
X189810000Y-64237221D01*
X182175000Y-63010000D02*
X183975000Y-63010000D01*
X183975000Y-59790000D02*
X181525000Y-59790000D01*
X173675000Y-63110000D02*
X175475000Y-63110000D01*
X175475000Y-59890000D02*
X173025000Y-59890000D01*
D15*
X182925000Y-71875000D02*
X182975000Y-71875000D01*
X182925000Y-67725000D02*
X183070000Y-67725000D01*
X188075000Y-67725000D02*
X187930000Y-67725000D01*
X188075000Y-71875000D02*
X187930000Y-71875000D01*
X182925000Y-71875000D02*
X182925000Y-67725000D01*
X188075000Y-71875000D02*
X188075000Y-67725000D01*
X182975000Y-71875000D02*
X182975000Y-73275000D01*
D14*
X158900000Y-81210000D02*
X160700000Y-81210000D01*
X160700000Y-77990000D02*
X158250000Y-77990000D01*
D15*
X168975000Y-74525000D02*
X169100000Y-74525000D01*
X168975000Y-71275000D02*
X169200000Y-71275000D01*
X172225000Y-71275000D02*
X172000000Y-71275000D01*
X172225000Y-74525000D02*
X172000000Y-74525000D01*
X168975000Y-74525000D02*
X168975000Y-71275000D01*
X172225000Y-74525000D02*
X172225000Y-71275000D01*
X169100000Y-74525000D02*
X169100000Y-75600000D01*
D14*
X187790000Y-81700000D02*
X187790000Y-83500000D01*
X191010000Y-83500000D02*
X191010000Y-81050000D01*
D15*
X173025000Y-71875000D02*
X173075000Y-71875000D01*
X173025000Y-67725000D02*
X173170000Y-67725000D01*
X178175000Y-67725000D02*
X178030000Y-67725000D01*
X178175000Y-71875000D02*
X178030000Y-71875000D01*
X173025000Y-71875000D02*
X173025000Y-67725000D01*
X178175000Y-71875000D02*
X178175000Y-67725000D01*
X173075000Y-71875000D02*
X173075000Y-73275000D01*
D14*
X190460000Y-74247936D02*
X190460000Y-75452064D01*
X188640000Y-74247936D02*
X188640000Y-75452064D01*
X186985000Y-61291422D02*
X186985000Y-61808578D01*
X185565000Y-61291422D02*
X185565000Y-61808578D01*
X178685000Y-60941422D02*
X178685000Y-61458578D01*
X177265000Y-60941422D02*
X177265000Y-61458578D01*
X190850000Y-87000000D02*
X188250000Y-87000000D01*
X190850000Y-90200000D02*
X189150000Y-90200000D01*
X196840000Y-86690000D02*
X195690000Y-86690000D01*
X195690000Y-86690000D02*
X195690000Y-87740000D01*
X195690000Y-87740000D02*
X194700000Y-87740000D01*
X196840000Y-92910000D02*
X195690000Y-92910000D01*
X195690000Y-92910000D02*
X195690000Y-91860000D01*
X198810000Y-87860000D02*
X198810000Y-91740000D01*
D15*
X161675000Y-69875000D02*
X161675000Y-71575000D01*
X159975000Y-71525000D02*
X159975000Y-69925000D01*
X161675000Y-69875000D02*
X161625000Y-69875000D01*
X159975000Y-71575000D02*
X160025000Y-71575000D01*
X161675000Y-71575000D02*
X161625000Y-71575000D01*
X159975000Y-69875000D02*
X160025000Y-69875000D01*
X161849868Y-70075000D02*
G75*
G03*
X161849868Y-70075000I-94868J0D01*
G01*
D14*
X166660000Y-62397936D02*
X166660000Y-63602064D01*
X164840000Y-62397936D02*
X164840000Y-63602064D01*
X191895000Y-96020000D02*
X191895000Y-98305000D01*
X191895000Y-98305000D02*
X193365000Y-98305000D01*
X193365000Y-98305000D02*
X193365000Y-96020000D01*
X159920000Y-76260000D02*
X160850000Y-76260000D01*
X163080000Y-76260000D02*
X162150000Y-76260000D01*
X163080000Y-76260000D02*
X163080000Y-74100000D01*
X159920000Y-76260000D02*
X159920000Y-74800000D01*
X157283578Y-60260000D02*
X156766422Y-60260000D01*
X157283578Y-58840000D02*
X156766422Y-58840000D01*
X153465000Y-61483578D02*
X153465000Y-60966422D01*
X154885000Y-61483578D02*
X154885000Y-60966422D01*
X154860000Y-64566422D02*
X154860000Y-65083578D01*
X153440000Y-64566422D02*
X153440000Y-65083578D01*
X189810000Y-67437221D02*
X189810000Y-67762779D01*
X188790000Y-67437221D02*
X188790000Y-67762779D01*
X180037221Y-67690000D02*
X180362779Y-67690000D01*
X180037221Y-68710000D02*
X180362779Y-68710000D01*
X178990000Y-65762779D02*
X178990000Y-65437221D01*
X180010000Y-65762779D02*
X180010000Y-65437221D01*
X179690000Y-75290000D02*
X179690000Y-77640000D01*
X179690000Y-82110000D02*
X179690000Y-79760000D01*
X185445563Y-82110000D02*
X179690000Y-82110000D01*
X185445563Y-75290000D02*
X179690000Y-75290000D01*
X186510000Y-76354437D02*
X186510000Y-77640000D01*
X186510000Y-81045563D02*
X186510000Y-79760000D01*
X186510000Y-81045563D02*
X185445563Y-82110000D01*
X186510000Y-76354437D02*
X185445563Y-75290000D01*
X187537500Y-80547500D02*
X186750000Y-80547500D01*
X187143750Y-80941250D02*
X187143750Y-80153750D01*
X182250000Y-94100000D02*
X182150000Y-94100000D01*
X183750000Y-98500000D02*
X183750000Y-94100000D01*
X180650000Y-94100000D02*
X180650000Y-98500000D01*
X182250000Y-98500000D02*
X182150000Y-98500000D01*
X159900000Y-85800000D02*
X159900000Y-85000000D01*
X162300000Y-85800000D02*
X160300000Y-85800000D01*
X162300000Y-85000000D02*
X162300000Y-85800000D01*
X162300000Y-82200000D02*
X162300000Y-83200000D01*
X160300000Y-82200000D02*
X162300000Y-82200000D01*
X159900000Y-83200000D02*
X159900000Y-82200000D01*
X159900000Y-83200000D02*
X159500000Y-83200000D01*
X162300000Y-82000000D02*
X160300000Y-82000000D01*
X160300000Y-85800000D02*
X159900000Y-85800000D01*
X160300000Y-82200000D02*
X159900000Y-82200000D01*
X160300000Y-82000000D02*
X159900000Y-82000000D01*
X174560000Y-93110000D02*
X175510000Y-93110000D01*
X175510000Y-93110000D02*
X175510000Y-92160000D01*
X166240000Y-93110000D02*
X165290000Y-93110000D01*
X165290000Y-93110000D02*
X165290000Y-92160000D01*
X174560000Y-82890000D02*
X175510000Y-82890000D01*
X175510000Y-82890000D02*
X175510000Y-83840000D01*
X166240000Y-82890000D02*
X165290000Y-82890000D01*
X165290000Y-82890000D02*
X165290000Y-83840000D01*
X165290000Y-83840000D02*
X163950000Y-83840000D01*
X180030000Y-85195000D02*
X180665000Y-85195000D01*
X180030000Y-85830000D02*
X180030000Y-85195000D01*
X161735000Y-98400000D02*
X161735000Y-96115000D01*
X161735000Y-96115000D02*
X160265000Y-96115000D01*
X160265000Y-96115000D02*
X160265000Y-98400000D01*
X159835000Y-98400000D02*
X159835000Y-96115000D01*
X159835000Y-96115000D02*
X158365000Y-96115000D01*
X158365000Y-96115000D02*
X158365000Y-98400000D01*
X157935000Y-98400000D02*
X157935000Y-96115000D01*
X157935000Y-96115000D02*
X156465000Y-96115000D01*
X156465000Y-96115000D02*
X156465000Y-98400000D01*
D15*
X156652380Y-82283333D02*
X157366666Y-82283333D01*
X157509523Y-82330952D01*
X157604761Y-82426190D01*
X157652380Y-82569047D01*
X157652380Y-82664285D01*
X156652380Y-81902380D02*
X156652380Y-81283333D01*
X157033333Y-81616666D01*
X157033333Y-81473809D01*
X157080952Y-81378571D01*
X157128571Y-81330952D01*
X157223809Y-81283333D01*
X157461904Y-81283333D01*
X157557142Y-81330952D01*
X157604761Y-81378571D01*
X157652380Y-81473809D01*
X157652380Y-81759523D01*
X157604761Y-81854761D01*
X157557142Y-81902380D01*
X183541666Y-50417380D02*
X183541666Y-51131666D01*
X183494047Y-51274523D01*
X183398809Y-51369761D01*
X183255952Y-51417380D01*
X183160714Y-51417380D01*
X184494047Y-50417380D02*
X184017857Y-50417380D01*
X183970238Y-50893571D01*
X184017857Y-50845952D01*
X184113095Y-50798333D01*
X184351190Y-50798333D01*
X184446428Y-50845952D01*
X184494047Y-50893571D01*
X184541666Y-50988809D01*
X184541666Y-51226904D01*
X184494047Y-51322142D01*
X184446428Y-51369761D01*
X184351190Y-51417380D01*
X184113095Y-51417380D01*
X184017857Y-51369761D01*
X183970238Y-51322142D01*
X164916666Y-50442380D02*
X164916666Y-51156666D01*
X164869047Y-51299523D01*
X164773809Y-51394761D01*
X164630952Y-51442380D01*
X164535714Y-51442380D01*
X165821428Y-50775714D02*
X165821428Y-51442380D01*
X165583333Y-50394761D02*
X165345238Y-51109047D01*
X165964285Y-51109047D01*
X177607142Y-62542857D02*
X177654761Y-62590476D01*
X177702380Y-62733333D01*
X177702380Y-62828571D01*
X177654761Y-62971428D01*
X177559523Y-63066666D01*
X177464285Y-63114285D01*
X177273809Y-63161904D01*
X177130952Y-63161904D01*
X176940476Y-63114285D01*
X176845238Y-63066666D01*
X176750000Y-62971428D01*
X176702380Y-62828571D01*
X176702380Y-62733333D01*
X176750000Y-62590476D01*
X176797619Y-62542857D01*
X176702380Y-62209523D02*
X176702380Y-61590476D01*
X177083333Y-61923809D01*
X177083333Y-61780952D01*
X177130952Y-61685714D01*
X177178571Y-61638095D01*
X177273809Y-61590476D01*
X177511904Y-61590476D01*
X177607142Y-61638095D01*
X177654761Y-61685714D01*
X177702380Y-61780952D01*
X177702380Y-62066666D01*
X177654761Y-62161904D01*
X177607142Y-62209523D01*
X177702380Y-60638095D02*
X177702380Y-61209523D01*
X177702380Y-60923809D02*
X176702380Y-60923809D01*
X176845238Y-61019047D01*
X176940476Y-61114285D01*
X176988095Y-61209523D01*
X162822380Y-98533333D02*
X163536666Y-98533333D01*
X163679523Y-98580952D01*
X163774761Y-98676190D01*
X163822380Y-98819047D01*
X163822380Y-98914285D01*
X163822380Y-97533333D02*
X163822380Y-98104761D01*
X163822380Y-97819047D02*
X162822380Y-97819047D01*
X162965238Y-97914285D01*
X163060476Y-98009523D01*
X163108095Y-98104761D01*
D11*
X157319047Y-85726190D02*
X157604761Y-85726190D01*
X157461904Y-86226190D02*
X157461904Y-85726190D01*
X157771428Y-86226190D02*
X157771428Y-85726190D01*
X157961904Y-85726190D01*
X158009523Y-85750000D01*
X158033333Y-85773809D01*
X158057142Y-85821428D01*
X158057142Y-85892857D01*
X158033333Y-85940476D01*
X158009523Y-85964285D01*
X157961904Y-85988095D01*
X157771428Y-85988095D01*
X158223809Y-85726190D02*
X158557142Y-85726190D01*
X158342857Y-86226190D01*
X156469047Y-87826190D02*
X156754761Y-87826190D01*
X156611904Y-88326190D02*
X156611904Y-87826190D01*
X156921428Y-88326190D02*
X156921428Y-87826190D01*
X157111904Y-87826190D01*
X157159523Y-87850000D01*
X157183333Y-87873809D01*
X157207142Y-87921428D01*
X157207142Y-87992857D01*
X157183333Y-88040476D01*
X157159523Y-88064285D01*
X157111904Y-88088095D01*
X156921428Y-88088095D01*
X157659523Y-87826190D02*
X157421428Y-87826190D01*
X157397619Y-88064285D01*
X157421428Y-88040476D01*
X157469047Y-88016666D01*
X157588095Y-88016666D01*
X157635714Y-88040476D01*
X157659523Y-88064285D01*
X157683333Y-88111904D01*
X157683333Y-88230952D01*
X157659523Y-88278571D01*
X157635714Y-88302380D01*
X157588095Y-88326190D01*
X157469047Y-88326190D01*
X157421428Y-88302380D01*
X157397619Y-88278571D01*
M02*
