M48
; DRILL file {KiCad 5.1.6-c6e7f7d~87~ubuntu18.04.1} date Sun Aug  9 22:42:59 2020
; FORMAT={-:-/ absolute / metric / decimal}
; #@! TF.CreationDate,2020-08-09T22:42:59+01:00
; #@! TF.GenerationSoftware,Kicad,Pcbnew,5.1.6-c6e7f7d~87~ubuntu18.04.1
; #@! TF.FileFunction,Plated,1,4,PTH
FMAT,2
METRIC
T1C0.300
T2C0.330
T3C0.400
T4C0.500
T5C1.000
T6C1.200
T7C1.780
T8C2.200
%
G90
G05
T1
X151.7Y-94.325
X151.9Y-88.6
X151.925Y-71.2
X152.35Y-68.25
X152.7Y-62.65
X152.7Y-63.25
X152.7Y-63.85
X152.7Y-94.325
X152.734Y-72.353
X152.85Y-55.85
X152.85Y-56.85
X152.9Y-75.6
X152.9Y-76.6
X152.9Y-77.6
X153.7Y-84.0
X153.7Y-94.325
X153.85Y-55.85
X153.85Y-56.85
X153.85Y-87.575
X153.9Y-75.6
X153.9Y-76.6
X153.9Y-77.6
X154.05Y-66.8
X154.15Y-65.0
X154.162Y-63.012
X154.225Y-60.8
X154.25Y-86.125
X154.525Y-58.975
X154.525Y-59.55
X154.525Y-60.2
X154.7Y-91.325
X154.7Y-92.325
X154.7Y-93.325
X154.7Y-94.325
X154.7Y-94.325
X154.85Y-55.85
X154.85Y-56.85
X154.875Y-60.8
X154.9Y-75.6
X154.9Y-76.6
X154.9Y-77.6
X154.975Y-73.0
X155.0Y-64.7
X155.175Y-58.975
X155.175Y-59.55
X155.175Y-60.2
X155.25Y-86.125
X155.35Y-65.3
X155.525Y-60.82
X155.55Y-68.05
X155.7Y-91.325
X155.7Y-92.325
X155.7Y-93.325
X155.7Y-94.325
X155.7Y-95.325
X155.7Y-96.325
X155.7Y-97.325
X155.7Y-98.325
X155.85Y-51.85
X155.85Y-52.85
X155.85Y-53.85
X155.85Y-54.85
X155.85Y-55.85
X155.85Y-56.85
X155.9Y-75.6
X155.9Y-76.6
X155.9Y-77.6
X156.042Y-65.45
X156.175Y-60.8
X156.25Y-86.125
X156.7Y-88.775
X156.7Y-89.775
X156.8Y-84.125
X156.825Y-60.8
X156.925Y-75.375
X157.65Y-65.9
X157.65Y-66.9
X157.65Y-67.9
X157.65Y-68.9
X157.65Y-69.9
X158.0Y-88.75
X158.025Y-65.32
X158.425Y-76.275
X158.5Y-79.575
X158.805Y-61.12
X159.0Y-73.95
X159.025Y-83.414
X159.05Y-82.25
X159.1Y-77.0
X159.425Y-86.3
X159.59Y-70.723
X159.6Y-75.625
X159.75Y-69.5
X159.793Y-71.877
X159.8Y-90.7
X160.1Y-72.45
X160.4Y-60.975
X160.415Y-89.785
X160.545Y-69.505
X161.113Y-69.001
X161.425Y-78.0
X161.706Y-88.606
X161.9Y-92.4
X161.925Y-69.625
X162.225Y-71.375
X162.3Y-73.1
X162.4Y-79.9
X163.4Y-77.55
X163.4Y-87.5
X163.5Y-91.075
X163.592Y-89.65
X163.66Y-84.796
X163.925Y-62.85
X164.15Y-66.8
X164.995Y-65.608
X165.1Y-72.3
X165.594Y-65.009
X165.6Y-94.05
X165.678Y-96.73
X165.75Y-63.5
X165.85Y-90.775
X166.1Y-89.2
X166.375Y-86.1
X166.4Y-58.65
X166.45Y-87.55
X166.5Y-89.9
X166.8Y-88.6
X167.0Y-92.25
X167.425Y-80.257
X167.6Y-78.122
X167.65Y-85.3
X167.65Y-86.3
X167.9Y-84.0
X168.15Y-80.5
X168.65Y-85.3
X168.65Y-86.3
X168.8Y-96.45
X168.85Y-58.35
X168.913Y-80.778
X169.515Y-66.685
X169.55Y-80.488
X169.65Y-71.95
X169.65Y-72.95
X169.65Y-84.3
X169.65Y-85.3
X169.65Y-86.3
X169.65Y-87.8
X170.4Y-68.5
X170.65Y-71.95
X170.65Y-72.95
X170.65Y-84.3
X170.65Y-85.3
X170.65Y-86.3
X170.65Y-87.8
X170.9Y-64.3
X171.331Y-94.959
X171.383Y-57.534
X171.5Y-92.35
X171.65Y-67.95
X171.65Y-68.95
X171.65Y-69.95
X171.65Y-71.95
X171.65Y-72.95
X171.65Y-73.95
X171.65Y-85.3
X171.65Y-86.3
X171.65Y-87.8
X171.65Y-88.8
X171.65Y-89.8
X171.727Y-96.227
X171.75Y-77.15
X172.262Y-76.523
X172.575Y-61.6
X172.589Y-60.9
X172.65Y-67.95
X172.65Y-68.95
X172.65Y-69.95
X172.65Y-70.95
X172.65Y-71.95
X172.65Y-72.95
X172.65Y-73.95
X173.0Y-64.1
X173.0Y-64.8
X173.7Y-64.1
X173.7Y-64.8
X173.7Y-96.3
X173.875Y-63.0
X174.024Y-85.898
X174.15Y-87.6
X174.186Y-83.925
X174.715Y-86.33
X174.738Y-87.113
X174.779Y-82.38
X174.95Y-58.1
X175.0Y-74.4
X175.0Y-89.3
X175.15Y-93.85
X175.5Y-75.6
X175.8Y-96.05
X176.541Y-60.7
X177.165Y-90.187
X177.2Y-77.9
X177.2Y-78.6
X177.2Y-79.4
X177.375Y-85.875
X177.504Y-89.51
X177.65Y-59.75
X177.675Y-59.075
X177.9Y-77.9
X177.9Y-78.6
X177.9Y-79.4
X177.912Y-87.25
X178.1Y-65.5
X178.1Y-66.2
X178.1Y-66.9
X178.21Y-89.438
X178.3Y-59.05
X178.3Y-59.75
X179.05Y-69.5
X179.05Y-70.5
X179.05Y-71.5
X179.05Y-72.5
X179.35Y-59.75
X179.55Y-88.425
X179.625Y-86.25
X179.725Y-83.1
X179.967Y-85.057
X180.05Y-69.5
X180.05Y-70.5
X180.05Y-71.5
X180.05Y-72.5
X180.058Y-87.324
X180.15Y-80.1
X180.15Y-81.1
X180.2Y-64.4
X180.275Y-63.0
X181.05Y-69.5
X181.05Y-70.5
X181.05Y-71.5
X181.05Y-72.5
X181.15Y-80.1
X181.15Y-81.1
X181.892Y-83.823
X182.05Y-69.5
X182.05Y-70.5
X182.05Y-71.5
X182.05Y-72.5
X182.15Y-80.1
X182.15Y-81.1
X182.65Y-86.75
X182.7Y-85.856
X182.775Y-88.35
X182.9Y-63.9
X182.9Y-64.6
X183.15Y-80.1
X183.15Y-81.1
X183.151Y-59.775
X183.6Y-63.9
X183.6Y-64.6
X183.745Y-60.145
X183.8Y-94.2
X183.85Y-84.925
X184.3Y-91.25
X185.5Y-75.2
X185.7Y-87.0
X185.975Y-59.375
X185.975Y-59.925
X186.0Y-74.3
X186.3Y-91.7
X186.425Y-89.725
X186.525Y-59.375
X186.525Y-59.925
X187.2Y-88.8
X187.75Y-76.8
X188.05Y-74.1
X188.05Y-78.05
X188.05Y-78.75
X188.05Y-79.5
X188.1Y-64.9
X188.125Y-65.5
X188.125Y-66.2
X188.125Y-66.925
X188.21Y-84.585
X188.75Y-70.1
X188.75Y-70.9
X188.75Y-71.7
X188.75Y-78.05
X188.75Y-78.75
X188.75Y-79.5
X189.0Y-84.7
X189.401Y-78.049
X189.45Y-78.7
X189.45Y-79.45
X189.485Y-92.235
X189.55Y-70.1
X189.55Y-70.9
X189.55Y-71.7
X189.575Y-59.275
X189.73Y-82.025
X190.35Y-70.1
X190.35Y-70.9
X190.35Y-71.7
X190.373Y-80.815
X190.4Y-82.95
X192.1Y-88.6
X192.15Y-74.2
X192.15Y-84.45
X192.15Y-85.45
X192.2Y-93.7
X192.3Y-66.9
X192.3Y-67.65
X192.3Y-68.4
X192.3Y-69.15
X192.3Y-69.9
X192.7Y-51.85
X192.7Y-52.85
X192.7Y-53.85
X192.7Y-54.85
X192.7Y-55.85
X192.7Y-56.85
X192.7Y-57.85
X193.05Y-66.9
X193.05Y-67.65
X193.05Y-68.45
X193.05Y-69.15
X193.05Y-69.9
X193.15Y-84.45
X193.15Y-85.45
X193.35Y-74.35
X193.7Y-51.85
X193.7Y-52.85
X193.7Y-53.85
X193.7Y-54.85
X193.7Y-55.85
X193.7Y-56.85
X194.1Y-74.35
X194.15Y-84.45
X194.15Y-85.45
X194.15Y-94.1
X194.15Y-95.1
X194.15Y-96.1
X194.15Y-97.1
X194.15Y-98.1
X194.7Y-54.85
X194.7Y-55.85
X194.8Y-74.35
X195.15Y-84.45
X195.15Y-85.45
X195.15Y-94.1
X195.55Y-74.35
X195.7Y-55.85
X196.15Y-84.45
X196.15Y-85.45
X196.15Y-94.1
X196.3Y-74.35
X196.7Y-55.85
X197.05Y-74.35
X197.15Y-84.45
X197.15Y-85.45
X197.15Y-94.1
X197.7Y-55.85
X197.8Y-74.35
X198.15Y-84.45
X198.15Y-85.45
X198.15Y-94.1
X198.7Y-55.85
T2
X184.2Y-69.15
X184.2Y-70.45
X185.5Y-69.15
X185.5Y-70.45
X186.8Y-69.15
X186.8Y-70.45
X174.3Y-69.15
X174.3Y-70.45
X175.6Y-69.15
X175.6Y-70.45
X176.9Y-69.15
X176.9Y-70.45
T3
X195.35Y-97.0
X195.833Y-95.833
X195.833Y-98.167
X197.0Y-95.35
X197.0Y-98.65
X198.167Y-95.833
X198.167Y-98.167
X198.65Y-97.0
X151.35Y-97.0
X151.833Y-95.833
X151.833Y-98.167
X153.0Y-95.35
X153.0Y-98.65
X154.167Y-95.833
X154.167Y-98.167
X154.65Y-97.0
X151.35Y-53.0
X151.833Y-51.833
X151.833Y-54.167
X153.0Y-51.35
X153.0Y-54.65
X154.167Y-51.833
X154.167Y-54.167
X154.65Y-53.0
X195.35Y-53.0
X195.833Y-51.833
X195.833Y-54.167
X197.0Y-51.35
X197.0Y-54.65
X198.167Y-51.833
X198.167Y-54.167
X198.65Y-53.0
T4
X169.7Y-89.5
X173.15Y-79.2
X158.125Y-84.925
X186.825Y-84.925
X158.125Y-87.075
X179.5Y-74.3
X171.9Y-66.1
X177.3Y-80.9
X163.8Y-69.775
X175.7Y-77.2
X163.75Y-72.925
X170.65Y-78.4
X190.1Y-86.0
X181.6Y-74.3
X175.15Y-80.25
X173.6Y-77.2
X167.65Y-89.55
T5
X165.7Y-98.2
X168.24Y-98.2
X170.78Y-98.2
X173.32Y-98.2
T6
X178.475Y-53.025
X178.475Y-56.125
X180.975Y-53.025
X180.975Y-56.125
X183.475Y-53.025
X183.475Y-56.125
X185.975Y-53.025
X185.975Y-56.125
X188.475Y-53.025
X188.475Y-56.125
X190.975Y-53.025
X190.975Y-56.125
X159.85Y-53.05
X159.85Y-56.15
X162.35Y-53.05
X162.35Y-56.15
X164.85Y-53.05
X164.85Y-56.15
X167.35Y-53.05
X167.35Y-56.15
X169.85Y-53.05
X169.85Y-56.15
X172.35Y-53.05
X172.35Y-56.15
X194.9Y-58.0
X194.9Y-60.5
X194.9Y-63.0
X194.9Y-65.5
X198.0Y-58.0
X198.0Y-60.5
X198.0Y-63.0
X198.0Y-65.5
T7
X194.2Y-72.3
X194.2Y-82.22
X197.6Y-72.3
X197.6Y-82.22
T8
X153.0Y-53.0
X197.0Y-53.0
X197.0Y-97.0
X153.0Y-97.0
T4
G00X153.275Y-81.4
M15
G01X153.275Y-82.5
M16
G05
G00X155.425Y-78.8
M15
G01X155.425Y-79.5
M16
G05
G00X155.425Y-84.4
M15
G01X155.425Y-85.1
M16
G05
T0
M30
