G04 #@! TF.GenerationSoftware,KiCad,Pcbnew,5.1.6-c6e7f7d~87~ubuntu18.04.1*
G04 #@! TF.CreationDate,2020-08-09T22:43:26+01:00*
G04 #@! TF.ProjectId,simpleboard,73696d70-6c65-4626-9f61-72642e6b6963,rev?*
G04 #@! TF.SameCoordinates,Original*
G04 #@! TF.FileFunction,Paste,Bot*
G04 #@! TF.FilePolarity,Positive*
%FSLAX46Y46*%
G04 Gerber Fmt 4.6, Leading zero omitted, Abs format (unit mm)*
G04 Created by KiCad (PCBNEW 5.1.6-c6e7f7d~87~ubuntu18.04.1) date 2020-08-09 22:43:26*
%MOMM*%
%LPD*%
G01*
G04 APERTURE LIST*
%ADD10C,1.000000*%
%ADD11R,0.600000X0.900000*%
%ADD12R,0.900000X0.600000*%
%ADD13R,1.050000X0.600000*%
G04 APERTURE END LIST*
G36*
G01*
X184750000Y-79350001D02*
X184750000Y-78049999D01*
G75*
G02*
X184999999Y-77800000I249999J0D01*
G01*
X185700001Y-77800000D01*
G75*
G02*
X185950000Y-78049999I0J-249999D01*
G01*
X185950000Y-79350001D01*
G75*
G02*
X185700001Y-79600000I-249999J0D01*
G01*
X184999999Y-79600000D01*
G75*
G02*
X184750000Y-79350001I0J249999D01*
G01*
G37*
G36*
G01*
X179150000Y-79350001D02*
X179150000Y-78049999D01*
G75*
G02*
X179399999Y-77800000I249999J0D01*
G01*
X180100001Y-77800000D01*
G75*
G02*
X180350000Y-78049999I0J-249999D01*
G01*
X180350000Y-79350001D01*
G75*
G02*
X180100001Y-79600000I-249999J0D01*
G01*
X179399999Y-79600000D01*
G75*
G02*
X179150000Y-79350001I0J249999D01*
G01*
G37*
G36*
G01*
X183750000Y-83200000D02*
X183750000Y-81950000D01*
G75*
G02*
X183900000Y-81800000I150000J0D01*
G01*
X184200000Y-81800000D01*
G75*
G02*
X184350000Y-81950000I0J-150000D01*
G01*
X184350000Y-83200000D01*
G75*
G02*
X184200000Y-83350000I-150000J0D01*
G01*
X183900000Y-83350000D01*
G75*
G02*
X183750000Y-83200000I0J150000D01*
G01*
G37*
G36*
G01*
X182750000Y-83200000D02*
X182750000Y-81950000D01*
G75*
G02*
X182900000Y-81800000I150000J0D01*
G01*
X183200000Y-81800000D01*
G75*
G02*
X183350000Y-81950000I0J-150000D01*
G01*
X183350000Y-83200000D01*
G75*
G02*
X183200000Y-83350000I-150000J0D01*
G01*
X182900000Y-83350000D01*
G75*
G02*
X182750000Y-83200000I0J150000D01*
G01*
G37*
G36*
G01*
X181750000Y-83200000D02*
X181750000Y-81950000D01*
G75*
G02*
X181900000Y-81800000I150000J0D01*
G01*
X182200000Y-81800000D01*
G75*
G02*
X182350000Y-81950000I0J-150000D01*
G01*
X182350000Y-83200000D01*
G75*
G02*
X182200000Y-83350000I-150000J0D01*
G01*
X181900000Y-83350000D01*
G75*
G02*
X181750000Y-83200000I0J150000D01*
G01*
G37*
G36*
G01*
X180750000Y-83200000D02*
X180750000Y-81950000D01*
G75*
G02*
X180900000Y-81800000I150000J0D01*
G01*
X181200000Y-81800000D01*
G75*
G02*
X181350000Y-81950000I0J-150000D01*
G01*
X181350000Y-83200000D01*
G75*
G02*
X181200000Y-83350000I-150000J0D01*
G01*
X180900000Y-83350000D01*
G75*
G02*
X180750000Y-83200000I0J150000D01*
G01*
G37*
D10*
X189175000Y-91100000D03*
D11*
X195050000Y-77350000D03*
D12*
X197750000Y-76750000D03*
D13*
X192030000Y-75440000D03*
X192030000Y-76710000D03*
X192030000Y-79260000D03*
X192030000Y-77990000D03*
D12*
X197750000Y-77950000D03*
X197750000Y-75470000D03*
X197750000Y-79230000D03*
D11*
X194200000Y-77350000D03*
X195900000Y-77350000D03*
X195900000Y-76200000D03*
X194200000Y-76200000D03*
X195050000Y-76200000D03*
X195900000Y-78500000D03*
X194200000Y-78500000D03*
X195050000Y-78500000D03*
M02*
